G04 #@! TF.GenerationSoftware,KiCad,Pcbnew,5.0.0*
G04 #@! TF.CreationDate,2018-10-21T13:37:26+10:00*
G04 #@! TF.ProjectId,driver,6472697665722E6B696361645F706362,rev?*
G04 #@! TF.SameCoordinates,Original*
G04 #@! TF.FileFunction,Paste,Bot*
G04 #@! TF.FilePolarity,Positive*
%FSLAX46Y46*%
G04 Gerber Fmt 4.6, Leading zero omitted, Abs format (unit mm)*
G04 Created by KiCad (PCBNEW 5.0.0) date Sun Oct 21 13:37:26 2018*
%MOMM*%
%LPD*%
G01*
G04 APERTURE LIST*
%ADD10C,0.100000*%
%ADD11C,0.150000*%
%ADD12C,0.300000*%
%ADD13C,0.400000*%
%ADD14C,1.150000*%
G04 APERTURE END LIST*
D10*
D11*
X177002200Y-166007200D02*
X177002200Y-198007200D01*
X285002200Y-198007200D01*
X285002200Y-166007200D01*
X177002200Y-166007200D01*
D10*
D11*
X10000000Y-10000000D02*
X10000000Y-200007200D01*
X287002200Y-200007200D01*
X287002200Y-10000000D01*
X10000000Y-10000000D01*
D10*
D11*
X12000000Y-12000000D02*
X12000000Y-198007200D01*
X285002200Y-198007200D01*
X285002200Y-12000000D01*
X12000000Y-12000000D01*
D10*
D11*
X60000000Y-12000000D02*
X60000000Y-10000000D01*
D10*
D11*
X110000000Y-12000000D02*
X110000000Y-10000000D01*
D10*
D11*
X160000000Y-12000000D02*
X160000000Y-10000000D01*
D10*
D11*
X210000000Y-12000000D02*
X210000000Y-10000000D01*
D10*
D11*
X260000000Y-12000000D02*
X260000000Y-10000000D01*
D10*
D11*
X36065476Y-11588095D02*
X35322619Y-11588095D01*
X35694047Y-11588095D02*
X35694047Y-10288095D01*
X35570238Y-10473809D01*
X35446428Y-10597619D01*
X35322619Y-10659523D01*
D10*
D11*
X85322619Y-10411904D02*
X85384523Y-10350000D01*
X85508333Y-10288095D01*
X85817857Y-10288095D01*
X85941666Y-10350000D01*
X86003571Y-10411904D01*
X86065476Y-10535714D01*
X86065476Y-10659523D01*
X86003571Y-10845238D01*
X85260714Y-11588095D01*
X86065476Y-11588095D01*
D10*
D11*
X135260714Y-10288095D02*
X136065476Y-10288095D01*
X135632142Y-10783333D01*
X135817857Y-10783333D01*
X135941666Y-10845238D01*
X136003571Y-10907142D01*
X136065476Y-11030952D01*
X136065476Y-11340476D01*
X136003571Y-11464285D01*
X135941666Y-11526190D01*
X135817857Y-11588095D01*
X135446428Y-11588095D01*
X135322619Y-11526190D01*
X135260714Y-11464285D01*
D10*
D11*
X185941666Y-10721428D02*
X185941666Y-11588095D01*
X185632142Y-10226190D02*
X185322619Y-11154761D01*
X186127380Y-11154761D01*
D10*
D11*
X236003571Y-10288095D02*
X235384523Y-10288095D01*
X235322619Y-10907142D01*
X235384523Y-10845238D01*
X235508333Y-10783333D01*
X235817857Y-10783333D01*
X235941666Y-10845238D01*
X236003571Y-10907142D01*
X236065476Y-11030952D01*
X236065476Y-11340476D01*
X236003571Y-11464285D01*
X235941666Y-11526190D01*
X235817857Y-11588095D01*
X235508333Y-11588095D01*
X235384523Y-11526190D01*
X235322619Y-11464285D01*
D10*
D11*
X285941666Y-10288095D02*
X285694047Y-10288095D01*
X285570238Y-10350000D01*
X285508333Y-10411904D01*
X285384523Y-10597619D01*
X285322619Y-10845238D01*
X285322619Y-11340476D01*
X285384523Y-11464285D01*
X285446428Y-11526190D01*
X285570238Y-11588095D01*
X285817857Y-11588095D01*
X285941666Y-11526190D01*
X286003571Y-11464285D01*
X286065476Y-11340476D01*
X286065476Y-11030952D01*
X286003571Y-10907142D01*
X285941666Y-10845238D01*
X285817857Y-10783333D01*
X285570238Y-10783333D01*
X285446428Y-10845238D01*
X285384523Y-10907142D01*
X285322619Y-11030952D01*
D10*
D11*
X60000000Y-198007200D02*
X60000000Y-200007200D01*
D10*
D11*
X110000000Y-198007200D02*
X110000000Y-200007200D01*
D10*
D11*
X160000000Y-198007200D02*
X160000000Y-200007200D01*
D10*
D11*
X210000000Y-198007200D02*
X210000000Y-200007200D01*
D10*
D11*
X260000000Y-198007200D02*
X260000000Y-200007200D01*
D10*
D11*
X36065476Y-199595295D02*
X35322619Y-199595295D01*
X35694047Y-199595295D02*
X35694047Y-198295295D01*
X35570238Y-198481009D01*
X35446428Y-198604819D01*
X35322619Y-198666723D01*
D10*
D11*
X85322619Y-198419104D02*
X85384523Y-198357200D01*
X85508333Y-198295295D01*
X85817857Y-198295295D01*
X85941666Y-198357200D01*
X86003571Y-198419104D01*
X86065476Y-198542914D01*
X86065476Y-198666723D01*
X86003571Y-198852438D01*
X85260714Y-199595295D01*
X86065476Y-199595295D01*
D10*
D11*
X135260714Y-198295295D02*
X136065476Y-198295295D01*
X135632142Y-198790533D01*
X135817857Y-198790533D01*
X135941666Y-198852438D01*
X136003571Y-198914342D01*
X136065476Y-199038152D01*
X136065476Y-199347676D01*
X136003571Y-199471485D01*
X135941666Y-199533390D01*
X135817857Y-199595295D01*
X135446428Y-199595295D01*
X135322619Y-199533390D01*
X135260714Y-199471485D01*
D10*
D11*
X185941666Y-198728628D02*
X185941666Y-199595295D01*
X185632142Y-198233390D02*
X185322619Y-199161961D01*
X186127380Y-199161961D01*
D10*
D11*
X236003571Y-198295295D02*
X235384523Y-198295295D01*
X235322619Y-198914342D01*
X235384523Y-198852438D01*
X235508333Y-198790533D01*
X235817857Y-198790533D01*
X235941666Y-198852438D01*
X236003571Y-198914342D01*
X236065476Y-199038152D01*
X236065476Y-199347676D01*
X236003571Y-199471485D01*
X235941666Y-199533390D01*
X235817857Y-199595295D01*
X235508333Y-199595295D01*
X235384523Y-199533390D01*
X235322619Y-199471485D01*
D10*
D11*
X285941666Y-198295295D02*
X285694047Y-198295295D01*
X285570238Y-198357200D01*
X285508333Y-198419104D01*
X285384523Y-198604819D01*
X285322619Y-198852438D01*
X285322619Y-199347676D01*
X285384523Y-199471485D01*
X285446428Y-199533390D01*
X285570238Y-199595295D01*
X285817857Y-199595295D01*
X285941666Y-199533390D01*
X286003571Y-199471485D01*
X286065476Y-199347676D01*
X286065476Y-199038152D01*
X286003571Y-198914342D01*
X285941666Y-198852438D01*
X285817857Y-198790533D01*
X285570238Y-198790533D01*
X285446428Y-198852438D01*
X285384523Y-198914342D01*
X285322619Y-199038152D01*
D10*
D11*
X10000000Y-60000000D02*
X12000000Y-60000000D01*
D10*
D11*
X10000000Y-110000000D02*
X12000000Y-110000000D01*
D10*
D11*
X10000000Y-160000000D02*
X12000000Y-160000000D01*
D10*
D11*
X10690476Y-35216666D02*
X11309523Y-35216666D01*
X10566666Y-35588095D02*
X11000000Y-34288095D01*
X11433333Y-35588095D01*
D10*
D11*
X11092857Y-84907142D02*
X11278571Y-84969047D01*
X11340476Y-85030952D01*
X11402380Y-85154761D01*
X11402380Y-85340476D01*
X11340476Y-85464285D01*
X11278571Y-85526190D01*
X11154761Y-85588095D01*
X10659523Y-85588095D01*
X10659523Y-84288095D01*
X11092857Y-84288095D01*
X11216666Y-84350000D01*
X11278571Y-84411904D01*
X11340476Y-84535714D01*
X11340476Y-84659523D01*
X11278571Y-84783333D01*
X11216666Y-84845238D01*
X11092857Y-84907142D01*
X10659523Y-84907142D01*
D10*
D11*
X11402380Y-135464285D02*
X11340476Y-135526190D01*
X11154761Y-135588095D01*
X11030952Y-135588095D01*
X10845238Y-135526190D01*
X10721428Y-135402380D01*
X10659523Y-135278571D01*
X10597619Y-135030952D01*
X10597619Y-134845238D01*
X10659523Y-134597619D01*
X10721428Y-134473809D01*
X10845238Y-134350000D01*
X11030952Y-134288095D01*
X11154761Y-134288095D01*
X11340476Y-134350000D01*
X11402380Y-134411904D01*
D10*
D11*
X10659523Y-185588095D02*
X10659523Y-184288095D01*
X10969047Y-184288095D01*
X11154761Y-184350000D01*
X11278571Y-184473809D01*
X11340476Y-184597619D01*
X11402380Y-184845238D01*
X11402380Y-185030952D01*
X11340476Y-185278571D01*
X11278571Y-185402380D01*
X11154761Y-185526190D01*
X10969047Y-185588095D01*
X10659523Y-185588095D01*
D10*
D11*
X287002200Y-60000000D02*
X285002200Y-60000000D01*
D10*
D11*
X287002200Y-110000000D02*
X285002200Y-110000000D01*
D10*
D11*
X287002200Y-160000000D02*
X285002200Y-160000000D01*
D10*
D11*
X285692676Y-35216666D02*
X286311723Y-35216666D01*
X285568866Y-35588095D02*
X286002200Y-34288095D01*
X286435533Y-35588095D01*
D10*
D11*
X286095057Y-84907142D02*
X286280771Y-84969047D01*
X286342676Y-85030952D01*
X286404580Y-85154761D01*
X286404580Y-85340476D01*
X286342676Y-85464285D01*
X286280771Y-85526190D01*
X286156961Y-85588095D01*
X285661723Y-85588095D01*
X285661723Y-84288095D01*
X286095057Y-84288095D01*
X286218866Y-84350000D01*
X286280771Y-84411904D01*
X286342676Y-84535714D01*
X286342676Y-84659523D01*
X286280771Y-84783333D01*
X286218866Y-84845238D01*
X286095057Y-84907142D01*
X285661723Y-84907142D01*
D10*
D11*
X286404580Y-135464285D02*
X286342676Y-135526190D01*
X286156961Y-135588095D01*
X286033152Y-135588095D01*
X285847438Y-135526190D01*
X285723628Y-135402380D01*
X285661723Y-135278571D01*
X285599819Y-135030952D01*
X285599819Y-134845238D01*
X285661723Y-134597619D01*
X285723628Y-134473809D01*
X285847438Y-134350000D01*
X286033152Y-134288095D01*
X286156961Y-134288095D01*
X286342676Y-134350000D01*
X286404580Y-134411904D01*
D10*
D11*
X285661723Y-185588095D02*
X285661723Y-184288095D01*
X285971247Y-184288095D01*
X286156961Y-184350000D01*
X286280771Y-184473809D01*
X286342676Y-184597619D01*
X286404580Y-184845238D01*
X286404580Y-185030952D01*
X286342676Y-185278571D01*
X286280771Y-185402380D01*
X286156961Y-185526190D01*
X285971247Y-185588095D01*
X285661723Y-185588095D01*
D10*
D11*
X200434342Y-193785771D02*
X200434342Y-192285771D01*
X200791485Y-192285771D01*
X201005771Y-192357200D01*
X201148628Y-192500057D01*
X201220057Y-192642914D01*
X201291485Y-192928628D01*
X201291485Y-193142914D01*
X201220057Y-193428628D01*
X201148628Y-193571485D01*
X201005771Y-193714342D01*
X200791485Y-193785771D01*
X200434342Y-193785771D01*
X202577200Y-193785771D02*
X202577200Y-193000057D01*
X202505771Y-192857200D01*
X202362914Y-192785771D01*
X202077200Y-192785771D01*
X201934342Y-192857200D01*
X202577200Y-193714342D02*
X202434342Y-193785771D01*
X202077200Y-193785771D01*
X201934342Y-193714342D01*
X201862914Y-193571485D01*
X201862914Y-193428628D01*
X201934342Y-193285771D01*
X202077200Y-193214342D01*
X202434342Y-193214342D01*
X202577200Y-193142914D01*
X203077200Y-192785771D02*
X203648628Y-192785771D01*
X203291485Y-192285771D02*
X203291485Y-193571485D01*
X203362914Y-193714342D01*
X203505771Y-193785771D01*
X203648628Y-193785771D01*
X204720057Y-193714342D02*
X204577200Y-193785771D01*
X204291485Y-193785771D01*
X204148628Y-193714342D01*
X204077200Y-193571485D01*
X204077200Y-193000057D01*
X204148628Y-192857200D01*
X204291485Y-192785771D01*
X204577200Y-192785771D01*
X204720057Y-192857200D01*
X204791485Y-193000057D01*
X204791485Y-193142914D01*
X204077200Y-193285771D01*
X205434342Y-193642914D02*
X205505771Y-193714342D01*
X205434342Y-193785771D01*
X205362914Y-193714342D01*
X205434342Y-193642914D01*
X205434342Y-193785771D01*
X205434342Y-192857200D02*
X205505771Y-192928628D01*
X205434342Y-193000057D01*
X205362914Y-192928628D01*
X205434342Y-192857200D01*
X205434342Y-193000057D01*
D10*
D11*
X177002200Y-194507200D02*
X285002200Y-194507200D01*
D10*
D11*
X178434342Y-196585771D02*
X178434342Y-195085771D01*
X179291485Y-196585771D02*
X178648628Y-195728628D01*
X179291485Y-195085771D02*
X178434342Y-195942914D01*
X179934342Y-196585771D02*
X179934342Y-195585771D01*
X179934342Y-195085771D02*
X179862914Y-195157200D01*
X179934342Y-195228628D01*
X180005771Y-195157200D01*
X179934342Y-195085771D01*
X179934342Y-195228628D01*
X181505771Y-196442914D02*
X181434342Y-196514342D01*
X181220057Y-196585771D01*
X181077200Y-196585771D01*
X180862914Y-196514342D01*
X180720057Y-196371485D01*
X180648628Y-196228628D01*
X180577200Y-195942914D01*
X180577200Y-195728628D01*
X180648628Y-195442914D01*
X180720057Y-195300057D01*
X180862914Y-195157200D01*
X181077200Y-195085771D01*
X181220057Y-195085771D01*
X181434342Y-195157200D01*
X181505771Y-195228628D01*
X182791485Y-196585771D02*
X182791485Y-195800057D01*
X182720057Y-195657200D01*
X182577200Y-195585771D01*
X182291485Y-195585771D01*
X182148628Y-195657200D01*
X182791485Y-196514342D02*
X182648628Y-196585771D01*
X182291485Y-196585771D01*
X182148628Y-196514342D01*
X182077200Y-196371485D01*
X182077200Y-196228628D01*
X182148628Y-196085771D01*
X182291485Y-196014342D01*
X182648628Y-196014342D01*
X182791485Y-195942914D01*
X184148628Y-196585771D02*
X184148628Y-195085771D01*
X184148628Y-196514342D02*
X184005771Y-196585771D01*
X183720057Y-196585771D01*
X183577200Y-196514342D01*
X183505771Y-196442914D01*
X183434342Y-196300057D01*
X183434342Y-195871485D01*
X183505771Y-195728628D01*
X183577200Y-195657200D01*
X183720057Y-195585771D01*
X184005771Y-195585771D01*
X184148628Y-195657200D01*
X186005771Y-195800057D02*
X186505771Y-195800057D01*
X186720057Y-196585771D02*
X186005771Y-196585771D01*
X186005771Y-195085771D01*
X186720057Y-195085771D01*
X187362914Y-196442914D02*
X187434342Y-196514342D01*
X187362914Y-196585771D01*
X187291485Y-196514342D01*
X187362914Y-196442914D01*
X187362914Y-196585771D01*
X188077200Y-196585771D02*
X188077200Y-195085771D01*
X188434342Y-195085771D01*
X188648628Y-195157200D01*
X188791485Y-195300057D01*
X188862914Y-195442914D01*
X188934342Y-195728628D01*
X188934342Y-195942914D01*
X188862914Y-196228628D01*
X188791485Y-196371485D01*
X188648628Y-196514342D01*
X188434342Y-196585771D01*
X188077200Y-196585771D01*
X189577200Y-196442914D02*
X189648628Y-196514342D01*
X189577200Y-196585771D01*
X189505771Y-196514342D01*
X189577200Y-196442914D01*
X189577200Y-196585771D01*
X190220057Y-196157200D02*
X190934342Y-196157200D01*
X190077200Y-196585771D02*
X190577200Y-195085771D01*
X191077200Y-196585771D01*
X191577200Y-196442914D02*
X191648628Y-196514342D01*
X191577200Y-196585771D01*
X191505771Y-196514342D01*
X191577200Y-196442914D01*
X191577200Y-196585771D01*
X194577200Y-196585771D02*
X194577200Y-195085771D01*
X194720057Y-196014342D02*
X195148628Y-196585771D01*
X195148628Y-195585771D02*
X194577200Y-196157200D01*
X195791485Y-196585771D02*
X195791485Y-195585771D01*
X195791485Y-195085771D02*
X195720057Y-195157200D01*
X195791485Y-195228628D01*
X195862914Y-195157200D01*
X195791485Y-195085771D01*
X195791485Y-195228628D01*
X197148628Y-196514342D02*
X197005771Y-196585771D01*
X196720057Y-196585771D01*
X196577200Y-196514342D01*
X196505771Y-196442914D01*
X196434342Y-196300057D01*
X196434342Y-195871485D01*
X196505771Y-195728628D01*
X196577200Y-195657200D01*
X196720057Y-195585771D01*
X197005771Y-195585771D01*
X197148628Y-195657200D01*
X198434342Y-196585771D02*
X198434342Y-195800057D01*
X198362914Y-195657200D01*
X198220057Y-195585771D01*
X197934342Y-195585771D01*
X197791485Y-195657200D01*
X198434342Y-196514342D02*
X198291485Y-196585771D01*
X197934342Y-196585771D01*
X197791485Y-196514342D01*
X197720057Y-196371485D01*
X197720057Y-196228628D01*
X197791485Y-196085771D01*
X197934342Y-196014342D01*
X198291485Y-196014342D01*
X198434342Y-195942914D01*
X199791485Y-196585771D02*
X199791485Y-195085771D01*
X199791485Y-196514342D02*
X199648628Y-196585771D01*
X199362914Y-196585771D01*
X199220057Y-196514342D01*
X199148628Y-196442914D01*
X199077200Y-196300057D01*
X199077200Y-195871485D01*
X199148628Y-195728628D01*
X199220057Y-195657200D01*
X199362914Y-195585771D01*
X199648628Y-195585771D01*
X199791485Y-195657200D01*
X202362914Y-195085771D02*
X201648628Y-195085771D01*
X201577200Y-195800057D01*
X201648628Y-195728628D01*
X201791485Y-195657200D01*
X202148628Y-195657200D01*
X202291485Y-195728628D01*
X202362914Y-195800057D01*
X202434342Y-195942914D01*
X202434342Y-196300057D01*
X202362914Y-196442914D01*
X202291485Y-196514342D01*
X202148628Y-196585771D01*
X201791485Y-196585771D01*
X201648628Y-196514342D01*
X201577200Y-196442914D01*
X203077200Y-196442914D02*
X203148628Y-196514342D01*
X203077200Y-196585771D01*
X203005771Y-196514342D01*
X203077200Y-196442914D01*
X203077200Y-196585771D01*
X204077200Y-195085771D02*
X204220057Y-195085771D01*
X204362914Y-195157200D01*
X204434342Y-195228628D01*
X204505771Y-195371485D01*
X204577200Y-195657200D01*
X204577200Y-196014342D01*
X204505771Y-196300057D01*
X204434342Y-196442914D01*
X204362914Y-196514342D01*
X204220057Y-196585771D01*
X204077200Y-196585771D01*
X203934342Y-196514342D01*
X203862914Y-196442914D01*
X203791485Y-196300057D01*
X203720057Y-196014342D01*
X203720057Y-195657200D01*
X203791485Y-195371485D01*
X203862914Y-195228628D01*
X203934342Y-195157200D01*
X204077200Y-195085771D01*
X205220057Y-196442914D02*
X205291485Y-196514342D01*
X205220057Y-196585771D01*
X205148628Y-196514342D01*
X205220057Y-196442914D01*
X205220057Y-196585771D01*
X206220057Y-195085771D02*
X206362914Y-195085771D01*
X206505771Y-195157200D01*
X206577200Y-195228628D01*
X206648628Y-195371485D01*
X206720057Y-195657200D01*
X206720057Y-196014342D01*
X206648628Y-196300057D01*
X206577200Y-196442914D01*
X206505771Y-196514342D01*
X206362914Y-196585771D01*
X206220057Y-196585771D01*
X206077200Y-196514342D01*
X206005771Y-196442914D01*
X205934342Y-196300057D01*
X205862914Y-196014342D01*
X205862914Y-195657200D01*
X205934342Y-195371485D01*
X206005771Y-195228628D01*
X206077200Y-195157200D01*
X206220057Y-195085771D01*
D10*
D11*
X177002200Y-191507200D02*
X285002200Y-191507200D01*
D10*
D12*
X264411485Y-193785771D02*
X263911485Y-193071485D01*
X263554342Y-193785771D02*
X263554342Y-192285771D01*
X264125771Y-192285771D01*
X264268628Y-192357200D01*
X264340057Y-192428628D01*
X264411485Y-192571485D01*
X264411485Y-192785771D01*
X264340057Y-192928628D01*
X264268628Y-193000057D01*
X264125771Y-193071485D01*
X263554342Y-193071485D01*
X265625771Y-193714342D02*
X265482914Y-193785771D01*
X265197200Y-193785771D01*
X265054342Y-193714342D01*
X264982914Y-193571485D01*
X264982914Y-193000057D01*
X265054342Y-192857200D01*
X265197200Y-192785771D01*
X265482914Y-192785771D01*
X265625771Y-192857200D01*
X265697200Y-193000057D01*
X265697200Y-193142914D01*
X264982914Y-193285771D01*
X266197200Y-192785771D02*
X266554342Y-193785771D01*
X266911485Y-192785771D01*
X267482914Y-193642914D02*
X267554342Y-193714342D01*
X267482914Y-193785771D01*
X267411485Y-193714342D01*
X267482914Y-193642914D01*
X267482914Y-193785771D01*
X267482914Y-192857200D02*
X267554342Y-192928628D01*
X267482914Y-193000057D01*
X267411485Y-192928628D01*
X267482914Y-192857200D01*
X267482914Y-193000057D01*
D10*
D11*
X178362914Y-193714342D02*
X178577200Y-193785771D01*
X178934342Y-193785771D01*
X179077200Y-193714342D01*
X179148628Y-193642914D01*
X179220057Y-193500057D01*
X179220057Y-193357200D01*
X179148628Y-193214342D01*
X179077200Y-193142914D01*
X178934342Y-193071485D01*
X178648628Y-193000057D01*
X178505771Y-192928628D01*
X178434342Y-192857200D01*
X178362914Y-192714342D01*
X178362914Y-192571485D01*
X178434342Y-192428628D01*
X178505771Y-192357200D01*
X178648628Y-192285771D01*
X179005771Y-192285771D01*
X179220057Y-192357200D01*
X179862914Y-193785771D02*
X179862914Y-192785771D01*
X179862914Y-192285771D02*
X179791485Y-192357200D01*
X179862914Y-192428628D01*
X179934342Y-192357200D01*
X179862914Y-192285771D01*
X179862914Y-192428628D01*
X180434342Y-192785771D02*
X181220057Y-192785771D01*
X180434342Y-193785771D01*
X181220057Y-193785771D01*
X182362914Y-193714342D02*
X182220057Y-193785771D01*
X181934342Y-193785771D01*
X181791485Y-193714342D01*
X181720057Y-193571485D01*
X181720057Y-193000057D01*
X181791485Y-192857200D01*
X181934342Y-192785771D01*
X182220057Y-192785771D01*
X182362914Y-192857200D01*
X182434342Y-193000057D01*
X182434342Y-193142914D01*
X181720057Y-193285771D01*
X183077200Y-193642914D02*
X183148628Y-193714342D01*
X183077200Y-193785771D01*
X183005771Y-193714342D01*
X183077200Y-193642914D01*
X183077200Y-193785771D01*
X183077200Y-192857200D02*
X183148628Y-192928628D01*
X183077200Y-193000057D01*
X183005771Y-192928628D01*
X183077200Y-192857200D01*
X183077200Y-193000057D01*
X184862914Y-193357200D02*
X185577200Y-193357200D01*
X184720057Y-193785771D02*
X185220057Y-192285771D01*
X185720057Y-193785771D01*
X186862914Y-192785771D02*
X186862914Y-193785771D01*
X186505771Y-192214342D02*
X186148628Y-193285771D01*
X187077200Y-193285771D01*
D10*
D11*
X263434342Y-196585771D02*
X263434342Y-195085771D01*
X264791485Y-196585771D02*
X264791485Y-195085771D01*
X264791485Y-196514342D02*
X264648628Y-196585771D01*
X264362914Y-196585771D01*
X264220057Y-196514342D01*
X264148628Y-196442914D01*
X264077200Y-196300057D01*
X264077200Y-195871485D01*
X264148628Y-195728628D01*
X264220057Y-195657200D01*
X264362914Y-195585771D01*
X264648628Y-195585771D01*
X264791485Y-195657200D01*
X265505771Y-196442914D02*
X265577200Y-196514342D01*
X265505771Y-196585771D01*
X265434342Y-196514342D01*
X265505771Y-196442914D01*
X265505771Y-196585771D01*
X265505771Y-195657200D02*
X265577200Y-195728628D01*
X265505771Y-195800057D01*
X265434342Y-195728628D01*
X265505771Y-195657200D01*
X265505771Y-195800057D01*
X268148628Y-196585771D02*
X267291485Y-196585771D01*
X267720057Y-196585771D02*
X267720057Y-195085771D01*
X267577200Y-195300057D01*
X267434342Y-195442914D01*
X267291485Y-195514342D01*
X269862914Y-195014342D02*
X268577200Y-196942914D01*
X271148628Y-196585771D02*
X270291485Y-196585771D01*
X270720057Y-196585771D02*
X270720057Y-195085771D01*
X270577200Y-195300057D01*
X270434342Y-195442914D01*
X270291485Y-195514342D01*
D10*
D11*
X177002200Y-187507200D02*
X285002200Y-187507200D01*
D10*
D13*
X178714580Y-188211961D02*
X179857438Y-188211961D01*
X179036009Y-190211961D02*
X179286009Y-188211961D01*
X180274104Y-190211961D02*
X180440771Y-188878628D01*
X180524104Y-188211961D02*
X180416961Y-188307200D01*
X180500295Y-188402438D01*
X180607438Y-188307200D01*
X180524104Y-188211961D01*
X180500295Y-188402438D01*
X181107438Y-188878628D02*
X181869342Y-188878628D01*
X181476485Y-188211961D02*
X181262200Y-189926247D01*
X181333628Y-190116723D01*
X181512200Y-190211961D01*
X181702676Y-190211961D01*
X182655057Y-190211961D02*
X182476485Y-190116723D01*
X182405057Y-189926247D01*
X182619342Y-188211961D01*
X184190771Y-190116723D02*
X183988390Y-190211961D01*
X183607438Y-190211961D01*
X183428866Y-190116723D01*
X183357438Y-189926247D01*
X183452676Y-189164342D01*
X183571723Y-188973866D01*
X183774104Y-188878628D01*
X184155057Y-188878628D01*
X184333628Y-188973866D01*
X184405057Y-189164342D01*
X184381247Y-189354819D01*
X183405057Y-189545295D01*
X185155057Y-190021485D02*
X185238390Y-190116723D01*
X185131247Y-190211961D01*
X185047914Y-190116723D01*
X185155057Y-190021485D01*
X185131247Y-190211961D01*
X185286009Y-188973866D02*
X185369342Y-189069104D01*
X185262200Y-189164342D01*
X185178866Y-189069104D01*
X185286009Y-188973866D01*
X185262200Y-189164342D01*
D10*
D11*
X178934342Y-185600057D02*
X178434342Y-185600057D01*
X178434342Y-186385771D02*
X178434342Y-184885771D01*
X179148628Y-184885771D01*
X179720057Y-186385771D02*
X179720057Y-185385771D01*
X179720057Y-184885771D02*
X179648628Y-184957200D01*
X179720057Y-185028628D01*
X179791485Y-184957200D01*
X179720057Y-184885771D01*
X179720057Y-185028628D01*
X180648628Y-186385771D02*
X180505771Y-186314342D01*
X180434342Y-186171485D01*
X180434342Y-184885771D01*
X181791485Y-186314342D02*
X181648628Y-186385771D01*
X181362914Y-186385771D01*
X181220057Y-186314342D01*
X181148628Y-186171485D01*
X181148628Y-185600057D01*
X181220057Y-185457200D01*
X181362914Y-185385771D01*
X181648628Y-185385771D01*
X181791485Y-185457200D01*
X181862914Y-185600057D01*
X181862914Y-185742914D01*
X181148628Y-185885771D01*
X182505771Y-186242914D02*
X182577200Y-186314342D01*
X182505771Y-186385771D01*
X182434342Y-186314342D01*
X182505771Y-186242914D01*
X182505771Y-186385771D01*
X182505771Y-185457200D02*
X182577200Y-185528628D01*
X182505771Y-185600057D01*
X182434342Y-185528628D01*
X182505771Y-185457200D01*
X182505771Y-185600057D01*
X185005771Y-186385771D02*
X185005771Y-184885771D01*
X185005771Y-186314342D02*
X184862914Y-186385771D01*
X184577200Y-186385771D01*
X184434342Y-186314342D01*
X184362914Y-186242914D01*
X184291485Y-186100057D01*
X184291485Y-185671485D01*
X184362914Y-185528628D01*
X184434342Y-185457200D01*
X184577200Y-185385771D01*
X184862914Y-185385771D01*
X185005771Y-185457200D01*
X185720057Y-186385771D02*
X185720057Y-185385771D01*
X185720057Y-185671485D02*
X185791485Y-185528628D01*
X185862914Y-185457200D01*
X186005771Y-185385771D01*
X186148628Y-185385771D01*
X186648628Y-186385771D02*
X186648628Y-185385771D01*
X186648628Y-184885771D02*
X186577200Y-184957200D01*
X186648628Y-185028628D01*
X186720057Y-184957200D01*
X186648628Y-184885771D01*
X186648628Y-185028628D01*
X187220057Y-185385771D02*
X187577200Y-186385771D01*
X187934342Y-185385771D01*
X189077200Y-186314342D02*
X188934342Y-186385771D01*
X188648628Y-186385771D01*
X188505771Y-186314342D01*
X188434342Y-186171485D01*
X188434342Y-185600057D01*
X188505771Y-185457200D01*
X188648628Y-185385771D01*
X188934342Y-185385771D01*
X189077200Y-185457200D01*
X189148628Y-185600057D01*
X189148628Y-185742914D01*
X188434342Y-185885771D01*
X189791485Y-186385771D02*
X189791485Y-185385771D01*
X189791485Y-185671485D02*
X189862914Y-185528628D01*
X189934342Y-185457200D01*
X190077200Y-185385771D01*
X190220057Y-185385771D01*
X190720057Y-186242914D02*
X190791485Y-186314342D01*
X190720057Y-186385771D01*
X190648628Y-186314342D01*
X190720057Y-186242914D01*
X190720057Y-186385771D01*
X191434342Y-186385771D02*
X191434342Y-184885771D01*
X191577200Y-185814342D02*
X192005771Y-186385771D01*
X192005771Y-185385771D02*
X191434342Y-185957200D01*
X192648628Y-186385771D02*
X192648628Y-185385771D01*
X192648628Y-184885771D02*
X192577200Y-184957200D01*
X192648628Y-185028628D01*
X192720057Y-184957200D01*
X192648628Y-184885771D01*
X192648628Y-185028628D01*
X194005771Y-186314342D02*
X193862914Y-186385771D01*
X193577200Y-186385771D01*
X193434342Y-186314342D01*
X193362914Y-186242914D01*
X193291485Y-186100057D01*
X193291485Y-185671485D01*
X193362914Y-185528628D01*
X193434342Y-185457200D01*
X193577200Y-185385771D01*
X193862914Y-185385771D01*
X194005771Y-185457200D01*
X195291485Y-186385771D02*
X195291485Y-185600057D01*
X195220057Y-185457200D01*
X195077200Y-185385771D01*
X194791485Y-185385771D01*
X194648628Y-185457200D01*
X195291485Y-186314342D02*
X195148628Y-186385771D01*
X194791485Y-186385771D01*
X194648628Y-186314342D01*
X194577200Y-186171485D01*
X194577200Y-186028628D01*
X194648628Y-185885771D01*
X194791485Y-185814342D01*
X195148628Y-185814342D01*
X195291485Y-185742914D01*
X196648628Y-186385771D02*
X196648628Y-184885771D01*
X196648628Y-186314342D02*
X196505771Y-186385771D01*
X196220057Y-186385771D01*
X196077200Y-186314342D01*
X196005771Y-186242914D01*
X195934342Y-186100057D01*
X195934342Y-185671485D01*
X196005771Y-185528628D01*
X196077200Y-185457200D01*
X196220057Y-185385771D01*
X196505771Y-185385771D01*
X196648628Y-185457200D01*
X197005771Y-186528628D02*
X198148628Y-186528628D01*
X198505771Y-185385771D02*
X198505771Y-186885771D01*
X198505771Y-185457200D02*
X198648628Y-185385771D01*
X198934342Y-185385771D01*
X199077200Y-185457200D01*
X199148628Y-185528628D01*
X199220057Y-185671485D01*
X199220057Y-186100057D01*
X199148628Y-186242914D01*
X199077200Y-186314342D01*
X198934342Y-186385771D01*
X198648628Y-186385771D01*
X198505771Y-186314342D01*
X200505771Y-186314342D02*
X200362914Y-186385771D01*
X200077200Y-186385771D01*
X199934342Y-186314342D01*
X199862914Y-186242914D01*
X199791485Y-186100057D01*
X199791485Y-185671485D01*
X199862914Y-185528628D01*
X199934342Y-185457200D01*
X200077200Y-185385771D01*
X200362914Y-185385771D01*
X200505771Y-185457200D01*
X201148628Y-186385771D02*
X201148628Y-184885771D01*
X201148628Y-185457200D02*
X201291485Y-185385771D01*
X201577200Y-185385771D01*
X201720057Y-185457200D01*
X201791485Y-185528628D01*
X201862914Y-185671485D01*
X201862914Y-186100057D01*
X201791485Y-186242914D01*
X201720057Y-186314342D01*
X201577200Y-186385771D01*
X201291485Y-186385771D01*
X201148628Y-186314342D01*
D10*
D11*
X177002200Y-181507200D02*
X285002200Y-181507200D01*
D10*
D11*
X178362914Y-183614342D02*
X178577200Y-183685771D01*
X178934342Y-183685771D01*
X179077200Y-183614342D01*
X179148628Y-183542914D01*
X179220057Y-183400057D01*
X179220057Y-183257200D01*
X179148628Y-183114342D01*
X179077200Y-183042914D01*
X178934342Y-182971485D01*
X178648628Y-182900057D01*
X178505771Y-182828628D01*
X178434342Y-182757200D01*
X178362914Y-182614342D01*
X178362914Y-182471485D01*
X178434342Y-182328628D01*
X178505771Y-182257200D01*
X178648628Y-182185771D01*
X179005771Y-182185771D01*
X179220057Y-182257200D01*
X179862914Y-183685771D02*
X179862914Y-182185771D01*
X180505771Y-183685771D02*
X180505771Y-182900057D01*
X180434342Y-182757200D01*
X180291485Y-182685771D01*
X180077200Y-182685771D01*
X179934342Y-182757200D01*
X179862914Y-182828628D01*
X181791485Y-183614342D02*
X181648628Y-183685771D01*
X181362914Y-183685771D01*
X181220057Y-183614342D01*
X181148628Y-183471485D01*
X181148628Y-182900057D01*
X181220057Y-182757200D01*
X181362914Y-182685771D01*
X181648628Y-182685771D01*
X181791485Y-182757200D01*
X181862914Y-182900057D01*
X181862914Y-183042914D01*
X181148628Y-183185771D01*
X183077200Y-183614342D02*
X182934342Y-183685771D01*
X182648628Y-183685771D01*
X182505771Y-183614342D01*
X182434342Y-183471485D01*
X182434342Y-182900057D01*
X182505771Y-182757200D01*
X182648628Y-182685771D01*
X182934342Y-182685771D01*
X183077200Y-182757200D01*
X183148628Y-182900057D01*
X183148628Y-183042914D01*
X182434342Y-183185771D01*
X183577200Y-182685771D02*
X184148628Y-182685771D01*
X183791485Y-182185771D02*
X183791485Y-183471485D01*
X183862914Y-183614342D01*
X184005771Y-183685771D01*
X184148628Y-183685771D01*
X184648628Y-183542914D02*
X184720057Y-183614342D01*
X184648628Y-183685771D01*
X184577200Y-183614342D01*
X184648628Y-183542914D01*
X184648628Y-183685771D01*
X184648628Y-182757200D02*
X184720057Y-182828628D01*
X184648628Y-182900057D01*
X184577200Y-182828628D01*
X184648628Y-182757200D01*
X184648628Y-182900057D01*
D10*
D11*
X197002200Y-191507200D02*
X197002200Y-194507200D01*
D10*
D11*
X261002200Y-191507200D02*
X261002200Y-198007200D01*
D10*
G04 #@! TO.C,C6*
G36*
X171429577Y-96961497D02*
X171453845Y-96965097D01*
X171477644Y-96971058D01*
X171500743Y-96979323D01*
X171522922Y-96989813D01*
X171543965Y-97002425D01*
X171563671Y-97017040D01*
X171581849Y-97033516D01*
X171598325Y-97051694D01*
X171612940Y-97071400D01*
X171625552Y-97092443D01*
X171636042Y-97114622D01*
X171644307Y-97137721D01*
X171650268Y-97161520D01*
X171653868Y-97185788D01*
X171655072Y-97210292D01*
X171655072Y-98110294D01*
X171653868Y-98134798D01*
X171650268Y-98159066D01*
X171644307Y-98182865D01*
X171636042Y-98205964D01*
X171625552Y-98228143D01*
X171612940Y-98249186D01*
X171598325Y-98268892D01*
X171581849Y-98287070D01*
X171563671Y-98303546D01*
X171543965Y-98318161D01*
X171522922Y-98330773D01*
X171500743Y-98341263D01*
X171477644Y-98349528D01*
X171453845Y-98355489D01*
X171429577Y-98359089D01*
X171405073Y-98360293D01*
X170755071Y-98360293D01*
X170730567Y-98359089D01*
X170706299Y-98355489D01*
X170682500Y-98349528D01*
X170659401Y-98341263D01*
X170637222Y-98330773D01*
X170616179Y-98318161D01*
X170596473Y-98303546D01*
X170578295Y-98287070D01*
X170561819Y-98268892D01*
X170547204Y-98249186D01*
X170534592Y-98228143D01*
X170524102Y-98205964D01*
X170515837Y-98182865D01*
X170509876Y-98159066D01*
X170506276Y-98134798D01*
X170505072Y-98110294D01*
X170505072Y-97210292D01*
X170506276Y-97185788D01*
X170509876Y-97161520D01*
X170515837Y-97137721D01*
X170524102Y-97114622D01*
X170534592Y-97092443D01*
X170547204Y-97071400D01*
X170561819Y-97051694D01*
X170578295Y-97033516D01*
X170596473Y-97017040D01*
X170616179Y-97002425D01*
X170637222Y-96989813D01*
X170659401Y-96979323D01*
X170682500Y-96971058D01*
X170706299Y-96965097D01*
X170730567Y-96961497D01*
X170755071Y-96960293D01*
X171405073Y-96960293D01*
X171429577Y-96961497D01*
X171429577Y-96961497D01*
G37*
D14*
X171080072Y-97660293D03*
D10*
G36*
X173479577Y-96961497D02*
X173503845Y-96965097D01*
X173527644Y-96971058D01*
X173550743Y-96979323D01*
X173572922Y-96989813D01*
X173593965Y-97002425D01*
X173613671Y-97017040D01*
X173631849Y-97033516D01*
X173648325Y-97051694D01*
X173662940Y-97071400D01*
X173675552Y-97092443D01*
X173686042Y-97114622D01*
X173694307Y-97137721D01*
X173700268Y-97161520D01*
X173703868Y-97185788D01*
X173705072Y-97210292D01*
X173705072Y-98110294D01*
X173703868Y-98134798D01*
X173700268Y-98159066D01*
X173694307Y-98182865D01*
X173686042Y-98205964D01*
X173675552Y-98228143D01*
X173662940Y-98249186D01*
X173648325Y-98268892D01*
X173631849Y-98287070D01*
X173613671Y-98303546D01*
X173593965Y-98318161D01*
X173572922Y-98330773D01*
X173550743Y-98341263D01*
X173527644Y-98349528D01*
X173503845Y-98355489D01*
X173479577Y-98359089D01*
X173455073Y-98360293D01*
X172805071Y-98360293D01*
X172780567Y-98359089D01*
X172756299Y-98355489D01*
X172732500Y-98349528D01*
X172709401Y-98341263D01*
X172687222Y-98330773D01*
X172666179Y-98318161D01*
X172646473Y-98303546D01*
X172628295Y-98287070D01*
X172611819Y-98268892D01*
X172597204Y-98249186D01*
X172584592Y-98228143D01*
X172574102Y-98205964D01*
X172565837Y-98182865D01*
X172559876Y-98159066D01*
X172556276Y-98134798D01*
X172555072Y-98110294D01*
X172555072Y-97210292D01*
X172556276Y-97185788D01*
X172559876Y-97161520D01*
X172565837Y-97137721D01*
X172574102Y-97114622D01*
X172584592Y-97092443D01*
X172597204Y-97071400D01*
X172611819Y-97051694D01*
X172628295Y-97033516D01*
X172646473Y-97017040D01*
X172666179Y-97002425D01*
X172687222Y-96989813D01*
X172709401Y-96979323D01*
X172732500Y-96971058D01*
X172756299Y-96965097D01*
X172780567Y-96961497D01*
X172805071Y-96960293D01*
X173455073Y-96960293D01*
X173479577Y-96961497D01*
X173479577Y-96961497D01*
G37*
D14*
X173130072Y-97660293D03*
G04 #@! TD*
D10*
G04 #@! TO.C,C7*
G36*
X174529577Y-119461497D02*
X174553845Y-119465097D01*
X174577644Y-119471058D01*
X174600743Y-119479323D01*
X174622922Y-119489813D01*
X174643965Y-119502425D01*
X174663671Y-119517040D01*
X174681849Y-119533516D01*
X174698325Y-119551694D01*
X174712940Y-119571400D01*
X174725552Y-119592443D01*
X174736042Y-119614622D01*
X174744307Y-119637721D01*
X174750268Y-119661520D01*
X174753868Y-119685788D01*
X174755072Y-119710292D01*
X174755072Y-120610294D01*
X174753868Y-120634798D01*
X174750268Y-120659066D01*
X174744307Y-120682865D01*
X174736042Y-120705964D01*
X174725552Y-120728143D01*
X174712940Y-120749186D01*
X174698325Y-120768892D01*
X174681849Y-120787070D01*
X174663671Y-120803546D01*
X174643965Y-120818161D01*
X174622922Y-120830773D01*
X174600743Y-120841263D01*
X174577644Y-120849528D01*
X174553845Y-120855489D01*
X174529577Y-120859089D01*
X174505073Y-120860293D01*
X173855071Y-120860293D01*
X173830567Y-120859089D01*
X173806299Y-120855489D01*
X173782500Y-120849528D01*
X173759401Y-120841263D01*
X173737222Y-120830773D01*
X173716179Y-120818161D01*
X173696473Y-120803546D01*
X173678295Y-120787070D01*
X173661819Y-120768892D01*
X173647204Y-120749186D01*
X173634592Y-120728143D01*
X173624102Y-120705964D01*
X173615837Y-120682865D01*
X173609876Y-120659066D01*
X173606276Y-120634798D01*
X173605072Y-120610294D01*
X173605072Y-119710292D01*
X173606276Y-119685788D01*
X173609876Y-119661520D01*
X173615837Y-119637721D01*
X173624102Y-119614622D01*
X173634592Y-119592443D01*
X173647204Y-119571400D01*
X173661819Y-119551694D01*
X173678295Y-119533516D01*
X173696473Y-119517040D01*
X173716179Y-119502425D01*
X173737222Y-119489813D01*
X173759401Y-119479323D01*
X173782500Y-119471058D01*
X173806299Y-119465097D01*
X173830567Y-119461497D01*
X173855071Y-119460293D01*
X174505073Y-119460293D01*
X174529577Y-119461497D01*
X174529577Y-119461497D01*
G37*
D14*
X174180072Y-120160293D03*
D10*
G36*
X172479577Y-119461497D02*
X172503845Y-119465097D01*
X172527644Y-119471058D01*
X172550743Y-119479323D01*
X172572922Y-119489813D01*
X172593965Y-119502425D01*
X172613671Y-119517040D01*
X172631849Y-119533516D01*
X172648325Y-119551694D01*
X172662940Y-119571400D01*
X172675552Y-119592443D01*
X172686042Y-119614622D01*
X172694307Y-119637721D01*
X172700268Y-119661520D01*
X172703868Y-119685788D01*
X172705072Y-119710292D01*
X172705072Y-120610294D01*
X172703868Y-120634798D01*
X172700268Y-120659066D01*
X172694307Y-120682865D01*
X172686042Y-120705964D01*
X172675552Y-120728143D01*
X172662940Y-120749186D01*
X172648325Y-120768892D01*
X172631849Y-120787070D01*
X172613671Y-120803546D01*
X172593965Y-120818161D01*
X172572922Y-120830773D01*
X172550743Y-120841263D01*
X172527644Y-120849528D01*
X172503845Y-120855489D01*
X172479577Y-120859089D01*
X172455073Y-120860293D01*
X171805071Y-120860293D01*
X171780567Y-120859089D01*
X171756299Y-120855489D01*
X171732500Y-120849528D01*
X171709401Y-120841263D01*
X171687222Y-120830773D01*
X171666179Y-120818161D01*
X171646473Y-120803546D01*
X171628295Y-120787070D01*
X171611819Y-120768892D01*
X171597204Y-120749186D01*
X171584592Y-120728143D01*
X171574102Y-120705964D01*
X171565837Y-120682865D01*
X171559876Y-120659066D01*
X171556276Y-120634798D01*
X171555072Y-120610294D01*
X171555072Y-119710292D01*
X171556276Y-119685788D01*
X171559876Y-119661520D01*
X171565837Y-119637721D01*
X171574102Y-119614622D01*
X171584592Y-119592443D01*
X171597204Y-119571400D01*
X171611819Y-119551694D01*
X171628295Y-119533516D01*
X171646473Y-119517040D01*
X171666179Y-119502425D01*
X171687222Y-119489813D01*
X171709401Y-119479323D01*
X171732500Y-119471058D01*
X171756299Y-119465097D01*
X171780567Y-119461497D01*
X171805071Y-119460293D01*
X172455073Y-119460293D01*
X172479577Y-119461497D01*
X172479577Y-119461497D01*
G37*
D14*
X172130072Y-120160293D03*
G04 #@! TD*
D10*
G04 #@! TO.C,C8*
G36*
X138604577Y-103636497D02*
X138628845Y-103640097D01*
X138652644Y-103646058D01*
X138675743Y-103654323D01*
X138697922Y-103664813D01*
X138718965Y-103677425D01*
X138738671Y-103692040D01*
X138756849Y-103708516D01*
X138773325Y-103726694D01*
X138787940Y-103746400D01*
X138800552Y-103767443D01*
X138811042Y-103789622D01*
X138819307Y-103812721D01*
X138825268Y-103836520D01*
X138828868Y-103860788D01*
X138830072Y-103885292D01*
X138830072Y-104535294D01*
X138828868Y-104559798D01*
X138825268Y-104584066D01*
X138819307Y-104607865D01*
X138811042Y-104630964D01*
X138800552Y-104653143D01*
X138787940Y-104674186D01*
X138773325Y-104693892D01*
X138756849Y-104712070D01*
X138738671Y-104728546D01*
X138718965Y-104743161D01*
X138697922Y-104755773D01*
X138675743Y-104766263D01*
X138652644Y-104774528D01*
X138628845Y-104780489D01*
X138604577Y-104784089D01*
X138580073Y-104785293D01*
X137680071Y-104785293D01*
X137655567Y-104784089D01*
X137631299Y-104780489D01*
X137607500Y-104774528D01*
X137584401Y-104766263D01*
X137562222Y-104755773D01*
X137541179Y-104743161D01*
X137521473Y-104728546D01*
X137503295Y-104712070D01*
X137486819Y-104693892D01*
X137472204Y-104674186D01*
X137459592Y-104653143D01*
X137449102Y-104630964D01*
X137440837Y-104607865D01*
X137434876Y-104584066D01*
X137431276Y-104559798D01*
X137430072Y-104535294D01*
X137430072Y-103885292D01*
X137431276Y-103860788D01*
X137434876Y-103836520D01*
X137440837Y-103812721D01*
X137449102Y-103789622D01*
X137459592Y-103767443D01*
X137472204Y-103746400D01*
X137486819Y-103726694D01*
X137503295Y-103708516D01*
X137521473Y-103692040D01*
X137541179Y-103677425D01*
X137562222Y-103664813D01*
X137584401Y-103654323D01*
X137607500Y-103646058D01*
X137631299Y-103640097D01*
X137655567Y-103636497D01*
X137680071Y-103635293D01*
X138580073Y-103635293D01*
X138604577Y-103636497D01*
X138604577Y-103636497D01*
G37*
D14*
X138130072Y-104210293D03*
D10*
G36*
X138604577Y-101586497D02*
X138628845Y-101590097D01*
X138652644Y-101596058D01*
X138675743Y-101604323D01*
X138697922Y-101614813D01*
X138718965Y-101627425D01*
X138738671Y-101642040D01*
X138756849Y-101658516D01*
X138773325Y-101676694D01*
X138787940Y-101696400D01*
X138800552Y-101717443D01*
X138811042Y-101739622D01*
X138819307Y-101762721D01*
X138825268Y-101786520D01*
X138828868Y-101810788D01*
X138830072Y-101835292D01*
X138830072Y-102485294D01*
X138828868Y-102509798D01*
X138825268Y-102534066D01*
X138819307Y-102557865D01*
X138811042Y-102580964D01*
X138800552Y-102603143D01*
X138787940Y-102624186D01*
X138773325Y-102643892D01*
X138756849Y-102662070D01*
X138738671Y-102678546D01*
X138718965Y-102693161D01*
X138697922Y-102705773D01*
X138675743Y-102716263D01*
X138652644Y-102724528D01*
X138628845Y-102730489D01*
X138604577Y-102734089D01*
X138580073Y-102735293D01*
X137680071Y-102735293D01*
X137655567Y-102734089D01*
X137631299Y-102730489D01*
X137607500Y-102724528D01*
X137584401Y-102716263D01*
X137562222Y-102705773D01*
X137541179Y-102693161D01*
X137521473Y-102678546D01*
X137503295Y-102662070D01*
X137486819Y-102643892D01*
X137472204Y-102624186D01*
X137459592Y-102603143D01*
X137449102Y-102580964D01*
X137440837Y-102557865D01*
X137434876Y-102534066D01*
X137431276Y-102509798D01*
X137430072Y-102485294D01*
X137430072Y-101835292D01*
X137431276Y-101810788D01*
X137434876Y-101786520D01*
X137440837Y-101762721D01*
X137449102Y-101739622D01*
X137459592Y-101717443D01*
X137472204Y-101696400D01*
X137486819Y-101676694D01*
X137503295Y-101658516D01*
X137521473Y-101642040D01*
X137541179Y-101627425D01*
X137562222Y-101614813D01*
X137584401Y-101604323D01*
X137607500Y-101596058D01*
X137631299Y-101590097D01*
X137655567Y-101586497D01*
X137680071Y-101585293D01*
X138580073Y-101585293D01*
X138604577Y-101586497D01*
X138604577Y-101586497D01*
G37*
D14*
X138130072Y-102160293D03*
G04 #@! TD*
D10*
G04 #@! TO.C,C9*
G36*
X138604577Y-112586497D02*
X138628845Y-112590097D01*
X138652644Y-112596058D01*
X138675743Y-112604323D01*
X138697922Y-112614813D01*
X138718965Y-112627425D01*
X138738671Y-112642040D01*
X138756849Y-112658516D01*
X138773325Y-112676694D01*
X138787940Y-112696400D01*
X138800552Y-112717443D01*
X138811042Y-112739622D01*
X138819307Y-112762721D01*
X138825268Y-112786520D01*
X138828868Y-112810788D01*
X138830072Y-112835292D01*
X138830072Y-113485294D01*
X138828868Y-113509798D01*
X138825268Y-113534066D01*
X138819307Y-113557865D01*
X138811042Y-113580964D01*
X138800552Y-113603143D01*
X138787940Y-113624186D01*
X138773325Y-113643892D01*
X138756849Y-113662070D01*
X138738671Y-113678546D01*
X138718965Y-113693161D01*
X138697922Y-113705773D01*
X138675743Y-113716263D01*
X138652644Y-113724528D01*
X138628845Y-113730489D01*
X138604577Y-113734089D01*
X138580073Y-113735293D01*
X137680071Y-113735293D01*
X137655567Y-113734089D01*
X137631299Y-113730489D01*
X137607500Y-113724528D01*
X137584401Y-113716263D01*
X137562222Y-113705773D01*
X137541179Y-113693161D01*
X137521473Y-113678546D01*
X137503295Y-113662070D01*
X137486819Y-113643892D01*
X137472204Y-113624186D01*
X137459592Y-113603143D01*
X137449102Y-113580964D01*
X137440837Y-113557865D01*
X137434876Y-113534066D01*
X137431276Y-113509798D01*
X137430072Y-113485294D01*
X137430072Y-112835292D01*
X137431276Y-112810788D01*
X137434876Y-112786520D01*
X137440837Y-112762721D01*
X137449102Y-112739622D01*
X137459592Y-112717443D01*
X137472204Y-112696400D01*
X137486819Y-112676694D01*
X137503295Y-112658516D01*
X137521473Y-112642040D01*
X137541179Y-112627425D01*
X137562222Y-112614813D01*
X137584401Y-112604323D01*
X137607500Y-112596058D01*
X137631299Y-112590097D01*
X137655567Y-112586497D01*
X137680071Y-112585293D01*
X138580073Y-112585293D01*
X138604577Y-112586497D01*
X138604577Y-112586497D01*
G37*
D14*
X138130072Y-113160293D03*
D10*
G36*
X138604577Y-110536497D02*
X138628845Y-110540097D01*
X138652644Y-110546058D01*
X138675743Y-110554323D01*
X138697922Y-110564813D01*
X138718965Y-110577425D01*
X138738671Y-110592040D01*
X138756849Y-110608516D01*
X138773325Y-110626694D01*
X138787940Y-110646400D01*
X138800552Y-110667443D01*
X138811042Y-110689622D01*
X138819307Y-110712721D01*
X138825268Y-110736520D01*
X138828868Y-110760788D01*
X138830072Y-110785292D01*
X138830072Y-111435294D01*
X138828868Y-111459798D01*
X138825268Y-111484066D01*
X138819307Y-111507865D01*
X138811042Y-111530964D01*
X138800552Y-111553143D01*
X138787940Y-111574186D01*
X138773325Y-111593892D01*
X138756849Y-111612070D01*
X138738671Y-111628546D01*
X138718965Y-111643161D01*
X138697922Y-111655773D01*
X138675743Y-111666263D01*
X138652644Y-111674528D01*
X138628845Y-111680489D01*
X138604577Y-111684089D01*
X138580073Y-111685293D01*
X137680071Y-111685293D01*
X137655567Y-111684089D01*
X137631299Y-111680489D01*
X137607500Y-111674528D01*
X137584401Y-111666263D01*
X137562222Y-111655773D01*
X137541179Y-111643161D01*
X137521473Y-111628546D01*
X137503295Y-111612070D01*
X137486819Y-111593892D01*
X137472204Y-111574186D01*
X137459592Y-111553143D01*
X137449102Y-111530964D01*
X137440837Y-111507865D01*
X137434876Y-111484066D01*
X137431276Y-111459798D01*
X137430072Y-111435294D01*
X137430072Y-110785292D01*
X137431276Y-110760788D01*
X137434876Y-110736520D01*
X137440837Y-110712721D01*
X137449102Y-110689622D01*
X137459592Y-110667443D01*
X137472204Y-110646400D01*
X137486819Y-110626694D01*
X137503295Y-110608516D01*
X137521473Y-110592040D01*
X137541179Y-110577425D01*
X137562222Y-110564813D01*
X137584401Y-110554323D01*
X137607500Y-110546058D01*
X137631299Y-110540097D01*
X137655567Y-110536497D01*
X137680071Y-110535293D01*
X138580073Y-110535293D01*
X138604577Y-110536497D01*
X138604577Y-110536497D01*
G37*
D14*
X138130072Y-111110293D03*
G04 #@! TD*
D10*
G04 #@! TO.C,R1*
G36*
X176823577Y-111486497D02*
X176847845Y-111490097D01*
X176871644Y-111496058D01*
X176894743Y-111504323D01*
X176916922Y-111514813D01*
X176937965Y-111527425D01*
X176957671Y-111542040D01*
X176975849Y-111558516D01*
X176992325Y-111576694D01*
X177006940Y-111596400D01*
X177019552Y-111617443D01*
X177030042Y-111639622D01*
X177038307Y-111662721D01*
X177044268Y-111686520D01*
X177047868Y-111710788D01*
X177049072Y-111735292D01*
X177049072Y-112635294D01*
X177047868Y-112659798D01*
X177044268Y-112684066D01*
X177038307Y-112707865D01*
X177030042Y-112730964D01*
X177019552Y-112753143D01*
X177006940Y-112774186D01*
X176992325Y-112793892D01*
X176975849Y-112812070D01*
X176957671Y-112828546D01*
X176937965Y-112843161D01*
X176916922Y-112855773D01*
X176894743Y-112866263D01*
X176871644Y-112874528D01*
X176847845Y-112880489D01*
X176823577Y-112884089D01*
X176799073Y-112885293D01*
X176149071Y-112885293D01*
X176124567Y-112884089D01*
X176100299Y-112880489D01*
X176076500Y-112874528D01*
X176053401Y-112866263D01*
X176031222Y-112855773D01*
X176010179Y-112843161D01*
X175990473Y-112828546D01*
X175972295Y-112812070D01*
X175955819Y-112793892D01*
X175941204Y-112774186D01*
X175928592Y-112753143D01*
X175918102Y-112730964D01*
X175909837Y-112707865D01*
X175903876Y-112684066D01*
X175900276Y-112659798D01*
X175899072Y-112635294D01*
X175899072Y-111735292D01*
X175900276Y-111710788D01*
X175903876Y-111686520D01*
X175909837Y-111662721D01*
X175918102Y-111639622D01*
X175928592Y-111617443D01*
X175941204Y-111596400D01*
X175955819Y-111576694D01*
X175972295Y-111558516D01*
X175990473Y-111542040D01*
X176010179Y-111527425D01*
X176031222Y-111514813D01*
X176053401Y-111504323D01*
X176076500Y-111496058D01*
X176100299Y-111490097D01*
X176124567Y-111486497D01*
X176149071Y-111485293D01*
X176799073Y-111485293D01*
X176823577Y-111486497D01*
X176823577Y-111486497D01*
G37*
D14*
X176474072Y-112185293D03*
D10*
G36*
X174773577Y-111486497D02*
X174797845Y-111490097D01*
X174821644Y-111496058D01*
X174844743Y-111504323D01*
X174866922Y-111514813D01*
X174887965Y-111527425D01*
X174907671Y-111542040D01*
X174925849Y-111558516D01*
X174942325Y-111576694D01*
X174956940Y-111596400D01*
X174969552Y-111617443D01*
X174980042Y-111639622D01*
X174988307Y-111662721D01*
X174994268Y-111686520D01*
X174997868Y-111710788D01*
X174999072Y-111735292D01*
X174999072Y-112635294D01*
X174997868Y-112659798D01*
X174994268Y-112684066D01*
X174988307Y-112707865D01*
X174980042Y-112730964D01*
X174969552Y-112753143D01*
X174956940Y-112774186D01*
X174942325Y-112793892D01*
X174925849Y-112812070D01*
X174907671Y-112828546D01*
X174887965Y-112843161D01*
X174866922Y-112855773D01*
X174844743Y-112866263D01*
X174821644Y-112874528D01*
X174797845Y-112880489D01*
X174773577Y-112884089D01*
X174749073Y-112885293D01*
X174099071Y-112885293D01*
X174074567Y-112884089D01*
X174050299Y-112880489D01*
X174026500Y-112874528D01*
X174003401Y-112866263D01*
X173981222Y-112855773D01*
X173960179Y-112843161D01*
X173940473Y-112828546D01*
X173922295Y-112812070D01*
X173905819Y-112793892D01*
X173891204Y-112774186D01*
X173878592Y-112753143D01*
X173868102Y-112730964D01*
X173859837Y-112707865D01*
X173853876Y-112684066D01*
X173850276Y-112659798D01*
X173849072Y-112635294D01*
X173849072Y-111735292D01*
X173850276Y-111710788D01*
X173853876Y-111686520D01*
X173859837Y-111662721D01*
X173868102Y-111639622D01*
X173878592Y-111617443D01*
X173891204Y-111596400D01*
X173905819Y-111576694D01*
X173922295Y-111558516D01*
X173940473Y-111542040D01*
X173960179Y-111527425D01*
X173981222Y-111514813D01*
X174003401Y-111504323D01*
X174026500Y-111496058D01*
X174050299Y-111490097D01*
X174074567Y-111486497D01*
X174099071Y-111485293D01*
X174749073Y-111485293D01*
X174773577Y-111486497D01*
X174773577Y-111486497D01*
G37*
D14*
X174424072Y-112185293D03*
G04 #@! TD*
D10*
G04 #@! TO.C,R2*
G36*
X180769577Y-111486497D02*
X180793845Y-111490097D01*
X180817644Y-111496058D01*
X180840743Y-111504323D01*
X180862922Y-111514813D01*
X180883965Y-111527425D01*
X180903671Y-111542040D01*
X180921849Y-111558516D01*
X180938325Y-111576694D01*
X180952940Y-111596400D01*
X180965552Y-111617443D01*
X180976042Y-111639622D01*
X180984307Y-111662721D01*
X180990268Y-111686520D01*
X180993868Y-111710788D01*
X180995072Y-111735292D01*
X180995072Y-112635294D01*
X180993868Y-112659798D01*
X180990268Y-112684066D01*
X180984307Y-112707865D01*
X180976042Y-112730964D01*
X180965552Y-112753143D01*
X180952940Y-112774186D01*
X180938325Y-112793892D01*
X180921849Y-112812070D01*
X180903671Y-112828546D01*
X180883965Y-112843161D01*
X180862922Y-112855773D01*
X180840743Y-112866263D01*
X180817644Y-112874528D01*
X180793845Y-112880489D01*
X180769577Y-112884089D01*
X180745073Y-112885293D01*
X180095071Y-112885293D01*
X180070567Y-112884089D01*
X180046299Y-112880489D01*
X180022500Y-112874528D01*
X179999401Y-112866263D01*
X179977222Y-112855773D01*
X179956179Y-112843161D01*
X179936473Y-112828546D01*
X179918295Y-112812070D01*
X179901819Y-112793892D01*
X179887204Y-112774186D01*
X179874592Y-112753143D01*
X179864102Y-112730964D01*
X179855837Y-112707865D01*
X179849876Y-112684066D01*
X179846276Y-112659798D01*
X179845072Y-112635294D01*
X179845072Y-111735292D01*
X179846276Y-111710788D01*
X179849876Y-111686520D01*
X179855837Y-111662721D01*
X179864102Y-111639622D01*
X179874592Y-111617443D01*
X179887204Y-111596400D01*
X179901819Y-111576694D01*
X179918295Y-111558516D01*
X179936473Y-111542040D01*
X179956179Y-111527425D01*
X179977222Y-111514813D01*
X179999401Y-111504323D01*
X180022500Y-111496058D01*
X180046299Y-111490097D01*
X180070567Y-111486497D01*
X180095071Y-111485293D01*
X180745073Y-111485293D01*
X180769577Y-111486497D01*
X180769577Y-111486497D01*
G37*
D14*
X180420072Y-112185293D03*
D10*
G36*
X178719577Y-111486497D02*
X178743845Y-111490097D01*
X178767644Y-111496058D01*
X178790743Y-111504323D01*
X178812922Y-111514813D01*
X178833965Y-111527425D01*
X178853671Y-111542040D01*
X178871849Y-111558516D01*
X178888325Y-111576694D01*
X178902940Y-111596400D01*
X178915552Y-111617443D01*
X178926042Y-111639622D01*
X178934307Y-111662721D01*
X178940268Y-111686520D01*
X178943868Y-111710788D01*
X178945072Y-111735292D01*
X178945072Y-112635294D01*
X178943868Y-112659798D01*
X178940268Y-112684066D01*
X178934307Y-112707865D01*
X178926042Y-112730964D01*
X178915552Y-112753143D01*
X178902940Y-112774186D01*
X178888325Y-112793892D01*
X178871849Y-112812070D01*
X178853671Y-112828546D01*
X178833965Y-112843161D01*
X178812922Y-112855773D01*
X178790743Y-112866263D01*
X178767644Y-112874528D01*
X178743845Y-112880489D01*
X178719577Y-112884089D01*
X178695073Y-112885293D01*
X178045071Y-112885293D01*
X178020567Y-112884089D01*
X177996299Y-112880489D01*
X177972500Y-112874528D01*
X177949401Y-112866263D01*
X177927222Y-112855773D01*
X177906179Y-112843161D01*
X177886473Y-112828546D01*
X177868295Y-112812070D01*
X177851819Y-112793892D01*
X177837204Y-112774186D01*
X177824592Y-112753143D01*
X177814102Y-112730964D01*
X177805837Y-112707865D01*
X177799876Y-112684066D01*
X177796276Y-112659798D01*
X177795072Y-112635294D01*
X177795072Y-111735292D01*
X177796276Y-111710788D01*
X177799876Y-111686520D01*
X177805837Y-111662721D01*
X177814102Y-111639622D01*
X177824592Y-111617443D01*
X177837204Y-111596400D01*
X177851819Y-111576694D01*
X177868295Y-111558516D01*
X177886473Y-111542040D01*
X177906179Y-111527425D01*
X177927222Y-111514813D01*
X177949401Y-111504323D01*
X177972500Y-111496058D01*
X177996299Y-111490097D01*
X178020567Y-111486497D01*
X178045071Y-111485293D01*
X178695073Y-111485293D01*
X178719577Y-111486497D01*
X178719577Y-111486497D01*
G37*
D14*
X178370072Y-112185293D03*
G04 #@! TD*
D10*
G04 #@! TO.C,R3*
G36*
X174773577Y-108946497D02*
X174797845Y-108950097D01*
X174821644Y-108956058D01*
X174844743Y-108964323D01*
X174866922Y-108974813D01*
X174887965Y-108987425D01*
X174907671Y-109002040D01*
X174925849Y-109018516D01*
X174942325Y-109036694D01*
X174956940Y-109056400D01*
X174969552Y-109077443D01*
X174980042Y-109099622D01*
X174988307Y-109122721D01*
X174994268Y-109146520D01*
X174997868Y-109170788D01*
X174999072Y-109195292D01*
X174999072Y-110095294D01*
X174997868Y-110119798D01*
X174994268Y-110144066D01*
X174988307Y-110167865D01*
X174980042Y-110190964D01*
X174969552Y-110213143D01*
X174956940Y-110234186D01*
X174942325Y-110253892D01*
X174925849Y-110272070D01*
X174907671Y-110288546D01*
X174887965Y-110303161D01*
X174866922Y-110315773D01*
X174844743Y-110326263D01*
X174821644Y-110334528D01*
X174797845Y-110340489D01*
X174773577Y-110344089D01*
X174749073Y-110345293D01*
X174099071Y-110345293D01*
X174074567Y-110344089D01*
X174050299Y-110340489D01*
X174026500Y-110334528D01*
X174003401Y-110326263D01*
X173981222Y-110315773D01*
X173960179Y-110303161D01*
X173940473Y-110288546D01*
X173922295Y-110272070D01*
X173905819Y-110253892D01*
X173891204Y-110234186D01*
X173878592Y-110213143D01*
X173868102Y-110190964D01*
X173859837Y-110167865D01*
X173853876Y-110144066D01*
X173850276Y-110119798D01*
X173849072Y-110095294D01*
X173849072Y-109195292D01*
X173850276Y-109170788D01*
X173853876Y-109146520D01*
X173859837Y-109122721D01*
X173868102Y-109099622D01*
X173878592Y-109077443D01*
X173891204Y-109056400D01*
X173905819Y-109036694D01*
X173922295Y-109018516D01*
X173940473Y-109002040D01*
X173960179Y-108987425D01*
X173981222Y-108974813D01*
X174003401Y-108964323D01*
X174026500Y-108956058D01*
X174050299Y-108950097D01*
X174074567Y-108946497D01*
X174099071Y-108945293D01*
X174749073Y-108945293D01*
X174773577Y-108946497D01*
X174773577Y-108946497D01*
G37*
D14*
X174424072Y-109645293D03*
D10*
G36*
X176823577Y-108946497D02*
X176847845Y-108950097D01*
X176871644Y-108956058D01*
X176894743Y-108964323D01*
X176916922Y-108974813D01*
X176937965Y-108987425D01*
X176957671Y-109002040D01*
X176975849Y-109018516D01*
X176992325Y-109036694D01*
X177006940Y-109056400D01*
X177019552Y-109077443D01*
X177030042Y-109099622D01*
X177038307Y-109122721D01*
X177044268Y-109146520D01*
X177047868Y-109170788D01*
X177049072Y-109195292D01*
X177049072Y-110095294D01*
X177047868Y-110119798D01*
X177044268Y-110144066D01*
X177038307Y-110167865D01*
X177030042Y-110190964D01*
X177019552Y-110213143D01*
X177006940Y-110234186D01*
X176992325Y-110253892D01*
X176975849Y-110272070D01*
X176957671Y-110288546D01*
X176937965Y-110303161D01*
X176916922Y-110315773D01*
X176894743Y-110326263D01*
X176871644Y-110334528D01*
X176847845Y-110340489D01*
X176823577Y-110344089D01*
X176799073Y-110345293D01*
X176149071Y-110345293D01*
X176124567Y-110344089D01*
X176100299Y-110340489D01*
X176076500Y-110334528D01*
X176053401Y-110326263D01*
X176031222Y-110315773D01*
X176010179Y-110303161D01*
X175990473Y-110288546D01*
X175972295Y-110272070D01*
X175955819Y-110253892D01*
X175941204Y-110234186D01*
X175928592Y-110213143D01*
X175918102Y-110190964D01*
X175909837Y-110167865D01*
X175903876Y-110144066D01*
X175900276Y-110119798D01*
X175899072Y-110095294D01*
X175899072Y-109195292D01*
X175900276Y-109170788D01*
X175903876Y-109146520D01*
X175909837Y-109122721D01*
X175918102Y-109099622D01*
X175928592Y-109077443D01*
X175941204Y-109056400D01*
X175955819Y-109036694D01*
X175972295Y-109018516D01*
X175990473Y-109002040D01*
X176010179Y-108987425D01*
X176031222Y-108974813D01*
X176053401Y-108964323D01*
X176076500Y-108956058D01*
X176100299Y-108950097D01*
X176124567Y-108946497D01*
X176149071Y-108945293D01*
X176799073Y-108945293D01*
X176823577Y-108946497D01*
X176823577Y-108946497D01*
G37*
D14*
X176474072Y-109645293D03*
G04 #@! TD*
D10*
G04 #@! TO.C,R4*
G36*
X178719577Y-108946497D02*
X178743845Y-108950097D01*
X178767644Y-108956058D01*
X178790743Y-108964323D01*
X178812922Y-108974813D01*
X178833965Y-108987425D01*
X178853671Y-109002040D01*
X178871849Y-109018516D01*
X178888325Y-109036694D01*
X178902940Y-109056400D01*
X178915552Y-109077443D01*
X178926042Y-109099622D01*
X178934307Y-109122721D01*
X178940268Y-109146520D01*
X178943868Y-109170788D01*
X178945072Y-109195292D01*
X178945072Y-110095294D01*
X178943868Y-110119798D01*
X178940268Y-110144066D01*
X178934307Y-110167865D01*
X178926042Y-110190964D01*
X178915552Y-110213143D01*
X178902940Y-110234186D01*
X178888325Y-110253892D01*
X178871849Y-110272070D01*
X178853671Y-110288546D01*
X178833965Y-110303161D01*
X178812922Y-110315773D01*
X178790743Y-110326263D01*
X178767644Y-110334528D01*
X178743845Y-110340489D01*
X178719577Y-110344089D01*
X178695073Y-110345293D01*
X178045071Y-110345293D01*
X178020567Y-110344089D01*
X177996299Y-110340489D01*
X177972500Y-110334528D01*
X177949401Y-110326263D01*
X177927222Y-110315773D01*
X177906179Y-110303161D01*
X177886473Y-110288546D01*
X177868295Y-110272070D01*
X177851819Y-110253892D01*
X177837204Y-110234186D01*
X177824592Y-110213143D01*
X177814102Y-110190964D01*
X177805837Y-110167865D01*
X177799876Y-110144066D01*
X177796276Y-110119798D01*
X177795072Y-110095294D01*
X177795072Y-109195292D01*
X177796276Y-109170788D01*
X177799876Y-109146520D01*
X177805837Y-109122721D01*
X177814102Y-109099622D01*
X177824592Y-109077443D01*
X177837204Y-109056400D01*
X177851819Y-109036694D01*
X177868295Y-109018516D01*
X177886473Y-109002040D01*
X177906179Y-108987425D01*
X177927222Y-108974813D01*
X177949401Y-108964323D01*
X177972500Y-108956058D01*
X177996299Y-108950097D01*
X178020567Y-108946497D01*
X178045071Y-108945293D01*
X178695073Y-108945293D01*
X178719577Y-108946497D01*
X178719577Y-108946497D01*
G37*
D14*
X178370072Y-109645293D03*
D10*
G36*
X180769577Y-108946497D02*
X180793845Y-108950097D01*
X180817644Y-108956058D01*
X180840743Y-108964323D01*
X180862922Y-108974813D01*
X180883965Y-108987425D01*
X180903671Y-109002040D01*
X180921849Y-109018516D01*
X180938325Y-109036694D01*
X180952940Y-109056400D01*
X180965552Y-109077443D01*
X180976042Y-109099622D01*
X180984307Y-109122721D01*
X180990268Y-109146520D01*
X180993868Y-109170788D01*
X180995072Y-109195292D01*
X180995072Y-110095294D01*
X180993868Y-110119798D01*
X180990268Y-110144066D01*
X180984307Y-110167865D01*
X180976042Y-110190964D01*
X180965552Y-110213143D01*
X180952940Y-110234186D01*
X180938325Y-110253892D01*
X180921849Y-110272070D01*
X180903671Y-110288546D01*
X180883965Y-110303161D01*
X180862922Y-110315773D01*
X180840743Y-110326263D01*
X180817644Y-110334528D01*
X180793845Y-110340489D01*
X180769577Y-110344089D01*
X180745073Y-110345293D01*
X180095071Y-110345293D01*
X180070567Y-110344089D01*
X180046299Y-110340489D01*
X180022500Y-110334528D01*
X179999401Y-110326263D01*
X179977222Y-110315773D01*
X179956179Y-110303161D01*
X179936473Y-110288546D01*
X179918295Y-110272070D01*
X179901819Y-110253892D01*
X179887204Y-110234186D01*
X179874592Y-110213143D01*
X179864102Y-110190964D01*
X179855837Y-110167865D01*
X179849876Y-110144066D01*
X179846276Y-110119798D01*
X179845072Y-110095294D01*
X179845072Y-109195292D01*
X179846276Y-109170788D01*
X179849876Y-109146520D01*
X179855837Y-109122721D01*
X179864102Y-109099622D01*
X179874592Y-109077443D01*
X179887204Y-109056400D01*
X179901819Y-109036694D01*
X179918295Y-109018516D01*
X179936473Y-109002040D01*
X179956179Y-108987425D01*
X179977222Y-108974813D01*
X179999401Y-108964323D01*
X180022500Y-108956058D01*
X180046299Y-108950097D01*
X180070567Y-108946497D01*
X180095071Y-108945293D01*
X180745073Y-108945293D01*
X180769577Y-108946497D01*
X180769577Y-108946497D01*
G37*
D14*
X180420072Y-109645293D03*
G04 #@! TD*
D10*
G04 #@! TO.C,R5*
G36*
X176823577Y-106406497D02*
X176847845Y-106410097D01*
X176871644Y-106416058D01*
X176894743Y-106424323D01*
X176916922Y-106434813D01*
X176937965Y-106447425D01*
X176957671Y-106462040D01*
X176975849Y-106478516D01*
X176992325Y-106496694D01*
X177006940Y-106516400D01*
X177019552Y-106537443D01*
X177030042Y-106559622D01*
X177038307Y-106582721D01*
X177044268Y-106606520D01*
X177047868Y-106630788D01*
X177049072Y-106655292D01*
X177049072Y-107555294D01*
X177047868Y-107579798D01*
X177044268Y-107604066D01*
X177038307Y-107627865D01*
X177030042Y-107650964D01*
X177019552Y-107673143D01*
X177006940Y-107694186D01*
X176992325Y-107713892D01*
X176975849Y-107732070D01*
X176957671Y-107748546D01*
X176937965Y-107763161D01*
X176916922Y-107775773D01*
X176894743Y-107786263D01*
X176871644Y-107794528D01*
X176847845Y-107800489D01*
X176823577Y-107804089D01*
X176799073Y-107805293D01*
X176149071Y-107805293D01*
X176124567Y-107804089D01*
X176100299Y-107800489D01*
X176076500Y-107794528D01*
X176053401Y-107786263D01*
X176031222Y-107775773D01*
X176010179Y-107763161D01*
X175990473Y-107748546D01*
X175972295Y-107732070D01*
X175955819Y-107713892D01*
X175941204Y-107694186D01*
X175928592Y-107673143D01*
X175918102Y-107650964D01*
X175909837Y-107627865D01*
X175903876Y-107604066D01*
X175900276Y-107579798D01*
X175899072Y-107555294D01*
X175899072Y-106655292D01*
X175900276Y-106630788D01*
X175903876Y-106606520D01*
X175909837Y-106582721D01*
X175918102Y-106559622D01*
X175928592Y-106537443D01*
X175941204Y-106516400D01*
X175955819Y-106496694D01*
X175972295Y-106478516D01*
X175990473Y-106462040D01*
X176010179Y-106447425D01*
X176031222Y-106434813D01*
X176053401Y-106424323D01*
X176076500Y-106416058D01*
X176100299Y-106410097D01*
X176124567Y-106406497D01*
X176149071Y-106405293D01*
X176799073Y-106405293D01*
X176823577Y-106406497D01*
X176823577Y-106406497D01*
G37*
D14*
X176474072Y-107105293D03*
D10*
G36*
X174773577Y-106406497D02*
X174797845Y-106410097D01*
X174821644Y-106416058D01*
X174844743Y-106424323D01*
X174866922Y-106434813D01*
X174887965Y-106447425D01*
X174907671Y-106462040D01*
X174925849Y-106478516D01*
X174942325Y-106496694D01*
X174956940Y-106516400D01*
X174969552Y-106537443D01*
X174980042Y-106559622D01*
X174988307Y-106582721D01*
X174994268Y-106606520D01*
X174997868Y-106630788D01*
X174999072Y-106655292D01*
X174999072Y-107555294D01*
X174997868Y-107579798D01*
X174994268Y-107604066D01*
X174988307Y-107627865D01*
X174980042Y-107650964D01*
X174969552Y-107673143D01*
X174956940Y-107694186D01*
X174942325Y-107713892D01*
X174925849Y-107732070D01*
X174907671Y-107748546D01*
X174887965Y-107763161D01*
X174866922Y-107775773D01*
X174844743Y-107786263D01*
X174821644Y-107794528D01*
X174797845Y-107800489D01*
X174773577Y-107804089D01*
X174749073Y-107805293D01*
X174099071Y-107805293D01*
X174074567Y-107804089D01*
X174050299Y-107800489D01*
X174026500Y-107794528D01*
X174003401Y-107786263D01*
X173981222Y-107775773D01*
X173960179Y-107763161D01*
X173940473Y-107748546D01*
X173922295Y-107732070D01*
X173905819Y-107713892D01*
X173891204Y-107694186D01*
X173878592Y-107673143D01*
X173868102Y-107650964D01*
X173859837Y-107627865D01*
X173853876Y-107604066D01*
X173850276Y-107579798D01*
X173849072Y-107555294D01*
X173849072Y-106655292D01*
X173850276Y-106630788D01*
X173853876Y-106606520D01*
X173859837Y-106582721D01*
X173868102Y-106559622D01*
X173878592Y-106537443D01*
X173891204Y-106516400D01*
X173905819Y-106496694D01*
X173922295Y-106478516D01*
X173940473Y-106462040D01*
X173960179Y-106447425D01*
X173981222Y-106434813D01*
X174003401Y-106424323D01*
X174026500Y-106416058D01*
X174050299Y-106410097D01*
X174074567Y-106406497D01*
X174099071Y-106405293D01*
X174749073Y-106405293D01*
X174773577Y-106406497D01*
X174773577Y-106406497D01*
G37*
D14*
X174424072Y-107105293D03*
G04 #@! TD*
D10*
G04 #@! TO.C,R6*
G36*
X180769577Y-106406497D02*
X180793845Y-106410097D01*
X180817644Y-106416058D01*
X180840743Y-106424323D01*
X180862922Y-106434813D01*
X180883965Y-106447425D01*
X180903671Y-106462040D01*
X180921849Y-106478516D01*
X180938325Y-106496694D01*
X180952940Y-106516400D01*
X180965552Y-106537443D01*
X180976042Y-106559622D01*
X180984307Y-106582721D01*
X180990268Y-106606520D01*
X180993868Y-106630788D01*
X180995072Y-106655292D01*
X180995072Y-107555294D01*
X180993868Y-107579798D01*
X180990268Y-107604066D01*
X180984307Y-107627865D01*
X180976042Y-107650964D01*
X180965552Y-107673143D01*
X180952940Y-107694186D01*
X180938325Y-107713892D01*
X180921849Y-107732070D01*
X180903671Y-107748546D01*
X180883965Y-107763161D01*
X180862922Y-107775773D01*
X180840743Y-107786263D01*
X180817644Y-107794528D01*
X180793845Y-107800489D01*
X180769577Y-107804089D01*
X180745073Y-107805293D01*
X180095071Y-107805293D01*
X180070567Y-107804089D01*
X180046299Y-107800489D01*
X180022500Y-107794528D01*
X179999401Y-107786263D01*
X179977222Y-107775773D01*
X179956179Y-107763161D01*
X179936473Y-107748546D01*
X179918295Y-107732070D01*
X179901819Y-107713892D01*
X179887204Y-107694186D01*
X179874592Y-107673143D01*
X179864102Y-107650964D01*
X179855837Y-107627865D01*
X179849876Y-107604066D01*
X179846276Y-107579798D01*
X179845072Y-107555294D01*
X179845072Y-106655292D01*
X179846276Y-106630788D01*
X179849876Y-106606520D01*
X179855837Y-106582721D01*
X179864102Y-106559622D01*
X179874592Y-106537443D01*
X179887204Y-106516400D01*
X179901819Y-106496694D01*
X179918295Y-106478516D01*
X179936473Y-106462040D01*
X179956179Y-106447425D01*
X179977222Y-106434813D01*
X179999401Y-106424323D01*
X180022500Y-106416058D01*
X180046299Y-106410097D01*
X180070567Y-106406497D01*
X180095071Y-106405293D01*
X180745073Y-106405293D01*
X180769577Y-106406497D01*
X180769577Y-106406497D01*
G37*
D14*
X180420072Y-107105293D03*
D10*
G36*
X178719577Y-106406497D02*
X178743845Y-106410097D01*
X178767644Y-106416058D01*
X178790743Y-106424323D01*
X178812922Y-106434813D01*
X178833965Y-106447425D01*
X178853671Y-106462040D01*
X178871849Y-106478516D01*
X178888325Y-106496694D01*
X178902940Y-106516400D01*
X178915552Y-106537443D01*
X178926042Y-106559622D01*
X178934307Y-106582721D01*
X178940268Y-106606520D01*
X178943868Y-106630788D01*
X178945072Y-106655292D01*
X178945072Y-107555294D01*
X178943868Y-107579798D01*
X178940268Y-107604066D01*
X178934307Y-107627865D01*
X178926042Y-107650964D01*
X178915552Y-107673143D01*
X178902940Y-107694186D01*
X178888325Y-107713892D01*
X178871849Y-107732070D01*
X178853671Y-107748546D01*
X178833965Y-107763161D01*
X178812922Y-107775773D01*
X178790743Y-107786263D01*
X178767644Y-107794528D01*
X178743845Y-107800489D01*
X178719577Y-107804089D01*
X178695073Y-107805293D01*
X178045071Y-107805293D01*
X178020567Y-107804089D01*
X177996299Y-107800489D01*
X177972500Y-107794528D01*
X177949401Y-107786263D01*
X177927222Y-107775773D01*
X177906179Y-107763161D01*
X177886473Y-107748546D01*
X177868295Y-107732070D01*
X177851819Y-107713892D01*
X177837204Y-107694186D01*
X177824592Y-107673143D01*
X177814102Y-107650964D01*
X177805837Y-107627865D01*
X177799876Y-107604066D01*
X177796276Y-107579798D01*
X177795072Y-107555294D01*
X177795072Y-106655292D01*
X177796276Y-106630788D01*
X177799876Y-106606520D01*
X177805837Y-106582721D01*
X177814102Y-106559622D01*
X177824592Y-106537443D01*
X177837204Y-106516400D01*
X177851819Y-106496694D01*
X177868295Y-106478516D01*
X177886473Y-106462040D01*
X177906179Y-106447425D01*
X177927222Y-106434813D01*
X177949401Y-106424323D01*
X177972500Y-106416058D01*
X177996299Y-106410097D01*
X178020567Y-106406497D01*
X178045071Y-106405293D01*
X178695073Y-106405293D01*
X178719577Y-106406497D01*
X178719577Y-106406497D01*
G37*
D14*
X178370072Y-107105293D03*
G04 #@! TD*
D10*
G04 #@! TO.C,R7*
G36*
X174773577Y-103866497D02*
X174797845Y-103870097D01*
X174821644Y-103876058D01*
X174844743Y-103884323D01*
X174866922Y-103894813D01*
X174887965Y-103907425D01*
X174907671Y-103922040D01*
X174925849Y-103938516D01*
X174942325Y-103956694D01*
X174956940Y-103976400D01*
X174969552Y-103997443D01*
X174980042Y-104019622D01*
X174988307Y-104042721D01*
X174994268Y-104066520D01*
X174997868Y-104090788D01*
X174999072Y-104115292D01*
X174999072Y-105015294D01*
X174997868Y-105039798D01*
X174994268Y-105064066D01*
X174988307Y-105087865D01*
X174980042Y-105110964D01*
X174969552Y-105133143D01*
X174956940Y-105154186D01*
X174942325Y-105173892D01*
X174925849Y-105192070D01*
X174907671Y-105208546D01*
X174887965Y-105223161D01*
X174866922Y-105235773D01*
X174844743Y-105246263D01*
X174821644Y-105254528D01*
X174797845Y-105260489D01*
X174773577Y-105264089D01*
X174749073Y-105265293D01*
X174099071Y-105265293D01*
X174074567Y-105264089D01*
X174050299Y-105260489D01*
X174026500Y-105254528D01*
X174003401Y-105246263D01*
X173981222Y-105235773D01*
X173960179Y-105223161D01*
X173940473Y-105208546D01*
X173922295Y-105192070D01*
X173905819Y-105173892D01*
X173891204Y-105154186D01*
X173878592Y-105133143D01*
X173868102Y-105110964D01*
X173859837Y-105087865D01*
X173853876Y-105064066D01*
X173850276Y-105039798D01*
X173849072Y-105015294D01*
X173849072Y-104115292D01*
X173850276Y-104090788D01*
X173853876Y-104066520D01*
X173859837Y-104042721D01*
X173868102Y-104019622D01*
X173878592Y-103997443D01*
X173891204Y-103976400D01*
X173905819Y-103956694D01*
X173922295Y-103938516D01*
X173940473Y-103922040D01*
X173960179Y-103907425D01*
X173981222Y-103894813D01*
X174003401Y-103884323D01*
X174026500Y-103876058D01*
X174050299Y-103870097D01*
X174074567Y-103866497D01*
X174099071Y-103865293D01*
X174749073Y-103865293D01*
X174773577Y-103866497D01*
X174773577Y-103866497D01*
G37*
D14*
X174424072Y-104565293D03*
D10*
G36*
X176823577Y-103866497D02*
X176847845Y-103870097D01*
X176871644Y-103876058D01*
X176894743Y-103884323D01*
X176916922Y-103894813D01*
X176937965Y-103907425D01*
X176957671Y-103922040D01*
X176975849Y-103938516D01*
X176992325Y-103956694D01*
X177006940Y-103976400D01*
X177019552Y-103997443D01*
X177030042Y-104019622D01*
X177038307Y-104042721D01*
X177044268Y-104066520D01*
X177047868Y-104090788D01*
X177049072Y-104115292D01*
X177049072Y-105015294D01*
X177047868Y-105039798D01*
X177044268Y-105064066D01*
X177038307Y-105087865D01*
X177030042Y-105110964D01*
X177019552Y-105133143D01*
X177006940Y-105154186D01*
X176992325Y-105173892D01*
X176975849Y-105192070D01*
X176957671Y-105208546D01*
X176937965Y-105223161D01*
X176916922Y-105235773D01*
X176894743Y-105246263D01*
X176871644Y-105254528D01*
X176847845Y-105260489D01*
X176823577Y-105264089D01*
X176799073Y-105265293D01*
X176149071Y-105265293D01*
X176124567Y-105264089D01*
X176100299Y-105260489D01*
X176076500Y-105254528D01*
X176053401Y-105246263D01*
X176031222Y-105235773D01*
X176010179Y-105223161D01*
X175990473Y-105208546D01*
X175972295Y-105192070D01*
X175955819Y-105173892D01*
X175941204Y-105154186D01*
X175928592Y-105133143D01*
X175918102Y-105110964D01*
X175909837Y-105087865D01*
X175903876Y-105064066D01*
X175900276Y-105039798D01*
X175899072Y-105015294D01*
X175899072Y-104115292D01*
X175900276Y-104090788D01*
X175903876Y-104066520D01*
X175909837Y-104042721D01*
X175918102Y-104019622D01*
X175928592Y-103997443D01*
X175941204Y-103976400D01*
X175955819Y-103956694D01*
X175972295Y-103938516D01*
X175990473Y-103922040D01*
X176010179Y-103907425D01*
X176031222Y-103894813D01*
X176053401Y-103884323D01*
X176076500Y-103876058D01*
X176100299Y-103870097D01*
X176124567Y-103866497D01*
X176149071Y-103865293D01*
X176799073Y-103865293D01*
X176823577Y-103866497D01*
X176823577Y-103866497D01*
G37*
D14*
X176474072Y-104565293D03*
G04 #@! TD*
D10*
G04 #@! TO.C,R8*
G36*
X178719577Y-103866497D02*
X178743845Y-103870097D01*
X178767644Y-103876058D01*
X178790743Y-103884323D01*
X178812922Y-103894813D01*
X178833965Y-103907425D01*
X178853671Y-103922040D01*
X178871849Y-103938516D01*
X178888325Y-103956694D01*
X178902940Y-103976400D01*
X178915552Y-103997443D01*
X178926042Y-104019622D01*
X178934307Y-104042721D01*
X178940268Y-104066520D01*
X178943868Y-104090788D01*
X178945072Y-104115292D01*
X178945072Y-105015294D01*
X178943868Y-105039798D01*
X178940268Y-105064066D01*
X178934307Y-105087865D01*
X178926042Y-105110964D01*
X178915552Y-105133143D01*
X178902940Y-105154186D01*
X178888325Y-105173892D01*
X178871849Y-105192070D01*
X178853671Y-105208546D01*
X178833965Y-105223161D01*
X178812922Y-105235773D01*
X178790743Y-105246263D01*
X178767644Y-105254528D01*
X178743845Y-105260489D01*
X178719577Y-105264089D01*
X178695073Y-105265293D01*
X178045071Y-105265293D01*
X178020567Y-105264089D01*
X177996299Y-105260489D01*
X177972500Y-105254528D01*
X177949401Y-105246263D01*
X177927222Y-105235773D01*
X177906179Y-105223161D01*
X177886473Y-105208546D01*
X177868295Y-105192070D01*
X177851819Y-105173892D01*
X177837204Y-105154186D01*
X177824592Y-105133143D01*
X177814102Y-105110964D01*
X177805837Y-105087865D01*
X177799876Y-105064066D01*
X177796276Y-105039798D01*
X177795072Y-105015294D01*
X177795072Y-104115292D01*
X177796276Y-104090788D01*
X177799876Y-104066520D01*
X177805837Y-104042721D01*
X177814102Y-104019622D01*
X177824592Y-103997443D01*
X177837204Y-103976400D01*
X177851819Y-103956694D01*
X177868295Y-103938516D01*
X177886473Y-103922040D01*
X177906179Y-103907425D01*
X177927222Y-103894813D01*
X177949401Y-103884323D01*
X177972500Y-103876058D01*
X177996299Y-103870097D01*
X178020567Y-103866497D01*
X178045071Y-103865293D01*
X178695073Y-103865293D01*
X178719577Y-103866497D01*
X178719577Y-103866497D01*
G37*
D14*
X178370072Y-104565293D03*
D10*
G36*
X180769577Y-103866497D02*
X180793845Y-103870097D01*
X180817644Y-103876058D01*
X180840743Y-103884323D01*
X180862922Y-103894813D01*
X180883965Y-103907425D01*
X180903671Y-103922040D01*
X180921849Y-103938516D01*
X180938325Y-103956694D01*
X180952940Y-103976400D01*
X180965552Y-103997443D01*
X180976042Y-104019622D01*
X180984307Y-104042721D01*
X180990268Y-104066520D01*
X180993868Y-104090788D01*
X180995072Y-104115292D01*
X180995072Y-105015294D01*
X180993868Y-105039798D01*
X180990268Y-105064066D01*
X180984307Y-105087865D01*
X180976042Y-105110964D01*
X180965552Y-105133143D01*
X180952940Y-105154186D01*
X180938325Y-105173892D01*
X180921849Y-105192070D01*
X180903671Y-105208546D01*
X180883965Y-105223161D01*
X180862922Y-105235773D01*
X180840743Y-105246263D01*
X180817644Y-105254528D01*
X180793845Y-105260489D01*
X180769577Y-105264089D01*
X180745073Y-105265293D01*
X180095071Y-105265293D01*
X180070567Y-105264089D01*
X180046299Y-105260489D01*
X180022500Y-105254528D01*
X179999401Y-105246263D01*
X179977222Y-105235773D01*
X179956179Y-105223161D01*
X179936473Y-105208546D01*
X179918295Y-105192070D01*
X179901819Y-105173892D01*
X179887204Y-105154186D01*
X179874592Y-105133143D01*
X179864102Y-105110964D01*
X179855837Y-105087865D01*
X179849876Y-105064066D01*
X179846276Y-105039798D01*
X179845072Y-105015294D01*
X179845072Y-104115292D01*
X179846276Y-104090788D01*
X179849876Y-104066520D01*
X179855837Y-104042721D01*
X179864102Y-104019622D01*
X179874592Y-103997443D01*
X179887204Y-103976400D01*
X179901819Y-103956694D01*
X179918295Y-103938516D01*
X179936473Y-103922040D01*
X179956179Y-103907425D01*
X179977222Y-103894813D01*
X179999401Y-103884323D01*
X180022500Y-103876058D01*
X180046299Y-103870097D01*
X180070567Y-103866497D01*
X180095071Y-103865293D01*
X180745073Y-103865293D01*
X180769577Y-103866497D01*
X180769577Y-103866497D01*
G37*
D14*
X180420072Y-104565293D03*
G04 #@! TD*
D10*
G04 #@! TO.C,R9*
G36*
X173129577Y-109316497D02*
X173153845Y-109320097D01*
X173177644Y-109326058D01*
X173200743Y-109334323D01*
X173222922Y-109344813D01*
X173243965Y-109357425D01*
X173263671Y-109372040D01*
X173281849Y-109388516D01*
X173298325Y-109406694D01*
X173312940Y-109426400D01*
X173325552Y-109447443D01*
X173336042Y-109469622D01*
X173344307Y-109492721D01*
X173350268Y-109516520D01*
X173353868Y-109540788D01*
X173355072Y-109565292D01*
X173355072Y-110215294D01*
X173353868Y-110239798D01*
X173350268Y-110264066D01*
X173344307Y-110287865D01*
X173336042Y-110310964D01*
X173325552Y-110333143D01*
X173312940Y-110354186D01*
X173298325Y-110373892D01*
X173281849Y-110392070D01*
X173263671Y-110408546D01*
X173243965Y-110423161D01*
X173222922Y-110435773D01*
X173200743Y-110446263D01*
X173177644Y-110454528D01*
X173153845Y-110460489D01*
X173129577Y-110464089D01*
X173105073Y-110465293D01*
X172205071Y-110465293D01*
X172180567Y-110464089D01*
X172156299Y-110460489D01*
X172132500Y-110454528D01*
X172109401Y-110446263D01*
X172087222Y-110435773D01*
X172066179Y-110423161D01*
X172046473Y-110408546D01*
X172028295Y-110392070D01*
X172011819Y-110373892D01*
X171997204Y-110354186D01*
X171984592Y-110333143D01*
X171974102Y-110310964D01*
X171965837Y-110287865D01*
X171959876Y-110264066D01*
X171956276Y-110239798D01*
X171955072Y-110215294D01*
X171955072Y-109565292D01*
X171956276Y-109540788D01*
X171959876Y-109516520D01*
X171965837Y-109492721D01*
X171974102Y-109469622D01*
X171984592Y-109447443D01*
X171997204Y-109426400D01*
X172011819Y-109406694D01*
X172028295Y-109388516D01*
X172046473Y-109372040D01*
X172066179Y-109357425D01*
X172087222Y-109344813D01*
X172109401Y-109334323D01*
X172132500Y-109326058D01*
X172156299Y-109320097D01*
X172180567Y-109316497D01*
X172205071Y-109315293D01*
X173105073Y-109315293D01*
X173129577Y-109316497D01*
X173129577Y-109316497D01*
G37*
D14*
X172655072Y-109890293D03*
D10*
G36*
X173129577Y-111366497D02*
X173153845Y-111370097D01*
X173177644Y-111376058D01*
X173200743Y-111384323D01*
X173222922Y-111394813D01*
X173243965Y-111407425D01*
X173263671Y-111422040D01*
X173281849Y-111438516D01*
X173298325Y-111456694D01*
X173312940Y-111476400D01*
X173325552Y-111497443D01*
X173336042Y-111519622D01*
X173344307Y-111542721D01*
X173350268Y-111566520D01*
X173353868Y-111590788D01*
X173355072Y-111615292D01*
X173355072Y-112265294D01*
X173353868Y-112289798D01*
X173350268Y-112314066D01*
X173344307Y-112337865D01*
X173336042Y-112360964D01*
X173325552Y-112383143D01*
X173312940Y-112404186D01*
X173298325Y-112423892D01*
X173281849Y-112442070D01*
X173263671Y-112458546D01*
X173243965Y-112473161D01*
X173222922Y-112485773D01*
X173200743Y-112496263D01*
X173177644Y-112504528D01*
X173153845Y-112510489D01*
X173129577Y-112514089D01*
X173105073Y-112515293D01*
X172205071Y-112515293D01*
X172180567Y-112514089D01*
X172156299Y-112510489D01*
X172132500Y-112504528D01*
X172109401Y-112496263D01*
X172087222Y-112485773D01*
X172066179Y-112473161D01*
X172046473Y-112458546D01*
X172028295Y-112442070D01*
X172011819Y-112423892D01*
X171997204Y-112404186D01*
X171984592Y-112383143D01*
X171974102Y-112360964D01*
X171965837Y-112337865D01*
X171959876Y-112314066D01*
X171956276Y-112289798D01*
X171955072Y-112265294D01*
X171955072Y-111615292D01*
X171956276Y-111590788D01*
X171959876Y-111566520D01*
X171965837Y-111542721D01*
X171974102Y-111519622D01*
X171984592Y-111497443D01*
X171997204Y-111476400D01*
X172011819Y-111456694D01*
X172028295Y-111438516D01*
X172046473Y-111422040D01*
X172066179Y-111407425D01*
X172087222Y-111394813D01*
X172109401Y-111384323D01*
X172132500Y-111376058D01*
X172156299Y-111370097D01*
X172180567Y-111366497D01*
X172205071Y-111365293D01*
X173105073Y-111365293D01*
X173129577Y-111366497D01*
X173129577Y-111366497D01*
G37*
D14*
X172655072Y-111940293D03*
G04 #@! TD*
D10*
G04 #@! TO.C,R10*
G36*
X173129577Y-106286497D02*
X173153845Y-106290097D01*
X173177644Y-106296058D01*
X173200743Y-106304323D01*
X173222922Y-106314813D01*
X173243965Y-106327425D01*
X173263671Y-106342040D01*
X173281849Y-106358516D01*
X173298325Y-106376694D01*
X173312940Y-106396400D01*
X173325552Y-106417443D01*
X173336042Y-106439622D01*
X173344307Y-106462721D01*
X173350268Y-106486520D01*
X173353868Y-106510788D01*
X173355072Y-106535292D01*
X173355072Y-107185294D01*
X173353868Y-107209798D01*
X173350268Y-107234066D01*
X173344307Y-107257865D01*
X173336042Y-107280964D01*
X173325552Y-107303143D01*
X173312940Y-107324186D01*
X173298325Y-107343892D01*
X173281849Y-107362070D01*
X173263671Y-107378546D01*
X173243965Y-107393161D01*
X173222922Y-107405773D01*
X173200743Y-107416263D01*
X173177644Y-107424528D01*
X173153845Y-107430489D01*
X173129577Y-107434089D01*
X173105073Y-107435293D01*
X172205071Y-107435293D01*
X172180567Y-107434089D01*
X172156299Y-107430489D01*
X172132500Y-107424528D01*
X172109401Y-107416263D01*
X172087222Y-107405773D01*
X172066179Y-107393161D01*
X172046473Y-107378546D01*
X172028295Y-107362070D01*
X172011819Y-107343892D01*
X171997204Y-107324186D01*
X171984592Y-107303143D01*
X171974102Y-107280964D01*
X171965837Y-107257865D01*
X171959876Y-107234066D01*
X171956276Y-107209798D01*
X171955072Y-107185294D01*
X171955072Y-106535292D01*
X171956276Y-106510788D01*
X171959876Y-106486520D01*
X171965837Y-106462721D01*
X171974102Y-106439622D01*
X171984592Y-106417443D01*
X171997204Y-106396400D01*
X172011819Y-106376694D01*
X172028295Y-106358516D01*
X172046473Y-106342040D01*
X172066179Y-106327425D01*
X172087222Y-106314813D01*
X172109401Y-106304323D01*
X172132500Y-106296058D01*
X172156299Y-106290097D01*
X172180567Y-106286497D01*
X172205071Y-106285293D01*
X173105073Y-106285293D01*
X173129577Y-106286497D01*
X173129577Y-106286497D01*
G37*
D14*
X172655072Y-106860293D03*
D10*
G36*
X173129577Y-104236497D02*
X173153845Y-104240097D01*
X173177644Y-104246058D01*
X173200743Y-104254323D01*
X173222922Y-104264813D01*
X173243965Y-104277425D01*
X173263671Y-104292040D01*
X173281849Y-104308516D01*
X173298325Y-104326694D01*
X173312940Y-104346400D01*
X173325552Y-104367443D01*
X173336042Y-104389622D01*
X173344307Y-104412721D01*
X173350268Y-104436520D01*
X173353868Y-104460788D01*
X173355072Y-104485292D01*
X173355072Y-105135294D01*
X173353868Y-105159798D01*
X173350268Y-105184066D01*
X173344307Y-105207865D01*
X173336042Y-105230964D01*
X173325552Y-105253143D01*
X173312940Y-105274186D01*
X173298325Y-105293892D01*
X173281849Y-105312070D01*
X173263671Y-105328546D01*
X173243965Y-105343161D01*
X173222922Y-105355773D01*
X173200743Y-105366263D01*
X173177644Y-105374528D01*
X173153845Y-105380489D01*
X173129577Y-105384089D01*
X173105073Y-105385293D01*
X172205071Y-105385293D01*
X172180567Y-105384089D01*
X172156299Y-105380489D01*
X172132500Y-105374528D01*
X172109401Y-105366263D01*
X172087222Y-105355773D01*
X172066179Y-105343161D01*
X172046473Y-105328546D01*
X172028295Y-105312070D01*
X172011819Y-105293892D01*
X171997204Y-105274186D01*
X171984592Y-105253143D01*
X171974102Y-105230964D01*
X171965837Y-105207865D01*
X171959876Y-105184066D01*
X171956276Y-105159798D01*
X171955072Y-105135294D01*
X171955072Y-104485292D01*
X171956276Y-104460788D01*
X171959876Y-104436520D01*
X171965837Y-104412721D01*
X171974102Y-104389622D01*
X171984592Y-104367443D01*
X171997204Y-104346400D01*
X172011819Y-104326694D01*
X172028295Y-104308516D01*
X172046473Y-104292040D01*
X172066179Y-104277425D01*
X172087222Y-104264813D01*
X172109401Y-104254323D01*
X172132500Y-104246058D01*
X172156299Y-104240097D01*
X172180567Y-104236497D01*
X172205071Y-104235293D01*
X173105073Y-104235293D01*
X173129577Y-104236497D01*
X173129577Y-104236497D01*
G37*
D14*
X172655072Y-104810293D03*
G04 #@! TD*
M02*
