G04 #@! TF.GenerationSoftware,KiCad,Pcbnew,5.0.0*
G04 #@! TF.CreationDate,2018-10-21T13:37:26+10:00*
G04 #@! TF.ProjectId,driver,6472697665722E6B696361645F706362,rev?*
G04 #@! TF.SameCoordinates,Original*
G04 #@! TF.FileFunction,Legend,Bot*
G04 #@! TF.FilePolarity,Positive*
%FSLAX46Y46*%
G04 Gerber Fmt 4.6, Leading zero omitted, Abs format (unit mm)*
G04 Created by KiCad (PCBNEW 5.0.0) date Sun Oct 21 13:37:26 2018*
%MOMM*%
%LPD*%
G01*
G04 APERTURE LIST*
%ADD10C,0.100000*%
%ADD11C,0.150000*%
%ADD12C,0.300000*%
%ADD13C,0.400000*%
%ADD14C,0.200000*%
%ADD15C,0.120000*%
G04 APERTURE END LIST*
D10*
D11*
X177002200Y-166007200D02*
X177002200Y-198007200D01*
X285002200Y-198007200D01*
X285002200Y-166007200D01*
X177002200Y-166007200D01*
D10*
D11*
X10000000Y-10000000D02*
X10000000Y-200007200D01*
X287002200Y-200007200D01*
X287002200Y-10000000D01*
X10000000Y-10000000D01*
D10*
D11*
X12000000Y-12000000D02*
X12000000Y-198007200D01*
X285002200Y-198007200D01*
X285002200Y-12000000D01*
X12000000Y-12000000D01*
D10*
D11*
X60000000Y-12000000D02*
X60000000Y-10000000D01*
D10*
D11*
X110000000Y-12000000D02*
X110000000Y-10000000D01*
D10*
D11*
X160000000Y-12000000D02*
X160000000Y-10000000D01*
D10*
D11*
X210000000Y-12000000D02*
X210000000Y-10000000D01*
D10*
D11*
X260000000Y-12000000D02*
X260000000Y-10000000D01*
D10*
D11*
X36065476Y-11588095D02*
X35322619Y-11588095D01*
X35694047Y-11588095D02*
X35694047Y-10288095D01*
X35570238Y-10473809D01*
X35446428Y-10597619D01*
X35322619Y-10659523D01*
D10*
D11*
X85322619Y-10411904D02*
X85384523Y-10350000D01*
X85508333Y-10288095D01*
X85817857Y-10288095D01*
X85941666Y-10350000D01*
X86003571Y-10411904D01*
X86065476Y-10535714D01*
X86065476Y-10659523D01*
X86003571Y-10845238D01*
X85260714Y-11588095D01*
X86065476Y-11588095D01*
D10*
D11*
X135260714Y-10288095D02*
X136065476Y-10288095D01*
X135632142Y-10783333D01*
X135817857Y-10783333D01*
X135941666Y-10845238D01*
X136003571Y-10907142D01*
X136065476Y-11030952D01*
X136065476Y-11340476D01*
X136003571Y-11464285D01*
X135941666Y-11526190D01*
X135817857Y-11588095D01*
X135446428Y-11588095D01*
X135322619Y-11526190D01*
X135260714Y-11464285D01*
D10*
D11*
X185941666Y-10721428D02*
X185941666Y-11588095D01*
X185632142Y-10226190D02*
X185322619Y-11154761D01*
X186127380Y-11154761D01*
D10*
D11*
X236003571Y-10288095D02*
X235384523Y-10288095D01*
X235322619Y-10907142D01*
X235384523Y-10845238D01*
X235508333Y-10783333D01*
X235817857Y-10783333D01*
X235941666Y-10845238D01*
X236003571Y-10907142D01*
X236065476Y-11030952D01*
X236065476Y-11340476D01*
X236003571Y-11464285D01*
X235941666Y-11526190D01*
X235817857Y-11588095D01*
X235508333Y-11588095D01*
X235384523Y-11526190D01*
X235322619Y-11464285D01*
D10*
D11*
X285941666Y-10288095D02*
X285694047Y-10288095D01*
X285570238Y-10350000D01*
X285508333Y-10411904D01*
X285384523Y-10597619D01*
X285322619Y-10845238D01*
X285322619Y-11340476D01*
X285384523Y-11464285D01*
X285446428Y-11526190D01*
X285570238Y-11588095D01*
X285817857Y-11588095D01*
X285941666Y-11526190D01*
X286003571Y-11464285D01*
X286065476Y-11340476D01*
X286065476Y-11030952D01*
X286003571Y-10907142D01*
X285941666Y-10845238D01*
X285817857Y-10783333D01*
X285570238Y-10783333D01*
X285446428Y-10845238D01*
X285384523Y-10907142D01*
X285322619Y-11030952D01*
D10*
D11*
X60000000Y-198007200D02*
X60000000Y-200007200D01*
D10*
D11*
X110000000Y-198007200D02*
X110000000Y-200007200D01*
D10*
D11*
X160000000Y-198007200D02*
X160000000Y-200007200D01*
D10*
D11*
X210000000Y-198007200D02*
X210000000Y-200007200D01*
D10*
D11*
X260000000Y-198007200D02*
X260000000Y-200007200D01*
D10*
D11*
X36065476Y-199595295D02*
X35322619Y-199595295D01*
X35694047Y-199595295D02*
X35694047Y-198295295D01*
X35570238Y-198481009D01*
X35446428Y-198604819D01*
X35322619Y-198666723D01*
D10*
D11*
X85322619Y-198419104D02*
X85384523Y-198357200D01*
X85508333Y-198295295D01*
X85817857Y-198295295D01*
X85941666Y-198357200D01*
X86003571Y-198419104D01*
X86065476Y-198542914D01*
X86065476Y-198666723D01*
X86003571Y-198852438D01*
X85260714Y-199595295D01*
X86065476Y-199595295D01*
D10*
D11*
X135260714Y-198295295D02*
X136065476Y-198295295D01*
X135632142Y-198790533D01*
X135817857Y-198790533D01*
X135941666Y-198852438D01*
X136003571Y-198914342D01*
X136065476Y-199038152D01*
X136065476Y-199347676D01*
X136003571Y-199471485D01*
X135941666Y-199533390D01*
X135817857Y-199595295D01*
X135446428Y-199595295D01*
X135322619Y-199533390D01*
X135260714Y-199471485D01*
D10*
D11*
X185941666Y-198728628D02*
X185941666Y-199595295D01*
X185632142Y-198233390D02*
X185322619Y-199161961D01*
X186127380Y-199161961D01*
D10*
D11*
X236003571Y-198295295D02*
X235384523Y-198295295D01*
X235322619Y-198914342D01*
X235384523Y-198852438D01*
X235508333Y-198790533D01*
X235817857Y-198790533D01*
X235941666Y-198852438D01*
X236003571Y-198914342D01*
X236065476Y-199038152D01*
X236065476Y-199347676D01*
X236003571Y-199471485D01*
X235941666Y-199533390D01*
X235817857Y-199595295D01*
X235508333Y-199595295D01*
X235384523Y-199533390D01*
X235322619Y-199471485D01*
D10*
D11*
X285941666Y-198295295D02*
X285694047Y-198295295D01*
X285570238Y-198357200D01*
X285508333Y-198419104D01*
X285384523Y-198604819D01*
X285322619Y-198852438D01*
X285322619Y-199347676D01*
X285384523Y-199471485D01*
X285446428Y-199533390D01*
X285570238Y-199595295D01*
X285817857Y-199595295D01*
X285941666Y-199533390D01*
X286003571Y-199471485D01*
X286065476Y-199347676D01*
X286065476Y-199038152D01*
X286003571Y-198914342D01*
X285941666Y-198852438D01*
X285817857Y-198790533D01*
X285570238Y-198790533D01*
X285446428Y-198852438D01*
X285384523Y-198914342D01*
X285322619Y-199038152D01*
D10*
D11*
X10000000Y-60000000D02*
X12000000Y-60000000D01*
D10*
D11*
X10000000Y-110000000D02*
X12000000Y-110000000D01*
D10*
D11*
X10000000Y-160000000D02*
X12000000Y-160000000D01*
D10*
D11*
X10690476Y-35216666D02*
X11309523Y-35216666D01*
X10566666Y-35588095D02*
X11000000Y-34288095D01*
X11433333Y-35588095D01*
D10*
D11*
X11092857Y-84907142D02*
X11278571Y-84969047D01*
X11340476Y-85030952D01*
X11402380Y-85154761D01*
X11402380Y-85340476D01*
X11340476Y-85464285D01*
X11278571Y-85526190D01*
X11154761Y-85588095D01*
X10659523Y-85588095D01*
X10659523Y-84288095D01*
X11092857Y-84288095D01*
X11216666Y-84350000D01*
X11278571Y-84411904D01*
X11340476Y-84535714D01*
X11340476Y-84659523D01*
X11278571Y-84783333D01*
X11216666Y-84845238D01*
X11092857Y-84907142D01*
X10659523Y-84907142D01*
D10*
D11*
X11402380Y-135464285D02*
X11340476Y-135526190D01*
X11154761Y-135588095D01*
X11030952Y-135588095D01*
X10845238Y-135526190D01*
X10721428Y-135402380D01*
X10659523Y-135278571D01*
X10597619Y-135030952D01*
X10597619Y-134845238D01*
X10659523Y-134597619D01*
X10721428Y-134473809D01*
X10845238Y-134350000D01*
X11030952Y-134288095D01*
X11154761Y-134288095D01*
X11340476Y-134350000D01*
X11402380Y-134411904D01*
D10*
D11*
X10659523Y-185588095D02*
X10659523Y-184288095D01*
X10969047Y-184288095D01*
X11154761Y-184350000D01*
X11278571Y-184473809D01*
X11340476Y-184597619D01*
X11402380Y-184845238D01*
X11402380Y-185030952D01*
X11340476Y-185278571D01*
X11278571Y-185402380D01*
X11154761Y-185526190D01*
X10969047Y-185588095D01*
X10659523Y-185588095D01*
D10*
D11*
X287002200Y-60000000D02*
X285002200Y-60000000D01*
D10*
D11*
X287002200Y-110000000D02*
X285002200Y-110000000D01*
D10*
D11*
X287002200Y-160000000D02*
X285002200Y-160000000D01*
D10*
D11*
X285692676Y-35216666D02*
X286311723Y-35216666D01*
X285568866Y-35588095D02*
X286002200Y-34288095D01*
X286435533Y-35588095D01*
D10*
D11*
X286095057Y-84907142D02*
X286280771Y-84969047D01*
X286342676Y-85030952D01*
X286404580Y-85154761D01*
X286404580Y-85340476D01*
X286342676Y-85464285D01*
X286280771Y-85526190D01*
X286156961Y-85588095D01*
X285661723Y-85588095D01*
X285661723Y-84288095D01*
X286095057Y-84288095D01*
X286218866Y-84350000D01*
X286280771Y-84411904D01*
X286342676Y-84535714D01*
X286342676Y-84659523D01*
X286280771Y-84783333D01*
X286218866Y-84845238D01*
X286095057Y-84907142D01*
X285661723Y-84907142D01*
D10*
D11*
X286404580Y-135464285D02*
X286342676Y-135526190D01*
X286156961Y-135588095D01*
X286033152Y-135588095D01*
X285847438Y-135526190D01*
X285723628Y-135402380D01*
X285661723Y-135278571D01*
X285599819Y-135030952D01*
X285599819Y-134845238D01*
X285661723Y-134597619D01*
X285723628Y-134473809D01*
X285847438Y-134350000D01*
X286033152Y-134288095D01*
X286156961Y-134288095D01*
X286342676Y-134350000D01*
X286404580Y-134411904D01*
D10*
D11*
X285661723Y-185588095D02*
X285661723Y-184288095D01*
X285971247Y-184288095D01*
X286156961Y-184350000D01*
X286280771Y-184473809D01*
X286342676Y-184597619D01*
X286404580Y-184845238D01*
X286404580Y-185030952D01*
X286342676Y-185278571D01*
X286280771Y-185402380D01*
X286156961Y-185526190D01*
X285971247Y-185588095D01*
X285661723Y-185588095D01*
D10*
D11*
X200434342Y-193785771D02*
X200434342Y-192285771D01*
X200791485Y-192285771D01*
X201005771Y-192357200D01*
X201148628Y-192500057D01*
X201220057Y-192642914D01*
X201291485Y-192928628D01*
X201291485Y-193142914D01*
X201220057Y-193428628D01*
X201148628Y-193571485D01*
X201005771Y-193714342D01*
X200791485Y-193785771D01*
X200434342Y-193785771D01*
X202577200Y-193785771D02*
X202577200Y-193000057D01*
X202505771Y-192857200D01*
X202362914Y-192785771D01*
X202077200Y-192785771D01*
X201934342Y-192857200D01*
X202577200Y-193714342D02*
X202434342Y-193785771D01*
X202077200Y-193785771D01*
X201934342Y-193714342D01*
X201862914Y-193571485D01*
X201862914Y-193428628D01*
X201934342Y-193285771D01*
X202077200Y-193214342D01*
X202434342Y-193214342D01*
X202577200Y-193142914D01*
X203077200Y-192785771D02*
X203648628Y-192785771D01*
X203291485Y-192285771D02*
X203291485Y-193571485D01*
X203362914Y-193714342D01*
X203505771Y-193785771D01*
X203648628Y-193785771D01*
X204720057Y-193714342D02*
X204577200Y-193785771D01*
X204291485Y-193785771D01*
X204148628Y-193714342D01*
X204077200Y-193571485D01*
X204077200Y-193000057D01*
X204148628Y-192857200D01*
X204291485Y-192785771D01*
X204577200Y-192785771D01*
X204720057Y-192857200D01*
X204791485Y-193000057D01*
X204791485Y-193142914D01*
X204077200Y-193285771D01*
X205434342Y-193642914D02*
X205505771Y-193714342D01*
X205434342Y-193785771D01*
X205362914Y-193714342D01*
X205434342Y-193642914D01*
X205434342Y-193785771D01*
X205434342Y-192857200D02*
X205505771Y-192928628D01*
X205434342Y-193000057D01*
X205362914Y-192928628D01*
X205434342Y-192857200D01*
X205434342Y-193000057D01*
D10*
D11*
X177002200Y-194507200D02*
X285002200Y-194507200D01*
D10*
D11*
X178434342Y-196585771D02*
X178434342Y-195085771D01*
X179291485Y-196585771D02*
X178648628Y-195728628D01*
X179291485Y-195085771D02*
X178434342Y-195942914D01*
X179934342Y-196585771D02*
X179934342Y-195585771D01*
X179934342Y-195085771D02*
X179862914Y-195157200D01*
X179934342Y-195228628D01*
X180005771Y-195157200D01*
X179934342Y-195085771D01*
X179934342Y-195228628D01*
X181505771Y-196442914D02*
X181434342Y-196514342D01*
X181220057Y-196585771D01*
X181077200Y-196585771D01*
X180862914Y-196514342D01*
X180720057Y-196371485D01*
X180648628Y-196228628D01*
X180577200Y-195942914D01*
X180577200Y-195728628D01*
X180648628Y-195442914D01*
X180720057Y-195300057D01*
X180862914Y-195157200D01*
X181077200Y-195085771D01*
X181220057Y-195085771D01*
X181434342Y-195157200D01*
X181505771Y-195228628D01*
X182791485Y-196585771D02*
X182791485Y-195800057D01*
X182720057Y-195657200D01*
X182577200Y-195585771D01*
X182291485Y-195585771D01*
X182148628Y-195657200D01*
X182791485Y-196514342D02*
X182648628Y-196585771D01*
X182291485Y-196585771D01*
X182148628Y-196514342D01*
X182077200Y-196371485D01*
X182077200Y-196228628D01*
X182148628Y-196085771D01*
X182291485Y-196014342D01*
X182648628Y-196014342D01*
X182791485Y-195942914D01*
X184148628Y-196585771D02*
X184148628Y-195085771D01*
X184148628Y-196514342D02*
X184005771Y-196585771D01*
X183720057Y-196585771D01*
X183577200Y-196514342D01*
X183505771Y-196442914D01*
X183434342Y-196300057D01*
X183434342Y-195871485D01*
X183505771Y-195728628D01*
X183577200Y-195657200D01*
X183720057Y-195585771D01*
X184005771Y-195585771D01*
X184148628Y-195657200D01*
X186005771Y-195800057D02*
X186505771Y-195800057D01*
X186720057Y-196585771D02*
X186005771Y-196585771D01*
X186005771Y-195085771D01*
X186720057Y-195085771D01*
X187362914Y-196442914D02*
X187434342Y-196514342D01*
X187362914Y-196585771D01*
X187291485Y-196514342D01*
X187362914Y-196442914D01*
X187362914Y-196585771D01*
X188077200Y-196585771D02*
X188077200Y-195085771D01*
X188434342Y-195085771D01*
X188648628Y-195157200D01*
X188791485Y-195300057D01*
X188862914Y-195442914D01*
X188934342Y-195728628D01*
X188934342Y-195942914D01*
X188862914Y-196228628D01*
X188791485Y-196371485D01*
X188648628Y-196514342D01*
X188434342Y-196585771D01*
X188077200Y-196585771D01*
X189577200Y-196442914D02*
X189648628Y-196514342D01*
X189577200Y-196585771D01*
X189505771Y-196514342D01*
X189577200Y-196442914D01*
X189577200Y-196585771D01*
X190220057Y-196157200D02*
X190934342Y-196157200D01*
X190077200Y-196585771D02*
X190577200Y-195085771D01*
X191077200Y-196585771D01*
X191577200Y-196442914D02*
X191648628Y-196514342D01*
X191577200Y-196585771D01*
X191505771Y-196514342D01*
X191577200Y-196442914D01*
X191577200Y-196585771D01*
X194577200Y-196585771D02*
X194577200Y-195085771D01*
X194720057Y-196014342D02*
X195148628Y-196585771D01*
X195148628Y-195585771D02*
X194577200Y-196157200D01*
X195791485Y-196585771D02*
X195791485Y-195585771D01*
X195791485Y-195085771D02*
X195720057Y-195157200D01*
X195791485Y-195228628D01*
X195862914Y-195157200D01*
X195791485Y-195085771D01*
X195791485Y-195228628D01*
X197148628Y-196514342D02*
X197005771Y-196585771D01*
X196720057Y-196585771D01*
X196577200Y-196514342D01*
X196505771Y-196442914D01*
X196434342Y-196300057D01*
X196434342Y-195871485D01*
X196505771Y-195728628D01*
X196577200Y-195657200D01*
X196720057Y-195585771D01*
X197005771Y-195585771D01*
X197148628Y-195657200D01*
X198434342Y-196585771D02*
X198434342Y-195800057D01*
X198362914Y-195657200D01*
X198220057Y-195585771D01*
X197934342Y-195585771D01*
X197791485Y-195657200D01*
X198434342Y-196514342D02*
X198291485Y-196585771D01*
X197934342Y-196585771D01*
X197791485Y-196514342D01*
X197720057Y-196371485D01*
X197720057Y-196228628D01*
X197791485Y-196085771D01*
X197934342Y-196014342D01*
X198291485Y-196014342D01*
X198434342Y-195942914D01*
X199791485Y-196585771D02*
X199791485Y-195085771D01*
X199791485Y-196514342D02*
X199648628Y-196585771D01*
X199362914Y-196585771D01*
X199220057Y-196514342D01*
X199148628Y-196442914D01*
X199077200Y-196300057D01*
X199077200Y-195871485D01*
X199148628Y-195728628D01*
X199220057Y-195657200D01*
X199362914Y-195585771D01*
X199648628Y-195585771D01*
X199791485Y-195657200D01*
X202362914Y-195085771D02*
X201648628Y-195085771D01*
X201577200Y-195800057D01*
X201648628Y-195728628D01*
X201791485Y-195657200D01*
X202148628Y-195657200D01*
X202291485Y-195728628D01*
X202362914Y-195800057D01*
X202434342Y-195942914D01*
X202434342Y-196300057D01*
X202362914Y-196442914D01*
X202291485Y-196514342D01*
X202148628Y-196585771D01*
X201791485Y-196585771D01*
X201648628Y-196514342D01*
X201577200Y-196442914D01*
X203077200Y-196442914D02*
X203148628Y-196514342D01*
X203077200Y-196585771D01*
X203005771Y-196514342D01*
X203077200Y-196442914D01*
X203077200Y-196585771D01*
X204077200Y-195085771D02*
X204220057Y-195085771D01*
X204362914Y-195157200D01*
X204434342Y-195228628D01*
X204505771Y-195371485D01*
X204577200Y-195657200D01*
X204577200Y-196014342D01*
X204505771Y-196300057D01*
X204434342Y-196442914D01*
X204362914Y-196514342D01*
X204220057Y-196585771D01*
X204077200Y-196585771D01*
X203934342Y-196514342D01*
X203862914Y-196442914D01*
X203791485Y-196300057D01*
X203720057Y-196014342D01*
X203720057Y-195657200D01*
X203791485Y-195371485D01*
X203862914Y-195228628D01*
X203934342Y-195157200D01*
X204077200Y-195085771D01*
X205220057Y-196442914D02*
X205291485Y-196514342D01*
X205220057Y-196585771D01*
X205148628Y-196514342D01*
X205220057Y-196442914D01*
X205220057Y-196585771D01*
X206220057Y-195085771D02*
X206362914Y-195085771D01*
X206505771Y-195157200D01*
X206577200Y-195228628D01*
X206648628Y-195371485D01*
X206720057Y-195657200D01*
X206720057Y-196014342D01*
X206648628Y-196300057D01*
X206577200Y-196442914D01*
X206505771Y-196514342D01*
X206362914Y-196585771D01*
X206220057Y-196585771D01*
X206077200Y-196514342D01*
X206005771Y-196442914D01*
X205934342Y-196300057D01*
X205862914Y-196014342D01*
X205862914Y-195657200D01*
X205934342Y-195371485D01*
X206005771Y-195228628D01*
X206077200Y-195157200D01*
X206220057Y-195085771D01*
D10*
D11*
X177002200Y-191507200D02*
X285002200Y-191507200D01*
D10*
D12*
X264411485Y-193785771D02*
X263911485Y-193071485D01*
X263554342Y-193785771D02*
X263554342Y-192285771D01*
X264125771Y-192285771D01*
X264268628Y-192357200D01*
X264340057Y-192428628D01*
X264411485Y-192571485D01*
X264411485Y-192785771D01*
X264340057Y-192928628D01*
X264268628Y-193000057D01*
X264125771Y-193071485D01*
X263554342Y-193071485D01*
X265625771Y-193714342D02*
X265482914Y-193785771D01*
X265197200Y-193785771D01*
X265054342Y-193714342D01*
X264982914Y-193571485D01*
X264982914Y-193000057D01*
X265054342Y-192857200D01*
X265197200Y-192785771D01*
X265482914Y-192785771D01*
X265625771Y-192857200D01*
X265697200Y-193000057D01*
X265697200Y-193142914D01*
X264982914Y-193285771D01*
X266197200Y-192785771D02*
X266554342Y-193785771D01*
X266911485Y-192785771D01*
X267482914Y-193642914D02*
X267554342Y-193714342D01*
X267482914Y-193785771D01*
X267411485Y-193714342D01*
X267482914Y-193642914D01*
X267482914Y-193785771D01*
X267482914Y-192857200D02*
X267554342Y-192928628D01*
X267482914Y-193000057D01*
X267411485Y-192928628D01*
X267482914Y-192857200D01*
X267482914Y-193000057D01*
D10*
D11*
X178362914Y-193714342D02*
X178577200Y-193785771D01*
X178934342Y-193785771D01*
X179077200Y-193714342D01*
X179148628Y-193642914D01*
X179220057Y-193500057D01*
X179220057Y-193357200D01*
X179148628Y-193214342D01*
X179077200Y-193142914D01*
X178934342Y-193071485D01*
X178648628Y-193000057D01*
X178505771Y-192928628D01*
X178434342Y-192857200D01*
X178362914Y-192714342D01*
X178362914Y-192571485D01*
X178434342Y-192428628D01*
X178505771Y-192357200D01*
X178648628Y-192285771D01*
X179005771Y-192285771D01*
X179220057Y-192357200D01*
X179862914Y-193785771D02*
X179862914Y-192785771D01*
X179862914Y-192285771D02*
X179791485Y-192357200D01*
X179862914Y-192428628D01*
X179934342Y-192357200D01*
X179862914Y-192285771D01*
X179862914Y-192428628D01*
X180434342Y-192785771D02*
X181220057Y-192785771D01*
X180434342Y-193785771D01*
X181220057Y-193785771D01*
X182362914Y-193714342D02*
X182220057Y-193785771D01*
X181934342Y-193785771D01*
X181791485Y-193714342D01*
X181720057Y-193571485D01*
X181720057Y-193000057D01*
X181791485Y-192857200D01*
X181934342Y-192785771D01*
X182220057Y-192785771D01*
X182362914Y-192857200D01*
X182434342Y-193000057D01*
X182434342Y-193142914D01*
X181720057Y-193285771D01*
X183077200Y-193642914D02*
X183148628Y-193714342D01*
X183077200Y-193785771D01*
X183005771Y-193714342D01*
X183077200Y-193642914D01*
X183077200Y-193785771D01*
X183077200Y-192857200D02*
X183148628Y-192928628D01*
X183077200Y-193000057D01*
X183005771Y-192928628D01*
X183077200Y-192857200D01*
X183077200Y-193000057D01*
X184862914Y-193357200D02*
X185577200Y-193357200D01*
X184720057Y-193785771D02*
X185220057Y-192285771D01*
X185720057Y-193785771D01*
X186862914Y-192785771D02*
X186862914Y-193785771D01*
X186505771Y-192214342D02*
X186148628Y-193285771D01*
X187077200Y-193285771D01*
D10*
D11*
X263434342Y-196585771D02*
X263434342Y-195085771D01*
X264791485Y-196585771D02*
X264791485Y-195085771D01*
X264791485Y-196514342D02*
X264648628Y-196585771D01*
X264362914Y-196585771D01*
X264220057Y-196514342D01*
X264148628Y-196442914D01*
X264077200Y-196300057D01*
X264077200Y-195871485D01*
X264148628Y-195728628D01*
X264220057Y-195657200D01*
X264362914Y-195585771D01*
X264648628Y-195585771D01*
X264791485Y-195657200D01*
X265505771Y-196442914D02*
X265577200Y-196514342D01*
X265505771Y-196585771D01*
X265434342Y-196514342D01*
X265505771Y-196442914D01*
X265505771Y-196585771D01*
X265505771Y-195657200D02*
X265577200Y-195728628D01*
X265505771Y-195800057D01*
X265434342Y-195728628D01*
X265505771Y-195657200D01*
X265505771Y-195800057D01*
X268148628Y-196585771D02*
X267291485Y-196585771D01*
X267720057Y-196585771D02*
X267720057Y-195085771D01*
X267577200Y-195300057D01*
X267434342Y-195442914D01*
X267291485Y-195514342D01*
X269862914Y-195014342D02*
X268577200Y-196942914D01*
X271148628Y-196585771D02*
X270291485Y-196585771D01*
X270720057Y-196585771D02*
X270720057Y-195085771D01*
X270577200Y-195300057D01*
X270434342Y-195442914D01*
X270291485Y-195514342D01*
D10*
D11*
X177002200Y-187507200D02*
X285002200Y-187507200D01*
D10*
D13*
X178714580Y-188211961D02*
X179857438Y-188211961D01*
X179036009Y-190211961D02*
X179286009Y-188211961D01*
X180274104Y-190211961D02*
X180440771Y-188878628D01*
X180524104Y-188211961D02*
X180416961Y-188307200D01*
X180500295Y-188402438D01*
X180607438Y-188307200D01*
X180524104Y-188211961D01*
X180500295Y-188402438D01*
X181107438Y-188878628D02*
X181869342Y-188878628D01*
X181476485Y-188211961D02*
X181262200Y-189926247D01*
X181333628Y-190116723D01*
X181512200Y-190211961D01*
X181702676Y-190211961D01*
X182655057Y-190211961D02*
X182476485Y-190116723D01*
X182405057Y-189926247D01*
X182619342Y-188211961D01*
X184190771Y-190116723D02*
X183988390Y-190211961D01*
X183607438Y-190211961D01*
X183428866Y-190116723D01*
X183357438Y-189926247D01*
X183452676Y-189164342D01*
X183571723Y-188973866D01*
X183774104Y-188878628D01*
X184155057Y-188878628D01*
X184333628Y-188973866D01*
X184405057Y-189164342D01*
X184381247Y-189354819D01*
X183405057Y-189545295D01*
X185155057Y-190021485D02*
X185238390Y-190116723D01*
X185131247Y-190211961D01*
X185047914Y-190116723D01*
X185155057Y-190021485D01*
X185131247Y-190211961D01*
X185286009Y-188973866D02*
X185369342Y-189069104D01*
X185262200Y-189164342D01*
X185178866Y-189069104D01*
X185286009Y-188973866D01*
X185262200Y-189164342D01*
D10*
D11*
X178934342Y-185600057D02*
X178434342Y-185600057D01*
X178434342Y-186385771D02*
X178434342Y-184885771D01*
X179148628Y-184885771D01*
X179720057Y-186385771D02*
X179720057Y-185385771D01*
X179720057Y-184885771D02*
X179648628Y-184957200D01*
X179720057Y-185028628D01*
X179791485Y-184957200D01*
X179720057Y-184885771D01*
X179720057Y-185028628D01*
X180648628Y-186385771D02*
X180505771Y-186314342D01*
X180434342Y-186171485D01*
X180434342Y-184885771D01*
X181791485Y-186314342D02*
X181648628Y-186385771D01*
X181362914Y-186385771D01*
X181220057Y-186314342D01*
X181148628Y-186171485D01*
X181148628Y-185600057D01*
X181220057Y-185457200D01*
X181362914Y-185385771D01*
X181648628Y-185385771D01*
X181791485Y-185457200D01*
X181862914Y-185600057D01*
X181862914Y-185742914D01*
X181148628Y-185885771D01*
X182505771Y-186242914D02*
X182577200Y-186314342D01*
X182505771Y-186385771D01*
X182434342Y-186314342D01*
X182505771Y-186242914D01*
X182505771Y-186385771D01*
X182505771Y-185457200D02*
X182577200Y-185528628D01*
X182505771Y-185600057D01*
X182434342Y-185528628D01*
X182505771Y-185457200D01*
X182505771Y-185600057D01*
X185005771Y-186385771D02*
X185005771Y-184885771D01*
X185005771Y-186314342D02*
X184862914Y-186385771D01*
X184577200Y-186385771D01*
X184434342Y-186314342D01*
X184362914Y-186242914D01*
X184291485Y-186100057D01*
X184291485Y-185671485D01*
X184362914Y-185528628D01*
X184434342Y-185457200D01*
X184577200Y-185385771D01*
X184862914Y-185385771D01*
X185005771Y-185457200D01*
X185720057Y-186385771D02*
X185720057Y-185385771D01*
X185720057Y-185671485D02*
X185791485Y-185528628D01*
X185862914Y-185457200D01*
X186005771Y-185385771D01*
X186148628Y-185385771D01*
X186648628Y-186385771D02*
X186648628Y-185385771D01*
X186648628Y-184885771D02*
X186577200Y-184957200D01*
X186648628Y-185028628D01*
X186720057Y-184957200D01*
X186648628Y-184885771D01*
X186648628Y-185028628D01*
X187220057Y-185385771D02*
X187577200Y-186385771D01*
X187934342Y-185385771D01*
X189077200Y-186314342D02*
X188934342Y-186385771D01*
X188648628Y-186385771D01*
X188505771Y-186314342D01*
X188434342Y-186171485D01*
X188434342Y-185600057D01*
X188505771Y-185457200D01*
X188648628Y-185385771D01*
X188934342Y-185385771D01*
X189077200Y-185457200D01*
X189148628Y-185600057D01*
X189148628Y-185742914D01*
X188434342Y-185885771D01*
X189791485Y-186385771D02*
X189791485Y-185385771D01*
X189791485Y-185671485D02*
X189862914Y-185528628D01*
X189934342Y-185457200D01*
X190077200Y-185385771D01*
X190220057Y-185385771D01*
X190720057Y-186242914D02*
X190791485Y-186314342D01*
X190720057Y-186385771D01*
X190648628Y-186314342D01*
X190720057Y-186242914D01*
X190720057Y-186385771D01*
X191434342Y-186385771D02*
X191434342Y-184885771D01*
X191577200Y-185814342D02*
X192005771Y-186385771D01*
X192005771Y-185385771D02*
X191434342Y-185957200D01*
X192648628Y-186385771D02*
X192648628Y-185385771D01*
X192648628Y-184885771D02*
X192577200Y-184957200D01*
X192648628Y-185028628D01*
X192720057Y-184957200D01*
X192648628Y-184885771D01*
X192648628Y-185028628D01*
X194005771Y-186314342D02*
X193862914Y-186385771D01*
X193577200Y-186385771D01*
X193434342Y-186314342D01*
X193362914Y-186242914D01*
X193291485Y-186100057D01*
X193291485Y-185671485D01*
X193362914Y-185528628D01*
X193434342Y-185457200D01*
X193577200Y-185385771D01*
X193862914Y-185385771D01*
X194005771Y-185457200D01*
X195291485Y-186385771D02*
X195291485Y-185600057D01*
X195220057Y-185457200D01*
X195077200Y-185385771D01*
X194791485Y-185385771D01*
X194648628Y-185457200D01*
X195291485Y-186314342D02*
X195148628Y-186385771D01*
X194791485Y-186385771D01*
X194648628Y-186314342D01*
X194577200Y-186171485D01*
X194577200Y-186028628D01*
X194648628Y-185885771D01*
X194791485Y-185814342D01*
X195148628Y-185814342D01*
X195291485Y-185742914D01*
X196648628Y-186385771D02*
X196648628Y-184885771D01*
X196648628Y-186314342D02*
X196505771Y-186385771D01*
X196220057Y-186385771D01*
X196077200Y-186314342D01*
X196005771Y-186242914D01*
X195934342Y-186100057D01*
X195934342Y-185671485D01*
X196005771Y-185528628D01*
X196077200Y-185457200D01*
X196220057Y-185385771D01*
X196505771Y-185385771D01*
X196648628Y-185457200D01*
X197005771Y-186528628D02*
X198148628Y-186528628D01*
X198505771Y-185385771D02*
X198505771Y-186885771D01*
X198505771Y-185457200D02*
X198648628Y-185385771D01*
X198934342Y-185385771D01*
X199077200Y-185457200D01*
X199148628Y-185528628D01*
X199220057Y-185671485D01*
X199220057Y-186100057D01*
X199148628Y-186242914D01*
X199077200Y-186314342D01*
X198934342Y-186385771D01*
X198648628Y-186385771D01*
X198505771Y-186314342D01*
X200505771Y-186314342D02*
X200362914Y-186385771D01*
X200077200Y-186385771D01*
X199934342Y-186314342D01*
X199862914Y-186242914D01*
X199791485Y-186100057D01*
X199791485Y-185671485D01*
X199862914Y-185528628D01*
X199934342Y-185457200D01*
X200077200Y-185385771D01*
X200362914Y-185385771D01*
X200505771Y-185457200D01*
X201148628Y-186385771D02*
X201148628Y-184885771D01*
X201148628Y-185457200D02*
X201291485Y-185385771D01*
X201577200Y-185385771D01*
X201720057Y-185457200D01*
X201791485Y-185528628D01*
X201862914Y-185671485D01*
X201862914Y-186100057D01*
X201791485Y-186242914D01*
X201720057Y-186314342D01*
X201577200Y-186385771D01*
X201291485Y-186385771D01*
X201148628Y-186314342D01*
D10*
D11*
X177002200Y-181507200D02*
X285002200Y-181507200D01*
D10*
D11*
X178362914Y-183614342D02*
X178577200Y-183685771D01*
X178934342Y-183685771D01*
X179077200Y-183614342D01*
X179148628Y-183542914D01*
X179220057Y-183400057D01*
X179220057Y-183257200D01*
X179148628Y-183114342D01*
X179077200Y-183042914D01*
X178934342Y-182971485D01*
X178648628Y-182900057D01*
X178505771Y-182828628D01*
X178434342Y-182757200D01*
X178362914Y-182614342D01*
X178362914Y-182471485D01*
X178434342Y-182328628D01*
X178505771Y-182257200D01*
X178648628Y-182185771D01*
X179005771Y-182185771D01*
X179220057Y-182257200D01*
X179862914Y-183685771D02*
X179862914Y-182185771D01*
X180505771Y-183685771D02*
X180505771Y-182900057D01*
X180434342Y-182757200D01*
X180291485Y-182685771D01*
X180077200Y-182685771D01*
X179934342Y-182757200D01*
X179862914Y-182828628D01*
X181791485Y-183614342D02*
X181648628Y-183685771D01*
X181362914Y-183685771D01*
X181220057Y-183614342D01*
X181148628Y-183471485D01*
X181148628Y-182900057D01*
X181220057Y-182757200D01*
X181362914Y-182685771D01*
X181648628Y-182685771D01*
X181791485Y-182757200D01*
X181862914Y-182900057D01*
X181862914Y-183042914D01*
X181148628Y-183185771D01*
X183077200Y-183614342D02*
X182934342Y-183685771D01*
X182648628Y-183685771D01*
X182505771Y-183614342D01*
X182434342Y-183471485D01*
X182434342Y-182900057D01*
X182505771Y-182757200D01*
X182648628Y-182685771D01*
X182934342Y-182685771D01*
X183077200Y-182757200D01*
X183148628Y-182900057D01*
X183148628Y-183042914D01*
X182434342Y-183185771D01*
X183577200Y-182685771D02*
X184148628Y-182685771D01*
X183791485Y-182185771D02*
X183791485Y-183471485D01*
X183862914Y-183614342D01*
X184005771Y-183685771D01*
X184148628Y-183685771D01*
X184648628Y-183542914D02*
X184720057Y-183614342D01*
X184648628Y-183685771D01*
X184577200Y-183614342D01*
X184648628Y-183542914D01*
X184648628Y-183685771D01*
X184648628Y-182757200D02*
X184720057Y-182828628D01*
X184648628Y-182900057D01*
X184577200Y-182828628D01*
X184648628Y-182757200D01*
X184648628Y-182900057D01*
D10*
D11*
X197002200Y-191507200D02*
X197002200Y-194507200D01*
D10*
D11*
X261002200Y-191507200D02*
X261002200Y-198007200D01*
D14*
X172815000Y-113135000D02*
X172180000Y-113770000D01*
X172815000Y-113135000D02*
X173450000Y-113770000D01*
X172815000Y-115040000D02*
X172815000Y-113135000D01*
X170910000Y-118850000D02*
X172815000Y-115040000D01*
X182340000Y-113770000D02*
X181705000Y-114405000D01*
X182340000Y-113770000D02*
X182975000Y-114405000D01*
X182340000Y-121390000D02*
X182340000Y-113770000D01*
X170910000Y-121390000D02*
X182340000Y-121390000D01*
D10*
X169336904Y-96747380D02*
X169336904Y-95747380D01*
X169336904Y-96223571D02*
X168765476Y-96223571D01*
X168765476Y-96747380D02*
X168765476Y-95747380D01*
X167860714Y-96747380D02*
X167860714Y-96223571D01*
X167908333Y-96128333D01*
X168003571Y-96080714D01*
X168194047Y-96080714D01*
X168289285Y-96128333D01*
X167860714Y-96699761D02*
X167955952Y-96747380D01*
X168194047Y-96747380D01*
X168289285Y-96699761D01*
X168336904Y-96604523D01*
X168336904Y-96509285D01*
X168289285Y-96414047D01*
X168194047Y-96366428D01*
X167955952Y-96366428D01*
X167860714Y-96318809D01*
X167241666Y-96747380D02*
X167336904Y-96699761D01*
X167384523Y-96604523D01*
X167384523Y-95747380D01*
X167003571Y-96080714D02*
X166622619Y-96080714D01*
X166860714Y-96747380D02*
X166860714Y-95890238D01*
X166813095Y-95795000D01*
X166717857Y-95747380D01*
X166622619Y-95747380D01*
X166289285Y-96366428D02*
X165527380Y-96366428D01*
X165051190Y-96747380D02*
X165051190Y-95747380D01*
X165051190Y-96128333D02*
X164955952Y-96080714D01*
X164765476Y-96080714D01*
X164670238Y-96128333D01*
X164622619Y-96175952D01*
X164575000Y-96271190D01*
X164575000Y-96556904D01*
X164622619Y-96652142D01*
X164670238Y-96699761D01*
X164765476Y-96747380D01*
X164955952Y-96747380D01*
X165051190Y-96699761D01*
X164146428Y-96747380D02*
X164146428Y-96080714D01*
X164146428Y-96271190D02*
X164098809Y-96175952D01*
X164051190Y-96128333D01*
X163955952Y-96080714D01*
X163860714Y-96080714D01*
X163527380Y-96747380D02*
X163527380Y-96080714D01*
X163527380Y-95747380D02*
X163575000Y-95795000D01*
X163527380Y-95842619D01*
X163479761Y-95795000D01*
X163527380Y-95747380D01*
X163527380Y-95842619D01*
X162622619Y-96747380D02*
X162622619Y-95747380D01*
X162622619Y-96699761D02*
X162717857Y-96747380D01*
X162908333Y-96747380D01*
X163003571Y-96699761D01*
X163051190Y-96652142D01*
X163098809Y-96556904D01*
X163098809Y-96271190D01*
X163051190Y-96175952D01*
X163003571Y-96128333D01*
X162908333Y-96080714D01*
X162717857Y-96080714D01*
X162622619Y-96128333D01*
X161717857Y-96080714D02*
X161717857Y-96890238D01*
X161765476Y-96985476D01*
X161813095Y-97033095D01*
X161908333Y-97080714D01*
X162051190Y-97080714D01*
X162146428Y-97033095D01*
X161717857Y-96699761D02*
X161813095Y-96747380D01*
X162003571Y-96747380D01*
X162098809Y-96699761D01*
X162146428Y-96652142D01*
X162194047Y-96556904D01*
X162194047Y-96271190D01*
X162146428Y-96175952D01*
X162098809Y-96128333D01*
X162003571Y-96080714D01*
X161813095Y-96080714D01*
X161717857Y-96128333D01*
X160860714Y-96699761D02*
X160955952Y-96747380D01*
X161146428Y-96747380D01*
X161241666Y-96699761D01*
X161289285Y-96604523D01*
X161289285Y-96223571D01*
X161241666Y-96128333D01*
X161146428Y-96080714D01*
X160955952Y-96080714D01*
X160860714Y-96128333D01*
X160813095Y-96223571D01*
X160813095Y-96318809D01*
X161289285Y-96414047D01*
X159622619Y-96747380D02*
X159622619Y-95747380D01*
X159289285Y-96461666D01*
X158955952Y-95747380D01*
X158955952Y-96747380D01*
X158289285Y-95747380D02*
X158098809Y-95747380D01*
X158003571Y-95795000D01*
X157908333Y-95890238D01*
X157860714Y-96080714D01*
X157860714Y-96414047D01*
X157908333Y-96604523D01*
X158003571Y-96699761D01*
X158098809Y-96747380D01*
X158289285Y-96747380D01*
X158384523Y-96699761D01*
X158479761Y-96604523D01*
X158527380Y-96414047D01*
X158527380Y-96080714D01*
X158479761Y-95890238D01*
X158384523Y-95795000D01*
X158289285Y-95747380D01*
X157479761Y-96699761D02*
X157336904Y-96747380D01*
X157098809Y-96747380D01*
X157003571Y-96699761D01*
X156955952Y-96652142D01*
X156908333Y-96556904D01*
X156908333Y-96461666D01*
X156955952Y-96366428D01*
X157003571Y-96318809D01*
X157098809Y-96271190D01*
X157289285Y-96223571D01*
X157384523Y-96175952D01*
X157432142Y-96128333D01*
X157479761Y-96033095D01*
X157479761Y-95937857D01*
X157432142Y-95842619D01*
X157384523Y-95795000D01*
X157289285Y-95747380D01*
X157051190Y-95747380D01*
X156908333Y-95795000D01*
X156146428Y-96223571D02*
X156479761Y-96223571D01*
X156479761Y-96747380D02*
X156479761Y-95747380D01*
X156003571Y-95747380D01*
X155622619Y-96223571D02*
X155289285Y-96223571D01*
X155146428Y-96747380D02*
X155622619Y-96747380D01*
X155622619Y-95747380D01*
X155146428Y-95747380D01*
X154860714Y-95747380D02*
X154289285Y-95747380D01*
X154575000Y-96747380D02*
X154575000Y-95747380D01*
X153194047Y-96747380D02*
X153194047Y-95747380D01*
X152955952Y-95747380D01*
X152813095Y-95795000D01*
X152717857Y-95890238D01*
X152670238Y-95985476D01*
X152622619Y-96175952D01*
X152622619Y-96318809D01*
X152670238Y-96509285D01*
X152717857Y-96604523D01*
X152813095Y-96699761D01*
X152955952Y-96747380D01*
X153194047Y-96747380D01*
X152194047Y-96747380D02*
X152194047Y-96080714D01*
X152194047Y-96271190D02*
X152146428Y-96175952D01*
X152098809Y-96128333D01*
X152003571Y-96080714D01*
X151908333Y-96080714D01*
X151575000Y-96747380D02*
X151575000Y-96080714D01*
X151575000Y-95747380D02*
X151622619Y-95795000D01*
X151575000Y-95842619D01*
X151527380Y-95795000D01*
X151575000Y-95747380D01*
X151575000Y-95842619D01*
X151194047Y-96080714D02*
X150955952Y-96747380D01*
X150717857Y-96080714D01*
X149955952Y-96699761D02*
X150051190Y-96747380D01*
X150241666Y-96747380D01*
X150336904Y-96699761D01*
X150384523Y-96604523D01*
X150384523Y-96223571D01*
X150336904Y-96128333D01*
X150241666Y-96080714D01*
X150051190Y-96080714D01*
X149955952Y-96128333D01*
X149908333Y-96223571D01*
X149908333Y-96318809D01*
X150384523Y-96414047D01*
X149479761Y-96747380D02*
X149479761Y-96080714D01*
X149479761Y-96271190D02*
X149432142Y-96175952D01*
X149384523Y-96128333D01*
X149289285Y-96080714D01*
X149194047Y-96080714D01*
X147765476Y-96223571D02*
X147622619Y-96271190D01*
X147575000Y-96318809D01*
X147527380Y-96414047D01*
X147527380Y-96556904D01*
X147575000Y-96652142D01*
X147622619Y-96699761D01*
X147717857Y-96747380D01*
X148098809Y-96747380D01*
X148098809Y-95747380D01*
X147765476Y-95747380D01*
X147670238Y-95795000D01*
X147622619Y-95842619D01*
X147575000Y-95937857D01*
X147575000Y-96033095D01*
X147622619Y-96128333D01*
X147670238Y-96175952D01*
X147765476Y-96223571D01*
X148098809Y-96223571D01*
X146955952Y-96747380D02*
X147051190Y-96699761D01*
X147098809Y-96652142D01*
X147146428Y-96556904D01*
X147146428Y-96271190D01*
X147098809Y-96175952D01*
X147051190Y-96128333D01*
X146955952Y-96080714D01*
X146813095Y-96080714D01*
X146717857Y-96128333D01*
X146670238Y-96175952D01*
X146622619Y-96271190D01*
X146622619Y-96556904D01*
X146670238Y-96652142D01*
X146717857Y-96699761D01*
X146813095Y-96747380D01*
X146955952Y-96747380D01*
X145765476Y-96747380D02*
X145765476Y-96223571D01*
X145813095Y-96128333D01*
X145908333Y-96080714D01*
X146098809Y-96080714D01*
X146194047Y-96128333D01*
X145765476Y-96699761D02*
X145860714Y-96747380D01*
X146098809Y-96747380D01*
X146194047Y-96699761D01*
X146241666Y-96604523D01*
X146241666Y-96509285D01*
X146194047Y-96414047D01*
X146098809Y-96366428D01*
X145860714Y-96366428D01*
X145765476Y-96318809D01*
X145289285Y-96747380D02*
X145289285Y-96080714D01*
X145289285Y-96271190D02*
X145241666Y-96175952D01*
X145194047Y-96128333D01*
X145098809Y-96080714D01*
X145003571Y-96080714D01*
X144241666Y-96747380D02*
X144241666Y-95747380D01*
X144241666Y-96699761D02*
X144336904Y-96747380D01*
X144527380Y-96747380D01*
X144622619Y-96699761D01*
X144670238Y-96652142D01*
X144717857Y-96556904D01*
X144717857Y-96271190D01*
X144670238Y-96175952D01*
X144622619Y-96128333D01*
X144527380Y-96080714D01*
X144336904Y-96080714D01*
X144241666Y-96128333D01*
X169336904Y-98347380D02*
X169336904Y-97347380D01*
X168908333Y-98347380D02*
X168908333Y-97823571D01*
X168955952Y-97728333D01*
X169051190Y-97680714D01*
X169194047Y-97680714D01*
X169289285Y-97728333D01*
X169336904Y-97775952D01*
X168575000Y-97680714D02*
X168194047Y-97680714D01*
X168432142Y-97347380D02*
X168432142Y-98204523D01*
X168384523Y-98299761D01*
X168289285Y-98347380D01*
X168194047Y-98347380D01*
X168003571Y-97680714D02*
X167622619Y-97680714D01*
X167860714Y-97347380D02*
X167860714Y-98204523D01*
X167813095Y-98299761D01*
X167717857Y-98347380D01*
X167622619Y-98347380D01*
X167289285Y-97680714D02*
X167289285Y-98680714D01*
X167289285Y-97728333D02*
X167194047Y-97680714D01*
X167003571Y-97680714D01*
X166908333Y-97728333D01*
X166860714Y-97775952D01*
X166813095Y-97871190D01*
X166813095Y-98156904D01*
X166860714Y-98252142D01*
X166908333Y-98299761D01*
X167003571Y-98347380D01*
X167194047Y-98347380D01*
X167289285Y-98299761D01*
X166432142Y-98299761D02*
X166336904Y-98347380D01*
X166146428Y-98347380D01*
X166051190Y-98299761D01*
X166003571Y-98204523D01*
X166003571Y-98156904D01*
X166051190Y-98061666D01*
X166146428Y-98014047D01*
X166289285Y-98014047D01*
X166384523Y-97966428D01*
X166432142Y-97871190D01*
X166432142Y-97823571D01*
X166384523Y-97728333D01*
X166289285Y-97680714D01*
X166146428Y-97680714D01*
X166051190Y-97728333D01*
X165575000Y-98252142D02*
X165527380Y-98299761D01*
X165575000Y-98347380D01*
X165622619Y-98299761D01*
X165575000Y-98252142D01*
X165575000Y-98347380D01*
X165575000Y-97728333D02*
X165527380Y-97775952D01*
X165575000Y-97823571D01*
X165622619Y-97775952D01*
X165575000Y-97728333D01*
X165575000Y-97823571D01*
X164384523Y-97299761D02*
X165241666Y-98585476D01*
X163336904Y-97299761D02*
X164194047Y-98585476D01*
X163003571Y-98347380D02*
X163003571Y-97347380D01*
X162575000Y-98347380D02*
X162575000Y-97823571D01*
X162622619Y-97728333D01*
X162717857Y-97680714D01*
X162860714Y-97680714D01*
X162955952Y-97728333D01*
X163003571Y-97775952D01*
X161670238Y-98347380D02*
X161670238Y-97823571D01*
X161717857Y-97728333D01*
X161813095Y-97680714D01*
X162003571Y-97680714D01*
X162098809Y-97728333D01*
X161670238Y-98299761D02*
X161765476Y-98347380D01*
X162003571Y-98347380D01*
X162098809Y-98299761D01*
X162146428Y-98204523D01*
X162146428Y-98109285D01*
X162098809Y-98014047D01*
X162003571Y-97966428D01*
X161765476Y-97966428D01*
X161670238Y-97918809D01*
X160765476Y-98299761D02*
X160860714Y-98347380D01*
X161051190Y-98347380D01*
X161146428Y-98299761D01*
X161194047Y-98252142D01*
X161241666Y-98156904D01*
X161241666Y-97871190D01*
X161194047Y-97775952D01*
X161146428Y-97728333D01*
X161051190Y-97680714D01*
X160860714Y-97680714D01*
X160765476Y-97728333D01*
X160336904Y-98347380D02*
X160336904Y-97347380D01*
X160241666Y-97966428D02*
X159955952Y-98347380D01*
X159955952Y-97680714D02*
X160336904Y-98061666D01*
X159098809Y-98347380D02*
X159098809Y-97823571D01*
X159146428Y-97728333D01*
X159241666Y-97680714D01*
X159432142Y-97680714D01*
X159527380Y-97728333D01*
X159098809Y-98299761D02*
X159194047Y-98347380D01*
X159432142Y-98347380D01*
X159527380Y-98299761D01*
X159575000Y-98204523D01*
X159575000Y-98109285D01*
X159527380Y-98014047D01*
X159432142Y-97966428D01*
X159194047Y-97966428D01*
X159098809Y-97918809D01*
X158194047Y-98347380D02*
X158194047Y-97347380D01*
X158194047Y-98299761D02*
X158289285Y-98347380D01*
X158479761Y-98347380D01*
X158575000Y-98299761D01*
X158622619Y-98252142D01*
X158670238Y-98156904D01*
X158670238Y-97871190D01*
X158622619Y-97775952D01*
X158575000Y-97728333D01*
X158479761Y-97680714D01*
X158289285Y-97680714D01*
X158194047Y-97728333D01*
X157289285Y-98347380D02*
X157289285Y-97823571D01*
X157336904Y-97728333D01*
X157432142Y-97680714D01*
X157622619Y-97680714D01*
X157717857Y-97728333D01*
X157289285Y-98299761D02*
X157384523Y-98347380D01*
X157622619Y-98347380D01*
X157717857Y-98299761D01*
X157765476Y-98204523D01*
X157765476Y-98109285D01*
X157717857Y-98014047D01*
X157622619Y-97966428D01*
X157384523Y-97966428D01*
X157289285Y-97918809D01*
X156908333Y-97680714D02*
X156670238Y-98347380D01*
X156432142Y-97680714D02*
X156670238Y-98347380D01*
X156765476Y-98585476D01*
X156813095Y-98633095D01*
X156908333Y-98680714D01*
X156051190Y-98252142D02*
X156003571Y-98299761D01*
X156051190Y-98347380D01*
X156098809Y-98299761D01*
X156051190Y-98252142D01*
X156051190Y-98347380D01*
X155575000Y-98347380D02*
X155575000Y-97680714D01*
X155575000Y-97347380D02*
X155622619Y-97395000D01*
X155575000Y-97442619D01*
X155527380Y-97395000D01*
X155575000Y-97347380D01*
X155575000Y-97442619D01*
X154955952Y-98347380D02*
X155051190Y-98299761D01*
X155098809Y-98252142D01*
X155146428Y-98156904D01*
X155146428Y-97871190D01*
X155098809Y-97775952D01*
X155051190Y-97728333D01*
X154955952Y-97680714D01*
X154813095Y-97680714D01*
X154717857Y-97728333D01*
X154670238Y-97775952D01*
X154622619Y-97871190D01*
X154622619Y-98156904D01*
X154670238Y-98252142D01*
X154717857Y-98299761D01*
X154813095Y-98347380D01*
X154955952Y-98347380D01*
X153479761Y-97299761D02*
X154336904Y-98585476D01*
X153146428Y-97680714D02*
X153146428Y-98680714D01*
X153146428Y-97728333D02*
X153051190Y-97680714D01*
X152860714Y-97680714D01*
X152765476Y-97728333D01*
X152717857Y-97775952D01*
X152670238Y-97871190D01*
X152670238Y-98156904D01*
X152717857Y-98252142D01*
X152765476Y-98299761D01*
X152860714Y-98347380D01*
X153051190Y-98347380D01*
X153146428Y-98299761D01*
X152241666Y-98347380D02*
X152241666Y-97680714D01*
X152241666Y-97871190D02*
X152194047Y-97775952D01*
X152146428Y-97728333D01*
X152051190Y-97680714D01*
X151955952Y-97680714D01*
X151479761Y-98347380D02*
X151575000Y-98299761D01*
X151622619Y-98252142D01*
X151670238Y-98156904D01*
X151670238Y-97871190D01*
X151622619Y-97775952D01*
X151575000Y-97728333D01*
X151479761Y-97680714D01*
X151336904Y-97680714D01*
X151241666Y-97728333D01*
X151194047Y-97775952D01*
X151146428Y-97871190D01*
X151146428Y-98156904D01*
X151194047Y-98252142D01*
X151241666Y-98299761D01*
X151336904Y-98347380D01*
X151479761Y-98347380D01*
X150717857Y-97680714D02*
X150717857Y-98537857D01*
X150765476Y-98633095D01*
X150860714Y-98680714D01*
X150908333Y-98680714D01*
X150717857Y-97347380D02*
X150765476Y-97395000D01*
X150717857Y-97442619D01*
X150670238Y-97395000D01*
X150717857Y-97347380D01*
X150717857Y-97442619D01*
X149860714Y-98299761D02*
X149955952Y-98347380D01*
X150146428Y-98347380D01*
X150241666Y-98299761D01*
X150289285Y-98204523D01*
X150289285Y-97823571D01*
X150241666Y-97728333D01*
X150146428Y-97680714D01*
X149955952Y-97680714D01*
X149860714Y-97728333D01*
X149813095Y-97823571D01*
X149813095Y-97918809D01*
X150289285Y-98014047D01*
X148955952Y-98299761D02*
X149051190Y-98347380D01*
X149241666Y-98347380D01*
X149336904Y-98299761D01*
X149384523Y-98252142D01*
X149432142Y-98156904D01*
X149432142Y-97871190D01*
X149384523Y-97775952D01*
X149336904Y-97728333D01*
X149241666Y-97680714D01*
X149051190Y-97680714D01*
X148955952Y-97728333D01*
X148670238Y-97680714D02*
X148289285Y-97680714D01*
X148527380Y-97347380D02*
X148527380Y-98204523D01*
X148479761Y-98299761D01*
X148384523Y-98347380D01*
X148289285Y-98347380D01*
X147241666Y-97299761D02*
X148098809Y-98585476D01*
X146384523Y-98347380D02*
X146955952Y-98347380D01*
X146670238Y-98347380D02*
X146670238Y-97347380D01*
X146765476Y-97490238D01*
X146860714Y-97585476D01*
X146955952Y-97633095D01*
X145527380Y-97347380D02*
X145717857Y-97347380D01*
X145813095Y-97395000D01*
X145860714Y-97442619D01*
X145955952Y-97585476D01*
X146003571Y-97775952D01*
X146003571Y-98156904D01*
X145955952Y-98252142D01*
X145908333Y-98299761D01*
X145813095Y-98347380D01*
X145622619Y-98347380D01*
X145527380Y-98299761D01*
X145479761Y-98252142D01*
X145432142Y-98156904D01*
X145432142Y-97918809D01*
X145479761Y-97823571D01*
X145527380Y-97775952D01*
X145622619Y-97728333D01*
X145813095Y-97728333D01*
X145908333Y-97775952D01*
X145955952Y-97823571D01*
X146003571Y-97918809D01*
X144479761Y-98347380D02*
X145051190Y-98347380D01*
X144765476Y-98347380D02*
X144765476Y-97347380D01*
X144860714Y-97490238D01*
X144955952Y-97585476D01*
X145051190Y-97633095D01*
X143575000Y-97347380D02*
X144051190Y-97347380D01*
X144098809Y-97823571D01*
X144051190Y-97775952D01*
X143955952Y-97728333D01*
X143717857Y-97728333D01*
X143622619Y-97775952D01*
X143575000Y-97823571D01*
X143527380Y-97918809D01*
X143527380Y-98156904D01*
X143575000Y-98252142D01*
X143622619Y-98299761D01*
X143717857Y-98347380D01*
X143955952Y-98347380D01*
X144051190Y-98299761D01*
X144098809Y-98252142D01*
X142908333Y-97347380D02*
X142813095Y-97347380D01*
X142717857Y-97395000D01*
X142670238Y-97442619D01*
X142622619Y-97537857D01*
X142575000Y-97728333D01*
X142575000Y-97966428D01*
X142622619Y-98156904D01*
X142670238Y-98252142D01*
X142717857Y-98299761D01*
X142813095Y-98347380D01*
X142908333Y-98347380D01*
X143003571Y-98299761D01*
X143051190Y-98252142D01*
X143098809Y-98156904D01*
X143146428Y-97966428D01*
X143146428Y-97728333D01*
X143098809Y-97537857D01*
X143051190Y-97442619D01*
X143003571Y-97395000D01*
X142908333Y-97347380D01*
X142194047Y-97442619D02*
X142146428Y-97395000D01*
X142051190Y-97347380D01*
X141813095Y-97347380D01*
X141717857Y-97395000D01*
X141670238Y-97442619D01*
X141622619Y-97537857D01*
X141622619Y-97633095D01*
X141670238Y-97775952D01*
X142241666Y-98347380D01*
X141622619Y-98347380D01*
X168527380Y-99185476D02*
X168622619Y-99137857D01*
X168813095Y-99137857D01*
X168908333Y-99185476D01*
X169003571Y-99280714D01*
X169051190Y-99375952D01*
X169051190Y-99566428D01*
X169003571Y-99661666D01*
X168908333Y-99756904D01*
X168813095Y-99804523D01*
X168622619Y-99804523D01*
X168527380Y-99756904D01*
X168717857Y-98804523D02*
X168955952Y-98852142D01*
X169194047Y-98995000D01*
X169336904Y-99233095D01*
X169384523Y-99471190D01*
X169336904Y-99709285D01*
X169194047Y-99947380D01*
X168955952Y-100090238D01*
X168717857Y-100137857D01*
X168479761Y-100090238D01*
X168241666Y-99947380D01*
X168098809Y-99709285D01*
X168051190Y-99471190D01*
X168098809Y-99233095D01*
X168241666Y-98995000D01*
X168479761Y-98852142D01*
X168717857Y-98804523D01*
X166908333Y-99042619D02*
X166860714Y-98995000D01*
X166765476Y-98947380D01*
X166527380Y-98947380D01*
X166432142Y-98995000D01*
X166384523Y-99042619D01*
X166336904Y-99137857D01*
X166336904Y-99233095D01*
X166384523Y-99375952D01*
X166955952Y-99947380D01*
X166336904Y-99947380D01*
X165717857Y-98947380D02*
X165622619Y-98947380D01*
X165527380Y-98995000D01*
X165479761Y-99042619D01*
X165432142Y-99137857D01*
X165384523Y-99328333D01*
X165384523Y-99566428D01*
X165432142Y-99756904D01*
X165479761Y-99852142D01*
X165527380Y-99899761D01*
X165622619Y-99947380D01*
X165717857Y-99947380D01*
X165813095Y-99899761D01*
X165860714Y-99852142D01*
X165908333Y-99756904D01*
X165955952Y-99566428D01*
X165955952Y-99328333D01*
X165908333Y-99137857D01*
X165860714Y-99042619D01*
X165813095Y-98995000D01*
X165717857Y-98947380D01*
X164432142Y-99947380D02*
X165003571Y-99947380D01*
X164717857Y-99947380D02*
X164717857Y-98947380D01*
X164813095Y-99090238D01*
X164908333Y-99185476D01*
X165003571Y-99233095D01*
X163860714Y-99375952D02*
X163955952Y-99328333D01*
X164003571Y-99280714D01*
X164051190Y-99185476D01*
X164051190Y-99137857D01*
X164003571Y-99042619D01*
X163955952Y-98995000D01*
X163860714Y-98947380D01*
X163670238Y-98947380D01*
X163575000Y-98995000D01*
X163527380Y-99042619D01*
X163479761Y-99137857D01*
X163479761Y-99185476D01*
X163527380Y-99280714D01*
X163575000Y-99328333D01*
X163670238Y-99375952D01*
X163860714Y-99375952D01*
X163955952Y-99423571D01*
X164003571Y-99471190D01*
X164051190Y-99566428D01*
X164051190Y-99756904D01*
X164003571Y-99852142D01*
X163955952Y-99899761D01*
X163860714Y-99947380D01*
X163670238Y-99947380D01*
X163575000Y-99899761D01*
X163527380Y-99852142D01*
X163479761Y-99756904D01*
X163479761Y-99566428D01*
X163527380Y-99471190D01*
X163575000Y-99423571D01*
X163670238Y-99375952D01*
X162336904Y-99899761D02*
X162194047Y-99947380D01*
X161955952Y-99947380D01*
X161860714Y-99899761D01*
X161813095Y-99852142D01*
X161765476Y-99756904D01*
X161765476Y-99661666D01*
X161813095Y-99566428D01*
X161860714Y-99518809D01*
X161955952Y-99471190D01*
X162146428Y-99423571D01*
X162241666Y-99375952D01*
X162289285Y-99328333D01*
X162336904Y-99233095D01*
X162336904Y-99137857D01*
X162289285Y-99042619D01*
X162241666Y-98995000D01*
X162146428Y-98947380D01*
X161908333Y-98947380D01*
X161765476Y-98995000D01*
X161479761Y-99280714D02*
X161098809Y-99280714D01*
X161336904Y-98947380D02*
X161336904Y-99804523D01*
X161289285Y-99899761D01*
X161194047Y-99947380D01*
X161098809Y-99947380D01*
X160336904Y-99280714D02*
X160336904Y-99947380D01*
X160765476Y-99280714D02*
X160765476Y-99804523D01*
X160717857Y-99899761D01*
X160622619Y-99947380D01*
X160479761Y-99947380D01*
X160384523Y-99899761D01*
X160336904Y-99852142D01*
X159432142Y-99947380D02*
X159432142Y-99423571D01*
X159479761Y-99328333D01*
X159575000Y-99280714D01*
X159765476Y-99280714D01*
X159860714Y-99328333D01*
X159432142Y-99899761D02*
X159527380Y-99947380D01*
X159765476Y-99947380D01*
X159860714Y-99899761D01*
X159908333Y-99804523D01*
X159908333Y-99709285D01*
X159860714Y-99614047D01*
X159765476Y-99566428D01*
X159527380Y-99566428D01*
X159432142Y-99518809D01*
X158955952Y-99947380D02*
X158955952Y-99280714D01*
X158955952Y-99471190D02*
X158908333Y-99375952D01*
X158860714Y-99328333D01*
X158765476Y-99280714D01*
X158670238Y-99280714D01*
X158479761Y-99280714D02*
X158098809Y-99280714D01*
X158336904Y-98947380D02*
X158336904Y-99804523D01*
X158289285Y-99899761D01*
X158194047Y-99947380D01*
X158098809Y-99947380D01*
X156527380Y-99947380D02*
X157003571Y-99947380D01*
X157003571Y-98947380D01*
X156051190Y-99947380D02*
X156146428Y-99899761D01*
X156194047Y-99852142D01*
X156241666Y-99756904D01*
X156241666Y-99471190D01*
X156194047Y-99375952D01*
X156146428Y-99328333D01*
X156051190Y-99280714D01*
X155908333Y-99280714D01*
X155813095Y-99328333D01*
X155765476Y-99375952D01*
X155717857Y-99471190D01*
X155717857Y-99756904D01*
X155765476Y-99852142D01*
X155813095Y-99899761D01*
X155908333Y-99947380D01*
X156051190Y-99947380D01*
X155289285Y-99280714D02*
X155289285Y-99947380D01*
X155289285Y-99375952D02*
X155241666Y-99328333D01*
X155146428Y-99280714D01*
X155003571Y-99280714D01*
X154908333Y-99328333D01*
X154860714Y-99423571D01*
X154860714Y-99947380D01*
X153955952Y-99280714D02*
X153955952Y-100090238D01*
X154003571Y-100185476D01*
X154051190Y-100233095D01*
X154146428Y-100280714D01*
X154289285Y-100280714D01*
X154384523Y-100233095D01*
X153955952Y-99899761D02*
X154051190Y-99947380D01*
X154241666Y-99947380D01*
X154336904Y-99899761D01*
X154384523Y-99852142D01*
X154432142Y-99756904D01*
X154432142Y-99471190D01*
X154384523Y-99375952D01*
X154336904Y-99328333D01*
X154241666Y-99280714D01*
X154051190Y-99280714D01*
X153955952Y-99328333D01*
X153336904Y-99947380D02*
X153432142Y-99899761D01*
X153479761Y-99804523D01*
X153479761Y-98947380D01*
X152527380Y-99947380D02*
X152527380Y-99423571D01*
X152575000Y-99328333D01*
X152670238Y-99280714D01*
X152860714Y-99280714D01*
X152955952Y-99328333D01*
X152527380Y-99899761D02*
X152622619Y-99947380D01*
X152860714Y-99947380D01*
X152955952Y-99899761D01*
X153003571Y-99804523D01*
X153003571Y-99709285D01*
X152955952Y-99614047D01*
X152860714Y-99566428D01*
X152622619Y-99566428D01*
X152527380Y-99518809D01*
X152051190Y-99280714D02*
X152051190Y-99947380D01*
X152051190Y-99375952D02*
X152003571Y-99328333D01*
X151908333Y-99280714D01*
X151765476Y-99280714D01*
X151670238Y-99328333D01*
X151622619Y-99423571D01*
X151622619Y-99947380D01*
X150717857Y-99947380D02*
X150717857Y-98947380D01*
X150717857Y-99899761D02*
X150813095Y-99947380D01*
X151003571Y-99947380D01*
X151098809Y-99899761D01*
X151146428Y-99852142D01*
X151194047Y-99756904D01*
X151194047Y-99471190D01*
X151146428Y-99375952D01*
X151098809Y-99328333D01*
X151003571Y-99280714D01*
X150813095Y-99280714D01*
X150717857Y-99328333D01*
X170749761Y-119407380D02*
X170178333Y-119407380D01*
X170464047Y-120407380D02*
X170464047Y-119407380D01*
X169464047Y-120359761D02*
X169559285Y-120407380D01*
X169749761Y-120407380D01*
X169845000Y-120359761D01*
X169892619Y-120264523D01*
X169892619Y-119883571D01*
X169845000Y-119788333D01*
X169749761Y-119740714D01*
X169559285Y-119740714D01*
X169464047Y-119788333D01*
X169416428Y-119883571D01*
X169416428Y-119978809D01*
X169892619Y-120074047D01*
X168987857Y-120407380D02*
X168987857Y-119740714D01*
X168987857Y-119931190D02*
X168940238Y-119835952D01*
X168892619Y-119788333D01*
X168797380Y-119740714D01*
X168702142Y-119740714D01*
X168368809Y-120407380D02*
X168368809Y-119740714D01*
X168368809Y-119835952D02*
X168321190Y-119788333D01*
X168225952Y-119740714D01*
X168083095Y-119740714D01*
X167987857Y-119788333D01*
X167940238Y-119883571D01*
X167940238Y-120407380D01*
X167940238Y-119883571D02*
X167892619Y-119788333D01*
X167797380Y-119740714D01*
X167654523Y-119740714D01*
X167559285Y-119788333D01*
X167511666Y-119883571D01*
X167511666Y-120407380D01*
X167035476Y-120407380D02*
X167035476Y-119740714D01*
X167035476Y-119407380D02*
X167083095Y-119455000D01*
X167035476Y-119502619D01*
X166987857Y-119455000D01*
X167035476Y-119407380D01*
X167035476Y-119502619D01*
X166559285Y-119740714D02*
X166559285Y-120407380D01*
X166559285Y-119835952D02*
X166511666Y-119788333D01*
X166416428Y-119740714D01*
X166273571Y-119740714D01*
X166178333Y-119788333D01*
X166130714Y-119883571D01*
X166130714Y-120407380D01*
X165225952Y-120407380D02*
X165225952Y-119883571D01*
X165273571Y-119788333D01*
X165368809Y-119740714D01*
X165559285Y-119740714D01*
X165654523Y-119788333D01*
X165225952Y-120359761D02*
X165321190Y-120407380D01*
X165559285Y-120407380D01*
X165654523Y-120359761D01*
X165702142Y-120264523D01*
X165702142Y-120169285D01*
X165654523Y-120074047D01*
X165559285Y-120026428D01*
X165321190Y-120026428D01*
X165225952Y-119978809D01*
X164892619Y-119740714D02*
X164511666Y-119740714D01*
X164749761Y-119407380D02*
X164749761Y-120264523D01*
X164702142Y-120359761D01*
X164606904Y-120407380D01*
X164511666Y-120407380D01*
X164178333Y-120407380D02*
X164178333Y-119740714D01*
X164178333Y-119407380D02*
X164225952Y-119455000D01*
X164178333Y-119502619D01*
X164130714Y-119455000D01*
X164178333Y-119407380D01*
X164178333Y-119502619D01*
X163559285Y-120407380D02*
X163654523Y-120359761D01*
X163702142Y-120312142D01*
X163749761Y-120216904D01*
X163749761Y-119931190D01*
X163702142Y-119835952D01*
X163654523Y-119788333D01*
X163559285Y-119740714D01*
X163416428Y-119740714D01*
X163321190Y-119788333D01*
X163273571Y-119835952D01*
X163225952Y-119931190D01*
X163225952Y-120216904D01*
X163273571Y-120312142D01*
X163321190Y-120359761D01*
X163416428Y-120407380D01*
X163559285Y-120407380D01*
X162797380Y-119740714D02*
X162797380Y-120407380D01*
X162797380Y-119835952D02*
X162749761Y-119788333D01*
X162654523Y-119740714D01*
X162511666Y-119740714D01*
X162416428Y-119788333D01*
X162368809Y-119883571D01*
X162368809Y-120407380D01*
X161130714Y-120407380D02*
X161130714Y-119740714D01*
X161130714Y-119931190D02*
X161083095Y-119835952D01*
X161035476Y-119788333D01*
X160940238Y-119740714D01*
X160845000Y-119740714D01*
X160130714Y-120359761D02*
X160225952Y-120407380D01*
X160416428Y-120407380D01*
X160511666Y-120359761D01*
X160559285Y-120264523D01*
X160559285Y-119883571D01*
X160511666Y-119788333D01*
X160416428Y-119740714D01*
X160225952Y-119740714D01*
X160130714Y-119788333D01*
X160083095Y-119883571D01*
X160083095Y-119978809D01*
X160559285Y-120074047D01*
X159702142Y-120359761D02*
X159606904Y-120407380D01*
X159416428Y-120407380D01*
X159321190Y-120359761D01*
X159273571Y-120264523D01*
X159273571Y-120216904D01*
X159321190Y-120121666D01*
X159416428Y-120074047D01*
X159559285Y-120074047D01*
X159654523Y-120026428D01*
X159702142Y-119931190D01*
X159702142Y-119883571D01*
X159654523Y-119788333D01*
X159559285Y-119740714D01*
X159416428Y-119740714D01*
X159321190Y-119788333D01*
X158845000Y-120407380D02*
X158845000Y-119740714D01*
X158845000Y-119407380D02*
X158892619Y-119455000D01*
X158845000Y-119502619D01*
X158797380Y-119455000D01*
X158845000Y-119407380D01*
X158845000Y-119502619D01*
X158416428Y-120359761D02*
X158321190Y-120407380D01*
X158130714Y-120407380D01*
X158035476Y-120359761D01*
X157987857Y-120264523D01*
X157987857Y-120216904D01*
X158035476Y-120121666D01*
X158130714Y-120074047D01*
X158273571Y-120074047D01*
X158368809Y-120026428D01*
X158416428Y-119931190D01*
X158416428Y-119883571D01*
X158368809Y-119788333D01*
X158273571Y-119740714D01*
X158130714Y-119740714D01*
X158035476Y-119788333D01*
X157702142Y-119740714D02*
X157321190Y-119740714D01*
X157559285Y-119407380D02*
X157559285Y-120264523D01*
X157511666Y-120359761D01*
X157416428Y-120407380D01*
X157321190Y-120407380D01*
X156845000Y-120407380D02*
X156940238Y-120359761D01*
X156987857Y-120312142D01*
X157035476Y-120216904D01*
X157035476Y-119931190D01*
X156987857Y-119835952D01*
X156940238Y-119788333D01*
X156845000Y-119740714D01*
X156702142Y-119740714D01*
X156606904Y-119788333D01*
X156559285Y-119835952D01*
X156511666Y-119931190D01*
X156511666Y-120216904D01*
X156559285Y-120312142D01*
X156606904Y-120359761D01*
X156702142Y-120407380D01*
X156845000Y-120407380D01*
X156083095Y-120407380D02*
X156083095Y-119740714D01*
X156083095Y-119931190D02*
X156035476Y-119835952D01*
X155987857Y-119788333D01*
X155892619Y-119740714D01*
X155797380Y-119740714D01*
X155511666Y-120359761D02*
X155416428Y-120407380D01*
X155225952Y-120407380D01*
X155130714Y-120359761D01*
X155083095Y-120264523D01*
X155083095Y-120216904D01*
X155130714Y-120121666D01*
X155225952Y-120074047D01*
X155368809Y-120074047D01*
X155464047Y-120026428D01*
X155511666Y-119931190D01*
X155511666Y-119883571D01*
X155464047Y-119788333D01*
X155368809Y-119740714D01*
X155225952Y-119740714D01*
X155130714Y-119788333D01*
X154654523Y-120312142D02*
X154606904Y-120359761D01*
X154654523Y-120407380D01*
X154702142Y-120359761D01*
X154654523Y-120312142D01*
X154654523Y-120407380D01*
X154654523Y-119788333D02*
X154606904Y-119835952D01*
X154654523Y-119883571D01*
X154702142Y-119835952D01*
X154654523Y-119788333D01*
X154654523Y-119883571D01*
X152892619Y-120407380D02*
X153464047Y-120407380D01*
X153178333Y-120407380D02*
X153178333Y-119407380D01*
X153273571Y-119550238D01*
X153368809Y-119645476D01*
X153464047Y-119693095D01*
X152273571Y-119407380D02*
X152178333Y-119407380D01*
X152083095Y-119455000D01*
X152035476Y-119502619D01*
X151987857Y-119597857D01*
X151940238Y-119788333D01*
X151940238Y-120026428D01*
X151987857Y-120216904D01*
X152035476Y-120312142D01*
X152083095Y-120359761D01*
X152178333Y-120407380D01*
X152273571Y-120407380D01*
X152368809Y-120359761D01*
X152416428Y-120312142D01*
X152464047Y-120216904D01*
X152511666Y-120026428D01*
X152511666Y-119788333D01*
X152464047Y-119597857D01*
X152416428Y-119502619D01*
X152368809Y-119455000D01*
X152273571Y-119407380D01*
X151321190Y-119407380D02*
X151225952Y-119407380D01*
X151130714Y-119455000D01*
X151083095Y-119502619D01*
X151035476Y-119597857D01*
X150987857Y-119788333D01*
X150987857Y-120026428D01*
X151035476Y-120216904D01*
X151083095Y-120312142D01*
X151130714Y-120359761D01*
X151225952Y-120407380D01*
X151321190Y-120407380D01*
X151416428Y-120359761D01*
X151464047Y-120312142D01*
X151511666Y-120216904D01*
X151559285Y-120026428D01*
X151559285Y-119788333D01*
X151511666Y-119597857D01*
X151464047Y-119502619D01*
X151416428Y-119455000D01*
X151321190Y-119407380D01*
X149987857Y-120407380D02*
X150321190Y-119931190D01*
X150559285Y-120407380D02*
X150559285Y-119407380D01*
X150178333Y-119407380D01*
X150083095Y-119455000D01*
X150035476Y-119502619D01*
X149987857Y-119597857D01*
X149987857Y-119740714D01*
X150035476Y-119835952D01*
X150083095Y-119883571D01*
X150178333Y-119931190D01*
X150559285Y-119931190D01*
X170606904Y-122007380D02*
X170606904Y-121007380D01*
X170225952Y-121007380D01*
X170130714Y-121055000D01*
X170083095Y-121102619D01*
X170035476Y-121197857D01*
X170035476Y-121340714D01*
X170083095Y-121435952D01*
X170130714Y-121483571D01*
X170225952Y-121531190D01*
X170606904Y-121531190D01*
X169178333Y-121340714D02*
X169178333Y-122007380D01*
X169606904Y-121340714D02*
X169606904Y-121864523D01*
X169559285Y-121959761D01*
X169464047Y-122007380D01*
X169321190Y-122007380D01*
X169225952Y-121959761D01*
X169178333Y-121912142D01*
X168559285Y-122007380D02*
X168654523Y-121959761D01*
X168702142Y-121864523D01*
X168702142Y-121007380D01*
X168035476Y-122007380D02*
X168130714Y-121959761D01*
X168178333Y-121864523D01*
X168178333Y-121007380D01*
X166892619Y-122007380D02*
X166892619Y-121340714D01*
X166892619Y-121531190D02*
X166845000Y-121435952D01*
X166797380Y-121388333D01*
X166702142Y-121340714D01*
X166606904Y-121340714D01*
X165892619Y-121959761D02*
X165987857Y-122007380D01*
X166178333Y-122007380D01*
X166273571Y-121959761D01*
X166321190Y-121864523D01*
X166321190Y-121483571D01*
X166273571Y-121388333D01*
X166178333Y-121340714D01*
X165987857Y-121340714D01*
X165892619Y-121388333D01*
X165845000Y-121483571D01*
X165845000Y-121578809D01*
X166321190Y-121674047D01*
X165464047Y-121959761D02*
X165368809Y-122007380D01*
X165178333Y-122007380D01*
X165083095Y-121959761D01*
X165035476Y-121864523D01*
X165035476Y-121816904D01*
X165083095Y-121721666D01*
X165178333Y-121674047D01*
X165321190Y-121674047D01*
X165416428Y-121626428D01*
X165464047Y-121531190D01*
X165464047Y-121483571D01*
X165416428Y-121388333D01*
X165321190Y-121340714D01*
X165178333Y-121340714D01*
X165083095Y-121388333D01*
X164606904Y-122007380D02*
X164606904Y-121340714D01*
X164606904Y-121007380D02*
X164654523Y-121055000D01*
X164606904Y-121102619D01*
X164559285Y-121055000D01*
X164606904Y-121007380D01*
X164606904Y-121102619D01*
X164178333Y-121959761D02*
X164083095Y-122007380D01*
X163892619Y-122007380D01*
X163797380Y-121959761D01*
X163749761Y-121864523D01*
X163749761Y-121816904D01*
X163797380Y-121721666D01*
X163892619Y-121674047D01*
X164035476Y-121674047D01*
X164130714Y-121626428D01*
X164178333Y-121531190D01*
X164178333Y-121483571D01*
X164130714Y-121388333D01*
X164035476Y-121340714D01*
X163892619Y-121340714D01*
X163797380Y-121388333D01*
X163464047Y-121340714D02*
X163083095Y-121340714D01*
X163321190Y-121007380D02*
X163321190Y-121864523D01*
X163273571Y-121959761D01*
X163178333Y-122007380D01*
X163083095Y-122007380D01*
X162606904Y-122007380D02*
X162702142Y-121959761D01*
X162749761Y-121912142D01*
X162797380Y-121816904D01*
X162797380Y-121531190D01*
X162749761Y-121435952D01*
X162702142Y-121388333D01*
X162606904Y-121340714D01*
X162464047Y-121340714D01*
X162368809Y-121388333D01*
X162321190Y-121435952D01*
X162273571Y-121531190D01*
X162273571Y-121816904D01*
X162321190Y-121912142D01*
X162368809Y-121959761D01*
X162464047Y-122007380D01*
X162606904Y-122007380D01*
X161845000Y-122007380D02*
X161845000Y-121340714D01*
X161845000Y-121531190D02*
X161797380Y-121435952D01*
X161749761Y-121388333D01*
X161654523Y-121340714D01*
X161559285Y-121340714D01*
X161273571Y-121959761D02*
X161178333Y-122007380D01*
X160987857Y-122007380D01*
X160892619Y-121959761D01*
X160845000Y-121864523D01*
X160845000Y-121816904D01*
X160892619Y-121721666D01*
X160987857Y-121674047D01*
X161130714Y-121674047D01*
X161225952Y-121626428D01*
X161273571Y-121531190D01*
X161273571Y-121483571D01*
X161225952Y-121388333D01*
X161130714Y-121340714D01*
X160987857Y-121340714D01*
X160892619Y-121388333D01*
X159368809Y-122388333D02*
X159416428Y-122340714D01*
X159511666Y-122197857D01*
X159559285Y-122102619D01*
X159606904Y-121959761D01*
X159654523Y-121721666D01*
X159654523Y-121531190D01*
X159606904Y-121293095D01*
X159559285Y-121150238D01*
X159511666Y-121055000D01*
X159416428Y-120912142D01*
X159368809Y-120864523D01*
X158987857Y-122007380D02*
X158987857Y-121340714D01*
X158987857Y-121007380D02*
X159035476Y-121055000D01*
X158987857Y-121102619D01*
X158940238Y-121055000D01*
X158987857Y-121007380D01*
X158987857Y-121102619D01*
X158654523Y-121340714D02*
X158273571Y-121340714D01*
X158511666Y-122007380D02*
X158511666Y-121150238D01*
X158464047Y-121055000D01*
X158368809Y-121007380D01*
X158273571Y-121007380D01*
X157178333Y-122007380D02*
X157178333Y-121340714D01*
X157178333Y-121531190D02*
X157130714Y-121435952D01*
X157083095Y-121388333D01*
X156987857Y-121340714D01*
X156892619Y-121340714D01*
X156178333Y-121959761D02*
X156273571Y-122007380D01*
X156464047Y-122007380D01*
X156559285Y-121959761D01*
X156606904Y-121864523D01*
X156606904Y-121483571D01*
X156559285Y-121388333D01*
X156464047Y-121340714D01*
X156273571Y-121340714D01*
X156178333Y-121388333D01*
X156130714Y-121483571D01*
X156130714Y-121578809D01*
X156606904Y-121674047D01*
X155273571Y-121340714D02*
X155273571Y-122340714D01*
X155273571Y-121959761D02*
X155368809Y-122007380D01*
X155559285Y-122007380D01*
X155654523Y-121959761D01*
X155702142Y-121912142D01*
X155749761Y-121816904D01*
X155749761Y-121531190D01*
X155702142Y-121435952D01*
X155654523Y-121388333D01*
X155559285Y-121340714D01*
X155368809Y-121340714D01*
X155273571Y-121388333D01*
X154368809Y-121340714D02*
X154368809Y-122007380D01*
X154797380Y-121340714D02*
X154797380Y-121864523D01*
X154749761Y-121959761D01*
X154654523Y-122007380D01*
X154511666Y-122007380D01*
X154416428Y-121959761D01*
X154368809Y-121912142D01*
X153892619Y-122007380D02*
X153892619Y-121340714D01*
X153892619Y-121007380D02*
X153940238Y-121055000D01*
X153892619Y-121102619D01*
X153845000Y-121055000D01*
X153892619Y-121007380D01*
X153892619Y-121102619D01*
X153035476Y-121959761D02*
X153130714Y-122007380D01*
X153321190Y-122007380D01*
X153416428Y-121959761D01*
X153464047Y-121864523D01*
X153464047Y-121483571D01*
X153416428Y-121388333D01*
X153321190Y-121340714D01*
X153130714Y-121340714D01*
X153035476Y-121388333D01*
X152987857Y-121483571D01*
X152987857Y-121578809D01*
X153464047Y-121674047D01*
X152559285Y-122007380D02*
X152559285Y-121340714D01*
X152559285Y-121531190D02*
X152511666Y-121435952D01*
X152464047Y-121388333D01*
X152368809Y-121340714D01*
X152273571Y-121340714D01*
X151511666Y-122007380D02*
X151511666Y-121007380D01*
X151511666Y-121959761D02*
X151606904Y-122007380D01*
X151797380Y-122007380D01*
X151892619Y-121959761D01*
X151940238Y-121912142D01*
X151987857Y-121816904D01*
X151987857Y-121531190D01*
X151940238Y-121435952D01*
X151892619Y-121388333D01*
X151797380Y-121340714D01*
X151606904Y-121340714D01*
X151511666Y-121388333D01*
X151130714Y-122388333D02*
X151083095Y-122340714D01*
X150987857Y-122197857D01*
X150940238Y-122102619D01*
X150892619Y-121959761D01*
X150845000Y-121721666D01*
X150845000Y-121531190D01*
X150892619Y-121293095D01*
X150940238Y-121150238D01*
X150987857Y-121055000D01*
X151083095Y-120912142D01*
X151130714Y-120864523D01*
X150368809Y-121912142D02*
X150321190Y-121959761D01*
X150368809Y-122007380D01*
X150416428Y-121959761D01*
X150368809Y-121912142D01*
X150368809Y-122007380D01*
X150368809Y-121388333D02*
X150321190Y-121435952D01*
X150368809Y-121483571D01*
X150416428Y-121435952D01*
X150368809Y-121388333D01*
X150368809Y-121483571D01*
X149178333Y-121102619D02*
X149130714Y-121055000D01*
X149035476Y-121007380D01*
X148797380Y-121007380D01*
X148702142Y-121055000D01*
X148654523Y-121102619D01*
X148606904Y-121197857D01*
X148606904Y-121293095D01*
X148654523Y-121435952D01*
X149225952Y-122007380D01*
X148606904Y-122007380D01*
X148178333Y-122007380D02*
X148178333Y-121007380D01*
X148083095Y-121626428D02*
X147797380Y-122007380D01*
X147797380Y-121340714D02*
X148178333Y-121721666D01*
X147416428Y-121102619D02*
X147368809Y-121055000D01*
X147273571Y-121007380D01*
X147035476Y-121007380D01*
X146940238Y-121055000D01*
X146892619Y-121102619D01*
X146845000Y-121197857D01*
X146845000Y-121293095D01*
X146892619Y-121435952D01*
X147464047Y-122007380D01*
X146845000Y-122007380D01*
X182792380Y-111585714D02*
X181792380Y-111585714D01*
X182268571Y-111585714D02*
X182268571Y-112042857D01*
X182792380Y-112042857D02*
X181792380Y-112042857D01*
X182792380Y-112423809D02*
X181792380Y-112423809D01*
X182411428Y-112804761D02*
X182411428Y-113414285D01*
X182792380Y-113109523D02*
X182030476Y-113109523D01*
X182792380Y-109045714D02*
X181792380Y-109045714D01*
X182268571Y-109045714D02*
X182268571Y-109502857D01*
X182792380Y-109502857D02*
X181792380Y-109502857D01*
X182792380Y-109883809D02*
X181792380Y-109883809D01*
X182411428Y-110264761D02*
X182411428Y-110874285D01*
X182792380Y-106753333D02*
X182792380Y-106372380D01*
X181792380Y-106372380D01*
X181792380Y-107172380D02*
X181792380Y-107324761D01*
X181840000Y-107400952D01*
X181935238Y-107477142D01*
X182125714Y-107515238D01*
X182459047Y-107515238D01*
X182649523Y-107477142D01*
X182744761Y-107400952D01*
X182792380Y-107324761D01*
X182792380Y-107172380D01*
X182744761Y-107096190D01*
X182649523Y-107020000D01*
X182459047Y-106981904D01*
X182125714Y-106981904D01*
X181935238Y-107020000D01*
X181840000Y-107096190D01*
X181792380Y-107172380D01*
X182411428Y-107858095D02*
X182411428Y-108467619D01*
X182792380Y-108162857D02*
X182030476Y-108162857D01*
X182792380Y-104213333D02*
X182792380Y-103832380D01*
X181792380Y-103832380D01*
X181792380Y-104632380D02*
X181792380Y-104784761D01*
X181840000Y-104860952D01*
X181935238Y-104937142D01*
X182125714Y-104975238D01*
X182459047Y-104975238D01*
X182649523Y-104937142D01*
X182744761Y-104860952D01*
X182792380Y-104784761D01*
X182792380Y-104632380D01*
X182744761Y-104556190D01*
X182649523Y-104480000D01*
X182459047Y-104441904D01*
X182125714Y-104441904D01*
X181935238Y-104480000D01*
X181840000Y-104556190D01*
X181792380Y-104632380D01*
X182411428Y-105318095D02*
X182411428Y-105927619D01*
X172267380Y-100068809D02*
X172267380Y-100640238D01*
X173267380Y-100354523D02*
X172267380Y-100354523D01*
X173219761Y-101354523D02*
X173267380Y-101259285D01*
X173267380Y-101068809D01*
X173219761Y-100973571D01*
X173124523Y-100925952D01*
X172743571Y-100925952D01*
X172648333Y-100973571D01*
X172600714Y-101068809D01*
X172600714Y-101259285D01*
X172648333Y-101354523D01*
X172743571Y-101402142D01*
X172838809Y-101402142D01*
X172934047Y-100925952D01*
X173267380Y-101830714D02*
X172600714Y-101830714D01*
X172791190Y-101830714D02*
X172695952Y-101878333D01*
X172648333Y-101925952D01*
X172600714Y-102021190D01*
X172600714Y-102116428D01*
X173267380Y-102449761D02*
X172600714Y-102449761D01*
X172695952Y-102449761D02*
X172648333Y-102497380D01*
X172600714Y-102592619D01*
X172600714Y-102735476D01*
X172648333Y-102830714D01*
X172743571Y-102878333D01*
X173267380Y-102878333D01*
X172743571Y-102878333D02*
X172648333Y-102925952D01*
X172600714Y-103021190D01*
X172600714Y-103164047D01*
X172648333Y-103259285D01*
X172743571Y-103306904D01*
X173267380Y-103306904D01*
X180576428Y-102427380D02*
X180481190Y-102427380D01*
X180385952Y-102475000D01*
X180338333Y-102522619D01*
X180290714Y-102617857D01*
X180243095Y-102808333D01*
X180243095Y-103046428D01*
X180290714Y-103236904D01*
X180338333Y-103332142D01*
X180385952Y-103379761D01*
X180481190Y-103427380D01*
X180576428Y-103427380D01*
X180671666Y-103379761D01*
X180719285Y-103332142D01*
X180766904Y-103236904D01*
X180814523Y-103046428D01*
X180814523Y-102808333D01*
X180766904Y-102617857D01*
X180719285Y-102522619D01*
X180671666Y-102475000D01*
X180576428Y-102427380D01*
X179957380Y-102427380D02*
X179624047Y-103427380D01*
X179290714Y-102427380D01*
X176324523Y-103046428D02*
X175562619Y-103046428D01*
X175943571Y-103427380D02*
X175943571Y-102665476D01*
X174610238Y-102427380D02*
X175086428Y-102427380D01*
X175134047Y-102903571D01*
X175086428Y-102855952D01*
X174991190Y-102808333D01*
X174753095Y-102808333D01*
X174657857Y-102855952D01*
X174610238Y-102903571D01*
X174562619Y-102998809D01*
X174562619Y-103236904D01*
X174610238Y-103332142D01*
X174657857Y-103379761D01*
X174753095Y-103427380D01*
X174991190Y-103427380D01*
X175086428Y-103379761D01*
X175134047Y-103332142D01*
X174276904Y-102427380D02*
X173943571Y-103427380D01*
X173610238Y-102427380D01*
D15*
G04 #@! TO.C,C6*
X172366324Y-98370293D02*
X171843820Y-98370293D01*
X172366324Y-96950293D02*
X171843820Y-96950293D01*
G04 #@! TO.C,C7*
X173416324Y-119450293D02*
X172893820Y-119450293D01*
X173416324Y-120870293D02*
X172893820Y-120870293D01*
G04 #@! TO.C,C8*
X138840072Y-102924041D02*
X138840072Y-103446545D01*
X137420072Y-102924041D02*
X137420072Y-103446545D01*
G04 #@! TO.C,C9*
X138840072Y-112396545D02*
X138840072Y-111874041D01*
X137420072Y-112396545D02*
X137420072Y-111874041D01*
G04 #@! TO.C,R1*
X175187820Y-111475293D02*
X175710324Y-111475293D01*
X175187820Y-112895293D02*
X175710324Y-112895293D01*
G04 #@! TO.C,R2*
X179133820Y-111475293D02*
X179656324Y-111475293D01*
X179133820Y-112895293D02*
X179656324Y-112895293D01*
G04 #@! TO.C,R3*
X175187820Y-110355293D02*
X175710324Y-110355293D01*
X175187820Y-108935293D02*
X175710324Y-108935293D01*
G04 #@! TO.C,R4*
X179133820Y-110355293D02*
X179656324Y-110355293D01*
X179133820Y-108935293D02*
X179656324Y-108935293D01*
G04 #@! TO.C,R5*
X175187820Y-106395293D02*
X175710324Y-106395293D01*
X175187820Y-107815293D02*
X175710324Y-107815293D01*
G04 #@! TO.C,R6*
X179133820Y-106395293D02*
X179656324Y-106395293D01*
X179133820Y-107815293D02*
X179656324Y-107815293D01*
G04 #@! TO.C,R7*
X175187820Y-105275293D02*
X175710324Y-105275293D01*
X175187820Y-103855293D02*
X175710324Y-103855293D01*
G04 #@! TO.C,R8*
X179133820Y-105275293D02*
X179656324Y-105275293D01*
X179133820Y-103855293D02*
X179656324Y-103855293D01*
G04 #@! TO.C,R9*
X171945072Y-110654041D02*
X171945072Y-111176545D01*
X173365072Y-110654041D02*
X173365072Y-111176545D01*
G04 #@! TO.C,R10*
X173365072Y-105574041D02*
X173365072Y-106096545D01*
X171945072Y-105574041D02*
X171945072Y-106096545D01*
G04 #@! TO.C,C6*
D11*
X172271738Y-96367435D02*
X172319357Y-96415054D01*
X172462214Y-96462673D01*
X172557452Y-96462673D01*
X172700310Y-96415054D01*
X172795548Y-96319816D01*
X172843167Y-96224578D01*
X172890786Y-96034102D01*
X172890786Y-95891245D01*
X172843167Y-95700769D01*
X172795548Y-95605531D01*
X172700310Y-95510293D01*
X172557452Y-95462673D01*
X172462214Y-95462673D01*
X172319357Y-95510293D01*
X172271738Y-95557912D01*
X171414595Y-95462673D02*
X171605072Y-95462673D01*
X171700310Y-95510293D01*
X171747929Y-95557912D01*
X171843167Y-95700769D01*
X171890786Y-95891245D01*
X171890786Y-96272197D01*
X171843167Y-96367435D01*
X171795548Y-96415054D01*
X171700310Y-96462673D01*
X171509833Y-96462673D01*
X171414595Y-96415054D01*
X171366976Y-96367435D01*
X171319357Y-96272197D01*
X171319357Y-96034102D01*
X171366976Y-95938864D01*
X171414595Y-95891245D01*
X171509833Y-95843626D01*
X171700310Y-95843626D01*
X171795548Y-95891245D01*
X171843167Y-95938864D01*
X171890786Y-96034102D01*
G04 #@! TO.C,C7*
X173321738Y-118867435D02*
X173369357Y-118915054D01*
X173512214Y-118962673D01*
X173607452Y-118962673D01*
X173750310Y-118915054D01*
X173845548Y-118819816D01*
X173893167Y-118724578D01*
X173940786Y-118534102D01*
X173940786Y-118391245D01*
X173893167Y-118200769D01*
X173845548Y-118105531D01*
X173750310Y-118010293D01*
X173607452Y-117962673D01*
X173512214Y-117962673D01*
X173369357Y-118010293D01*
X173321738Y-118057912D01*
X172988405Y-117962673D02*
X172321738Y-117962673D01*
X172750310Y-118962673D01*
G04 #@! TO.C,C8*
X136837214Y-103018626D02*
X136884833Y-102971007D01*
X136932452Y-102828150D01*
X136932452Y-102732912D01*
X136884833Y-102590054D01*
X136789595Y-102494816D01*
X136694357Y-102447197D01*
X136503881Y-102399578D01*
X136361024Y-102399578D01*
X136170548Y-102447197D01*
X136075310Y-102494816D01*
X135980072Y-102590054D01*
X135932452Y-102732912D01*
X135932452Y-102828150D01*
X135980072Y-102971007D01*
X136027691Y-103018626D01*
X136361024Y-103590054D02*
X136313405Y-103494816D01*
X136265786Y-103447197D01*
X136170548Y-103399578D01*
X136122929Y-103399578D01*
X136027691Y-103447197D01*
X135980072Y-103494816D01*
X135932452Y-103590054D01*
X135932452Y-103780531D01*
X135980072Y-103875769D01*
X136027691Y-103923388D01*
X136122929Y-103971007D01*
X136170548Y-103971007D01*
X136265786Y-103923388D01*
X136313405Y-103875769D01*
X136361024Y-103780531D01*
X136361024Y-103590054D01*
X136408643Y-103494816D01*
X136456262Y-103447197D01*
X136551500Y-103399578D01*
X136741976Y-103399578D01*
X136837214Y-103447197D01*
X136884833Y-103494816D01*
X136932452Y-103590054D01*
X136932452Y-103780531D01*
X136884833Y-103875769D01*
X136837214Y-103923388D01*
X136741976Y-103971007D01*
X136551500Y-103971007D01*
X136456262Y-103923388D01*
X136408643Y-103875769D01*
X136361024Y-103780531D01*
G04 #@! TO.C,C9*
X140137214Y-111968626D02*
X140184833Y-111921007D01*
X140232452Y-111778150D01*
X140232452Y-111682912D01*
X140184833Y-111540054D01*
X140089595Y-111444816D01*
X139994357Y-111397197D01*
X139803881Y-111349578D01*
X139661024Y-111349578D01*
X139470548Y-111397197D01*
X139375310Y-111444816D01*
X139280072Y-111540054D01*
X139232452Y-111682912D01*
X139232452Y-111778150D01*
X139280072Y-111921007D01*
X139327691Y-111968626D01*
X140232452Y-112444816D02*
X140232452Y-112635293D01*
X140184833Y-112730531D01*
X140137214Y-112778150D01*
X139994357Y-112873388D01*
X139803881Y-112921007D01*
X139422929Y-112921007D01*
X139327691Y-112873388D01*
X139280072Y-112825769D01*
X139232452Y-112730531D01*
X139232452Y-112540054D01*
X139280072Y-112444816D01*
X139327691Y-112397197D01*
X139422929Y-112349578D01*
X139661024Y-112349578D01*
X139756262Y-112397197D01*
X139803881Y-112444816D01*
X139851500Y-112540054D01*
X139851500Y-112730531D01*
X139803881Y-112825769D01*
X139756262Y-112873388D01*
X139661024Y-112921007D01*
G04 #@! TD*
M02*
