M48
;DRILL file {KiCad 5.0.0} date Sun Oct 21 13:37:36 2018
;FORMAT={-:-/ absolute / metric / decimal}
FMAT,2
METRIC,TZ
T1C0.300
T2C0.400
T3C0.500
T4C1.000
T5C1.200
T6C3.000
%
G90
G05
M71
T1
X149.9Y-107.835
X149.9Y-109.035
X151.1Y-107.835
X151.1Y-109.035
X152.4Y-107.835
X152.4Y-109.035
X153.5Y-107.835
X153.5Y-109.035
T2
X147.89Y-110.525
X149.4Y-102.6
X151.065Y-105.735
X152.35Y-93.84
X156.78Y-110.28
X159.48Y-101.23
X160.75Y-95.83
X162.02Y-101.23
X162.495Y-105.735
X162.755Y-117.265
X174.424Y-104.565
X174.424Y-107.105
X174.424Y-109.645
X174.424Y-112.185
T3
X135.88Y-97.66
X136.539Y-96.069
X136.539Y-99.251
X138.13Y-95.41
X138.13Y-99.91
X139.721Y-96.069
X139.721Y-99.251
X140.38Y-97.66
X175.88Y-117.66
X176.539Y-116.069
X176.539Y-119.251
X178.13Y-115.41
X178.13Y-119.91
X179.721Y-116.069
X179.721Y-119.251
X180.38Y-117.66
X175.88Y-97.66
X176.539Y-96.069
X176.539Y-99.251
X178.13Y-95.41
X178.13Y-99.91
X179.721Y-96.069
X179.721Y-99.251
X180.38Y-97.66
X135.88Y-117.66
X136.539Y-116.069
X136.539Y-119.251
X138.13Y-115.41
X138.13Y-119.91
X139.721Y-116.069
X139.721Y-119.251
X140.38Y-117.66
T4
X168.21Y-91.865
X170.75Y-91.865
X173.29Y-91.865
X144.08Y-91.715
X146.62Y-91.715
X149.16Y-91.715
T5
X157.575Y-91.545
X160.115Y-91.545
X169.48Y-104.565
X169.48Y-107.105
X169.48Y-109.645
X169.48Y-112.185
X169.48Y-114.725
X169.48Y-117.265
T6
X178.13Y-97.66
X138.13Y-117.66
X138.13Y-97.66
X178.13Y-117.66
T0
M30
