%FSLAX45Y45*%
G04 Gerber Fmt 4.5, Leading zero omitted, Abs format (unit mm)*
G04 Created by KiCad (PCBNEW 5.0.0) date Sun Oct 21 13:37:43 2018*
%MOMM*%
%LPD*%
G01*
G04 APERTURE LIST*
%ADD10C,0.150000*%
%ADD11C,0.200000*%
%ADD12C,0.300000*%
G04 APERTURE END LIST*
D10*
X18313007Y-12266029D02*
X13313007Y-12266029D01*
X18313007Y-8766029D02*
X18313007Y-12266029D01*
X13313007Y-8766029D02*
X18313007Y-8766029D01*
X13313007Y-12266029D02*
X13313007Y-8766029D01*
D11*
D12*
X13591936Y-12739244D02*
X13591936Y-12439244D01*
X13663364Y-12439244D01*
X13706221Y-12453529D01*
X13734793Y-12482101D01*
X13749078Y-12510672D01*
X13763364Y-12567815D01*
X13763364Y-12610672D01*
X13749078Y-12667815D01*
X13734793Y-12696386D01*
X13706221Y-12724958D01*
X13663364Y-12739244D01*
X13591936Y-12739244D01*
X13891936Y-12739244D02*
X13891936Y-12539244D01*
X13891936Y-12596386D02*
X13906221Y-12567815D01*
X13920507Y-12553529D01*
X13949078Y-12539244D01*
X13977650Y-12539244D01*
X14077650Y-12739244D02*
X14077650Y-12539244D01*
X14077650Y-12439244D02*
X14063364Y-12453529D01*
X14077650Y-12467815D01*
X14091936Y-12453529D01*
X14077650Y-12439244D01*
X14077650Y-12467815D01*
X14263364Y-12739244D02*
X14234793Y-12724958D01*
X14220507Y-12696386D01*
X14220507Y-12439244D01*
X14420507Y-12739244D02*
X14391936Y-12724958D01*
X14377650Y-12696386D01*
X14377650Y-12439244D01*
X14763364Y-12739244D02*
X14763364Y-12439244D01*
X14863364Y-12653529D01*
X14963364Y-12439244D01*
X14963364Y-12739244D01*
X15234793Y-12739244D02*
X15234793Y-12582101D01*
X15220507Y-12553529D01*
X15191936Y-12539244D01*
X15134793Y-12539244D01*
X15106221Y-12553529D01*
X15234793Y-12724958D02*
X15206221Y-12739244D01*
X15134793Y-12739244D01*
X15106221Y-12724958D01*
X15091936Y-12696386D01*
X15091936Y-12667815D01*
X15106221Y-12639244D01*
X15134793Y-12624958D01*
X15206221Y-12624958D01*
X15234793Y-12610672D01*
X15377650Y-12539244D02*
X15377650Y-12839244D01*
X15377650Y-12553529D02*
X15406221Y-12539244D01*
X15463364Y-12539244D01*
X15491936Y-12553529D01*
X15506221Y-12567815D01*
X15520507Y-12596386D01*
X15520507Y-12682101D01*
X15506221Y-12710672D01*
X15491936Y-12724958D01*
X15463364Y-12739244D01*
X15406221Y-12739244D01*
X15377650Y-12724958D01*
X15649078Y-12710672D02*
X15663364Y-12724958D01*
X15649078Y-12739244D01*
X15634793Y-12724958D01*
X15649078Y-12710672D01*
X15649078Y-12739244D01*
X15649078Y-12553529D02*
X15663364Y-12567815D01*
X15649078Y-12582101D01*
X15634793Y-12567815D01*
X15649078Y-12553529D01*
X15649078Y-12582101D01*
M02*
