%FSLAX45Y45*%
G04 Gerber Fmt 4.5, Leading zero omitted, Abs format (unit mm)*
G04 Created by KiCad (PCBNEW 5.0.0) date Sun Oct 21 13:37:43 2018*
%MOMM*%
%LPD*%
G01*
G04 APERTURE LIST*
%ADD10C,0.150000*%
%ADD11C,0.200000*%
%ADD12C,0.300000*%
G04 APERTURE END LIST*
D10*
X18313007Y-12266029D02*
X13313007Y-12266029D01*
X18313007Y-8766029D02*
X18313007Y-12266029D01*
X13313007Y-8766029D02*
X18313007Y-8766029D01*
X13313007Y-12266029D02*
X13313007Y-8766029D01*
D11*
X14975007Y-10768529D02*
X15005007Y-10798529D01*
X15005007Y-10768529D02*
X14975007Y-10798529D01*
X14975007Y-10888529D02*
X15005007Y-10918529D01*
X15005007Y-10888529D02*
X14975007Y-10918529D01*
X15095007Y-10768529D02*
X15125007Y-10798529D01*
X15125007Y-10768529D02*
X15095007Y-10798529D01*
X15095007Y-10888529D02*
X15125007Y-10918529D01*
X15125007Y-10888529D02*
X15095007Y-10918529D01*
X15225007Y-10768529D02*
X15255007Y-10798529D01*
X15255007Y-10768529D02*
X15225007Y-10798529D01*
X15225007Y-10888529D02*
X15255007Y-10918529D01*
X15255007Y-10888529D02*
X15225007Y-10918529D01*
X15335007Y-10768529D02*
X15365007Y-10798529D01*
X15365007Y-10768529D02*
X15335007Y-10798529D01*
X15335007Y-10888529D02*
X15365007Y-10918529D01*
X15365007Y-10888529D02*
X15335007Y-10918529D01*
X14809007Y-11052529D02*
G75*
G03X14809007Y-11052529I-20000J0D01*
G01*
X14960000Y-10260000D02*
G75*
G03X14960000Y-10260000I-20000J0D01*
G01*
X15126507Y-10573529D02*
G75*
G03X15126507Y-10573529I-20000J0D01*
G01*
X15255000Y-9384000D02*
G75*
G03X15255000Y-9384000I-20000J0D01*
G01*
X15698007Y-11028029D02*
G75*
G03X15698007Y-11028029I-20000J0D01*
G01*
X15968000Y-10123000D02*
G75*
G03X15968000Y-10123000I-20000J0D01*
G01*
X16095000Y-9583000D02*
G75*
G03X16095000Y-9583000I-20000J0D01*
G01*
X16222000Y-10123000D02*
G75*
G03X16222000Y-10123000I-20000J0D01*
G01*
X16269507Y-10573529D02*
G75*
G03X16269507Y-10573529I-20000J0D01*
G01*
X16295507Y-11726529D02*
G75*
G03X16295507Y-11726529I-20000J0D01*
G01*
X17462407Y-10456529D02*
G75*
G03X17462407Y-10456529I-20000J0D01*
G01*
X17462407Y-10710529D02*
G75*
G03X17462407Y-10710529I-20000J0D01*
G01*
X17462407Y-10964529D02*
G75*
G03X17462407Y-10964529I-20000J0D01*
G01*
X17462407Y-11218529D02*
G75*
G03X17462407Y-11218529I-20000J0D01*
G01*
X13588007Y-9741029D02*
X13588007Y-9791029D01*
X13563007Y-9766029D02*
X13613007Y-9766029D01*
X13653908Y-9581930D02*
X13653908Y-9631930D01*
X13628908Y-9606930D02*
X13678908Y-9606930D01*
X13653908Y-9900128D02*
X13653908Y-9950128D01*
X13628908Y-9925128D02*
X13678908Y-9925128D01*
X13813007Y-9516029D02*
X13813007Y-9566029D01*
X13788007Y-9541029D02*
X13838007Y-9541029D01*
X13813007Y-9966029D02*
X13813007Y-10016029D01*
X13788007Y-9991029D02*
X13838007Y-9991029D01*
X13972106Y-9581930D02*
X13972106Y-9631930D01*
X13947106Y-9606930D02*
X13997106Y-9606930D01*
X13972106Y-9900128D02*
X13972106Y-9950128D01*
X13947106Y-9925128D02*
X13997106Y-9925128D01*
X14038007Y-9741029D02*
X14038007Y-9791029D01*
X14013007Y-9766029D02*
X14063007Y-9766029D01*
X17588007Y-11741029D02*
X17588007Y-11791029D01*
X17563007Y-11766029D02*
X17613007Y-11766029D01*
X17653908Y-11581930D02*
X17653908Y-11631930D01*
X17628908Y-11606930D02*
X17678908Y-11606930D01*
X17653908Y-11900128D02*
X17653908Y-11950128D01*
X17628908Y-11925128D02*
X17678908Y-11925128D01*
X17813007Y-11516029D02*
X17813007Y-11566029D01*
X17788007Y-11541029D02*
X17838007Y-11541029D01*
X17813007Y-11966029D02*
X17813007Y-12016029D01*
X17788007Y-11991029D02*
X17838007Y-11991029D01*
X17972106Y-11581930D02*
X17972106Y-11631930D01*
X17947106Y-11606930D02*
X17997106Y-11606930D01*
X17972106Y-11900128D02*
X17972106Y-11950128D01*
X17947106Y-11925128D02*
X17997106Y-11925128D01*
X18038007Y-11741029D02*
X18038007Y-11791029D01*
X18013007Y-11766029D02*
X18063007Y-11766029D01*
X17588007Y-9741029D02*
X17588007Y-9791029D01*
X17563007Y-9766029D02*
X17613007Y-9766029D01*
X17653908Y-9581930D02*
X17653908Y-9631930D01*
X17628908Y-9606930D02*
X17678908Y-9606930D01*
X17653908Y-9900128D02*
X17653908Y-9950128D01*
X17628908Y-9925128D02*
X17678908Y-9925128D01*
X17813007Y-9516029D02*
X17813007Y-9566029D01*
X17788007Y-9541029D02*
X17838007Y-9541029D01*
X17813007Y-9966029D02*
X17813007Y-10016029D01*
X17788007Y-9991029D02*
X17838007Y-9991029D01*
X17972106Y-9581930D02*
X17972106Y-9631930D01*
X17947106Y-9606930D02*
X17997106Y-9606930D01*
X17972106Y-9900128D02*
X17972106Y-9950128D01*
X17947106Y-9925128D02*
X17997106Y-9925128D01*
X18038007Y-9741029D02*
X18038007Y-9791029D01*
X18013007Y-9766029D02*
X18063007Y-9766029D01*
X13588007Y-11741029D02*
X13588007Y-11791029D01*
X13563007Y-11766029D02*
X13613007Y-11766029D01*
X13653908Y-11581930D02*
X13653908Y-11631930D01*
X13628908Y-11606930D02*
X13678908Y-11606930D01*
X13653908Y-11900128D02*
X13653908Y-11950128D01*
X13628908Y-11925128D02*
X13678908Y-11925128D01*
X13813007Y-11516029D02*
X13813007Y-11566029D01*
X13788007Y-11541029D02*
X13838007Y-11541029D01*
X13813007Y-11966029D02*
X13813007Y-12016029D01*
X13788007Y-11991029D02*
X13838007Y-11991029D01*
X13972106Y-11581930D02*
X13972106Y-11631930D01*
X13947106Y-11606930D02*
X13997106Y-11606930D01*
X13972106Y-11900128D02*
X13972106Y-11950128D01*
X13947106Y-11925128D02*
X13997106Y-11925128D01*
X14038007Y-11741029D02*
X14038007Y-11791029D01*
X14013007Y-11766029D02*
X14063007Y-11766029D01*
X16856363Y-9221885D02*
X16856363Y-9151174D01*
X16785652Y-9151174D01*
X16785652Y-9221885D01*
X16856363Y-9221885D01*
X17110363Y-9221885D02*
X17110363Y-9151174D01*
X17039652Y-9151174D01*
X17039652Y-9221885D01*
X17110363Y-9221885D01*
X17364363Y-9221885D02*
X17364363Y-9151174D01*
X17293652Y-9151174D01*
X17293652Y-9221885D01*
X17364363Y-9221885D01*
X14443363Y-9206885D02*
X14443363Y-9136174D01*
X14372651Y-9136174D01*
X14372651Y-9206885D01*
X14443363Y-9206885D01*
X14697363Y-9206885D02*
X14697363Y-9136174D01*
X14626651Y-9136174D01*
X14626651Y-9206885D01*
X14697363Y-9206885D01*
X14951363Y-9206885D02*
X14951363Y-9136174D01*
X14880651Y-9136174D01*
X14880651Y-9206885D01*
X14951363Y-9206885D01*
X15757500Y-9214500D02*
X15817500Y-9154500D01*
X15757500Y-9094500D01*
X15697500Y-9154500D01*
X15757500Y-9214500D01*
X16011500Y-9214500D02*
X16071500Y-9154500D01*
X16011500Y-9094500D01*
X15951500Y-9154500D01*
X16011500Y-9214500D01*
X16948007Y-10516529D02*
X17008007Y-10456529D01*
X16948007Y-10396529D01*
X16888007Y-10456529D01*
X16948007Y-10516529D01*
X16948007Y-10770529D02*
X17008007Y-10710529D01*
X16948007Y-10650529D01*
X16888007Y-10710529D01*
X16948007Y-10770529D01*
X16948007Y-11024529D02*
X17008007Y-10964529D01*
X16948007Y-10904529D01*
X16888007Y-10964529D01*
X16948007Y-11024529D01*
X16948007Y-11278529D02*
X17008007Y-11218529D01*
X16948007Y-11158529D01*
X16888007Y-11218529D01*
X16948007Y-11278529D01*
X16948007Y-11532529D02*
X17008007Y-11472529D01*
X16948007Y-11412529D01*
X16888007Y-11472529D01*
X16948007Y-11532529D01*
X16948007Y-11786529D02*
X17008007Y-11726529D01*
X16948007Y-11666529D01*
X16888007Y-11726529D01*
X16948007Y-11786529D01*
X17663007Y-9616029D02*
X17963007Y-9916029D01*
X17963007Y-9616029D02*
X17663007Y-9916029D01*
X17963007Y-9766029D02*
G75*
G03X17963007Y-9766029I-150000J0D01*
G01*
X13663007Y-11616029D02*
X13963007Y-11916029D01*
X13963007Y-11616029D02*
X13663007Y-11916029D01*
X13963007Y-11766029D02*
G75*
G03X13963007Y-11766029I-150000J0D01*
G01*
X13663007Y-9616029D02*
X13963007Y-9916029D01*
X13963007Y-9616029D02*
X13663007Y-9916029D01*
X13963007Y-9766029D02*
G75*
G03X13963007Y-9766029I-150000J0D01*
G01*
X17663007Y-11616029D02*
X17963007Y-11916029D01*
X17963007Y-11616029D02*
X17663007Y-11916029D01*
X17963007Y-11766029D02*
G75*
G03X17963007Y-11766029I-150000J0D01*
G01*
D12*
X13591936Y-12739244D02*
X13591936Y-12439244D01*
X13663364Y-12439244D01*
X13706221Y-12453529D01*
X13734793Y-12482101D01*
X13749078Y-12510672D01*
X13763364Y-12567815D01*
X13763364Y-12610672D01*
X13749078Y-12667815D01*
X13734793Y-12696386D01*
X13706221Y-12724958D01*
X13663364Y-12739244D01*
X13591936Y-12739244D01*
X13891936Y-12739244D02*
X13891936Y-12539244D01*
X13891936Y-12596386D02*
X13906221Y-12567815D01*
X13920507Y-12553529D01*
X13949078Y-12539244D01*
X13977650Y-12539244D01*
X14077650Y-12739244D02*
X14077650Y-12539244D01*
X14077650Y-12439244D02*
X14063364Y-12453529D01*
X14077650Y-12467815D01*
X14091936Y-12453529D01*
X14077650Y-12439244D01*
X14077650Y-12467815D01*
X14263364Y-12739244D02*
X14234793Y-12724958D01*
X14220507Y-12696386D01*
X14220507Y-12439244D01*
X14420507Y-12739244D02*
X14391936Y-12724958D01*
X14377650Y-12696386D01*
X14377650Y-12439244D01*
X14763364Y-12739244D02*
X14763364Y-12439244D01*
X14863364Y-12653529D01*
X14963364Y-12439244D01*
X14963364Y-12739244D01*
X15234793Y-12739244D02*
X15234793Y-12582101D01*
X15220507Y-12553529D01*
X15191936Y-12539244D01*
X15134793Y-12539244D01*
X15106221Y-12553529D01*
X15234793Y-12724958D02*
X15206221Y-12739244D01*
X15134793Y-12739244D01*
X15106221Y-12724958D01*
X15091936Y-12696386D01*
X15091936Y-12667815D01*
X15106221Y-12639244D01*
X15134793Y-12624958D01*
X15206221Y-12624958D01*
X15234793Y-12610672D01*
X15377650Y-12539244D02*
X15377650Y-12839244D01*
X15377650Y-12553529D02*
X15406221Y-12539244D01*
X15463364Y-12539244D01*
X15491936Y-12553529D01*
X15506221Y-12567815D01*
X15520507Y-12596386D01*
X15520507Y-12682101D01*
X15506221Y-12710672D01*
X15491936Y-12724958D01*
X15463364Y-12739244D01*
X15406221Y-12739244D01*
X15377650Y-12724958D01*
X15649078Y-12710672D02*
X15663364Y-12724958D01*
X15649078Y-12739244D01*
X15634793Y-12724958D01*
X15649078Y-12710672D01*
X15649078Y-12739244D01*
X15649078Y-12553529D02*
X15663364Y-12567815D01*
X15649078Y-12582101D01*
X15634793Y-12567815D01*
X15649078Y-12553529D01*
X15649078Y-12582101D01*
X13275507Y-13218529D02*
X13305507Y-13248529D01*
X13305507Y-13218529D02*
X13275507Y-13248529D01*
X13649078Y-13069244D02*
X13677650Y-13069244D01*
X13706221Y-13083529D01*
X13720507Y-13097815D01*
X13734793Y-13126386D01*
X13749078Y-13183529D01*
X13749078Y-13254958D01*
X13734793Y-13312101D01*
X13720507Y-13340672D01*
X13706221Y-13354958D01*
X13677650Y-13369244D01*
X13649078Y-13369244D01*
X13620507Y-13354958D01*
X13606221Y-13340672D01*
X13591936Y-13312101D01*
X13577650Y-13254958D01*
X13577650Y-13183529D01*
X13591936Y-13126386D01*
X13606221Y-13097815D01*
X13620507Y-13083529D01*
X13649078Y-13069244D01*
X13877650Y-13340672D02*
X13891936Y-13354958D01*
X13877650Y-13369244D01*
X13863364Y-13354958D01*
X13877650Y-13340672D01*
X13877650Y-13369244D01*
X13991936Y-13069244D02*
X14177650Y-13069244D01*
X14077650Y-13183529D01*
X14120507Y-13183529D01*
X14149078Y-13197815D01*
X14163364Y-13212101D01*
X14177650Y-13240672D01*
X14177650Y-13312101D01*
X14163364Y-13340672D01*
X14149078Y-13354958D01*
X14120507Y-13369244D01*
X14034793Y-13369244D01*
X14006221Y-13354958D01*
X13991936Y-13340672D01*
X14363364Y-13069244D02*
X14391936Y-13069244D01*
X14420507Y-13083529D01*
X14434793Y-13097815D01*
X14449078Y-13126386D01*
X14463364Y-13183529D01*
X14463364Y-13254958D01*
X14449078Y-13312101D01*
X14434793Y-13340672D01*
X14420507Y-13354958D01*
X14391936Y-13369244D01*
X14363364Y-13369244D01*
X14334793Y-13354958D01*
X14320507Y-13340672D01*
X14306221Y-13312101D01*
X14291936Y-13254958D01*
X14291936Y-13183529D01*
X14306221Y-13126386D01*
X14320507Y-13097815D01*
X14334793Y-13083529D01*
X14363364Y-13069244D01*
X14591936Y-13369244D02*
X14591936Y-13169244D01*
X14591936Y-13197815D02*
X14606221Y-13183529D01*
X14634793Y-13169244D01*
X14677650Y-13169244D01*
X14706221Y-13183529D01*
X14720507Y-13212101D01*
X14720507Y-13369244D01*
X14720507Y-13212101D02*
X14734793Y-13183529D01*
X14763364Y-13169244D01*
X14806221Y-13169244D01*
X14834793Y-13183529D01*
X14849078Y-13212101D01*
X14849078Y-13369244D01*
X14991936Y-13369244D02*
X14991936Y-13169244D01*
X14991936Y-13197815D02*
X15006221Y-13183529D01*
X15034793Y-13169244D01*
X15077650Y-13169244D01*
X15106221Y-13183529D01*
X15120507Y-13212101D01*
X15120507Y-13369244D01*
X15120507Y-13212101D02*
X15134793Y-13183529D01*
X15163364Y-13169244D01*
X15206221Y-13169244D01*
X15234793Y-13183529D01*
X15249078Y-13212101D01*
X15249078Y-13369244D01*
X15834793Y-13054958D02*
X15577650Y-13440672D01*
X16220507Y-13069244D02*
X16249078Y-13069244D01*
X16277650Y-13083529D01*
X16291936Y-13097815D01*
X16306221Y-13126386D01*
X16320507Y-13183529D01*
X16320507Y-13254958D01*
X16306221Y-13312101D01*
X16291936Y-13340672D01*
X16277650Y-13354958D01*
X16249078Y-13369244D01*
X16220507Y-13369244D01*
X16191936Y-13354958D01*
X16177650Y-13340672D01*
X16163364Y-13312101D01*
X16149078Y-13254958D01*
X16149078Y-13183529D01*
X16163364Y-13126386D01*
X16177650Y-13097815D01*
X16191936Y-13083529D01*
X16220507Y-13069244D01*
X16449078Y-13340672D02*
X16463364Y-13354958D01*
X16449078Y-13369244D01*
X16434793Y-13354958D01*
X16449078Y-13340672D01*
X16449078Y-13369244D01*
X16649078Y-13069244D02*
X16677650Y-13069244D01*
X16706221Y-13083529D01*
X16720507Y-13097815D01*
X16734793Y-13126386D01*
X16749078Y-13183529D01*
X16749078Y-13254958D01*
X16734793Y-13312101D01*
X16720507Y-13340672D01*
X16706221Y-13354958D01*
X16677650Y-13369244D01*
X16649078Y-13369244D01*
X16620507Y-13354958D01*
X16606221Y-13340672D01*
X16591936Y-13312101D01*
X16577650Y-13254958D01*
X16577650Y-13183529D01*
X16591936Y-13126386D01*
X16606221Y-13097815D01*
X16620507Y-13083529D01*
X16649078Y-13069244D01*
X17034793Y-13369244D02*
X16863364Y-13369244D01*
X16949079Y-13369244D02*
X16949079Y-13069244D01*
X16920507Y-13112101D01*
X16891936Y-13140672D01*
X16863364Y-13154958D01*
X17149079Y-13097815D02*
X17163364Y-13083529D01*
X17191936Y-13069244D01*
X17263364Y-13069244D01*
X17291936Y-13083529D01*
X17306221Y-13097815D01*
X17320507Y-13126386D01*
X17320507Y-13154958D01*
X17306221Y-13197815D01*
X17134793Y-13369244D01*
X17320507Y-13369244D01*
X17434793Y-13069244D02*
X17434793Y-13126386D01*
X17549079Y-13069244D02*
X17549079Y-13126386D01*
X17991936Y-13483529D02*
X17977650Y-13469244D01*
X17949079Y-13426386D01*
X17934793Y-13397815D01*
X17920507Y-13354958D01*
X17906221Y-13283529D01*
X17906221Y-13226386D01*
X17920507Y-13154958D01*
X17934793Y-13112101D01*
X17949079Y-13083529D01*
X17977650Y-13040672D01*
X17991936Y-13026386D01*
X18149079Y-13197815D02*
X18120507Y-13183529D01*
X18106221Y-13169244D01*
X18091936Y-13140672D01*
X18091936Y-13126386D01*
X18106221Y-13097815D01*
X18120507Y-13083529D01*
X18149079Y-13069244D01*
X18206221Y-13069244D01*
X18234793Y-13083529D01*
X18249079Y-13097815D01*
X18263364Y-13126386D01*
X18263364Y-13140672D01*
X18249079Y-13169244D01*
X18234793Y-13183529D01*
X18206221Y-13197815D01*
X18149079Y-13197815D01*
X18120507Y-13212101D01*
X18106221Y-13226386D01*
X18091936Y-13254958D01*
X18091936Y-13312101D01*
X18106221Y-13340672D01*
X18120507Y-13354958D01*
X18149079Y-13369244D01*
X18206221Y-13369244D01*
X18234793Y-13354958D01*
X18249079Y-13340672D01*
X18263364Y-13312101D01*
X18263364Y-13254958D01*
X18249079Y-13226386D01*
X18234793Y-13212101D01*
X18206221Y-13197815D01*
X18620507Y-13369244D02*
X18620507Y-13069244D01*
X18749079Y-13369244D02*
X18749079Y-13212101D01*
X18734793Y-13183529D01*
X18706221Y-13169244D01*
X18663364Y-13169244D01*
X18634793Y-13183529D01*
X18620507Y-13197815D01*
X18934793Y-13369244D02*
X18906221Y-13354958D01*
X18891936Y-13340672D01*
X18877650Y-13312101D01*
X18877650Y-13226386D01*
X18891936Y-13197815D01*
X18906221Y-13183529D01*
X18934793Y-13169244D01*
X18977650Y-13169244D01*
X19006221Y-13183529D01*
X19020507Y-13197815D01*
X19034793Y-13226386D01*
X19034793Y-13312101D01*
X19020507Y-13340672D01*
X19006221Y-13354958D01*
X18977650Y-13369244D01*
X18934793Y-13369244D01*
X19206221Y-13369244D02*
X19177650Y-13354958D01*
X19163364Y-13326386D01*
X19163364Y-13069244D01*
X19434793Y-13354958D02*
X19406221Y-13369244D01*
X19349079Y-13369244D01*
X19320507Y-13354958D01*
X19306221Y-13326386D01*
X19306221Y-13212101D01*
X19320507Y-13183529D01*
X19349079Y-13169244D01*
X19406221Y-13169244D01*
X19434793Y-13183529D01*
X19449079Y-13212101D01*
X19449079Y-13240672D01*
X19306221Y-13269244D01*
X19563364Y-13354958D02*
X19591936Y-13369244D01*
X19649079Y-13369244D01*
X19677650Y-13354958D01*
X19691936Y-13326386D01*
X19691936Y-13312101D01*
X19677650Y-13283529D01*
X19649079Y-13269244D01*
X19606221Y-13269244D01*
X19577650Y-13254958D01*
X19563364Y-13226386D01*
X19563364Y-13212101D01*
X19577650Y-13183529D01*
X19606221Y-13169244D01*
X19649079Y-13169244D01*
X19677650Y-13183529D01*
X19791936Y-13483529D02*
X19806221Y-13469244D01*
X19834793Y-13426386D01*
X19849079Y-13397815D01*
X19863364Y-13354958D01*
X19877650Y-13283529D01*
X19877650Y-13226386D01*
X19863364Y-13154958D01*
X19849079Y-13112101D01*
X19834793Y-13083529D01*
X19806221Y-13040672D01*
X19791936Y-13026386D01*
X13305507Y-13629529D02*
G75*
G03X13305507Y-13629529I-20000J0D01*
G01*
X13649078Y-13465244D02*
X13677650Y-13465244D01*
X13706221Y-13479529D01*
X13720507Y-13493815D01*
X13734793Y-13522386D01*
X13749078Y-13579529D01*
X13749078Y-13650958D01*
X13734793Y-13708101D01*
X13720507Y-13736672D01*
X13706221Y-13750958D01*
X13677650Y-13765244D01*
X13649078Y-13765244D01*
X13620507Y-13750958D01*
X13606221Y-13736672D01*
X13591936Y-13708101D01*
X13577650Y-13650958D01*
X13577650Y-13579529D01*
X13591936Y-13522386D01*
X13606221Y-13493815D01*
X13620507Y-13479529D01*
X13649078Y-13465244D01*
X13877650Y-13736672D02*
X13891936Y-13750958D01*
X13877650Y-13765244D01*
X13863364Y-13750958D01*
X13877650Y-13736672D01*
X13877650Y-13765244D01*
X14149078Y-13565244D02*
X14149078Y-13765244D01*
X14077650Y-13450958D02*
X14006221Y-13665244D01*
X14191936Y-13665244D01*
X14363364Y-13465244D02*
X14391936Y-13465244D01*
X14420507Y-13479529D01*
X14434793Y-13493815D01*
X14449078Y-13522386D01*
X14463364Y-13579529D01*
X14463364Y-13650958D01*
X14449078Y-13708101D01*
X14434793Y-13736672D01*
X14420507Y-13750958D01*
X14391936Y-13765244D01*
X14363364Y-13765244D01*
X14334793Y-13750958D01*
X14320507Y-13736672D01*
X14306221Y-13708101D01*
X14291936Y-13650958D01*
X14291936Y-13579529D01*
X14306221Y-13522386D01*
X14320507Y-13493815D01*
X14334793Y-13479529D01*
X14363364Y-13465244D01*
X14591936Y-13765244D02*
X14591936Y-13565244D01*
X14591936Y-13593815D02*
X14606221Y-13579529D01*
X14634793Y-13565244D01*
X14677650Y-13565244D01*
X14706221Y-13579529D01*
X14720507Y-13608101D01*
X14720507Y-13765244D01*
X14720507Y-13608101D02*
X14734793Y-13579529D01*
X14763364Y-13565244D01*
X14806221Y-13565244D01*
X14834793Y-13579529D01*
X14849078Y-13608101D01*
X14849078Y-13765244D01*
X14991936Y-13765244D02*
X14991936Y-13565244D01*
X14991936Y-13593815D02*
X15006221Y-13579529D01*
X15034793Y-13565244D01*
X15077650Y-13565244D01*
X15106221Y-13579529D01*
X15120507Y-13608101D01*
X15120507Y-13765244D01*
X15120507Y-13608101D02*
X15134793Y-13579529D01*
X15163364Y-13565244D01*
X15206221Y-13565244D01*
X15234793Y-13579529D01*
X15249078Y-13608101D01*
X15249078Y-13765244D01*
X15834793Y-13450958D02*
X15577650Y-13836672D01*
X16220507Y-13465244D02*
X16249078Y-13465244D01*
X16277650Y-13479529D01*
X16291936Y-13493815D01*
X16306221Y-13522386D01*
X16320507Y-13579529D01*
X16320507Y-13650958D01*
X16306221Y-13708101D01*
X16291936Y-13736672D01*
X16277650Y-13750958D01*
X16249078Y-13765244D01*
X16220507Y-13765244D01*
X16191936Y-13750958D01*
X16177650Y-13736672D01*
X16163364Y-13708101D01*
X16149078Y-13650958D01*
X16149078Y-13579529D01*
X16163364Y-13522386D01*
X16177650Y-13493815D01*
X16191936Y-13479529D01*
X16220507Y-13465244D01*
X16449078Y-13736672D02*
X16463364Y-13750958D01*
X16449078Y-13765244D01*
X16434793Y-13750958D01*
X16449078Y-13736672D01*
X16449078Y-13765244D01*
X16649078Y-13465244D02*
X16677650Y-13465244D01*
X16706221Y-13479529D01*
X16720507Y-13493815D01*
X16734793Y-13522386D01*
X16749078Y-13579529D01*
X16749078Y-13650958D01*
X16734793Y-13708101D01*
X16720507Y-13736672D01*
X16706221Y-13750958D01*
X16677650Y-13765244D01*
X16649078Y-13765244D01*
X16620507Y-13750958D01*
X16606221Y-13736672D01*
X16591936Y-13708101D01*
X16577650Y-13650958D01*
X16577650Y-13579529D01*
X16591936Y-13522386D01*
X16606221Y-13493815D01*
X16620507Y-13479529D01*
X16649078Y-13465244D01*
X17034793Y-13765244D02*
X16863364Y-13765244D01*
X16949079Y-13765244D02*
X16949079Y-13465244D01*
X16920507Y-13508101D01*
X16891936Y-13536672D01*
X16863364Y-13550958D01*
X17291936Y-13465244D02*
X17234793Y-13465244D01*
X17206221Y-13479529D01*
X17191936Y-13493815D01*
X17163364Y-13536672D01*
X17149079Y-13593815D01*
X17149079Y-13708101D01*
X17163364Y-13736672D01*
X17177650Y-13750958D01*
X17206221Y-13765244D01*
X17263364Y-13765244D01*
X17291936Y-13750958D01*
X17306221Y-13736672D01*
X17320507Y-13708101D01*
X17320507Y-13636672D01*
X17306221Y-13608101D01*
X17291936Y-13593815D01*
X17263364Y-13579529D01*
X17206221Y-13579529D01*
X17177650Y-13593815D01*
X17163364Y-13608101D01*
X17149079Y-13636672D01*
X17434793Y-13465244D02*
X17434793Y-13522386D01*
X17549079Y-13465244D02*
X17549079Y-13522386D01*
X17991936Y-13879529D02*
X17977650Y-13865244D01*
X17949079Y-13822386D01*
X17934793Y-13793815D01*
X17920507Y-13750958D01*
X17906221Y-13679529D01*
X17906221Y-13622386D01*
X17920507Y-13550958D01*
X17934793Y-13508101D01*
X17949079Y-13479529D01*
X17977650Y-13436672D01*
X17991936Y-13422386D01*
X18263364Y-13765244D02*
X18091936Y-13765244D01*
X18177650Y-13765244D02*
X18177650Y-13465244D01*
X18149079Y-13508101D01*
X18120507Y-13536672D01*
X18091936Y-13550958D01*
X18520507Y-13565244D02*
X18520507Y-13765244D01*
X18449079Y-13450958D02*
X18377650Y-13665244D01*
X18563364Y-13665244D01*
X18906221Y-13765244D02*
X18906221Y-13465244D01*
X19034793Y-13765244D02*
X19034793Y-13608101D01*
X19020507Y-13579529D01*
X18991936Y-13565244D01*
X18949079Y-13565244D01*
X18920507Y-13579529D01*
X18906221Y-13593815D01*
X19220507Y-13765244D02*
X19191936Y-13750958D01*
X19177650Y-13736672D01*
X19163364Y-13708101D01*
X19163364Y-13622386D01*
X19177650Y-13593815D01*
X19191936Y-13579529D01*
X19220507Y-13565244D01*
X19263364Y-13565244D01*
X19291936Y-13579529D01*
X19306221Y-13593815D01*
X19320507Y-13622386D01*
X19320507Y-13708101D01*
X19306221Y-13736672D01*
X19291936Y-13750958D01*
X19263364Y-13765244D01*
X19220507Y-13765244D01*
X19491936Y-13765244D02*
X19463364Y-13750958D01*
X19449079Y-13722386D01*
X19449079Y-13465244D01*
X19720507Y-13750958D02*
X19691936Y-13765244D01*
X19634793Y-13765244D01*
X19606221Y-13750958D01*
X19591936Y-13722386D01*
X19591936Y-13608101D01*
X19606221Y-13579529D01*
X19634793Y-13565244D01*
X19691936Y-13565244D01*
X19720507Y-13579529D01*
X19734793Y-13608101D01*
X19734793Y-13636672D01*
X19591936Y-13665244D01*
X19849079Y-13750958D02*
X19877650Y-13765244D01*
X19934793Y-13765244D01*
X19963364Y-13750958D01*
X19977650Y-13722386D01*
X19977650Y-13708101D01*
X19963364Y-13679529D01*
X19934793Y-13665244D01*
X19891936Y-13665244D01*
X19863364Y-13650958D01*
X19849079Y-13622386D01*
X19849079Y-13608101D01*
X19863364Y-13579529D01*
X19891936Y-13565244D01*
X19934793Y-13565244D01*
X19963364Y-13579529D01*
X20077650Y-13879529D02*
X20091936Y-13865244D01*
X20120507Y-13822386D01*
X20134793Y-13793815D01*
X20149079Y-13750958D01*
X20163364Y-13679529D01*
X20163364Y-13622386D01*
X20149079Y-13550958D01*
X20134793Y-13508101D01*
X20120507Y-13479529D01*
X20091936Y-13436672D01*
X20077650Y-13422386D01*
X13280507Y-14000529D02*
X13280507Y-14050529D01*
X13255507Y-14025529D02*
X13305507Y-14025529D01*
X13649078Y-13861244D02*
X13677650Y-13861244D01*
X13706221Y-13875529D01*
X13720507Y-13889815D01*
X13734793Y-13918386D01*
X13749078Y-13975529D01*
X13749078Y-14046958D01*
X13734793Y-14104101D01*
X13720507Y-14132672D01*
X13706221Y-14146958D01*
X13677650Y-14161244D01*
X13649078Y-14161244D01*
X13620507Y-14146958D01*
X13606221Y-14132672D01*
X13591936Y-14104101D01*
X13577650Y-14046958D01*
X13577650Y-13975529D01*
X13591936Y-13918386D01*
X13606221Y-13889815D01*
X13620507Y-13875529D01*
X13649078Y-13861244D01*
X13877650Y-14132672D02*
X13891936Y-14146958D01*
X13877650Y-14161244D01*
X13863364Y-14146958D01*
X13877650Y-14132672D01*
X13877650Y-14161244D01*
X14163364Y-13861244D02*
X14020507Y-13861244D01*
X14006221Y-14004101D01*
X14020507Y-13989815D01*
X14049078Y-13975529D01*
X14120507Y-13975529D01*
X14149078Y-13989815D01*
X14163364Y-14004101D01*
X14177650Y-14032672D01*
X14177650Y-14104101D01*
X14163364Y-14132672D01*
X14149078Y-14146958D01*
X14120507Y-14161244D01*
X14049078Y-14161244D01*
X14020507Y-14146958D01*
X14006221Y-14132672D01*
X14363364Y-13861244D02*
X14391936Y-13861244D01*
X14420507Y-13875529D01*
X14434793Y-13889815D01*
X14449078Y-13918386D01*
X14463364Y-13975529D01*
X14463364Y-14046958D01*
X14449078Y-14104101D01*
X14434793Y-14132672D01*
X14420507Y-14146958D01*
X14391936Y-14161244D01*
X14363364Y-14161244D01*
X14334793Y-14146958D01*
X14320507Y-14132672D01*
X14306221Y-14104101D01*
X14291936Y-14046958D01*
X14291936Y-13975529D01*
X14306221Y-13918386D01*
X14320507Y-13889815D01*
X14334793Y-13875529D01*
X14363364Y-13861244D01*
X14591936Y-14161244D02*
X14591936Y-13961244D01*
X14591936Y-13989815D02*
X14606221Y-13975529D01*
X14634793Y-13961244D01*
X14677650Y-13961244D01*
X14706221Y-13975529D01*
X14720507Y-14004101D01*
X14720507Y-14161244D01*
X14720507Y-14004101D02*
X14734793Y-13975529D01*
X14763364Y-13961244D01*
X14806221Y-13961244D01*
X14834793Y-13975529D01*
X14849078Y-14004101D01*
X14849078Y-14161244D01*
X14991936Y-14161244D02*
X14991936Y-13961244D01*
X14991936Y-13989815D02*
X15006221Y-13975529D01*
X15034793Y-13961244D01*
X15077650Y-13961244D01*
X15106221Y-13975529D01*
X15120507Y-14004101D01*
X15120507Y-14161244D01*
X15120507Y-14004101D02*
X15134793Y-13975529D01*
X15163364Y-13961244D01*
X15206221Y-13961244D01*
X15234793Y-13975529D01*
X15249078Y-14004101D01*
X15249078Y-14161244D01*
X15834793Y-13846958D02*
X15577650Y-14232672D01*
X16220507Y-13861244D02*
X16249078Y-13861244D01*
X16277650Y-13875529D01*
X16291936Y-13889815D01*
X16306221Y-13918386D01*
X16320507Y-13975529D01*
X16320507Y-14046958D01*
X16306221Y-14104101D01*
X16291936Y-14132672D01*
X16277650Y-14146958D01*
X16249078Y-14161244D01*
X16220507Y-14161244D01*
X16191936Y-14146958D01*
X16177650Y-14132672D01*
X16163364Y-14104101D01*
X16149078Y-14046958D01*
X16149078Y-13975529D01*
X16163364Y-13918386D01*
X16177650Y-13889815D01*
X16191936Y-13875529D01*
X16220507Y-13861244D01*
X16449078Y-14132672D02*
X16463364Y-14146958D01*
X16449078Y-14161244D01*
X16434793Y-14146958D01*
X16449078Y-14132672D01*
X16449078Y-14161244D01*
X16649078Y-13861244D02*
X16677650Y-13861244D01*
X16706221Y-13875529D01*
X16720507Y-13889815D01*
X16734793Y-13918386D01*
X16749078Y-13975529D01*
X16749078Y-14046958D01*
X16734793Y-14104101D01*
X16720507Y-14132672D01*
X16706221Y-14146958D01*
X16677650Y-14161244D01*
X16649078Y-14161244D01*
X16620507Y-14146958D01*
X16606221Y-14132672D01*
X16591936Y-14104101D01*
X16577650Y-14046958D01*
X16577650Y-13975529D01*
X16591936Y-13918386D01*
X16606221Y-13889815D01*
X16620507Y-13875529D01*
X16649078Y-13861244D01*
X16863364Y-13889815D02*
X16877650Y-13875529D01*
X16906221Y-13861244D01*
X16977650Y-13861244D01*
X17006221Y-13875529D01*
X17020507Y-13889815D01*
X17034793Y-13918386D01*
X17034793Y-13946958D01*
X17020507Y-13989815D01*
X16849079Y-14161244D01*
X17034793Y-14161244D01*
X17220507Y-13861244D02*
X17249079Y-13861244D01*
X17277650Y-13875529D01*
X17291936Y-13889815D01*
X17306221Y-13918386D01*
X17320507Y-13975529D01*
X17320507Y-14046958D01*
X17306221Y-14104101D01*
X17291936Y-14132672D01*
X17277650Y-14146958D01*
X17249079Y-14161244D01*
X17220507Y-14161244D01*
X17191936Y-14146958D01*
X17177650Y-14132672D01*
X17163364Y-14104101D01*
X17149079Y-14046958D01*
X17149079Y-13975529D01*
X17163364Y-13918386D01*
X17177650Y-13889815D01*
X17191936Y-13875529D01*
X17220507Y-13861244D01*
X17434793Y-13861244D02*
X17434793Y-13918386D01*
X17549079Y-13861244D02*
X17549079Y-13918386D01*
X17991936Y-14275529D02*
X17977650Y-14261244D01*
X17949079Y-14218386D01*
X17934793Y-14189815D01*
X17920507Y-14146958D01*
X17906221Y-14075529D01*
X17906221Y-14018386D01*
X17920507Y-13946958D01*
X17934793Y-13904101D01*
X17949079Y-13875529D01*
X17977650Y-13832672D01*
X17991936Y-13818386D01*
X18077650Y-13861244D02*
X18263364Y-13861244D01*
X18163364Y-13975529D01*
X18206221Y-13975529D01*
X18234793Y-13989815D01*
X18249079Y-14004101D01*
X18263364Y-14032672D01*
X18263364Y-14104101D01*
X18249079Y-14132672D01*
X18234793Y-14146958D01*
X18206221Y-14161244D01*
X18120507Y-14161244D01*
X18091936Y-14146958D01*
X18077650Y-14132672D01*
X18377650Y-13889815D02*
X18391936Y-13875529D01*
X18420507Y-13861244D01*
X18491936Y-13861244D01*
X18520507Y-13875529D01*
X18534793Y-13889815D01*
X18549079Y-13918386D01*
X18549079Y-13946958D01*
X18534793Y-13989815D01*
X18363364Y-14161244D01*
X18549079Y-14161244D01*
X18906221Y-14161244D02*
X18906221Y-13861244D01*
X19034793Y-14161244D02*
X19034793Y-14004101D01*
X19020507Y-13975529D01*
X18991936Y-13961244D01*
X18949079Y-13961244D01*
X18920507Y-13975529D01*
X18906221Y-13989815D01*
X19220507Y-14161244D02*
X19191936Y-14146958D01*
X19177650Y-14132672D01*
X19163364Y-14104101D01*
X19163364Y-14018386D01*
X19177650Y-13989815D01*
X19191936Y-13975529D01*
X19220507Y-13961244D01*
X19263364Y-13961244D01*
X19291936Y-13975529D01*
X19306221Y-13989815D01*
X19320507Y-14018386D01*
X19320507Y-14104101D01*
X19306221Y-14132672D01*
X19291936Y-14146958D01*
X19263364Y-14161244D01*
X19220507Y-14161244D01*
X19491936Y-14161244D02*
X19463364Y-14146958D01*
X19449079Y-14118386D01*
X19449079Y-13861244D01*
X19720507Y-14146958D02*
X19691936Y-14161244D01*
X19634793Y-14161244D01*
X19606221Y-14146958D01*
X19591936Y-14118386D01*
X19591936Y-14004101D01*
X19606221Y-13975529D01*
X19634793Y-13961244D01*
X19691936Y-13961244D01*
X19720507Y-13975529D01*
X19734793Y-14004101D01*
X19734793Y-14032672D01*
X19591936Y-14061244D01*
X19849079Y-14146958D02*
X19877650Y-14161244D01*
X19934793Y-14161244D01*
X19963364Y-14146958D01*
X19977650Y-14118386D01*
X19977650Y-14104101D01*
X19963364Y-14075529D01*
X19934793Y-14061244D01*
X19891936Y-14061244D01*
X19863364Y-14046958D01*
X19849079Y-14018386D01*
X19849079Y-14004101D01*
X19863364Y-13975529D01*
X19891936Y-13961244D01*
X19934793Y-13961244D01*
X19963364Y-13975529D01*
X20077650Y-14275529D02*
X20091936Y-14261244D01*
X20120507Y-14218386D01*
X20134793Y-14189815D01*
X20149079Y-14146958D01*
X20163364Y-14075529D01*
X20163364Y-14018386D01*
X20149079Y-13946958D01*
X20134793Y-13904101D01*
X20120507Y-13875529D01*
X20091936Y-13832672D01*
X20077650Y-13818386D01*
X13290863Y-14456885D02*
X13290863Y-14386174D01*
X13220151Y-14386174D01*
X13220151Y-14456885D01*
X13290863Y-14456885D01*
X13749078Y-14557244D02*
X13577650Y-14557244D01*
X13663364Y-14557244D02*
X13663364Y-14257244D01*
X13634793Y-14300101D01*
X13606221Y-14328672D01*
X13577650Y-14342958D01*
X13877650Y-14528672D02*
X13891936Y-14542958D01*
X13877650Y-14557244D01*
X13863364Y-14542958D01*
X13877650Y-14528672D01*
X13877650Y-14557244D01*
X14077650Y-14257244D02*
X14106221Y-14257244D01*
X14134793Y-14271529D01*
X14149078Y-14285815D01*
X14163364Y-14314386D01*
X14177650Y-14371529D01*
X14177650Y-14442958D01*
X14163364Y-14500101D01*
X14149078Y-14528672D01*
X14134793Y-14542958D01*
X14106221Y-14557244D01*
X14077650Y-14557244D01*
X14049078Y-14542958D01*
X14034793Y-14528672D01*
X14020507Y-14500101D01*
X14006221Y-14442958D01*
X14006221Y-14371529D01*
X14020507Y-14314386D01*
X14034793Y-14285815D01*
X14049078Y-14271529D01*
X14077650Y-14257244D01*
X14363364Y-14257244D02*
X14391936Y-14257244D01*
X14420507Y-14271529D01*
X14434793Y-14285815D01*
X14449078Y-14314386D01*
X14463364Y-14371529D01*
X14463364Y-14442958D01*
X14449078Y-14500101D01*
X14434793Y-14528672D01*
X14420507Y-14542958D01*
X14391936Y-14557244D01*
X14363364Y-14557244D01*
X14334793Y-14542958D01*
X14320507Y-14528672D01*
X14306221Y-14500101D01*
X14291936Y-14442958D01*
X14291936Y-14371529D01*
X14306221Y-14314386D01*
X14320507Y-14285815D01*
X14334793Y-14271529D01*
X14363364Y-14257244D01*
X14591936Y-14557244D02*
X14591936Y-14357244D01*
X14591936Y-14385815D02*
X14606221Y-14371529D01*
X14634793Y-14357244D01*
X14677650Y-14357244D01*
X14706221Y-14371529D01*
X14720507Y-14400101D01*
X14720507Y-14557244D01*
X14720507Y-14400101D02*
X14734793Y-14371529D01*
X14763364Y-14357244D01*
X14806221Y-14357244D01*
X14834793Y-14371529D01*
X14849078Y-14400101D01*
X14849078Y-14557244D01*
X14991936Y-14557244D02*
X14991936Y-14357244D01*
X14991936Y-14385815D02*
X15006221Y-14371529D01*
X15034793Y-14357244D01*
X15077650Y-14357244D01*
X15106221Y-14371529D01*
X15120507Y-14400101D01*
X15120507Y-14557244D01*
X15120507Y-14400101D02*
X15134793Y-14371529D01*
X15163364Y-14357244D01*
X15206221Y-14357244D01*
X15234793Y-14371529D01*
X15249078Y-14400101D01*
X15249078Y-14557244D01*
X15834793Y-14242958D02*
X15577650Y-14628672D01*
X16220507Y-14257244D02*
X16249078Y-14257244D01*
X16277650Y-14271529D01*
X16291936Y-14285815D01*
X16306221Y-14314386D01*
X16320507Y-14371529D01*
X16320507Y-14442958D01*
X16306221Y-14500101D01*
X16291936Y-14528672D01*
X16277650Y-14542958D01*
X16249078Y-14557244D01*
X16220507Y-14557244D01*
X16191936Y-14542958D01*
X16177650Y-14528672D01*
X16163364Y-14500101D01*
X16149078Y-14442958D01*
X16149078Y-14371529D01*
X16163364Y-14314386D01*
X16177650Y-14285815D01*
X16191936Y-14271529D01*
X16220507Y-14257244D01*
X16449078Y-14528672D02*
X16463364Y-14542958D01*
X16449078Y-14557244D01*
X16434793Y-14542958D01*
X16449078Y-14528672D01*
X16449078Y-14557244D01*
X16649078Y-14257244D02*
X16677650Y-14257244D01*
X16706221Y-14271529D01*
X16720507Y-14285815D01*
X16734793Y-14314386D01*
X16749078Y-14371529D01*
X16749078Y-14442958D01*
X16734793Y-14500101D01*
X16720507Y-14528672D01*
X16706221Y-14542958D01*
X16677650Y-14557244D01*
X16649078Y-14557244D01*
X16620507Y-14542958D01*
X16606221Y-14528672D01*
X16591936Y-14500101D01*
X16577650Y-14442958D01*
X16577650Y-14371529D01*
X16591936Y-14314386D01*
X16606221Y-14285815D01*
X16620507Y-14271529D01*
X16649078Y-14257244D01*
X16849079Y-14257244D02*
X17034793Y-14257244D01*
X16934793Y-14371529D01*
X16977650Y-14371529D01*
X17006221Y-14385815D01*
X17020507Y-14400101D01*
X17034793Y-14428672D01*
X17034793Y-14500101D01*
X17020507Y-14528672D01*
X17006221Y-14542958D01*
X16977650Y-14557244D01*
X16891936Y-14557244D01*
X16863364Y-14542958D01*
X16849079Y-14528672D01*
X17177650Y-14557244D02*
X17234793Y-14557244D01*
X17263364Y-14542958D01*
X17277650Y-14528672D01*
X17306221Y-14485815D01*
X17320507Y-14428672D01*
X17320507Y-14314386D01*
X17306221Y-14285815D01*
X17291936Y-14271529D01*
X17263364Y-14257244D01*
X17206221Y-14257244D01*
X17177650Y-14271529D01*
X17163364Y-14285815D01*
X17149079Y-14314386D01*
X17149079Y-14385815D01*
X17163364Y-14414386D01*
X17177650Y-14428672D01*
X17206221Y-14442958D01*
X17263364Y-14442958D01*
X17291936Y-14428672D01*
X17306221Y-14414386D01*
X17320507Y-14385815D01*
X17434793Y-14257244D02*
X17434793Y-14314386D01*
X17549079Y-14257244D02*
X17549079Y-14314386D01*
X17991936Y-14671529D02*
X17977650Y-14657244D01*
X17949079Y-14614386D01*
X17934793Y-14585815D01*
X17920507Y-14542958D01*
X17906221Y-14471529D01*
X17906221Y-14414386D01*
X17920507Y-14342958D01*
X17934793Y-14300101D01*
X17949079Y-14271529D01*
X17977650Y-14228672D01*
X17991936Y-14214386D01*
X18234793Y-14257244D02*
X18177650Y-14257244D01*
X18149079Y-14271529D01*
X18134793Y-14285815D01*
X18106221Y-14328672D01*
X18091936Y-14385815D01*
X18091936Y-14500101D01*
X18106221Y-14528672D01*
X18120507Y-14542958D01*
X18149079Y-14557244D01*
X18206221Y-14557244D01*
X18234793Y-14542958D01*
X18249079Y-14528672D01*
X18263364Y-14500101D01*
X18263364Y-14428672D01*
X18249079Y-14400101D01*
X18234793Y-14385815D01*
X18206221Y-14371529D01*
X18149079Y-14371529D01*
X18120507Y-14385815D01*
X18106221Y-14400101D01*
X18091936Y-14428672D01*
X18620507Y-14557244D02*
X18620507Y-14257244D01*
X18749079Y-14557244D02*
X18749079Y-14400101D01*
X18734793Y-14371529D01*
X18706221Y-14357244D01*
X18663364Y-14357244D01*
X18634793Y-14371529D01*
X18620507Y-14385815D01*
X18934793Y-14557244D02*
X18906221Y-14542958D01*
X18891936Y-14528672D01*
X18877650Y-14500101D01*
X18877650Y-14414386D01*
X18891936Y-14385815D01*
X18906221Y-14371529D01*
X18934793Y-14357244D01*
X18977650Y-14357244D01*
X19006221Y-14371529D01*
X19020507Y-14385815D01*
X19034793Y-14414386D01*
X19034793Y-14500101D01*
X19020507Y-14528672D01*
X19006221Y-14542958D01*
X18977650Y-14557244D01*
X18934793Y-14557244D01*
X19206221Y-14557244D02*
X19177650Y-14542958D01*
X19163364Y-14514386D01*
X19163364Y-14257244D01*
X19434793Y-14542958D02*
X19406221Y-14557244D01*
X19349079Y-14557244D01*
X19320507Y-14542958D01*
X19306221Y-14514386D01*
X19306221Y-14400101D01*
X19320507Y-14371529D01*
X19349079Y-14357244D01*
X19406221Y-14357244D01*
X19434793Y-14371529D01*
X19449079Y-14400101D01*
X19449079Y-14428672D01*
X19306221Y-14457244D01*
X19563364Y-14542958D02*
X19591936Y-14557244D01*
X19649079Y-14557244D01*
X19677650Y-14542958D01*
X19691936Y-14514386D01*
X19691936Y-14500101D01*
X19677650Y-14471529D01*
X19649079Y-14457244D01*
X19606221Y-14457244D01*
X19577650Y-14442958D01*
X19563364Y-14414386D01*
X19563364Y-14400101D01*
X19577650Y-14371529D01*
X19606221Y-14357244D01*
X19649079Y-14357244D01*
X19677650Y-14371529D01*
X19791936Y-14671529D02*
X19806221Y-14657244D01*
X19834793Y-14614386D01*
X19849079Y-14585815D01*
X19863364Y-14542958D01*
X19877650Y-14471529D01*
X19877650Y-14414386D01*
X19863364Y-14342958D01*
X19849079Y-14300101D01*
X19834793Y-14271529D01*
X19806221Y-14228672D01*
X19791936Y-14214386D01*
X13245507Y-14877529D02*
X13305507Y-14817529D01*
X13245507Y-14757529D01*
X13185507Y-14817529D01*
X13245507Y-14877529D01*
X13749078Y-14953244D02*
X13577650Y-14953244D01*
X13663364Y-14953244D02*
X13663364Y-14653244D01*
X13634793Y-14696101D01*
X13606221Y-14724672D01*
X13577650Y-14738958D01*
X13877650Y-14924672D02*
X13891936Y-14938958D01*
X13877650Y-14953244D01*
X13863364Y-14938958D01*
X13877650Y-14924672D01*
X13877650Y-14953244D01*
X14006221Y-14681815D02*
X14020507Y-14667529D01*
X14049078Y-14653244D01*
X14120507Y-14653244D01*
X14149078Y-14667529D01*
X14163364Y-14681815D01*
X14177650Y-14710386D01*
X14177650Y-14738958D01*
X14163364Y-14781815D01*
X13991936Y-14953244D01*
X14177650Y-14953244D01*
X14363364Y-14653244D02*
X14391936Y-14653244D01*
X14420507Y-14667529D01*
X14434793Y-14681815D01*
X14449078Y-14710386D01*
X14463364Y-14767529D01*
X14463364Y-14838958D01*
X14449078Y-14896101D01*
X14434793Y-14924672D01*
X14420507Y-14938958D01*
X14391936Y-14953244D01*
X14363364Y-14953244D01*
X14334793Y-14938958D01*
X14320507Y-14924672D01*
X14306221Y-14896101D01*
X14291936Y-14838958D01*
X14291936Y-14767529D01*
X14306221Y-14710386D01*
X14320507Y-14681815D01*
X14334793Y-14667529D01*
X14363364Y-14653244D01*
X14591936Y-14953244D02*
X14591936Y-14753244D01*
X14591936Y-14781815D02*
X14606221Y-14767529D01*
X14634793Y-14753244D01*
X14677650Y-14753244D01*
X14706221Y-14767529D01*
X14720507Y-14796101D01*
X14720507Y-14953244D01*
X14720507Y-14796101D02*
X14734793Y-14767529D01*
X14763364Y-14753244D01*
X14806221Y-14753244D01*
X14834793Y-14767529D01*
X14849078Y-14796101D01*
X14849078Y-14953244D01*
X14991936Y-14953244D02*
X14991936Y-14753244D01*
X14991936Y-14781815D02*
X15006221Y-14767529D01*
X15034793Y-14753244D01*
X15077650Y-14753244D01*
X15106221Y-14767529D01*
X15120507Y-14796101D01*
X15120507Y-14953244D01*
X15120507Y-14796101D02*
X15134793Y-14767529D01*
X15163364Y-14753244D01*
X15206221Y-14753244D01*
X15234793Y-14767529D01*
X15249078Y-14796101D01*
X15249078Y-14953244D01*
X15834793Y-14638958D02*
X15577650Y-15024672D01*
X16220507Y-14653244D02*
X16249078Y-14653244D01*
X16277650Y-14667529D01*
X16291936Y-14681815D01*
X16306221Y-14710386D01*
X16320507Y-14767529D01*
X16320507Y-14838958D01*
X16306221Y-14896101D01*
X16291936Y-14924672D01*
X16277650Y-14938958D01*
X16249078Y-14953244D01*
X16220507Y-14953244D01*
X16191936Y-14938958D01*
X16177650Y-14924672D01*
X16163364Y-14896101D01*
X16149078Y-14838958D01*
X16149078Y-14767529D01*
X16163364Y-14710386D01*
X16177650Y-14681815D01*
X16191936Y-14667529D01*
X16220507Y-14653244D01*
X16449078Y-14924672D02*
X16463364Y-14938958D01*
X16449078Y-14953244D01*
X16434793Y-14938958D01*
X16449078Y-14924672D01*
X16449078Y-14953244D01*
X16649078Y-14653244D02*
X16677650Y-14653244D01*
X16706221Y-14667529D01*
X16720507Y-14681815D01*
X16734793Y-14710386D01*
X16749078Y-14767529D01*
X16749078Y-14838958D01*
X16734793Y-14896101D01*
X16720507Y-14924672D01*
X16706221Y-14938958D01*
X16677650Y-14953244D01*
X16649078Y-14953244D01*
X16620507Y-14938958D01*
X16606221Y-14924672D01*
X16591936Y-14896101D01*
X16577650Y-14838958D01*
X16577650Y-14767529D01*
X16591936Y-14710386D01*
X16606221Y-14681815D01*
X16620507Y-14667529D01*
X16649078Y-14653244D01*
X17006221Y-14753244D02*
X17006221Y-14953244D01*
X16934793Y-14638958D02*
X16863364Y-14853244D01*
X17049079Y-14853244D01*
X17134793Y-14653244D02*
X17334793Y-14653244D01*
X17206221Y-14953244D01*
X17434793Y-14653244D02*
X17434793Y-14710386D01*
X17549079Y-14653244D02*
X17549079Y-14710386D01*
X17991936Y-15067529D02*
X17977650Y-15053244D01*
X17949079Y-15010386D01*
X17934793Y-14981815D01*
X17920507Y-14938958D01*
X17906221Y-14867529D01*
X17906221Y-14810386D01*
X17920507Y-14738958D01*
X17934793Y-14696101D01*
X17949079Y-14667529D01*
X17977650Y-14624672D01*
X17991936Y-14610386D01*
X18149079Y-14781815D02*
X18120507Y-14767529D01*
X18106221Y-14753244D01*
X18091936Y-14724672D01*
X18091936Y-14710386D01*
X18106221Y-14681815D01*
X18120507Y-14667529D01*
X18149079Y-14653244D01*
X18206221Y-14653244D01*
X18234793Y-14667529D01*
X18249079Y-14681815D01*
X18263364Y-14710386D01*
X18263364Y-14724672D01*
X18249079Y-14753244D01*
X18234793Y-14767529D01*
X18206221Y-14781815D01*
X18149079Y-14781815D01*
X18120507Y-14796101D01*
X18106221Y-14810386D01*
X18091936Y-14838958D01*
X18091936Y-14896101D01*
X18106221Y-14924672D01*
X18120507Y-14938958D01*
X18149079Y-14953244D01*
X18206221Y-14953244D01*
X18234793Y-14938958D01*
X18249079Y-14924672D01*
X18263364Y-14896101D01*
X18263364Y-14838958D01*
X18249079Y-14810386D01*
X18234793Y-14796101D01*
X18206221Y-14781815D01*
X18620507Y-14953244D02*
X18620507Y-14653244D01*
X18749079Y-14953244D02*
X18749079Y-14796101D01*
X18734793Y-14767529D01*
X18706221Y-14753244D01*
X18663364Y-14753244D01*
X18634793Y-14767529D01*
X18620507Y-14781815D01*
X18934793Y-14953244D02*
X18906221Y-14938958D01*
X18891936Y-14924672D01*
X18877650Y-14896101D01*
X18877650Y-14810386D01*
X18891936Y-14781815D01*
X18906221Y-14767529D01*
X18934793Y-14753244D01*
X18977650Y-14753244D01*
X19006221Y-14767529D01*
X19020507Y-14781815D01*
X19034793Y-14810386D01*
X19034793Y-14896101D01*
X19020507Y-14924672D01*
X19006221Y-14938958D01*
X18977650Y-14953244D01*
X18934793Y-14953244D01*
X19206221Y-14953244D02*
X19177650Y-14938958D01*
X19163364Y-14910386D01*
X19163364Y-14653244D01*
X19434793Y-14938958D02*
X19406221Y-14953244D01*
X19349079Y-14953244D01*
X19320507Y-14938958D01*
X19306221Y-14910386D01*
X19306221Y-14796101D01*
X19320507Y-14767529D01*
X19349079Y-14753244D01*
X19406221Y-14753244D01*
X19434793Y-14767529D01*
X19449079Y-14796101D01*
X19449079Y-14824672D01*
X19306221Y-14853244D01*
X19563364Y-14938958D02*
X19591936Y-14953244D01*
X19649079Y-14953244D01*
X19677650Y-14938958D01*
X19691936Y-14910386D01*
X19691936Y-14896101D01*
X19677650Y-14867529D01*
X19649079Y-14853244D01*
X19606221Y-14853244D01*
X19577650Y-14838958D01*
X19563364Y-14810386D01*
X19563364Y-14796101D01*
X19577650Y-14767529D01*
X19606221Y-14753244D01*
X19649079Y-14753244D01*
X19677650Y-14767529D01*
X19791936Y-15067529D02*
X19806221Y-15053244D01*
X19834793Y-15010386D01*
X19849079Y-14981815D01*
X19863364Y-14938958D01*
X19877650Y-14867529D01*
X19877650Y-14810386D01*
X19863364Y-14738958D01*
X19849079Y-14696101D01*
X19834793Y-14667529D01*
X19806221Y-14624672D01*
X19791936Y-14610386D01*
X13005507Y-15063529D02*
X13305507Y-15363529D01*
X13305507Y-15063529D02*
X13005507Y-15363529D01*
X13305507Y-15213529D02*
G75*
G03X13305507Y-15213529I-150000J0D01*
G01*
X13563364Y-15049244D02*
X13749078Y-15049244D01*
X13649078Y-15163529D01*
X13691936Y-15163529D01*
X13720507Y-15177815D01*
X13734793Y-15192101D01*
X13749078Y-15220672D01*
X13749078Y-15292101D01*
X13734793Y-15320672D01*
X13720507Y-15334958D01*
X13691936Y-15349244D01*
X13606221Y-15349244D01*
X13577650Y-15334958D01*
X13563364Y-15320672D01*
X13877650Y-15320672D02*
X13891936Y-15334958D01*
X13877650Y-15349244D01*
X13863364Y-15334958D01*
X13877650Y-15320672D01*
X13877650Y-15349244D01*
X14077650Y-15049244D02*
X14106221Y-15049244D01*
X14134793Y-15063529D01*
X14149078Y-15077815D01*
X14163364Y-15106386D01*
X14177650Y-15163529D01*
X14177650Y-15234958D01*
X14163364Y-15292101D01*
X14149078Y-15320672D01*
X14134793Y-15334958D01*
X14106221Y-15349244D01*
X14077650Y-15349244D01*
X14049078Y-15334958D01*
X14034793Y-15320672D01*
X14020507Y-15292101D01*
X14006221Y-15234958D01*
X14006221Y-15163529D01*
X14020507Y-15106386D01*
X14034793Y-15077815D01*
X14049078Y-15063529D01*
X14077650Y-15049244D01*
X14363364Y-15049244D02*
X14391936Y-15049244D01*
X14420507Y-15063529D01*
X14434793Y-15077815D01*
X14449078Y-15106386D01*
X14463364Y-15163529D01*
X14463364Y-15234958D01*
X14449078Y-15292101D01*
X14434793Y-15320672D01*
X14420507Y-15334958D01*
X14391936Y-15349244D01*
X14363364Y-15349244D01*
X14334793Y-15334958D01*
X14320507Y-15320672D01*
X14306221Y-15292101D01*
X14291936Y-15234958D01*
X14291936Y-15163529D01*
X14306221Y-15106386D01*
X14320507Y-15077815D01*
X14334793Y-15063529D01*
X14363364Y-15049244D01*
X14591936Y-15349244D02*
X14591936Y-15149244D01*
X14591936Y-15177815D02*
X14606221Y-15163529D01*
X14634793Y-15149244D01*
X14677650Y-15149244D01*
X14706221Y-15163529D01*
X14720507Y-15192101D01*
X14720507Y-15349244D01*
X14720507Y-15192101D02*
X14734793Y-15163529D01*
X14763364Y-15149244D01*
X14806221Y-15149244D01*
X14834793Y-15163529D01*
X14849078Y-15192101D01*
X14849078Y-15349244D01*
X14991936Y-15349244D02*
X14991936Y-15149244D01*
X14991936Y-15177815D02*
X15006221Y-15163529D01*
X15034793Y-15149244D01*
X15077650Y-15149244D01*
X15106221Y-15163529D01*
X15120507Y-15192101D01*
X15120507Y-15349244D01*
X15120507Y-15192101D02*
X15134793Y-15163529D01*
X15163364Y-15149244D01*
X15206221Y-15149244D01*
X15234793Y-15163529D01*
X15249078Y-15192101D01*
X15249078Y-15349244D01*
X15834793Y-15034958D02*
X15577650Y-15420672D01*
X16220507Y-15049244D02*
X16249078Y-15049244D01*
X16277650Y-15063529D01*
X16291936Y-15077815D01*
X16306221Y-15106386D01*
X16320507Y-15163529D01*
X16320507Y-15234958D01*
X16306221Y-15292101D01*
X16291936Y-15320672D01*
X16277650Y-15334958D01*
X16249078Y-15349244D01*
X16220507Y-15349244D01*
X16191936Y-15334958D01*
X16177650Y-15320672D01*
X16163364Y-15292101D01*
X16149078Y-15234958D01*
X16149078Y-15163529D01*
X16163364Y-15106386D01*
X16177650Y-15077815D01*
X16191936Y-15063529D01*
X16220507Y-15049244D01*
X16449078Y-15320672D02*
X16463364Y-15334958D01*
X16449078Y-15349244D01*
X16434793Y-15334958D01*
X16449078Y-15320672D01*
X16449078Y-15349244D01*
X16749078Y-15349244D02*
X16577650Y-15349244D01*
X16663364Y-15349244D02*
X16663364Y-15049244D01*
X16634793Y-15092101D01*
X16606221Y-15120672D01*
X16577650Y-15134958D01*
X17034793Y-15349244D02*
X16863364Y-15349244D01*
X16949079Y-15349244D02*
X16949079Y-15049244D01*
X16920507Y-15092101D01*
X16891936Y-15120672D01*
X16863364Y-15134958D01*
X17206221Y-15177815D02*
X17177650Y-15163529D01*
X17163364Y-15149244D01*
X17149079Y-15120672D01*
X17149079Y-15106386D01*
X17163364Y-15077815D01*
X17177650Y-15063529D01*
X17206221Y-15049244D01*
X17263364Y-15049244D01*
X17291936Y-15063529D01*
X17306221Y-15077815D01*
X17320507Y-15106386D01*
X17320507Y-15120672D01*
X17306221Y-15149244D01*
X17291936Y-15163529D01*
X17263364Y-15177815D01*
X17206221Y-15177815D01*
X17177650Y-15192101D01*
X17163364Y-15206386D01*
X17149079Y-15234958D01*
X17149079Y-15292101D01*
X17163364Y-15320672D01*
X17177650Y-15334958D01*
X17206221Y-15349244D01*
X17263364Y-15349244D01*
X17291936Y-15334958D01*
X17306221Y-15320672D01*
X17320507Y-15292101D01*
X17320507Y-15234958D01*
X17306221Y-15206386D01*
X17291936Y-15192101D01*
X17263364Y-15177815D01*
X17434793Y-15049244D02*
X17434793Y-15106386D01*
X17549079Y-15049244D02*
X17549079Y-15106386D01*
X17991936Y-15463529D02*
X17977650Y-15449244D01*
X17949079Y-15406386D01*
X17934793Y-15377815D01*
X17920507Y-15334958D01*
X17906221Y-15263529D01*
X17906221Y-15206386D01*
X17920507Y-15134958D01*
X17934793Y-15092101D01*
X17949079Y-15063529D01*
X17977650Y-15020672D01*
X17991936Y-15006386D01*
X18234793Y-15149244D02*
X18234793Y-15349244D01*
X18163364Y-15034958D02*
X18091936Y-15249244D01*
X18277650Y-15249244D01*
X18620507Y-15349244D02*
X18620507Y-15049244D01*
X18749079Y-15349244D02*
X18749079Y-15192101D01*
X18734793Y-15163529D01*
X18706221Y-15149244D01*
X18663364Y-15149244D01*
X18634793Y-15163529D01*
X18620507Y-15177815D01*
X18934793Y-15349244D02*
X18906221Y-15334958D01*
X18891936Y-15320672D01*
X18877650Y-15292101D01*
X18877650Y-15206386D01*
X18891936Y-15177815D01*
X18906221Y-15163529D01*
X18934793Y-15149244D01*
X18977650Y-15149244D01*
X19006221Y-15163529D01*
X19020507Y-15177815D01*
X19034793Y-15206386D01*
X19034793Y-15292101D01*
X19020507Y-15320672D01*
X19006221Y-15334958D01*
X18977650Y-15349244D01*
X18934793Y-15349244D01*
X19206221Y-15349244D02*
X19177650Y-15334958D01*
X19163364Y-15306386D01*
X19163364Y-15049244D01*
X19434793Y-15334958D02*
X19406221Y-15349244D01*
X19349079Y-15349244D01*
X19320507Y-15334958D01*
X19306221Y-15306386D01*
X19306221Y-15192101D01*
X19320507Y-15163529D01*
X19349079Y-15149244D01*
X19406221Y-15149244D01*
X19434793Y-15163529D01*
X19449079Y-15192101D01*
X19449079Y-15220672D01*
X19306221Y-15249244D01*
X19563364Y-15334958D02*
X19591936Y-15349244D01*
X19649079Y-15349244D01*
X19677650Y-15334958D01*
X19691936Y-15306386D01*
X19691936Y-15292101D01*
X19677650Y-15263529D01*
X19649079Y-15249244D01*
X19606221Y-15249244D01*
X19577650Y-15234958D01*
X19563364Y-15206386D01*
X19563364Y-15192101D01*
X19577650Y-15163529D01*
X19606221Y-15149244D01*
X19649079Y-15149244D01*
X19677650Y-15163529D01*
X19791936Y-15463529D02*
X19806221Y-15449244D01*
X19834793Y-15406386D01*
X19849079Y-15377815D01*
X19863364Y-15334958D01*
X19877650Y-15263529D01*
X19877650Y-15206386D01*
X19863364Y-15134958D01*
X19849079Y-15092101D01*
X19834793Y-15063529D01*
X19806221Y-15020672D01*
X19791936Y-15006386D01*
M02*
