G04 #@! TF.GenerationSoftware,KiCad,Pcbnew,5.0.0*
G04 #@! TF.CreationDate,2018-10-21T13:37:26+10:00*
G04 #@! TF.ProjectId,driver,6472697665722E6B696361645F706362,rev?*
G04 #@! TF.SameCoordinates,Original*
G04 #@! TF.FileFunction,Soldermask,Top*
G04 #@! TF.FilePolarity,Negative*
%FSLAX46Y46*%
G04 Gerber Fmt 4.6, Leading zero omitted, Abs format (unit mm)*
G04 Created by KiCad (PCBNEW 5.0.0) date Sun Oct 21 13:37:26 2018*
%MOMM*%
%LPD*%
G01*
G04 APERTURE LIST*
%ADD10C,0.100000*%
%ADD11C,0.150000*%
%ADD12C,0.300000*%
%ADD13C,0.400000*%
%ADD14C,1.550000*%
%ADD15R,1.000000X1.900000*%
%ADD16O,2.100000X2.100000*%
%ADD17R,2.100000X2.100000*%
%ADD18C,1.200000*%
%ADD19C,6.400000*%
%ADD20R,1.000000X1.950000*%
%ADD21R,2.140000X2.600000*%
%ADD22O,2.140000X2.600000*%
%ADD23R,3.900000X2.000000*%
%ADD24R,2.000000X3.900000*%
%ADD25R,2.600000X2.140000*%
%ADD26O,2.600000X2.140000*%
%ADD27R,3.500000X3.000000*%
G04 APERTURE END LIST*
D10*
D11*
X177002200Y-166007200D02*
X177002200Y-198007200D01*
X285002200Y-198007200D01*
X285002200Y-166007200D01*
X177002200Y-166007200D01*
D10*
D11*
X10000000Y-10000000D02*
X10000000Y-200007200D01*
X287002200Y-200007200D01*
X287002200Y-10000000D01*
X10000000Y-10000000D01*
D10*
D11*
X12000000Y-12000000D02*
X12000000Y-198007200D01*
X285002200Y-198007200D01*
X285002200Y-12000000D01*
X12000000Y-12000000D01*
D10*
D11*
X60000000Y-12000000D02*
X60000000Y-10000000D01*
D10*
D11*
X110000000Y-12000000D02*
X110000000Y-10000000D01*
D10*
D11*
X160000000Y-12000000D02*
X160000000Y-10000000D01*
D10*
D11*
X210000000Y-12000000D02*
X210000000Y-10000000D01*
D10*
D11*
X260000000Y-12000000D02*
X260000000Y-10000000D01*
D10*
D11*
X36065476Y-11588095D02*
X35322619Y-11588095D01*
X35694047Y-11588095D02*
X35694047Y-10288095D01*
X35570238Y-10473809D01*
X35446428Y-10597619D01*
X35322619Y-10659523D01*
D10*
D11*
X85322619Y-10411904D02*
X85384523Y-10350000D01*
X85508333Y-10288095D01*
X85817857Y-10288095D01*
X85941666Y-10350000D01*
X86003571Y-10411904D01*
X86065476Y-10535714D01*
X86065476Y-10659523D01*
X86003571Y-10845238D01*
X85260714Y-11588095D01*
X86065476Y-11588095D01*
D10*
D11*
X135260714Y-10288095D02*
X136065476Y-10288095D01*
X135632142Y-10783333D01*
X135817857Y-10783333D01*
X135941666Y-10845238D01*
X136003571Y-10907142D01*
X136065476Y-11030952D01*
X136065476Y-11340476D01*
X136003571Y-11464285D01*
X135941666Y-11526190D01*
X135817857Y-11588095D01*
X135446428Y-11588095D01*
X135322619Y-11526190D01*
X135260714Y-11464285D01*
D10*
D11*
X185941666Y-10721428D02*
X185941666Y-11588095D01*
X185632142Y-10226190D02*
X185322619Y-11154761D01*
X186127380Y-11154761D01*
D10*
D11*
X236003571Y-10288095D02*
X235384523Y-10288095D01*
X235322619Y-10907142D01*
X235384523Y-10845238D01*
X235508333Y-10783333D01*
X235817857Y-10783333D01*
X235941666Y-10845238D01*
X236003571Y-10907142D01*
X236065476Y-11030952D01*
X236065476Y-11340476D01*
X236003571Y-11464285D01*
X235941666Y-11526190D01*
X235817857Y-11588095D01*
X235508333Y-11588095D01*
X235384523Y-11526190D01*
X235322619Y-11464285D01*
D10*
D11*
X285941666Y-10288095D02*
X285694047Y-10288095D01*
X285570238Y-10350000D01*
X285508333Y-10411904D01*
X285384523Y-10597619D01*
X285322619Y-10845238D01*
X285322619Y-11340476D01*
X285384523Y-11464285D01*
X285446428Y-11526190D01*
X285570238Y-11588095D01*
X285817857Y-11588095D01*
X285941666Y-11526190D01*
X286003571Y-11464285D01*
X286065476Y-11340476D01*
X286065476Y-11030952D01*
X286003571Y-10907142D01*
X285941666Y-10845238D01*
X285817857Y-10783333D01*
X285570238Y-10783333D01*
X285446428Y-10845238D01*
X285384523Y-10907142D01*
X285322619Y-11030952D01*
D10*
D11*
X60000000Y-198007200D02*
X60000000Y-200007200D01*
D10*
D11*
X110000000Y-198007200D02*
X110000000Y-200007200D01*
D10*
D11*
X160000000Y-198007200D02*
X160000000Y-200007200D01*
D10*
D11*
X210000000Y-198007200D02*
X210000000Y-200007200D01*
D10*
D11*
X260000000Y-198007200D02*
X260000000Y-200007200D01*
D10*
D11*
X36065476Y-199595295D02*
X35322619Y-199595295D01*
X35694047Y-199595295D02*
X35694047Y-198295295D01*
X35570238Y-198481009D01*
X35446428Y-198604819D01*
X35322619Y-198666723D01*
D10*
D11*
X85322619Y-198419104D02*
X85384523Y-198357200D01*
X85508333Y-198295295D01*
X85817857Y-198295295D01*
X85941666Y-198357200D01*
X86003571Y-198419104D01*
X86065476Y-198542914D01*
X86065476Y-198666723D01*
X86003571Y-198852438D01*
X85260714Y-199595295D01*
X86065476Y-199595295D01*
D10*
D11*
X135260714Y-198295295D02*
X136065476Y-198295295D01*
X135632142Y-198790533D01*
X135817857Y-198790533D01*
X135941666Y-198852438D01*
X136003571Y-198914342D01*
X136065476Y-199038152D01*
X136065476Y-199347676D01*
X136003571Y-199471485D01*
X135941666Y-199533390D01*
X135817857Y-199595295D01*
X135446428Y-199595295D01*
X135322619Y-199533390D01*
X135260714Y-199471485D01*
D10*
D11*
X185941666Y-198728628D02*
X185941666Y-199595295D01*
X185632142Y-198233390D02*
X185322619Y-199161961D01*
X186127380Y-199161961D01*
D10*
D11*
X236003571Y-198295295D02*
X235384523Y-198295295D01*
X235322619Y-198914342D01*
X235384523Y-198852438D01*
X235508333Y-198790533D01*
X235817857Y-198790533D01*
X235941666Y-198852438D01*
X236003571Y-198914342D01*
X236065476Y-199038152D01*
X236065476Y-199347676D01*
X236003571Y-199471485D01*
X235941666Y-199533390D01*
X235817857Y-199595295D01*
X235508333Y-199595295D01*
X235384523Y-199533390D01*
X235322619Y-199471485D01*
D10*
D11*
X285941666Y-198295295D02*
X285694047Y-198295295D01*
X285570238Y-198357200D01*
X285508333Y-198419104D01*
X285384523Y-198604819D01*
X285322619Y-198852438D01*
X285322619Y-199347676D01*
X285384523Y-199471485D01*
X285446428Y-199533390D01*
X285570238Y-199595295D01*
X285817857Y-199595295D01*
X285941666Y-199533390D01*
X286003571Y-199471485D01*
X286065476Y-199347676D01*
X286065476Y-199038152D01*
X286003571Y-198914342D01*
X285941666Y-198852438D01*
X285817857Y-198790533D01*
X285570238Y-198790533D01*
X285446428Y-198852438D01*
X285384523Y-198914342D01*
X285322619Y-199038152D01*
D10*
D11*
X10000000Y-60000000D02*
X12000000Y-60000000D01*
D10*
D11*
X10000000Y-110000000D02*
X12000000Y-110000000D01*
D10*
D11*
X10000000Y-160000000D02*
X12000000Y-160000000D01*
D10*
D11*
X10690476Y-35216666D02*
X11309523Y-35216666D01*
X10566666Y-35588095D02*
X11000000Y-34288095D01*
X11433333Y-35588095D01*
D10*
D11*
X11092857Y-84907142D02*
X11278571Y-84969047D01*
X11340476Y-85030952D01*
X11402380Y-85154761D01*
X11402380Y-85340476D01*
X11340476Y-85464285D01*
X11278571Y-85526190D01*
X11154761Y-85588095D01*
X10659523Y-85588095D01*
X10659523Y-84288095D01*
X11092857Y-84288095D01*
X11216666Y-84350000D01*
X11278571Y-84411904D01*
X11340476Y-84535714D01*
X11340476Y-84659523D01*
X11278571Y-84783333D01*
X11216666Y-84845238D01*
X11092857Y-84907142D01*
X10659523Y-84907142D01*
D10*
D11*
X11402380Y-135464285D02*
X11340476Y-135526190D01*
X11154761Y-135588095D01*
X11030952Y-135588095D01*
X10845238Y-135526190D01*
X10721428Y-135402380D01*
X10659523Y-135278571D01*
X10597619Y-135030952D01*
X10597619Y-134845238D01*
X10659523Y-134597619D01*
X10721428Y-134473809D01*
X10845238Y-134350000D01*
X11030952Y-134288095D01*
X11154761Y-134288095D01*
X11340476Y-134350000D01*
X11402380Y-134411904D01*
D10*
D11*
X10659523Y-185588095D02*
X10659523Y-184288095D01*
X10969047Y-184288095D01*
X11154761Y-184350000D01*
X11278571Y-184473809D01*
X11340476Y-184597619D01*
X11402380Y-184845238D01*
X11402380Y-185030952D01*
X11340476Y-185278571D01*
X11278571Y-185402380D01*
X11154761Y-185526190D01*
X10969047Y-185588095D01*
X10659523Y-185588095D01*
D10*
D11*
X287002200Y-60000000D02*
X285002200Y-60000000D01*
D10*
D11*
X287002200Y-110000000D02*
X285002200Y-110000000D01*
D10*
D11*
X287002200Y-160000000D02*
X285002200Y-160000000D01*
D10*
D11*
X285692676Y-35216666D02*
X286311723Y-35216666D01*
X285568866Y-35588095D02*
X286002200Y-34288095D01*
X286435533Y-35588095D01*
D10*
D11*
X286095057Y-84907142D02*
X286280771Y-84969047D01*
X286342676Y-85030952D01*
X286404580Y-85154761D01*
X286404580Y-85340476D01*
X286342676Y-85464285D01*
X286280771Y-85526190D01*
X286156961Y-85588095D01*
X285661723Y-85588095D01*
X285661723Y-84288095D01*
X286095057Y-84288095D01*
X286218866Y-84350000D01*
X286280771Y-84411904D01*
X286342676Y-84535714D01*
X286342676Y-84659523D01*
X286280771Y-84783333D01*
X286218866Y-84845238D01*
X286095057Y-84907142D01*
X285661723Y-84907142D01*
D10*
D11*
X286404580Y-135464285D02*
X286342676Y-135526190D01*
X286156961Y-135588095D01*
X286033152Y-135588095D01*
X285847438Y-135526190D01*
X285723628Y-135402380D01*
X285661723Y-135278571D01*
X285599819Y-135030952D01*
X285599819Y-134845238D01*
X285661723Y-134597619D01*
X285723628Y-134473809D01*
X285847438Y-134350000D01*
X286033152Y-134288095D01*
X286156961Y-134288095D01*
X286342676Y-134350000D01*
X286404580Y-134411904D01*
D10*
D11*
X285661723Y-185588095D02*
X285661723Y-184288095D01*
X285971247Y-184288095D01*
X286156961Y-184350000D01*
X286280771Y-184473809D01*
X286342676Y-184597619D01*
X286404580Y-184845238D01*
X286404580Y-185030952D01*
X286342676Y-185278571D01*
X286280771Y-185402380D01*
X286156961Y-185526190D01*
X285971247Y-185588095D01*
X285661723Y-185588095D01*
D10*
D11*
X200434342Y-193785771D02*
X200434342Y-192285771D01*
X200791485Y-192285771D01*
X201005771Y-192357200D01*
X201148628Y-192500057D01*
X201220057Y-192642914D01*
X201291485Y-192928628D01*
X201291485Y-193142914D01*
X201220057Y-193428628D01*
X201148628Y-193571485D01*
X201005771Y-193714342D01*
X200791485Y-193785771D01*
X200434342Y-193785771D01*
X202577200Y-193785771D02*
X202577200Y-193000057D01*
X202505771Y-192857200D01*
X202362914Y-192785771D01*
X202077200Y-192785771D01*
X201934342Y-192857200D01*
X202577200Y-193714342D02*
X202434342Y-193785771D01*
X202077200Y-193785771D01*
X201934342Y-193714342D01*
X201862914Y-193571485D01*
X201862914Y-193428628D01*
X201934342Y-193285771D01*
X202077200Y-193214342D01*
X202434342Y-193214342D01*
X202577200Y-193142914D01*
X203077200Y-192785771D02*
X203648628Y-192785771D01*
X203291485Y-192285771D02*
X203291485Y-193571485D01*
X203362914Y-193714342D01*
X203505771Y-193785771D01*
X203648628Y-193785771D01*
X204720057Y-193714342D02*
X204577200Y-193785771D01*
X204291485Y-193785771D01*
X204148628Y-193714342D01*
X204077200Y-193571485D01*
X204077200Y-193000057D01*
X204148628Y-192857200D01*
X204291485Y-192785771D01*
X204577200Y-192785771D01*
X204720057Y-192857200D01*
X204791485Y-193000057D01*
X204791485Y-193142914D01*
X204077200Y-193285771D01*
X205434342Y-193642914D02*
X205505771Y-193714342D01*
X205434342Y-193785771D01*
X205362914Y-193714342D01*
X205434342Y-193642914D01*
X205434342Y-193785771D01*
X205434342Y-192857200D02*
X205505771Y-192928628D01*
X205434342Y-193000057D01*
X205362914Y-192928628D01*
X205434342Y-192857200D01*
X205434342Y-193000057D01*
D10*
D11*
X177002200Y-194507200D02*
X285002200Y-194507200D01*
D10*
D11*
X178434342Y-196585771D02*
X178434342Y-195085771D01*
X179291485Y-196585771D02*
X178648628Y-195728628D01*
X179291485Y-195085771D02*
X178434342Y-195942914D01*
X179934342Y-196585771D02*
X179934342Y-195585771D01*
X179934342Y-195085771D02*
X179862914Y-195157200D01*
X179934342Y-195228628D01*
X180005771Y-195157200D01*
X179934342Y-195085771D01*
X179934342Y-195228628D01*
X181505771Y-196442914D02*
X181434342Y-196514342D01*
X181220057Y-196585771D01*
X181077200Y-196585771D01*
X180862914Y-196514342D01*
X180720057Y-196371485D01*
X180648628Y-196228628D01*
X180577200Y-195942914D01*
X180577200Y-195728628D01*
X180648628Y-195442914D01*
X180720057Y-195300057D01*
X180862914Y-195157200D01*
X181077200Y-195085771D01*
X181220057Y-195085771D01*
X181434342Y-195157200D01*
X181505771Y-195228628D01*
X182791485Y-196585771D02*
X182791485Y-195800057D01*
X182720057Y-195657200D01*
X182577200Y-195585771D01*
X182291485Y-195585771D01*
X182148628Y-195657200D01*
X182791485Y-196514342D02*
X182648628Y-196585771D01*
X182291485Y-196585771D01*
X182148628Y-196514342D01*
X182077200Y-196371485D01*
X182077200Y-196228628D01*
X182148628Y-196085771D01*
X182291485Y-196014342D01*
X182648628Y-196014342D01*
X182791485Y-195942914D01*
X184148628Y-196585771D02*
X184148628Y-195085771D01*
X184148628Y-196514342D02*
X184005771Y-196585771D01*
X183720057Y-196585771D01*
X183577200Y-196514342D01*
X183505771Y-196442914D01*
X183434342Y-196300057D01*
X183434342Y-195871485D01*
X183505771Y-195728628D01*
X183577200Y-195657200D01*
X183720057Y-195585771D01*
X184005771Y-195585771D01*
X184148628Y-195657200D01*
X186005771Y-195800057D02*
X186505771Y-195800057D01*
X186720057Y-196585771D02*
X186005771Y-196585771D01*
X186005771Y-195085771D01*
X186720057Y-195085771D01*
X187362914Y-196442914D02*
X187434342Y-196514342D01*
X187362914Y-196585771D01*
X187291485Y-196514342D01*
X187362914Y-196442914D01*
X187362914Y-196585771D01*
X188077200Y-196585771D02*
X188077200Y-195085771D01*
X188434342Y-195085771D01*
X188648628Y-195157200D01*
X188791485Y-195300057D01*
X188862914Y-195442914D01*
X188934342Y-195728628D01*
X188934342Y-195942914D01*
X188862914Y-196228628D01*
X188791485Y-196371485D01*
X188648628Y-196514342D01*
X188434342Y-196585771D01*
X188077200Y-196585771D01*
X189577200Y-196442914D02*
X189648628Y-196514342D01*
X189577200Y-196585771D01*
X189505771Y-196514342D01*
X189577200Y-196442914D01*
X189577200Y-196585771D01*
X190220057Y-196157200D02*
X190934342Y-196157200D01*
X190077200Y-196585771D02*
X190577200Y-195085771D01*
X191077200Y-196585771D01*
X191577200Y-196442914D02*
X191648628Y-196514342D01*
X191577200Y-196585771D01*
X191505771Y-196514342D01*
X191577200Y-196442914D01*
X191577200Y-196585771D01*
X194577200Y-196585771D02*
X194577200Y-195085771D01*
X194720057Y-196014342D02*
X195148628Y-196585771D01*
X195148628Y-195585771D02*
X194577200Y-196157200D01*
X195791485Y-196585771D02*
X195791485Y-195585771D01*
X195791485Y-195085771D02*
X195720057Y-195157200D01*
X195791485Y-195228628D01*
X195862914Y-195157200D01*
X195791485Y-195085771D01*
X195791485Y-195228628D01*
X197148628Y-196514342D02*
X197005771Y-196585771D01*
X196720057Y-196585771D01*
X196577200Y-196514342D01*
X196505771Y-196442914D01*
X196434342Y-196300057D01*
X196434342Y-195871485D01*
X196505771Y-195728628D01*
X196577200Y-195657200D01*
X196720057Y-195585771D01*
X197005771Y-195585771D01*
X197148628Y-195657200D01*
X198434342Y-196585771D02*
X198434342Y-195800057D01*
X198362914Y-195657200D01*
X198220057Y-195585771D01*
X197934342Y-195585771D01*
X197791485Y-195657200D01*
X198434342Y-196514342D02*
X198291485Y-196585771D01*
X197934342Y-196585771D01*
X197791485Y-196514342D01*
X197720057Y-196371485D01*
X197720057Y-196228628D01*
X197791485Y-196085771D01*
X197934342Y-196014342D01*
X198291485Y-196014342D01*
X198434342Y-195942914D01*
X199791485Y-196585771D02*
X199791485Y-195085771D01*
X199791485Y-196514342D02*
X199648628Y-196585771D01*
X199362914Y-196585771D01*
X199220057Y-196514342D01*
X199148628Y-196442914D01*
X199077200Y-196300057D01*
X199077200Y-195871485D01*
X199148628Y-195728628D01*
X199220057Y-195657200D01*
X199362914Y-195585771D01*
X199648628Y-195585771D01*
X199791485Y-195657200D01*
X202362914Y-195085771D02*
X201648628Y-195085771D01*
X201577200Y-195800057D01*
X201648628Y-195728628D01*
X201791485Y-195657200D01*
X202148628Y-195657200D01*
X202291485Y-195728628D01*
X202362914Y-195800057D01*
X202434342Y-195942914D01*
X202434342Y-196300057D01*
X202362914Y-196442914D01*
X202291485Y-196514342D01*
X202148628Y-196585771D01*
X201791485Y-196585771D01*
X201648628Y-196514342D01*
X201577200Y-196442914D01*
X203077200Y-196442914D02*
X203148628Y-196514342D01*
X203077200Y-196585771D01*
X203005771Y-196514342D01*
X203077200Y-196442914D01*
X203077200Y-196585771D01*
X204077200Y-195085771D02*
X204220057Y-195085771D01*
X204362914Y-195157200D01*
X204434342Y-195228628D01*
X204505771Y-195371485D01*
X204577200Y-195657200D01*
X204577200Y-196014342D01*
X204505771Y-196300057D01*
X204434342Y-196442914D01*
X204362914Y-196514342D01*
X204220057Y-196585771D01*
X204077200Y-196585771D01*
X203934342Y-196514342D01*
X203862914Y-196442914D01*
X203791485Y-196300057D01*
X203720057Y-196014342D01*
X203720057Y-195657200D01*
X203791485Y-195371485D01*
X203862914Y-195228628D01*
X203934342Y-195157200D01*
X204077200Y-195085771D01*
X205220057Y-196442914D02*
X205291485Y-196514342D01*
X205220057Y-196585771D01*
X205148628Y-196514342D01*
X205220057Y-196442914D01*
X205220057Y-196585771D01*
X206220057Y-195085771D02*
X206362914Y-195085771D01*
X206505771Y-195157200D01*
X206577200Y-195228628D01*
X206648628Y-195371485D01*
X206720057Y-195657200D01*
X206720057Y-196014342D01*
X206648628Y-196300057D01*
X206577200Y-196442914D01*
X206505771Y-196514342D01*
X206362914Y-196585771D01*
X206220057Y-196585771D01*
X206077200Y-196514342D01*
X206005771Y-196442914D01*
X205934342Y-196300057D01*
X205862914Y-196014342D01*
X205862914Y-195657200D01*
X205934342Y-195371485D01*
X206005771Y-195228628D01*
X206077200Y-195157200D01*
X206220057Y-195085771D01*
D10*
D11*
X177002200Y-191507200D02*
X285002200Y-191507200D01*
D10*
D12*
X264411485Y-193785771D02*
X263911485Y-193071485D01*
X263554342Y-193785771D02*
X263554342Y-192285771D01*
X264125771Y-192285771D01*
X264268628Y-192357200D01*
X264340057Y-192428628D01*
X264411485Y-192571485D01*
X264411485Y-192785771D01*
X264340057Y-192928628D01*
X264268628Y-193000057D01*
X264125771Y-193071485D01*
X263554342Y-193071485D01*
X265625771Y-193714342D02*
X265482914Y-193785771D01*
X265197200Y-193785771D01*
X265054342Y-193714342D01*
X264982914Y-193571485D01*
X264982914Y-193000057D01*
X265054342Y-192857200D01*
X265197200Y-192785771D01*
X265482914Y-192785771D01*
X265625771Y-192857200D01*
X265697200Y-193000057D01*
X265697200Y-193142914D01*
X264982914Y-193285771D01*
X266197200Y-192785771D02*
X266554342Y-193785771D01*
X266911485Y-192785771D01*
X267482914Y-193642914D02*
X267554342Y-193714342D01*
X267482914Y-193785771D01*
X267411485Y-193714342D01*
X267482914Y-193642914D01*
X267482914Y-193785771D01*
X267482914Y-192857200D02*
X267554342Y-192928628D01*
X267482914Y-193000057D01*
X267411485Y-192928628D01*
X267482914Y-192857200D01*
X267482914Y-193000057D01*
D10*
D11*
X178362914Y-193714342D02*
X178577200Y-193785771D01*
X178934342Y-193785771D01*
X179077200Y-193714342D01*
X179148628Y-193642914D01*
X179220057Y-193500057D01*
X179220057Y-193357200D01*
X179148628Y-193214342D01*
X179077200Y-193142914D01*
X178934342Y-193071485D01*
X178648628Y-193000057D01*
X178505771Y-192928628D01*
X178434342Y-192857200D01*
X178362914Y-192714342D01*
X178362914Y-192571485D01*
X178434342Y-192428628D01*
X178505771Y-192357200D01*
X178648628Y-192285771D01*
X179005771Y-192285771D01*
X179220057Y-192357200D01*
X179862914Y-193785771D02*
X179862914Y-192785771D01*
X179862914Y-192285771D02*
X179791485Y-192357200D01*
X179862914Y-192428628D01*
X179934342Y-192357200D01*
X179862914Y-192285771D01*
X179862914Y-192428628D01*
X180434342Y-192785771D02*
X181220057Y-192785771D01*
X180434342Y-193785771D01*
X181220057Y-193785771D01*
X182362914Y-193714342D02*
X182220057Y-193785771D01*
X181934342Y-193785771D01*
X181791485Y-193714342D01*
X181720057Y-193571485D01*
X181720057Y-193000057D01*
X181791485Y-192857200D01*
X181934342Y-192785771D01*
X182220057Y-192785771D01*
X182362914Y-192857200D01*
X182434342Y-193000057D01*
X182434342Y-193142914D01*
X181720057Y-193285771D01*
X183077200Y-193642914D02*
X183148628Y-193714342D01*
X183077200Y-193785771D01*
X183005771Y-193714342D01*
X183077200Y-193642914D01*
X183077200Y-193785771D01*
X183077200Y-192857200D02*
X183148628Y-192928628D01*
X183077200Y-193000057D01*
X183005771Y-192928628D01*
X183077200Y-192857200D01*
X183077200Y-193000057D01*
X184862914Y-193357200D02*
X185577200Y-193357200D01*
X184720057Y-193785771D02*
X185220057Y-192285771D01*
X185720057Y-193785771D01*
X186862914Y-192785771D02*
X186862914Y-193785771D01*
X186505771Y-192214342D02*
X186148628Y-193285771D01*
X187077200Y-193285771D01*
D10*
D11*
X263434342Y-196585771D02*
X263434342Y-195085771D01*
X264791485Y-196585771D02*
X264791485Y-195085771D01*
X264791485Y-196514342D02*
X264648628Y-196585771D01*
X264362914Y-196585771D01*
X264220057Y-196514342D01*
X264148628Y-196442914D01*
X264077200Y-196300057D01*
X264077200Y-195871485D01*
X264148628Y-195728628D01*
X264220057Y-195657200D01*
X264362914Y-195585771D01*
X264648628Y-195585771D01*
X264791485Y-195657200D01*
X265505771Y-196442914D02*
X265577200Y-196514342D01*
X265505771Y-196585771D01*
X265434342Y-196514342D01*
X265505771Y-196442914D01*
X265505771Y-196585771D01*
X265505771Y-195657200D02*
X265577200Y-195728628D01*
X265505771Y-195800057D01*
X265434342Y-195728628D01*
X265505771Y-195657200D01*
X265505771Y-195800057D01*
X268148628Y-196585771D02*
X267291485Y-196585771D01*
X267720057Y-196585771D02*
X267720057Y-195085771D01*
X267577200Y-195300057D01*
X267434342Y-195442914D01*
X267291485Y-195514342D01*
X269862914Y-195014342D02*
X268577200Y-196942914D01*
X271148628Y-196585771D02*
X270291485Y-196585771D01*
X270720057Y-196585771D02*
X270720057Y-195085771D01*
X270577200Y-195300057D01*
X270434342Y-195442914D01*
X270291485Y-195514342D01*
D10*
D11*
X177002200Y-187507200D02*
X285002200Y-187507200D01*
D10*
D13*
X178714580Y-188211961D02*
X179857438Y-188211961D01*
X179036009Y-190211961D02*
X179286009Y-188211961D01*
X180274104Y-190211961D02*
X180440771Y-188878628D01*
X180524104Y-188211961D02*
X180416961Y-188307200D01*
X180500295Y-188402438D01*
X180607438Y-188307200D01*
X180524104Y-188211961D01*
X180500295Y-188402438D01*
X181107438Y-188878628D02*
X181869342Y-188878628D01*
X181476485Y-188211961D02*
X181262200Y-189926247D01*
X181333628Y-190116723D01*
X181512200Y-190211961D01*
X181702676Y-190211961D01*
X182655057Y-190211961D02*
X182476485Y-190116723D01*
X182405057Y-189926247D01*
X182619342Y-188211961D01*
X184190771Y-190116723D02*
X183988390Y-190211961D01*
X183607438Y-190211961D01*
X183428866Y-190116723D01*
X183357438Y-189926247D01*
X183452676Y-189164342D01*
X183571723Y-188973866D01*
X183774104Y-188878628D01*
X184155057Y-188878628D01*
X184333628Y-188973866D01*
X184405057Y-189164342D01*
X184381247Y-189354819D01*
X183405057Y-189545295D01*
X185155057Y-190021485D02*
X185238390Y-190116723D01*
X185131247Y-190211961D01*
X185047914Y-190116723D01*
X185155057Y-190021485D01*
X185131247Y-190211961D01*
X185286009Y-188973866D02*
X185369342Y-189069104D01*
X185262200Y-189164342D01*
X185178866Y-189069104D01*
X185286009Y-188973866D01*
X185262200Y-189164342D01*
D10*
D11*
X178934342Y-185600057D02*
X178434342Y-185600057D01*
X178434342Y-186385771D02*
X178434342Y-184885771D01*
X179148628Y-184885771D01*
X179720057Y-186385771D02*
X179720057Y-185385771D01*
X179720057Y-184885771D02*
X179648628Y-184957200D01*
X179720057Y-185028628D01*
X179791485Y-184957200D01*
X179720057Y-184885771D01*
X179720057Y-185028628D01*
X180648628Y-186385771D02*
X180505771Y-186314342D01*
X180434342Y-186171485D01*
X180434342Y-184885771D01*
X181791485Y-186314342D02*
X181648628Y-186385771D01*
X181362914Y-186385771D01*
X181220057Y-186314342D01*
X181148628Y-186171485D01*
X181148628Y-185600057D01*
X181220057Y-185457200D01*
X181362914Y-185385771D01*
X181648628Y-185385771D01*
X181791485Y-185457200D01*
X181862914Y-185600057D01*
X181862914Y-185742914D01*
X181148628Y-185885771D01*
X182505771Y-186242914D02*
X182577200Y-186314342D01*
X182505771Y-186385771D01*
X182434342Y-186314342D01*
X182505771Y-186242914D01*
X182505771Y-186385771D01*
X182505771Y-185457200D02*
X182577200Y-185528628D01*
X182505771Y-185600057D01*
X182434342Y-185528628D01*
X182505771Y-185457200D01*
X182505771Y-185600057D01*
X185005771Y-186385771D02*
X185005771Y-184885771D01*
X185005771Y-186314342D02*
X184862914Y-186385771D01*
X184577200Y-186385771D01*
X184434342Y-186314342D01*
X184362914Y-186242914D01*
X184291485Y-186100057D01*
X184291485Y-185671485D01*
X184362914Y-185528628D01*
X184434342Y-185457200D01*
X184577200Y-185385771D01*
X184862914Y-185385771D01*
X185005771Y-185457200D01*
X185720057Y-186385771D02*
X185720057Y-185385771D01*
X185720057Y-185671485D02*
X185791485Y-185528628D01*
X185862914Y-185457200D01*
X186005771Y-185385771D01*
X186148628Y-185385771D01*
X186648628Y-186385771D02*
X186648628Y-185385771D01*
X186648628Y-184885771D02*
X186577200Y-184957200D01*
X186648628Y-185028628D01*
X186720057Y-184957200D01*
X186648628Y-184885771D01*
X186648628Y-185028628D01*
X187220057Y-185385771D02*
X187577200Y-186385771D01*
X187934342Y-185385771D01*
X189077200Y-186314342D02*
X188934342Y-186385771D01*
X188648628Y-186385771D01*
X188505771Y-186314342D01*
X188434342Y-186171485D01*
X188434342Y-185600057D01*
X188505771Y-185457200D01*
X188648628Y-185385771D01*
X188934342Y-185385771D01*
X189077200Y-185457200D01*
X189148628Y-185600057D01*
X189148628Y-185742914D01*
X188434342Y-185885771D01*
X189791485Y-186385771D02*
X189791485Y-185385771D01*
X189791485Y-185671485D02*
X189862914Y-185528628D01*
X189934342Y-185457200D01*
X190077200Y-185385771D01*
X190220057Y-185385771D01*
X190720057Y-186242914D02*
X190791485Y-186314342D01*
X190720057Y-186385771D01*
X190648628Y-186314342D01*
X190720057Y-186242914D01*
X190720057Y-186385771D01*
X191434342Y-186385771D02*
X191434342Y-184885771D01*
X191577200Y-185814342D02*
X192005771Y-186385771D01*
X192005771Y-185385771D02*
X191434342Y-185957200D01*
X192648628Y-186385771D02*
X192648628Y-185385771D01*
X192648628Y-184885771D02*
X192577200Y-184957200D01*
X192648628Y-185028628D01*
X192720057Y-184957200D01*
X192648628Y-184885771D01*
X192648628Y-185028628D01*
X194005771Y-186314342D02*
X193862914Y-186385771D01*
X193577200Y-186385771D01*
X193434342Y-186314342D01*
X193362914Y-186242914D01*
X193291485Y-186100057D01*
X193291485Y-185671485D01*
X193362914Y-185528628D01*
X193434342Y-185457200D01*
X193577200Y-185385771D01*
X193862914Y-185385771D01*
X194005771Y-185457200D01*
X195291485Y-186385771D02*
X195291485Y-185600057D01*
X195220057Y-185457200D01*
X195077200Y-185385771D01*
X194791485Y-185385771D01*
X194648628Y-185457200D01*
X195291485Y-186314342D02*
X195148628Y-186385771D01*
X194791485Y-186385771D01*
X194648628Y-186314342D01*
X194577200Y-186171485D01*
X194577200Y-186028628D01*
X194648628Y-185885771D01*
X194791485Y-185814342D01*
X195148628Y-185814342D01*
X195291485Y-185742914D01*
X196648628Y-186385771D02*
X196648628Y-184885771D01*
X196648628Y-186314342D02*
X196505771Y-186385771D01*
X196220057Y-186385771D01*
X196077200Y-186314342D01*
X196005771Y-186242914D01*
X195934342Y-186100057D01*
X195934342Y-185671485D01*
X196005771Y-185528628D01*
X196077200Y-185457200D01*
X196220057Y-185385771D01*
X196505771Y-185385771D01*
X196648628Y-185457200D01*
X197005771Y-186528628D02*
X198148628Y-186528628D01*
X198505771Y-185385771D02*
X198505771Y-186885771D01*
X198505771Y-185457200D02*
X198648628Y-185385771D01*
X198934342Y-185385771D01*
X199077200Y-185457200D01*
X199148628Y-185528628D01*
X199220057Y-185671485D01*
X199220057Y-186100057D01*
X199148628Y-186242914D01*
X199077200Y-186314342D01*
X198934342Y-186385771D01*
X198648628Y-186385771D01*
X198505771Y-186314342D01*
X200505771Y-186314342D02*
X200362914Y-186385771D01*
X200077200Y-186385771D01*
X199934342Y-186314342D01*
X199862914Y-186242914D01*
X199791485Y-186100057D01*
X199791485Y-185671485D01*
X199862914Y-185528628D01*
X199934342Y-185457200D01*
X200077200Y-185385771D01*
X200362914Y-185385771D01*
X200505771Y-185457200D01*
X201148628Y-186385771D02*
X201148628Y-184885771D01*
X201148628Y-185457200D02*
X201291485Y-185385771D01*
X201577200Y-185385771D01*
X201720057Y-185457200D01*
X201791485Y-185528628D01*
X201862914Y-185671485D01*
X201862914Y-186100057D01*
X201791485Y-186242914D01*
X201720057Y-186314342D01*
X201577200Y-186385771D01*
X201291485Y-186385771D01*
X201148628Y-186314342D01*
D10*
D11*
X177002200Y-181507200D02*
X285002200Y-181507200D01*
D10*
D11*
X178362914Y-183614342D02*
X178577200Y-183685771D01*
X178934342Y-183685771D01*
X179077200Y-183614342D01*
X179148628Y-183542914D01*
X179220057Y-183400057D01*
X179220057Y-183257200D01*
X179148628Y-183114342D01*
X179077200Y-183042914D01*
X178934342Y-182971485D01*
X178648628Y-182900057D01*
X178505771Y-182828628D01*
X178434342Y-182757200D01*
X178362914Y-182614342D01*
X178362914Y-182471485D01*
X178434342Y-182328628D01*
X178505771Y-182257200D01*
X178648628Y-182185771D01*
X179005771Y-182185771D01*
X179220057Y-182257200D01*
X179862914Y-183685771D02*
X179862914Y-182185771D01*
X180505771Y-183685771D02*
X180505771Y-182900057D01*
X180434342Y-182757200D01*
X180291485Y-182685771D01*
X180077200Y-182685771D01*
X179934342Y-182757200D01*
X179862914Y-182828628D01*
X181791485Y-183614342D02*
X181648628Y-183685771D01*
X181362914Y-183685771D01*
X181220057Y-183614342D01*
X181148628Y-183471485D01*
X181148628Y-182900057D01*
X181220057Y-182757200D01*
X181362914Y-182685771D01*
X181648628Y-182685771D01*
X181791485Y-182757200D01*
X181862914Y-182900057D01*
X181862914Y-183042914D01*
X181148628Y-183185771D01*
X183077200Y-183614342D02*
X182934342Y-183685771D01*
X182648628Y-183685771D01*
X182505771Y-183614342D01*
X182434342Y-183471485D01*
X182434342Y-182900057D01*
X182505771Y-182757200D01*
X182648628Y-182685771D01*
X182934342Y-182685771D01*
X183077200Y-182757200D01*
X183148628Y-182900057D01*
X183148628Y-183042914D01*
X182434342Y-183185771D01*
X183577200Y-182685771D02*
X184148628Y-182685771D01*
X183791485Y-182185771D02*
X183791485Y-183471485D01*
X183862914Y-183614342D01*
X184005771Y-183685771D01*
X184148628Y-183685771D01*
X184648628Y-183542914D02*
X184720057Y-183614342D01*
X184648628Y-183685771D01*
X184577200Y-183614342D01*
X184648628Y-183542914D01*
X184648628Y-183685771D01*
X184648628Y-182757200D02*
X184720057Y-182828628D01*
X184648628Y-182900057D01*
X184577200Y-182828628D01*
X184648628Y-182757200D01*
X184648628Y-182900057D01*
D10*
D11*
X197002200Y-191507200D02*
X197002200Y-194507200D01*
D10*
D11*
X261002200Y-191507200D02*
X261002200Y-198007200D01*
D10*
G04 #@! TO.C,C10*
G36*
X154871071Y-92941623D02*
X154903781Y-92946475D01*
X154935857Y-92954509D01*
X154966991Y-92965649D01*
X154996884Y-92979787D01*
X155025247Y-92996787D01*
X155051807Y-93016485D01*
X155076308Y-93038692D01*
X155098515Y-93063193D01*
X155118213Y-93089753D01*
X155135213Y-93118116D01*
X155149351Y-93148009D01*
X155160491Y-93179143D01*
X155168525Y-93211219D01*
X155173377Y-93243929D01*
X155175000Y-93276956D01*
X155175000Y-94403044D01*
X155173377Y-94436071D01*
X155168525Y-94468781D01*
X155160491Y-94500857D01*
X155149351Y-94531991D01*
X155135213Y-94561884D01*
X155118213Y-94590247D01*
X155098515Y-94616807D01*
X155076308Y-94641308D01*
X155051807Y-94663515D01*
X155025247Y-94683213D01*
X154996884Y-94700213D01*
X154966991Y-94714351D01*
X154935857Y-94725491D01*
X154903781Y-94733525D01*
X154871071Y-94738377D01*
X154838044Y-94740000D01*
X153961956Y-94740000D01*
X153928929Y-94738377D01*
X153896219Y-94733525D01*
X153864143Y-94725491D01*
X153833009Y-94714351D01*
X153803116Y-94700213D01*
X153774753Y-94683213D01*
X153748193Y-94663515D01*
X153723692Y-94641308D01*
X153701485Y-94616807D01*
X153681787Y-94590247D01*
X153664787Y-94561884D01*
X153650649Y-94531991D01*
X153639509Y-94500857D01*
X153631475Y-94468781D01*
X153626623Y-94436071D01*
X153625000Y-94403044D01*
X153625000Y-93276956D01*
X153626623Y-93243929D01*
X153631475Y-93211219D01*
X153639509Y-93179143D01*
X153650649Y-93148009D01*
X153664787Y-93118116D01*
X153681787Y-93089753D01*
X153701485Y-93063193D01*
X153723692Y-93038692D01*
X153748193Y-93016485D01*
X153774753Y-92996787D01*
X153803116Y-92979787D01*
X153833009Y-92965649D01*
X153864143Y-92954509D01*
X153896219Y-92946475D01*
X153928929Y-92941623D01*
X153961956Y-92940000D01*
X154838044Y-92940000D01*
X154871071Y-92941623D01*
X154871071Y-92941623D01*
G37*
D14*
X154400000Y-93840000D03*
D10*
G36*
X152821071Y-92941623D02*
X152853781Y-92946475D01*
X152885857Y-92954509D01*
X152916991Y-92965649D01*
X152946884Y-92979787D01*
X152975247Y-92996787D01*
X153001807Y-93016485D01*
X153026308Y-93038692D01*
X153048515Y-93063193D01*
X153068213Y-93089753D01*
X153085213Y-93118116D01*
X153099351Y-93148009D01*
X153110491Y-93179143D01*
X153118525Y-93211219D01*
X153123377Y-93243929D01*
X153125000Y-93276956D01*
X153125000Y-94403044D01*
X153123377Y-94436071D01*
X153118525Y-94468781D01*
X153110491Y-94500857D01*
X153099351Y-94531991D01*
X153085213Y-94561884D01*
X153068213Y-94590247D01*
X153048515Y-94616807D01*
X153026308Y-94641308D01*
X153001807Y-94663515D01*
X152975247Y-94683213D01*
X152946884Y-94700213D01*
X152916991Y-94714351D01*
X152885857Y-94725491D01*
X152853781Y-94733525D01*
X152821071Y-94738377D01*
X152788044Y-94740000D01*
X151911956Y-94740000D01*
X151878929Y-94738377D01*
X151846219Y-94733525D01*
X151814143Y-94725491D01*
X151783009Y-94714351D01*
X151753116Y-94700213D01*
X151724753Y-94683213D01*
X151698193Y-94663515D01*
X151673692Y-94641308D01*
X151651485Y-94616807D01*
X151631787Y-94590247D01*
X151614787Y-94561884D01*
X151600649Y-94531991D01*
X151589509Y-94500857D01*
X151581475Y-94468781D01*
X151576623Y-94436071D01*
X151575000Y-94403044D01*
X151575000Y-93276956D01*
X151576623Y-93243929D01*
X151581475Y-93211219D01*
X151589509Y-93179143D01*
X151600649Y-93148009D01*
X151614787Y-93118116D01*
X151631787Y-93089753D01*
X151651485Y-93063193D01*
X151673692Y-93038692D01*
X151698193Y-93016485D01*
X151724753Y-92996787D01*
X151753116Y-92979787D01*
X151783009Y-92965649D01*
X151814143Y-92954509D01*
X151846219Y-92946475D01*
X151878929Y-92941623D01*
X151911956Y-92940000D01*
X152788044Y-92940000D01*
X152821071Y-92941623D01*
X152821071Y-92941623D01*
G37*
D14*
X152350000Y-93840000D03*
G04 #@! TD*
D15*
G04 #@! TO.C,U3*
X154400000Y-101230000D03*
X155670000Y-101230000D03*
X156940000Y-101230000D03*
X158210000Y-101230000D03*
X159480000Y-101230000D03*
X160750000Y-101230000D03*
X162020000Y-101230000D03*
X162020000Y-95830000D03*
X160750000Y-95830000D03*
X159480000Y-95830000D03*
X158210000Y-95830000D03*
X156940000Y-95830000D03*
X155670000Y-95830000D03*
X154400000Y-95830000D03*
G04 #@! TD*
D16*
G04 #@! TO.C,J3*
X149160072Y-91715293D03*
X146620072Y-91715293D03*
D17*
X144080072Y-91715293D03*
G04 #@! TD*
G04 #@! TO.C,J4*
X168210072Y-91865293D03*
D16*
X170750072Y-91865293D03*
X173290072Y-91865293D03*
G04 #@! TD*
D18*
G04 #@! TO.C,MH2*
X176539082Y-116069303D03*
X175880072Y-117660293D03*
X176539082Y-119251283D03*
X178130072Y-119910293D03*
X179721062Y-119251283D03*
X180380072Y-117660293D03*
X179721062Y-116069303D03*
X178130072Y-115410293D03*
D19*
X178130072Y-117660293D03*
G04 #@! TD*
G04 #@! TO.C,MH4*
X138130072Y-117660293D03*
D18*
X138130072Y-115410293D03*
X139721062Y-116069303D03*
X140380072Y-117660293D03*
X139721062Y-119251283D03*
X138130072Y-119910293D03*
X136539082Y-119251283D03*
X135880072Y-117660293D03*
X136539082Y-116069303D03*
G04 #@! TD*
G04 #@! TO.C,MH1*
X176539082Y-96069303D03*
X175880072Y-97660293D03*
X176539082Y-99251283D03*
X178130072Y-99910293D03*
X179721062Y-99251283D03*
X180380072Y-97660293D03*
X179721062Y-96069303D03*
X178130072Y-95410293D03*
D19*
X178130072Y-97660293D03*
G04 #@! TD*
G04 #@! TO.C,MH3*
X138130072Y-97660293D03*
D18*
X138130072Y-95410293D03*
X139721062Y-96069303D03*
X140380072Y-97660293D03*
X139721062Y-99251283D03*
X138130072Y-99910293D03*
X136539082Y-99251283D03*
X135880072Y-97660293D03*
X136539082Y-96069303D03*
G04 #@! TD*
D20*
G04 #@! TO.C,U1*
X158685072Y-111135293D03*
X159955072Y-111135293D03*
X161225072Y-111135293D03*
X162495072Y-111135293D03*
X162495072Y-105735293D03*
X161225072Y-105735293D03*
X159955072Y-105735293D03*
X158685072Y-105735293D03*
G04 #@! TD*
D21*
G04 #@! TO.C,J2*
X157575000Y-91545000D03*
D22*
X160115000Y-91545000D03*
G04 #@! TD*
D10*
G04 #@! TO.C,C1*
G36*
X157376143Y-111556916D02*
X157408853Y-111561768D01*
X157440929Y-111569802D01*
X157472063Y-111580942D01*
X157501956Y-111595080D01*
X157530319Y-111612080D01*
X157556879Y-111631778D01*
X157581380Y-111653985D01*
X157603587Y-111678486D01*
X157623285Y-111705046D01*
X157640285Y-111733409D01*
X157654423Y-111763302D01*
X157665563Y-111794436D01*
X157673597Y-111826512D01*
X157678449Y-111859222D01*
X157680072Y-111892249D01*
X157680072Y-112768337D01*
X157678449Y-112801364D01*
X157673597Y-112834074D01*
X157665563Y-112866150D01*
X157654423Y-112897284D01*
X157640285Y-112927177D01*
X157623285Y-112955540D01*
X157603587Y-112982100D01*
X157581380Y-113006601D01*
X157556879Y-113028808D01*
X157530319Y-113048506D01*
X157501956Y-113065506D01*
X157472063Y-113079644D01*
X157440929Y-113090784D01*
X157408853Y-113098818D01*
X157376143Y-113103670D01*
X157343116Y-113105293D01*
X156217028Y-113105293D01*
X156184001Y-113103670D01*
X156151291Y-113098818D01*
X156119215Y-113090784D01*
X156088081Y-113079644D01*
X156058188Y-113065506D01*
X156029825Y-113048506D01*
X156003265Y-113028808D01*
X155978764Y-113006601D01*
X155956557Y-112982100D01*
X155936859Y-112955540D01*
X155919859Y-112927177D01*
X155905721Y-112897284D01*
X155894581Y-112866150D01*
X155886547Y-112834074D01*
X155881695Y-112801364D01*
X155880072Y-112768337D01*
X155880072Y-111892249D01*
X155881695Y-111859222D01*
X155886547Y-111826512D01*
X155894581Y-111794436D01*
X155905721Y-111763302D01*
X155919859Y-111733409D01*
X155936859Y-111705046D01*
X155956557Y-111678486D01*
X155978764Y-111653985D01*
X156003265Y-111631778D01*
X156029825Y-111612080D01*
X156058188Y-111595080D01*
X156088081Y-111580942D01*
X156119215Y-111569802D01*
X156151291Y-111561768D01*
X156184001Y-111556916D01*
X156217028Y-111555293D01*
X157343116Y-111555293D01*
X157376143Y-111556916D01*
X157376143Y-111556916D01*
G37*
D14*
X156780072Y-112330293D03*
D10*
G36*
X157376143Y-109506916D02*
X157408853Y-109511768D01*
X157440929Y-109519802D01*
X157472063Y-109530942D01*
X157501956Y-109545080D01*
X157530319Y-109562080D01*
X157556879Y-109581778D01*
X157581380Y-109603985D01*
X157603587Y-109628486D01*
X157623285Y-109655046D01*
X157640285Y-109683409D01*
X157654423Y-109713302D01*
X157665563Y-109744436D01*
X157673597Y-109776512D01*
X157678449Y-109809222D01*
X157680072Y-109842249D01*
X157680072Y-110718337D01*
X157678449Y-110751364D01*
X157673597Y-110784074D01*
X157665563Y-110816150D01*
X157654423Y-110847284D01*
X157640285Y-110877177D01*
X157623285Y-110905540D01*
X157603587Y-110932100D01*
X157581380Y-110956601D01*
X157556879Y-110978808D01*
X157530319Y-110998506D01*
X157501956Y-111015506D01*
X157472063Y-111029644D01*
X157440929Y-111040784D01*
X157408853Y-111048818D01*
X157376143Y-111053670D01*
X157343116Y-111055293D01*
X156217028Y-111055293D01*
X156184001Y-111053670D01*
X156151291Y-111048818D01*
X156119215Y-111040784D01*
X156088081Y-111029644D01*
X156058188Y-111015506D01*
X156029825Y-110998506D01*
X156003265Y-110978808D01*
X155978764Y-110956601D01*
X155956557Y-110932100D01*
X155936859Y-110905540D01*
X155919859Y-110877177D01*
X155905721Y-110847284D01*
X155894581Y-110816150D01*
X155886547Y-110784074D01*
X155881695Y-110751364D01*
X155880072Y-110718337D01*
X155880072Y-109842249D01*
X155881695Y-109809222D01*
X155886547Y-109776512D01*
X155894581Y-109744436D01*
X155905721Y-109713302D01*
X155919859Y-109683409D01*
X155936859Y-109655046D01*
X155956557Y-109628486D01*
X155978764Y-109603985D01*
X156003265Y-109581778D01*
X156029825Y-109562080D01*
X156058188Y-109545080D01*
X156088081Y-109530942D01*
X156119215Y-109519802D01*
X156151291Y-109511768D01*
X156184001Y-109506916D01*
X156217028Y-109505293D01*
X157343116Y-109505293D01*
X157376143Y-109506916D01*
X157376143Y-109506916D01*
G37*
D14*
X156780072Y-110280293D03*
G04 #@! TD*
D23*
G04 #@! TO.C,C2*
X162755072Y-117265293D03*
X157155072Y-117265293D03*
G04 #@! TD*
D24*
G04 #@! TO.C,C3*
X149400000Y-97000000D03*
X149400000Y-102600000D03*
G04 #@! TD*
D10*
G04 #@! TO.C,C4*
G36*
X148486143Y-109751916D02*
X148518853Y-109756768D01*
X148550929Y-109764802D01*
X148582063Y-109775942D01*
X148611956Y-109790080D01*
X148640319Y-109807080D01*
X148666879Y-109826778D01*
X148691380Y-109848985D01*
X148713587Y-109873486D01*
X148733285Y-109900046D01*
X148750285Y-109928409D01*
X148764423Y-109958302D01*
X148775563Y-109989436D01*
X148783597Y-110021512D01*
X148788449Y-110054222D01*
X148790072Y-110087249D01*
X148790072Y-110963337D01*
X148788449Y-110996364D01*
X148783597Y-111029074D01*
X148775563Y-111061150D01*
X148764423Y-111092284D01*
X148750285Y-111122177D01*
X148733285Y-111150540D01*
X148713587Y-111177100D01*
X148691380Y-111201601D01*
X148666879Y-111223808D01*
X148640319Y-111243506D01*
X148611956Y-111260506D01*
X148582063Y-111274644D01*
X148550929Y-111285784D01*
X148518853Y-111293818D01*
X148486143Y-111298670D01*
X148453116Y-111300293D01*
X147327028Y-111300293D01*
X147294001Y-111298670D01*
X147261291Y-111293818D01*
X147229215Y-111285784D01*
X147198081Y-111274644D01*
X147168188Y-111260506D01*
X147139825Y-111243506D01*
X147113265Y-111223808D01*
X147088764Y-111201601D01*
X147066557Y-111177100D01*
X147046859Y-111150540D01*
X147029859Y-111122177D01*
X147015721Y-111092284D01*
X147004581Y-111061150D01*
X146996547Y-111029074D01*
X146991695Y-110996364D01*
X146990072Y-110963337D01*
X146990072Y-110087249D01*
X146991695Y-110054222D01*
X146996547Y-110021512D01*
X147004581Y-109989436D01*
X147015721Y-109958302D01*
X147029859Y-109928409D01*
X147046859Y-109900046D01*
X147066557Y-109873486D01*
X147088764Y-109848985D01*
X147113265Y-109826778D01*
X147139825Y-109807080D01*
X147168188Y-109790080D01*
X147198081Y-109775942D01*
X147229215Y-109764802D01*
X147261291Y-109756768D01*
X147294001Y-109751916D01*
X147327028Y-109750293D01*
X148453116Y-109750293D01*
X148486143Y-109751916D01*
X148486143Y-109751916D01*
G37*
D14*
X147890072Y-110525293D03*
D10*
G36*
X148486143Y-107701916D02*
X148518853Y-107706768D01*
X148550929Y-107714802D01*
X148582063Y-107725942D01*
X148611956Y-107740080D01*
X148640319Y-107757080D01*
X148666879Y-107776778D01*
X148691380Y-107798985D01*
X148713587Y-107823486D01*
X148733285Y-107850046D01*
X148750285Y-107878409D01*
X148764423Y-107908302D01*
X148775563Y-107939436D01*
X148783597Y-107971512D01*
X148788449Y-108004222D01*
X148790072Y-108037249D01*
X148790072Y-108913337D01*
X148788449Y-108946364D01*
X148783597Y-108979074D01*
X148775563Y-109011150D01*
X148764423Y-109042284D01*
X148750285Y-109072177D01*
X148733285Y-109100540D01*
X148713587Y-109127100D01*
X148691380Y-109151601D01*
X148666879Y-109173808D01*
X148640319Y-109193506D01*
X148611956Y-109210506D01*
X148582063Y-109224644D01*
X148550929Y-109235784D01*
X148518853Y-109243818D01*
X148486143Y-109248670D01*
X148453116Y-109250293D01*
X147327028Y-109250293D01*
X147294001Y-109248670D01*
X147261291Y-109243818D01*
X147229215Y-109235784D01*
X147198081Y-109224644D01*
X147168188Y-109210506D01*
X147139825Y-109193506D01*
X147113265Y-109173808D01*
X147088764Y-109151601D01*
X147066557Y-109127100D01*
X147046859Y-109100540D01*
X147029859Y-109072177D01*
X147015721Y-109042284D01*
X147004581Y-109011150D01*
X146996547Y-108979074D01*
X146991695Y-108946364D01*
X146990072Y-108913337D01*
X146990072Y-108037249D01*
X146991695Y-108004222D01*
X146996547Y-107971512D01*
X147004581Y-107939436D01*
X147015721Y-107908302D01*
X147029859Y-107878409D01*
X147046859Y-107850046D01*
X147066557Y-107823486D01*
X147088764Y-107798985D01*
X147113265Y-107776778D01*
X147139825Y-107757080D01*
X147168188Y-107740080D01*
X147198081Y-107725942D01*
X147229215Y-107714802D01*
X147261291Y-107706768D01*
X147294001Y-107701916D01*
X147327028Y-107700293D01*
X148453116Y-107700293D01*
X148486143Y-107701916D01*
X148486143Y-107701916D01*
G37*
D14*
X147890072Y-108475293D03*
G04 #@! TD*
D23*
G04 #@! TO.C,C5*
X146995072Y-117265293D03*
X152595072Y-117265293D03*
G04 #@! TD*
D25*
G04 #@! TO.C,J1*
X169480072Y-117265293D03*
D26*
X169480072Y-114725293D03*
X169480072Y-112185293D03*
X169480072Y-109645293D03*
X169480072Y-107105293D03*
X169480072Y-104565293D03*
G04 #@! TD*
D27*
G04 #@! TO.C,U2*
X151700072Y-108435293D03*
D20*
X149795072Y-111135293D03*
X151065072Y-111135293D03*
X152335072Y-111135293D03*
X153605072Y-111135293D03*
X153605072Y-105735293D03*
X152335072Y-105735293D03*
X151065072Y-105735293D03*
X149795072Y-105735293D03*
G04 #@! TD*
M02*
