G04 #@! TF.GenerationSoftware,KiCad,Pcbnew,5.0.0*
G04 #@! TF.CreationDate,2018-10-21T13:37:26+10:00*
G04 #@! TF.ProjectId,driver,6472697665722E6B696361645F706362,rev?*
G04 #@! TF.SameCoordinates,Original*
G04 #@! TF.FileFunction,Copper,L1,Top,Signal*
G04 #@! TF.FilePolarity,Positive*
%FSLAX46Y46*%
G04 Gerber Fmt 4.6, Leading zero omitted, Abs format (unit mm)*
G04 Created by KiCad (PCBNEW 5.0.0) date Sun Oct 21 13:37:26 2018*
%MOMM*%
%LPD*%
G01*
G04 APERTURE LIST*
%ADD10C,0.100000*%
%ADD11C,0.150000*%
%ADD12C,0.300000*%
%ADD13C,0.400000*%
G04 #@! TA.AperFunction,Conductor*
%ADD14C,0.100000*%
G04 #@! TD*
G04 #@! TA.AperFunction,SMDPad,CuDef*
%ADD15C,1.150000*%
G04 #@! TD*
G04 #@! TA.AperFunction,SMDPad,CuDef*
%ADD16R,0.600000X1.500000*%
G04 #@! TD*
G04 #@! TA.AperFunction,ComponentPad*
%ADD17O,1.700000X1.700000*%
G04 #@! TD*
G04 #@! TA.AperFunction,ComponentPad*
%ADD18R,1.700000X1.700000*%
G04 #@! TD*
G04 #@! TA.AperFunction,ComponentPad*
%ADD19C,0.800000*%
G04 #@! TD*
G04 #@! TA.AperFunction,ComponentPad*
%ADD20C,6.000000*%
G04 #@! TD*
G04 #@! TA.AperFunction,SMDPad,CuDef*
%ADD21R,0.600000X1.550000*%
G04 #@! TD*
G04 #@! TA.AperFunction,ComponentPad*
%ADD22R,1.740000X2.200000*%
G04 #@! TD*
G04 #@! TA.AperFunction,ComponentPad*
%ADD23O,1.740000X2.200000*%
G04 #@! TD*
G04 #@! TA.AperFunction,SMDPad,CuDef*
%ADD24R,3.500000X1.600000*%
G04 #@! TD*
G04 #@! TA.AperFunction,SMDPad,CuDef*
%ADD25R,1.600000X3.500000*%
G04 #@! TD*
G04 #@! TA.AperFunction,ComponentPad*
%ADD26R,2.200000X1.740000*%
G04 #@! TD*
G04 #@! TA.AperFunction,ComponentPad*
%ADD27O,2.200000X1.740000*%
G04 #@! TD*
G04 #@! TA.AperFunction,SMDPad,CuDef*
%ADD28R,3.100000X2.600000*%
G04 #@! TD*
G04 #@! TA.AperFunction,Conductor*
%ADD29R,4.500000X2.950000*%
G04 #@! TD*
G04 #@! TA.AperFunction,ViaPad*
%ADD30C,0.600000*%
G04 #@! TD*
G04 #@! TA.AperFunction,ViaPad*
%ADD31C,0.800000*%
G04 #@! TD*
G04 #@! TA.AperFunction,Conductor*
%ADD32C,0.625000*%
G04 #@! TD*
G04 APERTURE END LIST*
D10*
D11*
X177002200Y-166007200D02*
X177002200Y-198007200D01*
X285002200Y-198007200D01*
X285002200Y-166007200D01*
X177002200Y-166007200D01*
D10*
D11*
X10000000Y-10000000D02*
X10000000Y-200007200D01*
X287002200Y-200007200D01*
X287002200Y-10000000D01*
X10000000Y-10000000D01*
D10*
D11*
X12000000Y-12000000D02*
X12000000Y-198007200D01*
X285002200Y-198007200D01*
X285002200Y-12000000D01*
X12000000Y-12000000D01*
D10*
D11*
X60000000Y-12000000D02*
X60000000Y-10000000D01*
D10*
D11*
X110000000Y-12000000D02*
X110000000Y-10000000D01*
D10*
D11*
X160000000Y-12000000D02*
X160000000Y-10000000D01*
D10*
D11*
X210000000Y-12000000D02*
X210000000Y-10000000D01*
D10*
D11*
X260000000Y-12000000D02*
X260000000Y-10000000D01*
D10*
D11*
X36065476Y-11588095D02*
X35322619Y-11588095D01*
X35694047Y-11588095D02*
X35694047Y-10288095D01*
X35570238Y-10473809D01*
X35446428Y-10597619D01*
X35322619Y-10659523D01*
D10*
D11*
X85322619Y-10411904D02*
X85384523Y-10350000D01*
X85508333Y-10288095D01*
X85817857Y-10288095D01*
X85941666Y-10350000D01*
X86003571Y-10411904D01*
X86065476Y-10535714D01*
X86065476Y-10659523D01*
X86003571Y-10845238D01*
X85260714Y-11588095D01*
X86065476Y-11588095D01*
D10*
D11*
X135260714Y-10288095D02*
X136065476Y-10288095D01*
X135632142Y-10783333D01*
X135817857Y-10783333D01*
X135941666Y-10845238D01*
X136003571Y-10907142D01*
X136065476Y-11030952D01*
X136065476Y-11340476D01*
X136003571Y-11464285D01*
X135941666Y-11526190D01*
X135817857Y-11588095D01*
X135446428Y-11588095D01*
X135322619Y-11526190D01*
X135260714Y-11464285D01*
D10*
D11*
X185941666Y-10721428D02*
X185941666Y-11588095D01*
X185632142Y-10226190D02*
X185322619Y-11154761D01*
X186127380Y-11154761D01*
D10*
D11*
X236003571Y-10288095D02*
X235384523Y-10288095D01*
X235322619Y-10907142D01*
X235384523Y-10845238D01*
X235508333Y-10783333D01*
X235817857Y-10783333D01*
X235941666Y-10845238D01*
X236003571Y-10907142D01*
X236065476Y-11030952D01*
X236065476Y-11340476D01*
X236003571Y-11464285D01*
X235941666Y-11526190D01*
X235817857Y-11588095D01*
X235508333Y-11588095D01*
X235384523Y-11526190D01*
X235322619Y-11464285D01*
D10*
D11*
X285941666Y-10288095D02*
X285694047Y-10288095D01*
X285570238Y-10350000D01*
X285508333Y-10411904D01*
X285384523Y-10597619D01*
X285322619Y-10845238D01*
X285322619Y-11340476D01*
X285384523Y-11464285D01*
X285446428Y-11526190D01*
X285570238Y-11588095D01*
X285817857Y-11588095D01*
X285941666Y-11526190D01*
X286003571Y-11464285D01*
X286065476Y-11340476D01*
X286065476Y-11030952D01*
X286003571Y-10907142D01*
X285941666Y-10845238D01*
X285817857Y-10783333D01*
X285570238Y-10783333D01*
X285446428Y-10845238D01*
X285384523Y-10907142D01*
X285322619Y-11030952D01*
D10*
D11*
X60000000Y-198007200D02*
X60000000Y-200007200D01*
D10*
D11*
X110000000Y-198007200D02*
X110000000Y-200007200D01*
D10*
D11*
X160000000Y-198007200D02*
X160000000Y-200007200D01*
D10*
D11*
X210000000Y-198007200D02*
X210000000Y-200007200D01*
D10*
D11*
X260000000Y-198007200D02*
X260000000Y-200007200D01*
D10*
D11*
X36065476Y-199595295D02*
X35322619Y-199595295D01*
X35694047Y-199595295D02*
X35694047Y-198295295D01*
X35570238Y-198481009D01*
X35446428Y-198604819D01*
X35322619Y-198666723D01*
D10*
D11*
X85322619Y-198419104D02*
X85384523Y-198357200D01*
X85508333Y-198295295D01*
X85817857Y-198295295D01*
X85941666Y-198357200D01*
X86003571Y-198419104D01*
X86065476Y-198542914D01*
X86065476Y-198666723D01*
X86003571Y-198852438D01*
X85260714Y-199595295D01*
X86065476Y-199595295D01*
D10*
D11*
X135260714Y-198295295D02*
X136065476Y-198295295D01*
X135632142Y-198790533D01*
X135817857Y-198790533D01*
X135941666Y-198852438D01*
X136003571Y-198914342D01*
X136065476Y-199038152D01*
X136065476Y-199347676D01*
X136003571Y-199471485D01*
X135941666Y-199533390D01*
X135817857Y-199595295D01*
X135446428Y-199595295D01*
X135322619Y-199533390D01*
X135260714Y-199471485D01*
D10*
D11*
X185941666Y-198728628D02*
X185941666Y-199595295D01*
X185632142Y-198233390D02*
X185322619Y-199161961D01*
X186127380Y-199161961D01*
D10*
D11*
X236003571Y-198295295D02*
X235384523Y-198295295D01*
X235322619Y-198914342D01*
X235384523Y-198852438D01*
X235508333Y-198790533D01*
X235817857Y-198790533D01*
X235941666Y-198852438D01*
X236003571Y-198914342D01*
X236065476Y-199038152D01*
X236065476Y-199347676D01*
X236003571Y-199471485D01*
X235941666Y-199533390D01*
X235817857Y-199595295D01*
X235508333Y-199595295D01*
X235384523Y-199533390D01*
X235322619Y-199471485D01*
D10*
D11*
X285941666Y-198295295D02*
X285694047Y-198295295D01*
X285570238Y-198357200D01*
X285508333Y-198419104D01*
X285384523Y-198604819D01*
X285322619Y-198852438D01*
X285322619Y-199347676D01*
X285384523Y-199471485D01*
X285446428Y-199533390D01*
X285570238Y-199595295D01*
X285817857Y-199595295D01*
X285941666Y-199533390D01*
X286003571Y-199471485D01*
X286065476Y-199347676D01*
X286065476Y-199038152D01*
X286003571Y-198914342D01*
X285941666Y-198852438D01*
X285817857Y-198790533D01*
X285570238Y-198790533D01*
X285446428Y-198852438D01*
X285384523Y-198914342D01*
X285322619Y-199038152D01*
D10*
D11*
X10000000Y-60000000D02*
X12000000Y-60000000D01*
D10*
D11*
X10000000Y-110000000D02*
X12000000Y-110000000D01*
D10*
D11*
X10000000Y-160000000D02*
X12000000Y-160000000D01*
D10*
D11*
X10690476Y-35216666D02*
X11309523Y-35216666D01*
X10566666Y-35588095D02*
X11000000Y-34288095D01*
X11433333Y-35588095D01*
D10*
D11*
X11092857Y-84907142D02*
X11278571Y-84969047D01*
X11340476Y-85030952D01*
X11402380Y-85154761D01*
X11402380Y-85340476D01*
X11340476Y-85464285D01*
X11278571Y-85526190D01*
X11154761Y-85588095D01*
X10659523Y-85588095D01*
X10659523Y-84288095D01*
X11092857Y-84288095D01*
X11216666Y-84350000D01*
X11278571Y-84411904D01*
X11340476Y-84535714D01*
X11340476Y-84659523D01*
X11278571Y-84783333D01*
X11216666Y-84845238D01*
X11092857Y-84907142D01*
X10659523Y-84907142D01*
D10*
D11*
X11402380Y-135464285D02*
X11340476Y-135526190D01*
X11154761Y-135588095D01*
X11030952Y-135588095D01*
X10845238Y-135526190D01*
X10721428Y-135402380D01*
X10659523Y-135278571D01*
X10597619Y-135030952D01*
X10597619Y-134845238D01*
X10659523Y-134597619D01*
X10721428Y-134473809D01*
X10845238Y-134350000D01*
X11030952Y-134288095D01*
X11154761Y-134288095D01*
X11340476Y-134350000D01*
X11402380Y-134411904D01*
D10*
D11*
X10659523Y-185588095D02*
X10659523Y-184288095D01*
X10969047Y-184288095D01*
X11154761Y-184350000D01*
X11278571Y-184473809D01*
X11340476Y-184597619D01*
X11402380Y-184845238D01*
X11402380Y-185030952D01*
X11340476Y-185278571D01*
X11278571Y-185402380D01*
X11154761Y-185526190D01*
X10969047Y-185588095D01*
X10659523Y-185588095D01*
D10*
D11*
X287002200Y-60000000D02*
X285002200Y-60000000D01*
D10*
D11*
X287002200Y-110000000D02*
X285002200Y-110000000D01*
D10*
D11*
X287002200Y-160000000D02*
X285002200Y-160000000D01*
D10*
D11*
X285692676Y-35216666D02*
X286311723Y-35216666D01*
X285568866Y-35588095D02*
X286002200Y-34288095D01*
X286435533Y-35588095D01*
D10*
D11*
X286095057Y-84907142D02*
X286280771Y-84969047D01*
X286342676Y-85030952D01*
X286404580Y-85154761D01*
X286404580Y-85340476D01*
X286342676Y-85464285D01*
X286280771Y-85526190D01*
X286156961Y-85588095D01*
X285661723Y-85588095D01*
X285661723Y-84288095D01*
X286095057Y-84288095D01*
X286218866Y-84350000D01*
X286280771Y-84411904D01*
X286342676Y-84535714D01*
X286342676Y-84659523D01*
X286280771Y-84783333D01*
X286218866Y-84845238D01*
X286095057Y-84907142D01*
X285661723Y-84907142D01*
D10*
D11*
X286404580Y-135464285D02*
X286342676Y-135526190D01*
X286156961Y-135588095D01*
X286033152Y-135588095D01*
X285847438Y-135526190D01*
X285723628Y-135402380D01*
X285661723Y-135278571D01*
X285599819Y-135030952D01*
X285599819Y-134845238D01*
X285661723Y-134597619D01*
X285723628Y-134473809D01*
X285847438Y-134350000D01*
X286033152Y-134288095D01*
X286156961Y-134288095D01*
X286342676Y-134350000D01*
X286404580Y-134411904D01*
D10*
D11*
X285661723Y-185588095D02*
X285661723Y-184288095D01*
X285971247Y-184288095D01*
X286156961Y-184350000D01*
X286280771Y-184473809D01*
X286342676Y-184597619D01*
X286404580Y-184845238D01*
X286404580Y-185030952D01*
X286342676Y-185278571D01*
X286280771Y-185402380D01*
X286156961Y-185526190D01*
X285971247Y-185588095D01*
X285661723Y-185588095D01*
D10*
D11*
X200434342Y-193785771D02*
X200434342Y-192285771D01*
X200791485Y-192285771D01*
X201005771Y-192357200D01*
X201148628Y-192500057D01*
X201220057Y-192642914D01*
X201291485Y-192928628D01*
X201291485Y-193142914D01*
X201220057Y-193428628D01*
X201148628Y-193571485D01*
X201005771Y-193714342D01*
X200791485Y-193785771D01*
X200434342Y-193785771D01*
X202577200Y-193785771D02*
X202577200Y-193000057D01*
X202505771Y-192857200D01*
X202362914Y-192785771D01*
X202077200Y-192785771D01*
X201934342Y-192857200D01*
X202577200Y-193714342D02*
X202434342Y-193785771D01*
X202077200Y-193785771D01*
X201934342Y-193714342D01*
X201862914Y-193571485D01*
X201862914Y-193428628D01*
X201934342Y-193285771D01*
X202077200Y-193214342D01*
X202434342Y-193214342D01*
X202577200Y-193142914D01*
X203077200Y-192785771D02*
X203648628Y-192785771D01*
X203291485Y-192285771D02*
X203291485Y-193571485D01*
X203362914Y-193714342D01*
X203505771Y-193785771D01*
X203648628Y-193785771D01*
X204720057Y-193714342D02*
X204577200Y-193785771D01*
X204291485Y-193785771D01*
X204148628Y-193714342D01*
X204077200Y-193571485D01*
X204077200Y-193000057D01*
X204148628Y-192857200D01*
X204291485Y-192785771D01*
X204577200Y-192785771D01*
X204720057Y-192857200D01*
X204791485Y-193000057D01*
X204791485Y-193142914D01*
X204077200Y-193285771D01*
X205434342Y-193642914D02*
X205505771Y-193714342D01*
X205434342Y-193785771D01*
X205362914Y-193714342D01*
X205434342Y-193642914D01*
X205434342Y-193785771D01*
X205434342Y-192857200D02*
X205505771Y-192928628D01*
X205434342Y-193000057D01*
X205362914Y-192928628D01*
X205434342Y-192857200D01*
X205434342Y-193000057D01*
D10*
D11*
X177002200Y-194507200D02*
X285002200Y-194507200D01*
D10*
D11*
X178434342Y-196585771D02*
X178434342Y-195085771D01*
X179291485Y-196585771D02*
X178648628Y-195728628D01*
X179291485Y-195085771D02*
X178434342Y-195942914D01*
X179934342Y-196585771D02*
X179934342Y-195585771D01*
X179934342Y-195085771D02*
X179862914Y-195157200D01*
X179934342Y-195228628D01*
X180005771Y-195157200D01*
X179934342Y-195085771D01*
X179934342Y-195228628D01*
X181505771Y-196442914D02*
X181434342Y-196514342D01*
X181220057Y-196585771D01*
X181077200Y-196585771D01*
X180862914Y-196514342D01*
X180720057Y-196371485D01*
X180648628Y-196228628D01*
X180577200Y-195942914D01*
X180577200Y-195728628D01*
X180648628Y-195442914D01*
X180720057Y-195300057D01*
X180862914Y-195157200D01*
X181077200Y-195085771D01*
X181220057Y-195085771D01*
X181434342Y-195157200D01*
X181505771Y-195228628D01*
X182791485Y-196585771D02*
X182791485Y-195800057D01*
X182720057Y-195657200D01*
X182577200Y-195585771D01*
X182291485Y-195585771D01*
X182148628Y-195657200D01*
X182791485Y-196514342D02*
X182648628Y-196585771D01*
X182291485Y-196585771D01*
X182148628Y-196514342D01*
X182077200Y-196371485D01*
X182077200Y-196228628D01*
X182148628Y-196085771D01*
X182291485Y-196014342D01*
X182648628Y-196014342D01*
X182791485Y-195942914D01*
X184148628Y-196585771D02*
X184148628Y-195085771D01*
X184148628Y-196514342D02*
X184005771Y-196585771D01*
X183720057Y-196585771D01*
X183577200Y-196514342D01*
X183505771Y-196442914D01*
X183434342Y-196300057D01*
X183434342Y-195871485D01*
X183505771Y-195728628D01*
X183577200Y-195657200D01*
X183720057Y-195585771D01*
X184005771Y-195585771D01*
X184148628Y-195657200D01*
X186005771Y-195800057D02*
X186505771Y-195800057D01*
X186720057Y-196585771D02*
X186005771Y-196585771D01*
X186005771Y-195085771D01*
X186720057Y-195085771D01*
X187362914Y-196442914D02*
X187434342Y-196514342D01*
X187362914Y-196585771D01*
X187291485Y-196514342D01*
X187362914Y-196442914D01*
X187362914Y-196585771D01*
X188077200Y-196585771D02*
X188077200Y-195085771D01*
X188434342Y-195085771D01*
X188648628Y-195157200D01*
X188791485Y-195300057D01*
X188862914Y-195442914D01*
X188934342Y-195728628D01*
X188934342Y-195942914D01*
X188862914Y-196228628D01*
X188791485Y-196371485D01*
X188648628Y-196514342D01*
X188434342Y-196585771D01*
X188077200Y-196585771D01*
X189577200Y-196442914D02*
X189648628Y-196514342D01*
X189577200Y-196585771D01*
X189505771Y-196514342D01*
X189577200Y-196442914D01*
X189577200Y-196585771D01*
X190220057Y-196157200D02*
X190934342Y-196157200D01*
X190077200Y-196585771D02*
X190577200Y-195085771D01*
X191077200Y-196585771D01*
X191577200Y-196442914D02*
X191648628Y-196514342D01*
X191577200Y-196585771D01*
X191505771Y-196514342D01*
X191577200Y-196442914D01*
X191577200Y-196585771D01*
X194577200Y-196585771D02*
X194577200Y-195085771D01*
X194720057Y-196014342D02*
X195148628Y-196585771D01*
X195148628Y-195585771D02*
X194577200Y-196157200D01*
X195791485Y-196585771D02*
X195791485Y-195585771D01*
X195791485Y-195085771D02*
X195720057Y-195157200D01*
X195791485Y-195228628D01*
X195862914Y-195157200D01*
X195791485Y-195085771D01*
X195791485Y-195228628D01*
X197148628Y-196514342D02*
X197005771Y-196585771D01*
X196720057Y-196585771D01*
X196577200Y-196514342D01*
X196505771Y-196442914D01*
X196434342Y-196300057D01*
X196434342Y-195871485D01*
X196505771Y-195728628D01*
X196577200Y-195657200D01*
X196720057Y-195585771D01*
X197005771Y-195585771D01*
X197148628Y-195657200D01*
X198434342Y-196585771D02*
X198434342Y-195800057D01*
X198362914Y-195657200D01*
X198220057Y-195585771D01*
X197934342Y-195585771D01*
X197791485Y-195657200D01*
X198434342Y-196514342D02*
X198291485Y-196585771D01*
X197934342Y-196585771D01*
X197791485Y-196514342D01*
X197720057Y-196371485D01*
X197720057Y-196228628D01*
X197791485Y-196085771D01*
X197934342Y-196014342D01*
X198291485Y-196014342D01*
X198434342Y-195942914D01*
X199791485Y-196585771D02*
X199791485Y-195085771D01*
X199791485Y-196514342D02*
X199648628Y-196585771D01*
X199362914Y-196585771D01*
X199220057Y-196514342D01*
X199148628Y-196442914D01*
X199077200Y-196300057D01*
X199077200Y-195871485D01*
X199148628Y-195728628D01*
X199220057Y-195657200D01*
X199362914Y-195585771D01*
X199648628Y-195585771D01*
X199791485Y-195657200D01*
X202362914Y-195085771D02*
X201648628Y-195085771D01*
X201577200Y-195800057D01*
X201648628Y-195728628D01*
X201791485Y-195657200D01*
X202148628Y-195657200D01*
X202291485Y-195728628D01*
X202362914Y-195800057D01*
X202434342Y-195942914D01*
X202434342Y-196300057D01*
X202362914Y-196442914D01*
X202291485Y-196514342D01*
X202148628Y-196585771D01*
X201791485Y-196585771D01*
X201648628Y-196514342D01*
X201577200Y-196442914D01*
X203077200Y-196442914D02*
X203148628Y-196514342D01*
X203077200Y-196585771D01*
X203005771Y-196514342D01*
X203077200Y-196442914D01*
X203077200Y-196585771D01*
X204077200Y-195085771D02*
X204220057Y-195085771D01*
X204362914Y-195157200D01*
X204434342Y-195228628D01*
X204505771Y-195371485D01*
X204577200Y-195657200D01*
X204577200Y-196014342D01*
X204505771Y-196300057D01*
X204434342Y-196442914D01*
X204362914Y-196514342D01*
X204220057Y-196585771D01*
X204077200Y-196585771D01*
X203934342Y-196514342D01*
X203862914Y-196442914D01*
X203791485Y-196300057D01*
X203720057Y-196014342D01*
X203720057Y-195657200D01*
X203791485Y-195371485D01*
X203862914Y-195228628D01*
X203934342Y-195157200D01*
X204077200Y-195085771D01*
X205220057Y-196442914D02*
X205291485Y-196514342D01*
X205220057Y-196585771D01*
X205148628Y-196514342D01*
X205220057Y-196442914D01*
X205220057Y-196585771D01*
X206220057Y-195085771D02*
X206362914Y-195085771D01*
X206505771Y-195157200D01*
X206577200Y-195228628D01*
X206648628Y-195371485D01*
X206720057Y-195657200D01*
X206720057Y-196014342D01*
X206648628Y-196300057D01*
X206577200Y-196442914D01*
X206505771Y-196514342D01*
X206362914Y-196585771D01*
X206220057Y-196585771D01*
X206077200Y-196514342D01*
X206005771Y-196442914D01*
X205934342Y-196300057D01*
X205862914Y-196014342D01*
X205862914Y-195657200D01*
X205934342Y-195371485D01*
X206005771Y-195228628D01*
X206077200Y-195157200D01*
X206220057Y-195085771D01*
D10*
D11*
X177002200Y-191507200D02*
X285002200Y-191507200D01*
D10*
D12*
X264411485Y-193785771D02*
X263911485Y-193071485D01*
X263554342Y-193785771D02*
X263554342Y-192285771D01*
X264125771Y-192285771D01*
X264268628Y-192357200D01*
X264340057Y-192428628D01*
X264411485Y-192571485D01*
X264411485Y-192785771D01*
X264340057Y-192928628D01*
X264268628Y-193000057D01*
X264125771Y-193071485D01*
X263554342Y-193071485D01*
X265625771Y-193714342D02*
X265482914Y-193785771D01*
X265197200Y-193785771D01*
X265054342Y-193714342D01*
X264982914Y-193571485D01*
X264982914Y-193000057D01*
X265054342Y-192857200D01*
X265197200Y-192785771D01*
X265482914Y-192785771D01*
X265625771Y-192857200D01*
X265697200Y-193000057D01*
X265697200Y-193142914D01*
X264982914Y-193285771D01*
X266197200Y-192785771D02*
X266554342Y-193785771D01*
X266911485Y-192785771D01*
X267482914Y-193642914D02*
X267554342Y-193714342D01*
X267482914Y-193785771D01*
X267411485Y-193714342D01*
X267482914Y-193642914D01*
X267482914Y-193785771D01*
X267482914Y-192857200D02*
X267554342Y-192928628D01*
X267482914Y-193000057D01*
X267411485Y-192928628D01*
X267482914Y-192857200D01*
X267482914Y-193000057D01*
D10*
D11*
X178362914Y-193714342D02*
X178577200Y-193785771D01*
X178934342Y-193785771D01*
X179077200Y-193714342D01*
X179148628Y-193642914D01*
X179220057Y-193500057D01*
X179220057Y-193357200D01*
X179148628Y-193214342D01*
X179077200Y-193142914D01*
X178934342Y-193071485D01*
X178648628Y-193000057D01*
X178505771Y-192928628D01*
X178434342Y-192857200D01*
X178362914Y-192714342D01*
X178362914Y-192571485D01*
X178434342Y-192428628D01*
X178505771Y-192357200D01*
X178648628Y-192285771D01*
X179005771Y-192285771D01*
X179220057Y-192357200D01*
X179862914Y-193785771D02*
X179862914Y-192785771D01*
X179862914Y-192285771D02*
X179791485Y-192357200D01*
X179862914Y-192428628D01*
X179934342Y-192357200D01*
X179862914Y-192285771D01*
X179862914Y-192428628D01*
X180434342Y-192785771D02*
X181220057Y-192785771D01*
X180434342Y-193785771D01*
X181220057Y-193785771D01*
X182362914Y-193714342D02*
X182220057Y-193785771D01*
X181934342Y-193785771D01*
X181791485Y-193714342D01*
X181720057Y-193571485D01*
X181720057Y-193000057D01*
X181791485Y-192857200D01*
X181934342Y-192785771D01*
X182220057Y-192785771D01*
X182362914Y-192857200D01*
X182434342Y-193000057D01*
X182434342Y-193142914D01*
X181720057Y-193285771D01*
X183077200Y-193642914D02*
X183148628Y-193714342D01*
X183077200Y-193785771D01*
X183005771Y-193714342D01*
X183077200Y-193642914D01*
X183077200Y-193785771D01*
X183077200Y-192857200D02*
X183148628Y-192928628D01*
X183077200Y-193000057D01*
X183005771Y-192928628D01*
X183077200Y-192857200D01*
X183077200Y-193000057D01*
X184862914Y-193357200D02*
X185577200Y-193357200D01*
X184720057Y-193785771D02*
X185220057Y-192285771D01*
X185720057Y-193785771D01*
X186862914Y-192785771D02*
X186862914Y-193785771D01*
X186505771Y-192214342D02*
X186148628Y-193285771D01*
X187077200Y-193285771D01*
D10*
D11*
X263434342Y-196585771D02*
X263434342Y-195085771D01*
X264791485Y-196585771D02*
X264791485Y-195085771D01*
X264791485Y-196514342D02*
X264648628Y-196585771D01*
X264362914Y-196585771D01*
X264220057Y-196514342D01*
X264148628Y-196442914D01*
X264077200Y-196300057D01*
X264077200Y-195871485D01*
X264148628Y-195728628D01*
X264220057Y-195657200D01*
X264362914Y-195585771D01*
X264648628Y-195585771D01*
X264791485Y-195657200D01*
X265505771Y-196442914D02*
X265577200Y-196514342D01*
X265505771Y-196585771D01*
X265434342Y-196514342D01*
X265505771Y-196442914D01*
X265505771Y-196585771D01*
X265505771Y-195657200D02*
X265577200Y-195728628D01*
X265505771Y-195800057D01*
X265434342Y-195728628D01*
X265505771Y-195657200D01*
X265505771Y-195800057D01*
X268148628Y-196585771D02*
X267291485Y-196585771D01*
X267720057Y-196585771D02*
X267720057Y-195085771D01*
X267577200Y-195300057D01*
X267434342Y-195442914D01*
X267291485Y-195514342D01*
X269862914Y-195014342D02*
X268577200Y-196942914D01*
X271148628Y-196585771D02*
X270291485Y-196585771D01*
X270720057Y-196585771D02*
X270720057Y-195085771D01*
X270577200Y-195300057D01*
X270434342Y-195442914D01*
X270291485Y-195514342D01*
D10*
D11*
X177002200Y-187507200D02*
X285002200Y-187507200D01*
D10*
D13*
X178714580Y-188211961D02*
X179857438Y-188211961D01*
X179036009Y-190211961D02*
X179286009Y-188211961D01*
X180274104Y-190211961D02*
X180440771Y-188878628D01*
X180524104Y-188211961D02*
X180416961Y-188307200D01*
X180500295Y-188402438D01*
X180607438Y-188307200D01*
X180524104Y-188211961D01*
X180500295Y-188402438D01*
X181107438Y-188878628D02*
X181869342Y-188878628D01*
X181476485Y-188211961D02*
X181262200Y-189926247D01*
X181333628Y-190116723D01*
X181512200Y-190211961D01*
X181702676Y-190211961D01*
X182655057Y-190211961D02*
X182476485Y-190116723D01*
X182405057Y-189926247D01*
X182619342Y-188211961D01*
X184190771Y-190116723D02*
X183988390Y-190211961D01*
X183607438Y-190211961D01*
X183428866Y-190116723D01*
X183357438Y-189926247D01*
X183452676Y-189164342D01*
X183571723Y-188973866D01*
X183774104Y-188878628D01*
X184155057Y-188878628D01*
X184333628Y-188973866D01*
X184405057Y-189164342D01*
X184381247Y-189354819D01*
X183405057Y-189545295D01*
X185155057Y-190021485D02*
X185238390Y-190116723D01*
X185131247Y-190211961D01*
X185047914Y-190116723D01*
X185155057Y-190021485D01*
X185131247Y-190211961D01*
X185286009Y-188973866D02*
X185369342Y-189069104D01*
X185262200Y-189164342D01*
X185178866Y-189069104D01*
X185286009Y-188973866D01*
X185262200Y-189164342D01*
D10*
D11*
X178934342Y-185600057D02*
X178434342Y-185600057D01*
X178434342Y-186385771D02*
X178434342Y-184885771D01*
X179148628Y-184885771D01*
X179720057Y-186385771D02*
X179720057Y-185385771D01*
X179720057Y-184885771D02*
X179648628Y-184957200D01*
X179720057Y-185028628D01*
X179791485Y-184957200D01*
X179720057Y-184885771D01*
X179720057Y-185028628D01*
X180648628Y-186385771D02*
X180505771Y-186314342D01*
X180434342Y-186171485D01*
X180434342Y-184885771D01*
X181791485Y-186314342D02*
X181648628Y-186385771D01*
X181362914Y-186385771D01*
X181220057Y-186314342D01*
X181148628Y-186171485D01*
X181148628Y-185600057D01*
X181220057Y-185457200D01*
X181362914Y-185385771D01*
X181648628Y-185385771D01*
X181791485Y-185457200D01*
X181862914Y-185600057D01*
X181862914Y-185742914D01*
X181148628Y-185885771D01*
X182505771Y-186242914D02*
X182577200Y-186314342D01*
X182505771Y-186385771D01*
X182434342Y-186314342D01*
X182505771Y-186242914D01*
X182505771Y-186385771D01*
X182505771Y-185457200D02*
X182577200Y-185528628D01*
X182505771Y-185600057D01*
X182434342Y-185528628D01*
X182505771Y-185457200D01*
X182505771Y-185600057D01*
X185005771Y-186385771D02*
X185005771Y-184885771D01*
X185005771Y-186314342D02*
X184862914Y-186385771D01*
X184577200Y-186385771D01*
X184434342Y-186314342D01*
X184362914Y-186242914D01*
X184291485Y-186100057D01*
X184291485Y-185671485D01*
X184362914Y-185528628D01*
X184434342Y-185457200D01*
X184577200Y-185385771D01*
X184862914Y-185385771D01*
X185005771Y-185457200D01*
X185720057Y-186385771D02*
X185720057Y-185385771D01*
X185720057Y-185671485D02*
X185791485Y-185528628D01*
X185862914Y-185457200D01*
X186005771Y-185385771D01*
X186148628Y-185385771D01*
X186648628Y-186385771D02*
X186648628Y-185385771D01*
X186648628Y-184885771D02*
X186577200Y-184957200D01*
X186648628Y-185028628D01*
X186720057Y-184957200D01*
X186648628Y-184885771D01*
X186648628Y-185028628D01*
X187220057Y-185385771D02*
X187577200Y-186385771D01*
X187934342Y-185385771D01*
X189077200Y-186314342D02*
X188934342Y-186385771D01*
X188648628Y-186385771D01*
X188505771Y-186314342D01*
X188434342Y-186171485D01*
X188434342Y-185600057D01*
X188505771Y-185457200D01*
X188648628Y-185385771D01*
X188934342Y-185385771D01*
X189077200Y-185457200D01*
X189148628Y-185600057D01*
X189148628Y-185742914D01*
X188434342Y-185885771D01*
X189791485Y-186385771D02*
X189791485Y-185385771D01*
X189791485Y-185671485D02*
X189862914Y-185528628D01*
X189934342Y-185457200D01*
X190077200Y-185385771D01*
X190220057Y-185385771D01*
X190720057Y-186242914D02*
X190791485Y-186314342D01*
X190720057Y-186385771D01*
X190648628Y-186314342D01*
X190720057Y-186242914D01*
X190720057Y-186385771D01*
X191434342Y-186385771D02*
X191434342Y-184885771D01*
X191577200Y-185814342D02*
X192005771Y-186385771D01*
X192005771Y-185385771D02*
X191434342Y-185957200D01*
X192648628Y-186385771D02*
X192648628Y-185385771D01*
X192648628Y-184885771D02*
X192577200Y-184957200D01*
X192648628Y-185028628D01*
X192720057Y-184957200D01*
X192648628Y-184885771D01*
X192648628Y-185028628D01*
X194005771Y-186314342D02*
X193862914Y-186385771D01*
X193577200Y-186385771D01*
X193434342Y-186314342D01*
X193362914Y-186242914D01*
X193291485Y-186100057D01*
X193291485Y-185671485D01*
X193362914Y-185528628D01*
X193434342Y-185457200D01*
X193577200Y-185385771D01*
X193862914Y-185385771D01*
X194005771Y-185457200D01*
X195291485Y-186385771D02*
X195291485Y-185600057D01*
X195220057Y-185457200D01*
X195077200Y-185385771D01*
X194791485Y-185385771D01*
X194648628Y-185457200D01*
X195291485Y-186314342D02*
X195148628Y-186385771D01*
X194791485Y-186385771D01*
X194648628Y-186314342D01*
X194577200Y-186171485D01*
X194577200Y-186028628D01*
X194648628Y-185885771D01*
X194791485Y-185814342D01*
X195148628Y-185814342D01*
X195291485Y-185742914D01*
X196648628Y-186385771D02*
X196648628Y-184885771D01*
X196648628Y-186314342D02*
X196505771Y-186385771D01*
X196220057Y-186385771D01*
X196077200Y-186314342D01*
X196005771Y-186242914D01*
X195934342Y-186100057D01*
X195934342Y-185671485D01*
X196005771Y-185528628D01*
X196077200Y-185457200D01*
X196220057Y-185385771D01*
X196505771Y-185385771D01*
X196648628Y-185457200D01*
X197005771Y-186528628D02*
X198148628Y-186528628D01*
X198505771Y-185385771D02*
X198505771Y-186885771D01*
X198505771Y-185457200D02*
X198648628Y-185385771D01*
X198934342Y-185385771D01*
X199077200Y-185457200D01*
X199148628Y-185528628D01*
X199220057Y-185671485D01*
X199220057Y-186100057D01*
X199148628Y-186242914D01*
X199077200Y-186314342D01*
X198934342Y-186385771D01*
X198648628Y-186385771D01*
X198505771Y-186314342D01*
X200505771Y-186314342D02*
X200362914Y-186385771D01*
X200077200Y-186385771D01*
X199934342Y-186314342D01*
X199862914Y-186242914D01*
X199791485Y-186100057D01*
X199791485Y-185671485D01*
X199862914Y-185528628D01*
X199934342Y-185457200D01*
X200077200Y-185385771D01*
X200362914Y-185385771D01*
X200505771Y-185457200D01*
X201148628Y-186385771D02*
X201148628Y-184885771D01*
X201148628Y-185457200D02*
X201291485Y-185385771D01*
X201577200Y-185385771D01*
X201720057Y-185457200D01*
X201791485Y-185528628D01*
X201862914Y-185671485D01*
X201862914Y-186100057D01*
X201791485Y-186242914D01*
X201720057Y-186314342D01*
X201577200Y-186385771D01*
X201291485Y-186385771D01*
X201148628Y-186314342D01*
D10*
D11*
X177002200Y-181507200D02*
X285002200Y-181507200D01*
D10*
D11*
X178362914Y-183614342D02*
X178577200Y-183685771D01*
X178934342Y-183685771D01*
X179077200Y-183614342D01*
X179148628Y-183542914D01*
X179220057Y-183400057D01*
X179220057Y-183257200D01*
X179148628Y-183114342D01*
X179077200Y-183042914D01*
X178934342Y-182971485D01*
X178648628Y-182900057D01*
X178505771Y-182828628D01*
X178434342Y-182757200D01*
X178362914Y-182614342D01*
X178362914Y-182471485D01*
X178434342Y-182328628D01*
X178505771Y-182257200D01*
X178648628Y-182185771D01*
X179005771Y-182185771D01*
X179220057Y-182257200D01*
X179862914Y-183685771D02*
X179862914Y-182185771D01*
X180505771Y-183685771D02*
X180505771Y-182900057D01*
X180434342Y-182757200D01*
X180291485Y-182685771D01*
X180077200Y-182685771D01*
X179934342Y-182757200D01*
X179862914Y-182828628D01*
X181791485Y-183614342D02*
X181648628Y-183685771D01*
X181362914Y-183685771D01*
X181220057Y-183614342D01*
X181148628Y-183471485D01*
X181148628Y-182900057D01*
X181220057Y-182757200D01*
X181362914Y-182685771D01*
X181648628Y-182685771D01*
X181791485Y-182757200D01*
X181862914Y-182900057D01*
X181862914Y-183042914D01*
X181148628Y-183185771D01*
X183077200Y-183614342D02*
X182934342Y-183685771D01*
X182648628Y-183685771D01*
X182505771Y-183614342D01*
X182434342Y-183471485D01*
X182434342Y-182900057D01*
X182505771Y-182757200D01*
X182648628Y-182685771D01*
X182934342Y-182685771D01*
X183077200Y-182757200D01*
X183148628Y-182900057D01*
X183148628Y-183042914D01*
X182434342Y-183185771D01*
X183577200Y-182685771D02*
X184148628Y-182685771D01*
X183791485Y-182185771D02*
X183791485Y-183471485D01*
X183862914Y-183614342D01*
X184005771Y-183685771D01*
X184148628Y-183685771D01*
X184648628Y-183542914D02*
X184720057Y-183614342D01*
X184648628Y-183685771D01*
X184577200Y-183614342D01*
X184648628Y-183542914D01*
X184648628Y-183685771D01*
X184648628Y-182757200D02*
X184720057Y-182828628D01*
X184648628Y-182900057D01*
X184577200Y-182828628D01*
X184648628Y-182757200D01*
X184648628Y-182900057D01*
D10*
D11*
X197002200Y-191507200D02*
X197002200Y-194507200D01*
D10*
D11*
X261002200Y-191507200D02*
X261002200Y-198007200D01*
D14*
G04 #@! TO.N,+5V*
G04 #@! TO.C,C10*
G36*
X154749505Y-93141204D02*
X154773773Y-93144804D01*
X154797572Y-93150765D01*
X154820671Y-93159030D01*
X154842850Y-93169520D01*
X154863893Y-93182132D01*
X154883599Y-93196747D01*
X154901777Y-93213223D01*
X154918253Y-93231401D01*
X154932868Y-93251107D01*
X154945480Y-93272150D01*
X154955970Y-93294329D01*
X154964235Y-93317428D01*
X154970196Y-93341227D01*
X154973796Y-93365495D01*
X154975000Y-93389999D01*
X154975000Y-94290001D01*
X154973796Y-94314505D01*
X154970196Y-94338773D01*
X154964235Y-94362572D01*
X154955970Y-94385671D01*
X154945480Y-94407850D01*
X154932868Y-94428893D01*
X154918253Y-94448599D01*
X154901777Y-94466777D01*
X154883599Y-94483253D01*
X154863893Y-94497868D01*
X154842850Y-94510480D01*
X154820671Y-94520970D01*
X154797572Y-94529235D01*
X154773773Y-94535196D01*
X154749505Y-94538796D01*
X154725001Y-94540000D01*
X154074999Y-94540000D01*
X154050495Y-94538796D01*
X154026227Y-94535196D01*
X154002428Y-94529235D01*
X153979329Y-94520970D01*
X153957150Y-94510480D01*
X153936107Y-94497868D01*
X153916401Y-94483253D01*
X153898223Y-94466777D01*
X153881747Y-94448599D01*
X153867132Y-94428893D01*
X153854520Y-94407850D01*
X153844030Y-94385671D01*
X153835765Y-94362572D01*
X153829804Y-94338773D01*
X153826204Y-94314505D01*
X153825000Y-94290001D01*
X153825000Y-93389999D01*
X153826204Y-93365495D01*
X153829804Y-93341227D01*
X153835765Y-93317428D01*
X153844030Y-93294329D01*
X153854520Y-93272150D01*
X153867132Y-93251107D01*
X153881747Y-93231401D01*
X153898223Y-93213223D01*
X153916401Y-93196747D01*
X153936107Y-93182132D01*
X153957150Y-93169520D01*
X153979329Y-93159030D01*
X154002428Y-93150765D01*
X154026227Y-93144804D01*
X154050495Y-93141204D01*
X154074999Y-93140000D01*
X154725001Y-93140000D01*
X154749505Y-93141204D01*
X154749505Y-93141204D01*
G37*
D15*
G04 #@! TD*
G04 #@! TO.P,C10,1*
G04 #@! TO.N,+5V*
X154400000Y-93840000D03*
D14*
G04 #@! TO.N,GND*
G04 #@! TO.C,C10*
G36*
X152699505Y-93141204D02*
X152723773Y-93144804D01*
X152747572Y-93150765D01*
X152770671Y-93159030D01*
X152792850Y-93169520D01*
X152813893Y-93182132D01*
X152833599Y-93196747D01*
X152851777Y-93213223D01*
X152868253Y-93231401D01*
X152882868Y-93251107D01*
X152895480Y-93272150D01*
X152905970Y-93294329D01*
X152914235Y-93317428D01*
X152920196Y-93341227D01*
X152923796Y-93365495D01*
X152925000Y-93389999D01*
X152925000Y-94290001D01*
X152923796Y-94314505D01*
X152920196Y-94338773D01*
X152914235Y-94362572D01*
X152905970Y-94385671D01*
X152895480Y-94407850D01*
X152882868Y-94428893D01*
X152868253Y-94448599D01*
X152851777Y-94466777D01*
X152833599Y-94483253D01*
X152813893Y-94497868D01*
X152792850Y-94510480D01*
X152770671Y-94520970D01*
X152747572Y-94529235D01*
X152723773Y-94535196D01*
X152699505Y-94538796D01*
X152675001Y-94540000D01*
X152024999Y-94540000D01*
X152000495Y-94538796D01*
X151976227Y-94535196D01*
X151952428Y-94529235D01*
X151929329Y-94520970D01*
X151907150Y-94510480D01*
X151886107Y-94497868D01*
X151866401Y-94483253D01*
X151848223Y-94466777D01*
X151831747Y-94448599D01*
X151817132Y-94428893D01*
X151804520Y-94407850D01*
X151794030Y-94385671D01*
X151785765Y-94362572D01*
X151779804Y-94338773D01*
X151776204Y-94314505D01*
X151775000Y-94290001D01*
X151775000Y-93389999D01*
X151776204Y-93365495D01*
X151779804Y-93341227D01*
X151785765Y-93317428D01*
X151794030Y-93294329D01*
X151804520Y-93272150D01*
X151817132Y-93251107D01*
X151831747Y-93231401D01*
X151848223Y-93213223D01*
X151866401Y-93196747D01*
X151886107Y-93182132D01*
X151907150Y-93169520D01*
X151929329Y-93159030D01*
X151952428Y-93150765D01*
X151976227Y-93144804D01*
X152000495Y-93141204D01*
X152024999Y-93140000D01*
X152675001Y-93140000D01*
X152699505Y-93141204D01*
X152699505Y-93141204D01*
G37*
D15*
G04 #@! TD*
G04 #@! TO.P,C10,2*
G04 #@! TO.N,GND*
X152350000Y-93840000D03*
D16*
G04 #@! TO.P,U3,1*
G04 #@! TO.N,/~HI~*
X154400000Y-101230000D03*
G04 #@! TO.P,U3,2*
G04 #@! TO.N,Net-(U2-Pad5)*
X155670000Y-101230000D03*
G04 #@! TO.P,U3,3*
G04 #@! TO.N,/~LO~*
X156940000Y-101230000D03*
G04 #@! TO.P,U3,4*
G04 #@! TO.N,Net-(U2-Pad6)*
X158210000Y-101230000D03*
G04 #@! TO.P,U3,5*
G04 #@! TO.N,GND*
X159480000Y-101230000D03*
G04 #@! TO.P,U3,6*
G04 #@! TO.N,Net-(U3-Pad6)*
X160750000Y-101230000D03*
G04 #@! TO.P,U3,7*
G04 #@! TO.N,GND*
X162020000Y-101230000D03*
G04 #@! TO.P,U3,8*
G04 #@! TO.N,Net-(U3-Pad8)*
X162020000Y-95830000D03*
G04 #@! TO.P,U3,9*
G04 #@! TO.N,GND*
X160750000Y-95830000D03*
G04 #@! TO.P,U3,10*
G04 #@! TO.N,Net-(U3-Pad10)*
X159480000Y-95830000D03*
G04 #@! TO.P,U3,11*
G04 #@! TO.N,+5V*
X158210000Y-95830000D03*
G04 #@! TO.P,U3,12*
G04 #@! TO.N,Net-(U3-Pad12)*
X156940000Y-95830000D03*
G04 #@! TO.P,U3,13*
G04 #@! TO.N,+5V*
X155670000Y-95830000D03*
G04 #@! TO.P,U3,14*
X154400000Y-95830000D03*
G04 #@! TD*
D17*
G04 #@! TO.P,J3,3*
G04 #@! TO.N,/HI_SRC*
X149160072Y-91715293D03*
G04 #@! TO.P,J3,2*
G04 #@! TO.N,Net-(J3-Pad2)*
X146620072Y-91715293D03*
D18*
G04 #@! TO.P,J3,1*
G04 #@! TO.N,/HI_GATE*
X144080072Y-91715293D03*
G04 #@! TD*
G04 #@! TO.P,J4,1*
G04 #@! TO.N,/LO_GATE*
X168210072Y-91865293D03*
D17*
G04 #@! TO.P,J4,2*
G04 #@! TO.N,Net-(J4-Pad2)*
X170750072Y-91865293D03*
G04 #@! TO.P,J4,3*
G04 #@! TO.N,GND*
X173290072Y-91865293D03*
G04 #@! TD*
D19*
G04 #@! TO.P,MH2,1*
G04 #@! TO.N,Net-(C7-Pad1)*
X176539082Y-116069303D03*
X175880072Y-117660293D03*
X176539082Y-119251283D03*
X178130072Y-119910293D03*
X179721062Y-119251283D03*
X180380072Y-117660293D03*
X179721062Y-116069303D03*
X178130072Y-115410293D03*
D20*
X178130072Y-117660293D03*
G04 #@! TD*
G04 #@! TO.P,MH4,1*
G04 #@! TO.N,Net-(C9-Pad1)*
X138130072Y-117660293D03*
D19*
X138130072Y-115410293D03*
X139721062Y-116069303D03*
X140380072Y-117660293D03*
X139721062Y-119251283D03*
X138130072Y-119910293D03*
X136539082Y-119251283D03*
X135880072Y-117660293D03*
X136539082Y-116069303D03*
G04 #@! TD*
G04 #@! TO.P,MH1,1*
G04 #@! TO.N,Net-(C6-Pad1)*
X176539082Y-96069303D03*
X175880072Y-97660293D03*
X176539082Y-99251283D03*
X178130072Y-99910293D03*
X179721062Y-99251283D03*
X180380072Y-97660293D03*
X179721062Y-96069303D03*
X178130072Y-95410293D03*
D20*
X178130072Y-97660293D03*
G04 #@! TD*
G04 #@! TO.P,MH3,1*
G04 #@! TO.N,Net-(C8-Pad1)*
X138130072Y-97660293D03*
D19*
X138130072Y-95410293D03*
X139721062Y-96069303D03*
X140380072Y-97660293D03*
X139721062Y-99251283D03*
X138130072Y-99910293D03*
X136539082Y-99251283D03*
X135880072Y-97660293D03*
X136539082Y-96069303D03*
G04 #@! TD*
D21*
G04 #@! TO.P,U1,1*
G04 #@! TO.N,+5V*
X158685072Y-111135293D03*
G04 #@! TO.P,U1,2*
G04 #@! TO.N,/~HI~*
X159955072Y-111135293D03*
G04 #@! TO.P,U1,3*
G04 #@! TO.N,/HI+*
X161225072Y-111135293D03*
G04 #@! TO.P,U1,4*
G04 #@! TO.N,/HI-*
X162495072Y-111135293D03*
G04 #@! TO.P,U1,5*
G04 #@! TO.N,GND*
X162495072Y-105735293D03*
G04 #@! TO.P,U1,6*
G04 #@! TO.N,/~LO~*
X161225072Y-105735293D03*
G04 #@! TO.P,U1,7*
G04 #@! TO.N,/LO+*
X159955072Y-105735293D03*
G04 #@! TO.P,U1,8*
G04 #@! TO.N,/LO-*
X158685072Y-105735293D03*
G04 #@! TD*
D22*
G04 #@! TO.P,J2,1*
G04 #@! TO.N,+12V*
X157575000Y-91545000D03*
D23*
G04 #@! TO.P,J2,2*
G04 #@! TO.N,GND*
X160115000Y-91545000D03*
G04 #@! TD*
D14*
G04 #@! TO.N,+5V*
G04 #@! TO.C,C1*
G36*
X157254577Y-111756497D02*
X157278845Y-111760097D01*
X157302644Y-111766058D01*
X157325743Y-111774323D01*
X157347922Y-111784813D01*
X157368965Y-111797425D01*
X157388671Y-111812040D01*
X157406849Y-111828516D01*
X157423325Y-111846694D01*
X157437940Y-111866400D01*
X157450552Y-111887443D01*
X157461042Y-111909622D01*
X157469307Y-111932721D01*
X157475268Y-111956520D01*
X157478868Y-111980788D01*
X157480072Y-112005292D01*
X157480072Y-112655294D01*
X157478868Y-112679798D01*
X157475268Y-112704066D01*
X157469307Y-112727865D01*
X157461042Y-112750964D01*
X157450552Y-112773143D01*
X157437940Y-112794186D01*
X157423325Y-112813892D01*
X157406849Y-112832070D01*
X157388671Y-112848546D01*
X157368965Y-112863161D01*
X157347922Y-112875773D01*
X157325743Y-112886263D01*
X157302644Y-112894528D01*
X157278845Y-112900489D01*
X157254577Y-112904089D01*
X157230073Y-112905293D01*
X156330071Y-112905293D01*
X156305567Y-112904089D01*
X156281299Y-112900489D01*
X156257500Y-112894528D01*
X156234401Y-112886263D01*
X156212222Y-112875773D01*
X156191179Y-112863161D01*
X156171473Y-112848546D01*
X156153295Y-112832070D01*
X156136819Y-112813892D01*
X156122204Y-112794186D01*
X156109592Y-112773143D01*
X156099102Y-112750964D01*
X156090837Y-112727865D01*
X156084876Y-112704066D01*
X156081276Y-112679798D01*
X156080072Y-112655294D01*
X156080072Y-112005292D01*
X156081276Y-111980788D01*
X156084876Y-111956520D01*
X156090837Y-111932721D01*
X156099102Y-111909622D01*
X156109592Y-111887443D01*
X156122204Y-111866400D01*
X156136819Y-111846694D01*
X156153295Y-111828516D01*
X156171473Y-111812040D01*
X156191179Y-111797425D01*
X156212222Y-111784813D01*
X156234401Y-111774323D01*
X156257500Y-111766058D01*
X156281299Y-111760097D01*
X156305567Y-111756497D01*
X156330071Y-111755293D01*
X157230073Y-111755293D01*
X157254577Y-111756497D01*
X157254577Y-111756497D01*
G37*
D15*
G04 #@! TD*
G04 #@! TO.P,C1,1*
G04 #@! TO.N,+5V*
X156780072Y-112330293D03*
D14*
G04 #@! TO.N,GND*
G04 #@! TO.C,C1*
G36*
X157254577Y-109706497D02*
X157278845Y-109710097D01*
X157302644Y-109716058D01*
X157325743Y-109724323D01*
X157347922Y-109734813D01*
X157368965Y-109747425D01*
X157388671Y-109762040D01*
X157406849Y-109778516D01*
X157423325Y-109796694D01*
X157437940Y-109816400D01*
X157450552Y-109837443D01*
X157461042Y-109859622D01*
X157469307Y-109882721D01*
X157475268Y-109906520D01*
X157478868Y-109930788D01*
X157480072Y-109955292D01*
X157480072Y-110605294D01*
X157478868Y-110629798D01*
X157475268Y-110654066D01*
X157469307Y-110677865D01*
X157461042Y-110700964D01*
X157450552Y-110723143D01*
X157437940Y-110744186D01*
X157423325Y-110763892D01*
X157406849Y-110782070D01*
X157388671Y-110798546D01*
X157368965Y-110813161D01*
X157347922Y-110825773D01*
X157325743Y-110836263D01*
X157302644Y-110844528D01*
X157278845Y-110850489D01*
X157254577Y-110854089D01*
X157230073Y-110855293D01*
X156330071Y-110855293D01*
X156305567Y-110854089D01*
X156281299Y-110850489D01*
X156257500Y-110844528D01*
X156234401Y-110836263D01*
X156212222Y-110825773D01*
X156191179Y-110813161D01*
X156171473Y-110798546D01*
X156153295Y-110782070D01*
X156136819Y-110763892D01*
X156122204Y-110744186D01*
X156109592Y-110723143D01*
X156099102Y-110700964D01*
X156090837Y-110677865D01*
X156084876Y-110654066D01*
X156081276Y-110629798D01*
X156080072Y-110605294D01*
X156080072Y-109955292D01*
X156081276Y-109930788D01*
X156084876Y-109906520D01*
X156090837Y-109882721D01*
X156099102Y-109859622D01*
X156109592Y-109837443D01*
X156122204Y-109816400D01*
X156136819Y-109796694D01*
X156153295Y-109778516D01*
X156171473Y-109762040D01*
X156191179Y-109747425D01*
X156212222Y-109734813D01*
X156234401Y-109724323D01*
X156257500Y-109716058D01*
X156281299Y-109710097D01*
X156305567Y-109706497D01*
X156330071Y-109705293D01*
X157230073Y-109705293D01*
X157254577Y-109706497D01*
X157254577Y-109706497D01*
G37*
D15*
G04 #@! TD*
G04 #@! TO.P,C1,2*
G04 #@! TO.N,GND*
X156780072Y-110280293D03*
D24*
G04 #@! TO.P,C2,2*
G04 #@! TO.N,GND*
X162755072Y-117265293D03*
G04 #@! TO.P,C2,1*
G04 #@! TO.N,+5V*
X157155072Y-117265293D03*
G04 #@! TD*
D25*
G04 #@! TO.P,C3,1*
G04 #@! TO.N,+12V*
X149400000Y-97000000D03*
G04 #@! TO.P,C3,2*
G04 #@! TO.N,GND*
X149400000Y-102600000D03*
G04 #@! TD*
D14*
G04 #@! TO.N,GND*
G04 #@! TO.C,C4*
G36*
X148364577Y-109951497D02*
X148388845Y-109955097D01*
X148412644Y-109961058D01*
X148435743Y-109969323D01*
X148457922Y-109979813D01*
X148478965Y-109992425D01*
X148498671Y-110007040D01*
X148516849Y-110023516D01*
X148533325Y-110041694D01*
X148547940Y-110061400D01*
X148560552Y-110082443D01*
X148571042Y-110104622D01*
X148579307Y-110127721D01*
X148585268Y-110151520D01*
X148588868Y-110175788D01*
X148590072Y-110200292D01*
X148590072Y-110850294D01*
X148588868Y-110874798D01*
X148585268Y-110899066D01*
X148579307Y-110922865D01*
X148571042Y-110945964D01*
X148560552Y-110968143D01*
X148547940Y-110989186D01*
X148533325Y-111008892D01*
X148516849Y-111027070D01*
X148498671Y-111043546D01*
X148478965Y-111058161D01*
X148457922Y-111070773D01*
X148435743Y-111081263D01*
X148412644Y-111089528D01*
X148388845Y-111095489D01*
X148364577Y-111099089D01*
X148340073Y-111100293D01*
X147440071Y-111100293D01*
X147415567Y-111099089D01*
X147391299Y-111095489D01*
X147367500Y-111089528D01*
X147344401Y-111081263D01*
X147322222Y-111070773D01*
X147301179Y-111058161D01*
X147281473Y-111043546D01*
X147263295Y-111027070D01*
X147246819Y-111008892D01*
X147232204Y-110989186D01*
X147219592Y-110968143D01*
X147209102Y-110945964D01*
X147200837Y-110922865D01*
X147194876Y-110899066D01*
X147191276Y-110874798D01*
X147190072Y-110850294D01*
X147190072Y-110200292D01*
X147191276Y-110175788D01*
X147194876Y-110151520D01*
X147200837Y-110127721D01*
X147209102Y-110104622D01*
X147219592Y-110082443D01*
X147232204Y-110061400D01*
X147246819Y-110041694D01*
X147263295Y-110023516D01*
X147281473Y-110007040D01*
X147301179Y-109992425D01*
X147322222Y-109979813D01*
X147344401Y-109969323D01*
X147367500Y-109961058D01*
X147391299Y-109955097D01*
X147415567Y-109951497D01*
X147440071Y-109950293D01*
X148340073Y-109950293D01*
X148364577Y-109951497D01*
X148364577Y-109951497D01*
G37*
D15*
G04 #@! TD*
G04 #@! TO.P,C4,2*
G04 #@! TO.N,GND*
X147890072Y-110525293D03*
D14*
G04 #@! TO.N,+12V*
G04 #@! TO.C,C4*
G36*
X148364577Y-107901497D02*
X148388845Y-107905097D01*
X148412644Y-107911058D01*
X148435743Y-107919323D01*
X148457922Y-107929813D01*
X148478965Y-107942425D01*
X148498671Y-107957040D01*
X148516849Y-107973516D01*
X148533325Y-107991694D01*
X148547940Y-108011400D01*
X148560552Y-108032443D01*
X148571042Y-108054622D01*
X148579307Y-108077721D01*
X148585268Y-108101520D01*
X148588868Y-108125788D01*
X148590072Y-108150292D01*
X148590072Y-108800294D01*
X148588868Y-108824798D01*
X148585268Y-108849066D01*
X148579307Y-108872865D01*
X148571042Y-108895964D01*
X148560552Y-108918143D01*
X148547940Y-108939186D01*
X148533325Y-108958892D01*
X148516849Y-108977070D01*
X148498671Y-108993546D01*
X148478965Y-109008161D01*
X148457922Y-109020773D01*
X148435743Y-109031263D01*
X148412644Y-109039528D01*
X148388845Y-109045489D01*
X148364577Y-109049089D01*
X148340073Y-109050293D01*
X147440071Y-109050293D01*
X147415567Y-109049089D01*
X147391299Y-109045489D01*
X147367500Y-109039528D01*
X147344401Y-109031263D01*
X147322222Y-109020773D01*
X147301179Y-109008161D01*
X147281473Y-108993546D01*
X147263295Y-108977070D01*
X147246819Y-108958892D01*
X147232204Y-108939186D01*
X147219592Y-108918143D01*
X147209102Y-108895964D01*
X147200837Y-108872865D01*
X147194876Y-108849066D01*
X147191276Y-108824798D01*
X147190072Y-108800294D01*
X147190072Y-108150292D01*
X147191276Y-108125788D01*
X147194876Y-108101520D01*
X147200837Y-108077721D01*
X147209102Y-108054622D01*
X147219592Y-108032443D01*
X147232204Y-108011400D01*
X147246819Y-107991694D01*
X147263295Y-107973516D01*
X147281473Y-107957040D01*
X147301179Y-107942425D01*
X147322222Y-107929813D01*
X147344401Y-107919323D01*
X147367500Y-107911058D01*
X147391299Y-107905097D01*
X147415567Y-107901497D01*
X147440071Y-107900293D01*
X148340073Y-107900293D01*
X148364577Y-107901497D01*
X148364577Y-107901497D01*
G37*
D15*
G04 #@! TD*
G04 #@! TO.P,C4,1*
G04 #@! TO.N,+12V*
X147890072Y-108475293D03*
D24*
G04 #@! TO.P,C5,1*
G04 #@! TO.N,Net-(C5-Pad1)*
X146995072Y-117265293D03*
G04 #@! TO.P,C5,2*
G04 #@! TO.N,/HI_SRC*
X152595072Y-117265293D03*
G04 #@! TD*
D26*
G04 #@! TO.P,J1,1*
G04 #@! TO.N,+5V*
X169480072Y-117265293D03*
D27*
G04 #@! TO.P,J1,2*
G04 #@! TO.N,GND*
X169480072Y-114725293D03*
G04 #@! TO.P,J1,3*
G04 #@! TO.N,/HI+*
X169480072Y-112185293D03*
G04 #@! TO.P,J1,4*
G04 #@! TO.N,/HI-*
X169480072Y-109645293D03*
G04 #@! TO.P,J1,5*
G04 #@! TO.N,/LO+*
X169480072Y-107105293D03*
G04 #@! TO.P,J1,6*
G04 #@! TO.N,/LO-*
X169480072Y-104565293D03*
G04 #@! TD*
D28*
G04 #@! TO.P,U2,9*
G04 #@! TO.N,GND*
X151700072Y-108435293D03*
D29*
G04 #@! TD*
G04 #@! TO.N,GND*
G04 #@! TO.C,U2*
X151700072Y-108435293D03*
D21*
G04 #@! TO.P,U2,1*
G04 #@! TO.N,+12V*
X149795072Y-111135293D03*
G04 #@! TO.P,U2,2*
G04 #@! TO.N,Net-(C5-Pad1)*
X151065072Y-111135293D03*
G04 #@! TO.P,U2,3*
G04 #@! TO.N,/HI_GATE*
X152335072Y-111135293D03*
G04 #@! TO.P,U2,4*
G04 #@! TO.N,/HI_SRC*
X153605072Y-111135293D03*
G04 #@! TO.P,U2,5*
G04 #@! TO.N,Net-(U2-Pad5)*
X153605072Y-105735293D03*
G04 #@! TO.P,U2,6*
G04 #@! TO.N,Net-(U2-Pad6)*
X152335072Y-105735293D03*
G04 #@! TO.P,U2,7*
G04 #@! TO.N,GND*
X151065072Y-105735293D03*
G04 #@! TO.P,U2,8*
G04 #@! TO.N,/LO_GATE*
X149795072Y-105735293D03*
D30*
G04 #@! TD*
G04 #@! TO.N,GND*
G04 #@! TO.C,U2*
X149900072Y-109035293D03*
G04 #@! TO.N,GND*
G04 #@! TO.C,U2*
X151100072Y-109035293D03*
X151100072Y-107835293D03*
X149900072Y-107835293D03*
X153500072Y-109035293D03*
X152400072Y-109035293D03*
X152400072Y-107835293D03*
X153500072Y-107835293D03*
G04 #@! TD*
D31*
G04 #@! TO.N,+5V*
X174424072Y-104565293D03*
X174424072Y-107105293D03*
X174424072Y-109645293D03*
X174424072Y-112185293D03*
G04 #@! TO.N,GND*
X162495072Y-105735293D03*
X156780072Y-110280293D03*
X162755072Y-117265293D03*
X147890072Y-110525293D03*
X151065072Y-105735293D03*
X160750000Y-95830000D03*
X159480000Y-101230000D03*
X162020000Y-101230000D03*
X149400000Y-102600000D03*
X152350000Y-93840000D03*
G04 #@! TD*
D32*
G04 #@! TO.N,+5V*
X157975072Y-111135293D02*
X156780072Y-112330293D01*
X158685072Y-111135293D02*
X157975072Y-111135293D01*
X157155072Y-112705293D02*
X156780072Y-112330293D01*
X157155072Y-117265293D02*
X157155072Y-112705293D01*
X169710072Y-117265293D02*
X169480072Y-117265293D01*
X174424072Y-112551293D02*
X169710072Y-117265293D01*
X174424072Y-104565293D02*
X174424072Y-112551293D01*
X167755072Y-117265293D02*
X169480072Y-117265293D01*
X166442571Y-115952792D02*
X167755072Y-117265293D01*
X158105072Y-117265293D02*
X159417573Y-115952792D01*
X159417573Y-115952792D02*
X166442571Y-115952792D01*
X157155072Y-117265293D02*
X158105072Y-117265293D01*
X154400000Y-95830000D02*
X155670000Y-95830000D01*
X158210000Y-96532502D02*
X158210000Y-95830000D01*
X157650001Y-97092501D02*
X158210000Y-96532502D01*
X155670000Y-96532502D02*
X156229999Y-97092501D01*
X155670000Y-95830000D02*
X155670000Y-96532502D01*
X167751280Y-97092501D02*
X156305000Y-97092501D01*
X174424072Y-103765293D02*
X167751280Y-97092501D01*
X174424072Y-104565293D02*
X174424072Y-103765293D01*
X156229999Y-97092501D02*
X156305000Y-97092501D01*
X156305000Y-97092501D02*
X157650001Y-97092501D01*
X154400000Y-93840000D02*
X154400000Y-95830000D01*
G04 #@! TO.N,GND*
X151065072Y-107800293D02*
X151065072Y-105735293D01*
X151700072Y-108435293D02*
X151065072Y-107800293D01*
G04 #@! TO.N,+12V*
X147266700Y-109098665D02*
X147890072Y-108475293D01*
X146677562Y-111166137D02*
X146677562Y-109687803D01*
X147124228Y-111612803D02*
X146677562Y-111166137D01*
X149792562Y-111612803D02*
X147124228Y-111612803D01*
X149795072Y-111610293D02*
X149792562Y-111612803D01*
X146677562Y-109687803D02*
X147266700Y-109098665D01*
X149795072Y-111135293D02*
X149795072Y-111610293D01*
X147262488Y-100087512D02*
X149400000Y-97950000D01*
X147890072Y-108475293D02*
X147262488Y-107847709D01*
X149400000Y-97950000D02*
X149400000Y-97000000D01*
X147262488Y-107847709D02*
X147262488Y-100087512D01*
X151624905Y-91545000D02*
X156080000Y-91545000D01*
X149400000Y-97000000D02*
X149400000Y-93769905D01*
X149400000Y-93769905D02*
X151624905Y-91545000D01*
X156080000Y-91545000D02*
X157575000Y-91545000D01*
G04 #@! TO.N,Net-(C5-Pad1)*
X151065072Y-111770293D02*
X151065072Y-111135293D01*
X146995072Y-115840293D02*
X151065072Y-111770293D01*
X146995072Y-117265293D02*
X146995072Y-115840293D01*
G04 #@! TO.N,/HI+*
X161225072Y-112297794D02*
X161422572Y-112495294D01*
X161225072Y-111135293D02*
X161225072Y-112297794D01*
X161422572Y-112495294D02*
X161422572Y-113001513D01*
X161422572Y-113001513D02*
X162313852Y-113892793D01*
X166470009Y-113892793D02*
X168177509Y-112185293D01*
X168177509Y-112185293D02*
X169480072Y-112185293D01*
X162313852Y-113892793D02*
X166470009Y-113892793D01*
G04 #@! TO.N,/HI-*
X162495072Y-111135293D02*
X162495072Y-112297794D01*
X162495072Y-112297794D02*
X162297572Y-112495294D01*
X162297572Y-112495294D02*
X162297572Y-112639073D01*
X162297572Y-112639073D02*
X162676292Y-113017793D01*
X162676292Y-113017793D02*
X166107572Y-113017793D01*
X166107572Y-113017793D02*
X167558790Y-111566575D01*
X167558790Y-111566575D02*
X169480072Y-109645293D01*
G04 #@! TO.N,/LO+*
X159955072Y-105260293D02*
X159757572Y-105062793D01*
X159757572Y-105062793D02*
X159757572Y-104746513D01*
X159955072Y-105735293D02*
X159955072Y-105260293D01*
X159757572Y-104746513D02*
X160771292Y-103732793D01*
X160771292Y-103732793D02*
X162948852Y-103732793D01*
X168380072Y-107105293D02*
X169480072Y-107105293D01*
X165488852Y-106272793D02*
X167547572Y-106272793D01*
X167547572Y-106272793D02*
X168380072Y-107105293D01*
X162948852Y-103732793D02*
X165488852Y-106272793D01*
G04 #@! TO.N,/LO-*
X158882572Y-105062793D02*
X158882572Y-104384073D01*
X158685072Y-105260293D02*
X158882572Y-105062793D01*
X158685072Y-105735293D02*
X158685072Y-105260293D01*
X158882572Y-104384073D02*
X160408852Y-102857793D01*
X160408852Y-102857793D02*
X163311292Y-102857793D01*
X163311292Y-102857793D02*
X165851292Y-105397793D01*
X167547572Y-105397793D02*
X168380072Y-104565293D01*
X165851292Y-105397793D02*
X167547572Y-105397793D01*
X168380072Y-104565293D02*
X169480072Y-104565293D01*
G04 #@! TO.N,/HI_GATE*
X152335072Y-112535293D02*
X149795072Y-115075293D01*
X152335072Y-111135293D02*
X152335072Y-112535293D01*
X149795072Y-117937795D02*
X148562574Y-119170293D01*
X149795072Y-115075293D02*
X149795072Y-117937795D01*
X148562574Y-119170293D02*
X144715072Y-119170293D01*
X144080072Y-118535293D02*
X144080072Y-91715293D01*
X144715072Y-119170293D02*
X144080072Y-118535293D01*
G04 #@! TO.N,/HI_SRC*
X153605072Y-116255293D02*
X152595072Y-117265293D01*
X153605072Y-111135293D02*
X153605072Y-116255293D01*
X142810072Y-89960293D02*
X147405072Y-89960293D01*
X141540072Y-93135293D02*
X141540072Y-91230293D01*
X142810072Y-94405293D02*
X141540072Y-93135293D01*
X147405072Y-89960293D02*
X149160072Y-91715293D01*
X142810072Y-119170293D02*
X142810072Y-94405293D01*
X152595072Y-117265293D02*
X152595072Y-118690293D01*
X152595072Y-118690293D02*
X150845072Y-120440293D01*
X150845072Y-120440293D02*
X144080072Y-120440293D01*
X141540072Y-91230293D02*
X142810072Y-89960293D01*
X144080072Y-120440293D02*
X142810072Y-119170293D01*
G04 #@! TO.N,/LO_GATE*
X149264997Y-99262501D02*
X150610001Y-99262501D01*
X148189999Y-104862501D02*
X148087499Y-104760001D01*
X151262490Y-98610012D02*
X151262490Y-93074156D01*
X151709156Y-92627490D02*
X155764988Y-92627490D01*
X149795072Y-105735293D02*
X148870072Y-105735293D01*
X151262490Y-93074156D02*
X151709156Y-92627490D01*
X155764988Y-92627490D02*
X156940000Y-93802502D01*
X164797863Y-93802502D02*
X166735072Y-91865293D01*
X166735072Y-91865293D02*
X168210072Y-91865293D01*
X150610001Y-99262501D02*
X151262490Y-98610012D01*
X148087499Y-100439999D02*
X149264997Y-99262501D01*
X156940000Y-93802502D02*
X164797863Y-93802502D01*
X148870072Y-105735293D02*
X148189999Y-105055220D01*
X148087499Y-104760001D02*
X148087499Y-100439999D01*
X148189999Y-105055220D02*
X148189999Y-104862501D01*
G04 #@! TO.N,Net-(U2-Pad5)*
X153689999Y-99967499D02*
X153574990Y-100082508D01*
X155670000Y-101230000D02*
X155670000Y-100527498D01*
X153574990Y-100082508D02*
X153574990Y-105705211D01*
X155110001Y-99967499D02*
X153689999Y-99967499D01*
X153574990Y-105705211D02*
X153605072Y-105735293D01*
X155670000Y-100527498D02*
X155110001Y-99967499D01*
G04 #@! TO.N,Net-(U2-Pad6)*
X158210000Y-99855000D02*
X157497488Y-99142488D01*
X157497488Y-99142488D02*
X153348269Y-99142488D01*
X153348269Y-99142488D02*
X153325757Y-99165000D01*
X158210000Y-101230000D02*
X158210000Y-99855000D01*
X153325757Y-99165000D02*
X153130000Y-99165000D01*
X152335072Y-99959928D02*
X152335072Y-105735293D01*
X153130000Y-99165000D02*
X152335072Y-99959928D01*
G04 #@! TO.N,/~HI~*
X154400000Y-104614464D02*
X159955072Y-110169536D01*
X154400000Y-101230000D02*
X154400000Y-104614464D01*
X159955072Y-110169536D02*
X159955072Y-111135293D01*
G04 #@! TO.N,/~LO~*
X157872571Y-106089532D02*
X157860061Y-106077022D01*
X157860061Y-106077022D02*
X157860061Y-103525061D01*
X157860061Y-103525061D02*
X156940000Y-102605000D01*
X156940000Y-102605000D02*
X156940000Y-101230000D01*
X157872571Y-106920294D02*
X157872571Y-106089532D01*
X157975071Y-107022794D02*
X157872571Y-106920294D01*
X161225072Y-106462795D02*
X160665073Y-107022794D01*
X160665073Y-107022794D02*
X157975071Y-107022794D01*
X161225072Y-105735293D02*
X161225072Y-106462795D01*
G04 #@! TD*
M02*
